G04 #@! TF.GenerationSoftware,KiCad,Pcbnew,(5.0.0-3-g5ebb6b6)*
G04 #@! TF.CreationDate,2018-10-15T13:07:59-06:00*
G04 #@! TF.ProjectId,DS_Special_Object,44535F5370656369616C5F4F626A6563,rev?*
G04 #@! TF.SameCoordinates,Original*
G04 #@! TF.FileFunction,Copper,L1,Top,Signal*
G04 #@! TF.FilePolarity,Positive*
%FSLAX46Y46*%
G04 Gerber Fmt 4.6, Leading zero omitted, Abs format (unit mm)*
G04 Created by KiCad (PCBNEW (5.0.0-3-g5ebb6b6)) date Monday, October 15, 2018 at 01:07:59 PM*
%MOMM*%
%LPD*%
G01*
G04 APERTURE LIST*
G04 #@! TA.AperFunction,SMDPad,CuDef*
%ADD10R,1.500000X3.600000*%
G04 #@! TD*
G04 #@! TA.AperFunction,Conductor*
%ADD11C,0.100000*%
G04 #@! TD*
G04 #@! TA.AperFunction,SMDPad,CuDef*
%ADD12C,0.875000*%
G04 #@! TD*
G04 #@! TA.AperFunction,ComponentPad*
%ADD13O,2.200000X1.700000*%
G04 #@! TD*
G04 #@! TA.AperFunction,ComponentPad*
%ADD14R,2.200000X1.700000*%
G04 #@! TD*
G04 #@! TA.AperFunction,SMDPad,CuDef*
%ADD15R,0.998220X4.599940*%
G04 #@! TD*
G04 #@! TA.AperFunction,SMDPad,CuDef*
%ADD16R,1.597660X3.398520*%
G04 #@! TD*
G04 #@! TA.AperFunction,SMDPad,CuDef*
%ADD17R,0.900000X0.800000*%
G04 #@! TD*
G04 #@! TA.AperFunction,SMDPad,CuDef*
%ADD18R,0.698500X0.419100*%
G04 #@! TD*
G04 #@! TA.AperFunction,SMDPad,CuDef*
%ADD19R,0.299720X0.698500*%
G04 #@! TD*
G04 #@! TA.AperFunction,SMDPad,CuDef*
%ADD20R,1.379220X0.797560*%
G04 #@! TD*
G04 #@! TA.AperFunction,ComponentPad*
%ADD21C,1.879600*%
G04 #@! TD*
G04 #@! TA.AperFunction,WasherPad*
%ADD22C,3.556000*%
G04 #@! TD*
G04 #@! TA.AperFunction,SMDPad,CuDef*
%ADD23R,0.398780X1.099820*%
G04 #@! TD*
G04 #@! TA.AperFunction,SMDPad,CuDef*
%ADD24R,0.299720X1.447800*%
G04 #@! TD*
G04 #@! TA.AperFunction,SMDPad,CuDef*
%ADD25R,0.635000X1.270000*%
G04 #@! TD*
G04 #@! TA.AperFunction,ComponentPad*
%ADD26R,1.930400X1.930400*%
G04 #@! TD*
G04 #@! TA.AperFunction,ComponentPad*
%ADD27C,1.930400*%
G04 #@! TD*
G04 #@! TA.AperFunction,ViaPad*
%ADD28C,0.800000*%
G04 #@! TD*
G04 #@! TA.AperFunction,Conductor*
%ADD29C,0.250000*%
G04 #@! TD*
G04 #@! TA.AperFunction,Conductor*
%ADD30C,0.406000*%
G04 #@! TD*
G04 #@! TA.AperFunction,Conductor*
%ADD31C,0.508000*%
G04 #@! TD*
G04 #@! TA.AperFunction,Conductor*
%ADD32C,0.635000*%
G04 #@! TD*
G04 #@! TA.AperFunction,Conductor*
%ADD33C,0.254000*%
G04 #@! TD*
G04 APERTURE END LIST*
D10*
G04 #@! TO.P,L1,2*
G04 #@! TO.N,Net-(L1-Pad2)*
X69064000Y-165989000D03*
G04 #@! TO.P,L1,1*
G04 #@! TO.N,LIPO*
X66064000Y-165989000D03*
G04 #@! TD*
D11*
G04 #@! TO.N,GND*
G04 #@! TO.C,C1*
G36*
X61606691Y-166150053D02*
X61627926Y-166153203D01*
X61648750Y-166158419D01*
X61668962Y-166165651D01*
X61688368Y-166174830D01*
X61706781Y-166185866D01*
X61724024Y-166198654D01*
X61739930Y-166213070D01*
X61754346Y-166228976D01*
X61767134Y-166246219D01*
X61778170Y-166264632D01*
X61787349Y-166284038D01*
X61794581Y-166304250D01*
X61799797Y-166325074D01*
X61802947Y-166346309D01*
X61804000Y-166367750D01*
X61804000Y-166880250D01*
X61802947Y-166901691D01*
X61799797Y-166922926D01*
X61794581Y-166943750D01*
X61787349Y-166963962D01*
X61778170Y-166983368D01*
X61767134Y-167001781D01*
X61754346Y-167019024D01*
X61739930Y-167034930D01*
X61724024Y-167049346D01*
X61706781Y-167062134D01*
X61688368Y-167073170D01*
X61668962Y-167082349D01*
X61648750Y-167089581D01*
X61627926Y-167094797D01*
X61606691Y-167097947D01*
X61585250Y-167099000D01*
X61147750Y-167099000D01*
X61126309Y-167097947D01*
X61105074Y-167094797D01*
X61084250Y-167089581D01*
X61064038Y-167082349D01*
X61044632Y-167073170D01*
X61026219Y-167062134D01*
X61008976Y-167049346D01*
X60993070Y-167034930D01*
X60978654Y-167019024D01*
X60965866Y-167001781D01*
X60954830Y-166983368D01*
X60945651Y-166963962D01*
X60938419Y-166943750D01*
X60933203Y-166922926D01*
X60930053Y-166901691D01*
X60929000Y-166880250D01*
X60929000Y-166367750D01*
X60930053Y-166346309D01*
X60933203Y-166325074D01*
X60938419Y-166304250D01*
X60945651Y-166284038D01*
X60954830Y-166264632D01*
X60965866Y-166246219D01*
X60978654Y-166228976D01*
X60993070Y-166213070D01*
X61008976Y-166198654D01*
X61026219Y-166185866D01*
X61044632Y-166174830D01*
X61064038Y-166165651D01*
X61084250Y-166158419D01*
X61105074Y-166153203D01*
X61126309Y-166150053D01*
X61147750Y-166149000D01*
X61585250Y-166149000D01*
X61606691Y-166150053D01*
X61606691Y-166150053D01*
G37*
D12*
G04 #@! TD*
G04 #@! TO.P,C1,2*
G04 #@! TO.N,GND*
X61366500Y-166624000D03*
D11*
G04 #@! TO.N,LIPO*
G04 #@! TO.C,C1*
G36*
X60031691Y-166150053D02*
X60052926Y-166153203D01*
X60073750Y-166158419D01*
X60093962Y-166165651D01*
X60113368Y-166174830D01*
X60131781Y-166185866D01*
X60149024Y-166198654D01*
X60164930Y-166213070D01*
X60179346Y-166228976D01*
X60192134Y-166246219D01*
X60203170Y-166264632D01*
X60212349Y-166284038D01*
X60219581Y-166304250D01*
X60224797Y-166325074D01*
X60227947Y-166346309D01*
X60229000Y-166367750D01*
X60229000Y-166880250D01*
X60227947Y-166901691D01*
X60224797Y-166922926D01*
X60219581Y-166943750D01*
X60212349Y-166963962D01*
X60203170Y-166983368D01*
X60192134Y-167001781D01*
X60179346Y-167019024D01*
X60164930Y-167034930D01*
X60149024Y-167049346D01*
X60131781Y-167062134D01*
X60113368Y-167073170D01*
X60093962Y-167082349D01*
X60073750Y-167089581D01*
X60052926Y-167094797D01*
X60031691Y-167097947D01*
X60010250Y-167099000D01*
X59572750Y-167099000D01*
X59551309Y-167097947D01*
X59530074Y-167094797D01*
X59509250Y-167089581D01*
X59489038Y-167082349D01*
X59469632Y-167073170D01*
X59451219Y-167062134D01*
X59433976Y-167049346D01*
X59418070Y-167034930D01*
X59403654Y-167019024D01*
X59390866Y-167001781D01*
X59379830Y-166983368D01*
X59370651Y-166963962D01*
X59363419Y-166943750D01*
X59358203Y-166922926D01*
X59355053Y-166901691D01*
X59354000Y-166880250D01*
X59354000Y-166367750D01*
X59355053Y-166346309D01*
X59358203Y-166325074D01*
X59363419Y-166304250D01*
X59370651Y-166284038D01*
X59379830Y-166264632D01*
X59390866Y-166246219D01*
X59403654Y-166228976D01*
X59418070Y-166213070D01*
X59433976Y-166198654D01*
X59451219Y-166185866D01*
X59469632Y-166174830D01*
X59489038Y-166165651D01*
X59509250Y-166158419D01*
X59530074Y-166153203D01*
X59551309Y-166150053D01*
X59572750Y-166149000D01*
X60010250Y-166149000D01*
X60031691Y-166150053D01*
X60031691Y-166150053D01*
G37*
D12*
G04 #@! TD*
G04 #@! TO.P,C1,1*
G04 #@! TO.N,LIPO*
X59791500Y-166624000D03*
D11*
G04 #@! TO.N,GND*
G04 #@! TO.C,C2*
G36*
X61606691Y-168055053D02*
X61627926Y-168058203D01*
X61648750Y-168063419D01*
X61668962Y-168070651D01*
X61688368Y-168079830D01*
X61706781Y-168090866D01*
X61724024Y-168103654D01*
X61739930Y-168118070D01*
X61754346Y-168133976D01*
X61767134Y-168151219D01*
X61778170Y-168169632D01*
X61787349Y-168189038D01*
X61794581Y-168209250D01*
X61799797Y-168230074D01*
X61802947Y-168251309D01*
X61804000Y-168272750D01*
X61804000Y-168785250D01*
X61802947Y-168806691D01*
X61799797Y-168827926D01*
X61794581Y-168848750D01*
X61787349Y-168868962D01*
X61778170Y-168888368D01*
X61767134Y-168906781D01*
X61754346Y-168924024D01*
X61739930Y-168939930D01*
X61724024Y-168954346D01*
X61706781Y-168967134D01*
X61688368Y-168978170D01*
X61668962Y-168987349D01*
X61648750Y-168994581D01*
X61627926Y-168999797D01*
X61606691Y-169002947D01*
X61585250Y-169004000D01*
X61147750Y-169004000D01*
X61126309Y-169002947D01*
X61105074Y-168999797D01*
X61084250Y-168994581D01*
X61064038Y-168987349D01*
X61044632Y-168978170D01*
X61026219Y-168967134D01*
X61008976Y-168954346D01*
X60993070Y-168939930D01*
X60978654Y-168924024D01*
X60965866Y-168906781D01*
X60954830Y-168888368D01*
X60945651Y-168868962D01*
X60938419Y-168848750D01*
X60933203Y-168827926D01*
X60930053Y-168806691D01*
X60929000Y-168785250D01*
X60929000Y-168272750D01*
X60930053Y-168251309D01*
X60933203Y-168230074D01*
X60938419Y-168209250D01*
X60945651Y-168189038D01*
X60954830Y-168169632D01*
X60965866Y-168151219D01*
X60978654Y-168133976D01*
X60993070Y-168118070D01*
X61008976Y-168103654D01*
X61026219Y-168090866D01*
X61044632Y-168079830D01*
X61064038Y-168070651D01*
X61084250Y-168063419D01*
X61105074Y-168058203D01*
X61126309Y-168055053D01*
X61147750Y-168054000D01*
X61585250Y-168054000D01*
X61606691Y-168055053D01*
X61606691Y-168055053D01*
G37*
D12*
G04 #@! TD*
G04 #@! TO.P,C2,2*
G04 #@! TO.N,GND*
X61366500Y-168529000D03*
D11*
G04 #@! TO.N,LIPO*
G04 #@! TO.C,C2*
G36*
X60031691Y-168055053D02*
X60052926Y-168058203D01*
X60073750Y-168063419D01*
X60093962Y-168070651D01*
X60113368Y-168079830D01*
X60131781Y-168090866D01*
X60149024Y-168103654D01*
X60164930Y-168118070D01*
X60179346Y-168133976D01*
X60192134Y-168151219D01*
X60203170Y-168169632D01*
X60212349Y-168189038D01*
X60219581Y-168209250D01*
X60224797Y-168230074D01*
X60227947Y-168251309D01*
X60229000Y-168272750D01*
X60229000Y-168785250D01*
X60227947Y-168806691D01*
X60224797Y-168827926D01*
X60219581Y-168848750D01*
X60212349Y-168868962D01*
X60203170Y-168888368D01*
X60192134Y-168906781D01*
X60179346Y-168924024D01*
X60164930Y-168939930D01*
X60149024Y-168954346D01*
X60131781Y-168967134D01*
X60113368Y-168978170D01*
X60093962Y-168987349D01*
X60073750Y-168994581D01*
X60052926Y-168999797D01*
X60031691Y-169002947D01*
X60010250Y-169004000D01*
X59572750Y-169004000D01*
X59551309Y-169002947D01*
X59530074Y-168999797D01*
X59509250Y-168994581D01*
X59489038Y-168987349D01*
X59469632Y-168978170D01*
X59451219Y-168967134D01*
X59433976Y-168954346D01*
X59418070Y-168939930D01*
X59403654Y-168924024D01*
X59390866Y-168906781D01*
X59379830Y-168888368D01*
X59370651Y-168868962D01*
X59363419Y-168848750D01*
X59358203Y-168827926D01*
X59355053Y-168806691D01*
X59354000Y-168785250D01*
X59354000Y-168272750D01*
X59355053Y-168251309D01*
X59358203Y-168230074D01*
X59363419Y-168209250D01*
X59370651Y-168189038D01*
X59379830Y-168169632D01*
X59390866Y-168151219D01*
X59403654Y-168133976D01*
X59418070Y-168118070D01*
X59433976Y-168103654D01*
X59451219Y-168090866D01*
X59469632Y-168079830D01*
X59489038Y-168070651D01*
X59509250Y-168063419D01*
X59530074Y-168058203D01*
X59551309Y-168055053D01*
X59572750Y-168054000D01*
X60010250Y-168054000D01*
X60031691Y-168055053D01*
X60031691Y-168055053D01*
G37*
D12*
G04 #@! TD*
G04 #@! TO.P,C2,1*
G04 #@! TO.N,LIPO*
X59791500Y-168529000D03*
D11*
G04 #@! TO.N,Net-(R1-Pad2)*
G04 #@! TO.C,R1*
G36*
X65975191Y-176310053D02*
X65996426Y-176313203D01*
X66017250Y-176318419D01*
X66037462Y-176325651D01*
X66056868Y-176334830D01*
X66075281Y-176345866D01*
X66092524Y-176358654D01*
X66108430Y-176373070D01*
X66122846Y-176388976D01*
X66135634Y-176406219D01*
X66146670Y-176424632D01*
X66155849Y-176444038D01*
X66163081Y-176464250D01*
X66168297Y-176485074D01*
X66171447Y-176506309D01*
X66172500Y-176527750D01*
X66172500Y-177040250D01*
X66171447Y-177061691D01*
X66168297Y-177082926D01*
X66163081Y-177103750D01*
X66155849Y-177123962D01*
X66146670Y-177143368D01*
X66135634Y-177161781D01*
X66122846Y-177179024D01*
X66108430Y-177194930D01*
X66092524Y-177209346D01*
X66075281Y-177222134D01*
X66056868Y-177233170D01*
X66037462Y-177242349D01*
X66017250Y-177249581D01*
X65996426Y-177254797D01*
X65975191Y-177257947D01*
X65953750Y-177259000D01*
X65516250Y-177259000D01*
X65494809Y-177257947D01*
X65473574Y-177254797D01*
X65452750Y-177249581D01*
X65432538Y-177242349D01*
X65413132Y-177233170D01*
X65394719Y-177222134D01*
X65377476Y-177209346D01*
X65361570Y-177194930D01*
X65347154Y-177179024D01*
X65334366Y-177161781D01*
X65323330Y-177143368D01*
X65314151Y-177123962D01*
X65306919Y-177103750D01*
X65301703Y-177082926D01*
X65298553Y-177061691D01*
X65297500Y-177040250D01*
X65297500Y-176527750D01*
X65298553Y-176506309D01*
X65301703Y-176485074D01*
X65306919Y-176464250D01*
X65314151Y-176444038D01*
X65323330Y-176424632D01*
X65334366Y-176406219D01*
X65347154Y-176388976D01*
X65361570Y-176373070D01*
X65377476Y-176358654D01*
X65394719Y-176345866D01*
X65413132Y-176334830D01*
X65432538Y-176325651D01*
X65452750Y-176318419D01*
X65473574Y-176313203D01*
X65494809Y-176310053D01*
X65516250Y-176309000D01*
X65953750Y-176309000D01*
X65975191Y-176310053D01*
X65975191Y-176310053D01*
G37*
D12*
G04 #@! TD*
G04 #@! TO.P,R1,2*
G04 #@! TO.N,Net-(R1-Pad2)*
X65735000Y-176784000D03*
D11*
G04 #@! TO.N,+5V*
G04 #@! TO.C,R1*
G36*
X67550191Y-176310053D02*
X67571426Y-176313203D01*
X67592250Y-176318419D01*
X67612462Y-176325651D01*
X67631868Y-176334830D01*
X67650281Y-176345866D01*
X67667524Y-176358654D01*
X67683430Y-176373070D01*
X67697846Y-176388976D01*
X67710634Y-176406219D01*
X67721670Y-176424632D01*
X67730849Y-176444038D01*
X67738081Y-176464250D01*
X67743297Y-176485074D01*
X67746447Y-176506309D01*
X67747500Y-176527750D01*
X67747500Y-177040250D01*
X67746447Y-177061691D01*
X67743297Y-177082926D01*
X67738081Y-177103750D01*
X67730849Y-177123962D01*
X67721670Y-177143368D01*
X67710634Y-177161781D01*
X67697846Y-177179024D01*
X67683430Y-177194930D01*
X67667524Y-177209346D01*
X67650281Y-177222134D01*
X67631868Y-177233170D01*
X67612462Y-177242349D01*
X67592250Y-177249581D01*
X67571426Y-177254797D01*
X67550191Y-177257947D01*
X67528750Y-177259000D01*
X67091250Y-177259000D01*
X67069809Y-177257947D01*
X67048574Y-177254797D01*
X67027750Y-177249581D01*
X67007538Y-177242349D01*
X66988132Y-177233170D01*
X66969719Y-177222134D01*
X66952476Y-177209346D01*
X66936570Y-177194930D01*
X66922154Y-177179024D01*
X66909366Y-177161781D01*
X66898330Y-177143368D01*
X66889151Y-177123962D01*
X66881919Y-177103750D01*
X66876703Y-177082926D01*
X66873553Y-177061691D01*
X66872500Y-177040250D01*
X66872500Y-176527750D01*
X66873553Y-176506309D01*
X66876703Y-176485074D01*
X66881919Y-176464250D01*
X66889151Y-176444038D01*
X66898330Y-176424632D01*
X66909366Y-176406219D01*
X66922154Y-176388976D01*
X66936570Y-176373070D01*
X66952476Y-176358654D01*
X66969719Y-176345866D01*
X66988132Y-176334830D01*
X67007538Y-176325651D01*
X67027750Y-176318419D01*
X67048574Y-176313203D01*
X67069809Y-176310053D01*
X67091250Y-176309000D01*
X67528750Y-176309000D01*
X67550191Y-176310053D01*
X67550191Y-176310053D01*
G37*
D12*
G04 #@! TD*
G04 #@! TO.P,R1,1*
G04 #@! TO.N,+5V*
X67310000Y-176784000D03*
D11*
G04 #@! TO.N,Net-(R1-Pad2)*
G04 #@! TO.C,R2*
G36*
X64146691Y-176310053D02*
X64167926Y-176313203D01*
X64188750Y-176318419D01*
X64208962Y-176325651D01*
X64228368Y-176334830D01*
X64246781Y-176345866D01*
X64264024Y-176358654D01*
X64279930Y-176373070D01*
X64294346Y-176388976D01*
X64307134Y-176406219D01*
X64318170Y-176424632D01*
X64327349Y-176444038D01*
X64334581Y-176464250D01*
X64339797Y-176485074D01*
X64342947Y-176506309D01*
X64344000Y-176527750D01*
X64344000Y-177040250D01*
X64342947Y-177061691D01*
X64339797Y-177082926D01*
X64334581Y-177103750D01*
X64327349Y-177123962D01*
X64318170Y-177143368D01*
X64307134Y-177161781D01*
X64294346Y-177179024D01*
X64279930Y-177194930D01*
X64264024Y-177209346D01*
X64246781Y-177222134D01*
X64228368Y-177233170D01*
X64208962Y-177242349D01*
X64188750Y-177249581D01*
X64167926Y-177254797D01*
X64146691Y-177257947D01*
X64125250Y-177259000D01*
X63687750Y-177259000D01*
X63666309Y-177257947D01*
X63645074Y-177254797D01*
X63624250Y-177249581D01*
X63604038Y-177242349D01*
X63584632Y-177233170D01*
X63566219Y-177222134D01*
X63548976Y-177209346D01*
X63533070Y-177194930D01*
X63518654Y-177179024D01*
X63505866Y-177161781D01*
X63494830Y-177143368D01*
X63485651Y-177123962D01*
X63478419Y-177103750D01*
X63473203Y-177082926D01*
X63470053Y-177061691D01*
X63469000Y-177040250D01*
X63469000Y-176527750D01*
X63470053Y-176506309D01*
X63473203Y-176485074D01*
X63478419Y-176464250D01*
X63485651Y-176444038D01*
X63494830Y-176424632D01*
X63505866Y-176406219D01*
X63518654Y-176388976D01*
X63533070Y-176373070D01*
X63548976Y-176358654D01*
X63566219Y-176345866D01*
X63584632Y-176334830D01*
X63604038Y-176325651D01*
X63624250Y-176318419D01*
X63645074Y-176313203D01*
X63666309Y-176310053D01*
X63687750Y-176309000D01*
X64125250Y-176309000D01*
X64146691Y-176310053D01*
X64146691Y-176310053D01*
G37*
D12*
G04 #@! TD*
G04 #@! TO.P,R2,1*
G04 #@! TO.N,Net-(R1-Pad2)*
X63906500Y-176784000D03*
D11*
G04 #@! TO.N,GND*
G04 #@! TO.C,R2*
G36*
X62571691Y-176310053D02*
X62592926Y-176313203D01*
X62613750Y-176318419D01*
X62633962Y-176325651D01*
X62653368Y-176334830D01*
X62671781Y-176345866D01*
X62689024Y-176358654D01*
X62704930Y-176373070D01*
X62719346Y-176388976D01*
X62732134Y-176406219D01*
X62743170Y-176424632D01*
X62752349Y-176444038D01*
X62759581Y-176464250D01*
X62764797Y-176485074D01*
X62767947Y-176506309D01*
X62769000Y-176527750D01*
X62769000Y-177040250D01*
X62767947Y-177061691D01*
X62764797Y-177082926D01*
X62759581Y-177103750D01*
X62752349Y-177123962D01*
X62743170Y-177143368D01*
X62732134Y-177161781D01*
X62719346Y-177179024D01*
X62704930Y-177194930D01*
X62689024Y-177209346D01*
X62671781Y-177222134D01*
X62653368Y-177233170D01*
X62633962Y-177242349D01*
X62613750Y-177249581D01*
X62592926Y-177254797D01*
X62571691Y-177257947D01*
X62550250Y-177259000D01*
X62112750Y-177259000D01*
X62091309Y-177257947D01*
X62070074Y-177254797D01*
X62049250Y-177249581D01*
X62029038Y-177242349D01*
X62009632Y-177233170D01*
X61991219Y-177222134D01*
X61973976Y-177209346D01*
X61958070Y-177194930D01*
X61943654Y-177179024D01*
X61930866Y-177161781D01*
X61919830Y-177143368D01*
X61910651Y-177123962D01*
X61903419Y-177103750D01*
X61898203Y-177082926D01*
X61895053Y-177061691D01*
X61894000Y-177040250D01*
X61894000Y-176527750D01*
X61895053Y-176506309D01*
X61898203Y-176485074D01*
X61903419Y-176464250D01*
X61910651Y-176444038D01*
X61919830Y-176424632D01*
X61930866Y-176406219D01*
X61943654Y-176388976D01*
X61958070Y-176373070D01*
X61973976Y-176358654D01*
X61991219Y-176345866D01*
X62009632Y-176334830D01*
X62029038Y-176325651D01*
X62049250Y-176318419D01*
X62070074Y-176313203D01*
X62091309Y-176310053D01*
X62112750Y-176309000D01*
X62550250Y-176309000D01*
X62571691Y-176310053D01*
X62571691Y-176310053D01*
G37*
D12*
G04 #@! TD*
G04 #@! TO.P,R2,2*
G04 #@! TO.N,GND*
X62331500Y-176784000D03*
D13*
G04 #@! TO.P,J2,3*
G04 #@! TO.N,GND*
X22860000Y-157821000D03*
G04 #@! TO.P,J2,2*
G04 #@! TO.N,Net-(J2-Pad2)*
X22860000Y-155321000D03*
D14*
G04 #@! TO.P,J2,1*
G04 #@! TO.N,+5V*
X22860000Y-152821000D03*
G04 #@! TD*
G04 #@! TO.P,J3,1*
G04 #@! TO.N,OUT+*
X22987000Y-175641000D03*
D13*
G04 #@! TO.P,J3,2*
G04 #@! TO.N,OUT-*
X22987000Y-178141000D03*
G04 #@! TD*
D11*
G04 #@! TO.N,GND*
G04 #@! TO.C,C3*
G36*
X63396691Y-171420053D02*
X63417926Y-171423203D01*
X63438750Y-171428419D01*
X63458962Y-171435651D01*
X63478368Y-171444830D01*
X63496781Y-171455866D01*
X63514024Y-171468654D01*
X63529930Y-171483070D01*
X63544346Y-171498976D01*
X63557134Y-171516219D01*
X63568170Y-171534632D01*
X63577349Y-171554038D01*
X63584581Y-171574250D01*
X63589797Y-171595074D01*
X63592947Y-171616309D01*
X63594000Y-171637750D01*
X63594000Y-172075250D01*
X63592947Y-172096691D01*
X63589797Y-172117926D01*
X63584581Y-172138750D01*
X63577349Y-172158962D01*
X63568170Y-172178368D01*
X63557134Y-172196781D01*
X63544346Y-172214024D01*
X63529930Y-172229930D01*
X63514024Y-172244346D01*
X63496781Y-172257134D01*
X63478368Y-172268170D01*
X63458962Y-172277349D01*
X63438750Y-172284581D01*
X63417926Y-172289797D01*
X63396691Y-172292947D01*
X63375250Y-172294000D01*
X62862750Y-172294000D01*
X62841309Y-172292947D01*
X62820074Y-172289797D01*
X62799250Y-172284581D01*
X62779038Y-172277349D01*
X62759632Y-172268170D01*
X62741219Y-172257134D01*
X62723976Y-172244346D01*
X62708070Y-172229930D01*
X62693654Y-172214024D01*
X62680866Y-172196781D01*
X62669830Y-172178368D01*
X62660651Y-172158962D01*
X62653419Y-172138750D01*
X62648203Y-172117926D01*
X62645053Y-172096691D01*
X62644000Y-172075250D01*
X62644000Y-171637750D01*
X62645053Y-171616309D01*
X62648203Y-171595074D01*
X62653419Y-171574250D01*
X62660651Y-171554038D01*
X62669830Y-171534632D01*
X62680866Y-171516219D01*
X62693654Y-171498976D01*
X62708070Y-171483070D01*
X62723976Y-171468654D01*
X62741219Y-171455866D01*
X62759632Y-171444830D01*
X62779038Y-171435651D01*
X62799250Y-171428419D01*
X62820074Y-171423203D01*
X62841309Y-171420053D01*
X62862750Y-171419000D01*
X63375250Y-171419000D01*
X63396691Y-171420053D01*
X63396691Y-171420053D01*
G37*
D12*
G04 #@! TD*
G04 #@! TO.P,C3,2*
G04 #@! TO.N,GND*
X63119000Y-171856500D03*
D11*
G04 #@! TO.N,LIPO*
G04 #@! TO.C,C3*
G36*
X63396691Y-169845053D02*
X63417926Y-169848203D01*
X63438750Y-169853419D01*
X63458962Y-169860651D01*
X63478368Y-169869830D01*
X63496781Y-169880866D01*
X63514024Y-169893654D01*
X63529930Y-169908070D01*
X63544346Y-169923976D01*
X63557134Y-169941219D01*
X63568170Y-169959632D01*
X63577349Y-169979038D01*
X63584581Y-169999250D01*
X63589797Y-170020074D01*
X63592947Y-170041309D01*
X63594000Y-170062750D01*
X63594000Y-170500250D01*
X63592947Y-170521691D01*
X63589797Y-170542926D01*
X63584581Y-170563750D01*
X63577349Y-170583962D01*
X63568170Y-170603368D01*
X63557134Y-170621781D01*
X63544346Y-170639024D01*
X63529930Y-170654930D01*
X63514024Y-170669346D01*
X63496781Y-170682134D01*
X63478368Y-170693170D01*
X63458962Y-170702349D01*
X63438750Y-170709581D01*
X63417926Y-170714797D01*
X63396691Y-170717947D01*
X63375250Y-170719000D01*
X62862750Y-170719000D01*
X62841309Y-170717947D01*
X62820074Y-170714797D01*
X62799250Y-170709581D01*
X62779038Y-170702349D01*
X62759632Y-170693170D01*
X62741219Y-170682134D01*
X62723976Y-170669346D01*
X62708070Y-170654930D01*
X62693654Y-170639024D01*
X62680866Y-170621781D01*
X62669830Y-170603368D01*
X62660651Y-170583962D01*
X62653419Y-170563750D01*
X62648203Y-170542926D01*
X62645053Y-170521691D01*
X62644000Y-170500250D01*
X62644000Y-170062750D01*
X62645053Y-170041309D01*
X62648203Y-170020074D01*
X62653419Y-169999250D01*
X62660651Y-169979038D01*
X62669830Y-169959632D01*
X62680866Y-169941219D01*
X62693654Y-169923976D01*
X62708070Y-169908070D01*
X62723976Y-169893654D01*
X62741219Y-169880866D01*
X62759632Y-169869830D01*
X62779038Y-169860651D01*
X62799250Y-169853419D01*
X62820074Y-169848203D01*
X62841309Y-169845053D01*
X62862750Y-169844000D01*
X63375250Y-169844000D01*
X63396691Y-169845053D01*
X63396691Y-169845053D01*
G37*
D12*
G04 #@! TD*
G04 #@! TO.P,C3,1*
G04 #@! TO.N,LIPO*
X63119000Y-170281500D03*
D11*
G04 #@! TO.N,+5V*
G04 #@! TO.C,C4*
G36*
X67550191Y-178215053D02*
X67571426Y-178218203D01*
X67592250Y-178223419D01*
X67612462Y-178230651D01*
X67631868Y-178239830D01*
X67650281Y-178250866D01*
X67667524Y-178263654D01*
X67683430Y-178278070D01*
X67697846Y-178293976D01*
X67710634Y-178311219D01*
X67721670Y-178329632D01*
X67730849Y-178349038D01*
X67738081Y-178369250D01*
X67743297Y-178390074D01*
X67746447Y-178411309D01*
X67747500Y-178432750D01*
X67747500Y-178945250D01*
X67746447Y-178966691D01*
X67743297Y-178987926D01*
X67738081Y-179008750D01*
X67730849Y-179028962D01*
X67721670Y-179048368D01*
X67710634Y-179066781D01*
X67697846Y-179084024D01*
X67683430Y-179099930D01*
X67667524Y-179114346D01*
X67650281Y-179127134D01*
X67631868Y-179138170D01*
X67612462Y-179147349D01*
X67592250Y-179154581D01*
X67571426Y-179159797D01*
X67550191Y-179162947D01*
X67528750Y-179164000D01*
X67091250Y-179164000D01*
X67069809Y-179162947D01*
X67048574Y-179159797D01*
X67027750Y-179154581D01*
X67007538Y-179147349D01*
X66988132Y-179138170D01*
X66969719Y-179127134D01*
X66952476Y-179114346D01*
X66936570Y-179099930D01*
X66922154Y-179084024D01*
X66909366Y-179066781D01*
X66898330Y-179048368D01*
X66889151Y-179028962D01*
X66881919Y-179008750D01*
X66876703Y-178987926D01*
X66873553Y-178966691D01*
X66872500Y-178945250D01*
X66872500Y-178432750D01*
X66873553Y-178411309D01*
X66876703Y-178390074D01*
X66881919Y-178369250D01*
X66889151Y-178349038D01*
X66898330Y-178329632D01*
X66909366Y-178311219D01*
X66922154Y-178293976D01*
X66936570Y-178278070D01*
X66952476Y-178263654D01*
X66969719Y-178250866D01*
X66988132Y-178239830D01*
X67007538Y-178230651D01*
X67027750Y-178223419D01*
X67048574Y-178218203D01*
X67069809Y-178215053D01*
X67091250Y-178214000D01*
X67528750Y-178214000D01*
X67550191Y-178215053D01*
X67550191Y-178215053D01*
G37*
D12*
G04 #@! TD*
G04 #@! TO.P,C4,1*
G04 #@! TO.N,+5V*
X67310000Y-178689000D03*
D11*
G04 #@! TO.N,GND*
G04 #@! TO.C,C4*
G36*
X65975191Y-178215053D02*
X65996426Y-178218203D01*
X66017250Y-178223419D01*
X66037462Y-178230651D01*
X66056868Y-178239830D01*
X66075281Y-178250866D01*
X66092524Y-178263654D01*
X66108430Y-178278070D01*
X66122846Y-178293976D01*
X66135634Y-178311219D01*
X66146670Y-178329632D01*
X66155849Y-178349038D01*
X66163081Y-178369250D01*
X66168297Y-178390074D01*
X66171447Y-178411309D01*
X66172500Y-178432750D01*
X66172500Y-178945250D01*
X66171447Y-178966691D01*
X66168297Y-178987926D01*
X66163081Y-179008750D01*
X66155849Y-179028962D01*
X66146670Y-179048368D01*
X66135634Y-179066781D01*
X66122846Y-179084024D01*
X66108430Y-179099930D01*
X66092524Y-179114346D01*
X66075281Y-179127134D01*
X66056868Y-179138170D01*
X66037462Y-179147349D01*
X66017250Y-179154581D01*
X65996426Y-179159797D01*
X65975191Y-179162947D01*
X65953750Y-179164000D01*
X65516250Y-179164000D01*
X65494809Y-179162947D01*
X65473574Y-179159797D01*
X65452750Y-179154581D01*
X65432538Y-179147349D01*
X65413132Y-179138170D01*
X65394719Y-179127134D01*
X65377476Y-179114346D01*
X65361570Y-179099930D01*
X65347154Y-179084024D01*
X65334366Y-179066781D01*
X65323330Y-179048368D01*
X65314151Y-179028962D01*
X65306919Y-179008750D01*
X65301703Y-178987926D01*
X65298553Y-178966691D01*
X65297500Y-178945250D01*
X65297500Y-178432750D01*
X65298553Y-178411309D01*
X65301703Y-178390074D01*
X65306919Y-178369250D01*
X65314151Y-178349038D01*
X65323330Y-178329632D01*
X65334366Y-178311219D01*
X65347154Y-178293976D01*
X65361570Y-178278070D01*
X65377476Y-178263654D01*
X65394719Y-178250866D01*
X65413132Y-178239830D01*
X65432538Y-178230651D01*
X65452750Y-178223419D01*
X65473574Y-178218203D01*
X65494809Y-178215053D01*
X65516250Y-178214000D01*
X65953750Y-178214000D01*
X65975191Y-178215053D01*
X65975191Y-178215053D01*
G37*
D12*
G04 #@! TD*
G04 #@! TO.P,C4,2*
G04 #@! TO.N,GND*
X65735000Y-178689000D03*
D11*
G04 #@! TO.N,GND*
G04 #@! TO.C,C5*
G36*
X40536691Y-172385053D02*
X40557926Y-172388203D01*
X40578750Y-172393419D01*
X40598962Y-172400651D01*
X40618368Y-172409830D01*
X40636781Y-172420866D01*
X40654024Y-172433654D01*
X40669930Y-172448070D01*
X40684346Y-172463976D01*
X40697134Y-172481219D01*
X40708170Y-172499632D01*
X40717349Y-172519038D01*
X40724581Y-172539250D01*
X40729797Y-172560074D01*
X40732947Y-172581309D01*
X40734000Y-172602750D01*
X40734000Y-173040250D01*
X40732947Y-173061691D01*
X40729797Y-173082926D01*
X40724581Y-173103750D01*
X40717349Y-173123962D01*
X40708170Y-173143368D01*
X40697134Y-173161781D01*
X40684346Y-173179024D01*
X40669930Y-173194930D01*
X40654024Y-173209346D01*
X40636781Y-173222134D01*
X40618368Y-173233170D01*
X40598962Y-173242349D01*
X40578750Y-173249581D01*
X40557926Y-173254797D01*
X40536691Y-173257947D01*
X40515250Y-173259000D01*
X40002750Y-173259000D01*
X39981309Y-173257947D01*
X39960074Y-173254797D01*
X39939250Y-173249581D01*
X39919038Y-173242349D01*
X39899632Y-173233170D01*
X39881219Y-173222134D01*
X39863976Y-173209346D01*
X39848070Y-173194930D01*
X39833654Y-173179024D01*
X39820866Y-173161781D01*
X39809830Y-173143368D01*
X39800651Y-173123962D01*
X39793419Y-173103750D01*
X39788203Y-173082926D01*
X39785053Y-173061691D01*
X39784000Y-173040250D01*
X39784000Y-172602750D01*
X39785053Y-172581309D01*
X39788203Y-172560074D01*
X39793419Y-172539250D01*
X39800651Y-172519038D01*
X39809830Y-172499632D01*
X39820866Y-172481219D01*
X39833654Y-172463976D01*
X39848070Y-172448070D01*
X39863976Y-172433654D01*
X39881219Y-172420866D01*
X39899632Y-172409830D01*
X39919038Y-172400651D01*
X39939250Y-172393419D01*
X39960074Y-172388203D01*
X39981309Y-172385053D01*
X40002750Y-172384000D01*
X40515250Y-172384000D01*
X40536691Y-172385053D01*
X40536691Y-172385053D01*
G37*
D12*
G04 #@! TD*
G04 #@! TO.P,C5,2*
G04 #@! TO.N,GND*
X40259000Y-172821500D03*
D11*
G04 #@! TO.N,Net-(C5-Pad1)*
G04 #@! TO.C,C5*
G36*
X40536691Y-173960053D02*
X40557926Y-173963203D01*
X40578750Y-173968419D01*
X40598962Y-173975651D01*
X40618368Y-173984830D01*
X40636781Y-173995866D01*
X40654024Y-174008654D01*
X40669930Y-174023070D01*
X40684346Y-174038976D01*
X40697134Y-174056219D01*
X40708170Y-174074632D01*
X40717349Y-174094038D01*
X40724581Y-174114250D01*
X40729797Y-174135074D01*
X40732947Y-174156309D01*
X40734000Y-174177750D01*
X40734000Y-174615250D01*
X40732947Y-174636691D01*
X40729797Y-174657926D01*
X40724581Y-174678750D01*
X40717349Y-174698962D01*
X40708170Y-174718368D01*
X40697134Y-174736781D01*
X40684346Y-174754024D01*
X40669930Y-174769930D01*
X40654024Y-174784346D01*
X40636781Y-174797134D01*
X40618368Y-174808170D01*
X40598962Y-174817349D01*
X40578750Y-174824581D01*
X40557926Y-174829797D01*
X40536691Y-174832947D01*
X40515250Y-174834000D01*
X40002750Y-174834000D01*
X39981309Y-174832947D01*
X39960074Y-174829797D01*
X39939250Y-174824581D01*
X39919038Y-174817349D01*
X39899632Y-174808170D01*
X39881219Y-174797134D01*
X39863976Y-174784346D01*
X39848070Y-174769930D01*
X39833654Y-174754024D01*
X39820866Y-174736781D01*
X39809830Y-174718368D01*
X39800651Y-174698962D01*
X39793419Y-174678750D01*
X39788203Y-174657926D01*
X39785053Y-174636691D01*
X39784000Y-174615250D01*
X39784000Y-174177750D01*
X39785053Y-174156309D01*
X39788203Y-174135074D01*
X39793419Y-174114250D01*
X39800651Y-174094038D01*
X39809830Y-174074632D01*
X39820866Y-174056219D01*
X39833654Y-174038976D01*
X39848070Y-174023070D01*
X39863976Y-174008654D01*
X39881219Y-173995866D01*
X39899632Y-173984830D01*
X39919038Y-173975651D01*
X39939250Y-173968419D01*
X39960074Y-173963203D01*
X39981309Y-173960053D01*
X40002750Y-173959000D01*
X40515250Y-173959000D01*
X40536691Y-173960053D01*
X40536691Y-173960053D01*
G37*
D12*
G04 #@! TD*
G04 #@! TO.P,C5,1*
G04 #@! TO.N,Net-(C5-Pad1)*
X40259000Y-174396500D03*
D11*
G04 #@! TO.N,+5V*
G04 #@! TO.C,C6*
G36*
X45616691Y-172385053D02*
X45637926Y-172388203D01*
X45658750Y-172393419D01*
X45678962Y-172400651D01*
X45698368Y-172409830D01*
X45716781Y-172420866D01*
X45734024Y-172433654D01*
X45749930Y-172448070D01*
X45764346Y-172463976D01*
X45777134Y-172481219D01*
X45788170Y-172499632D01*
X45797349Y-172519038D01*
X45804581Y-172539250D01*
X45809797Y-172560074D01*
X45812947Y-172581309D01*
X45814000Y-172602750D01*
X45814000Y-173040250D01*
X45812947Y-173061691D01*
X45809797Y-173082926D01*
X45804581Y-173103750D01*
X45797349Y-173123962D01*
X45788170Y-173143368D01*
X45777134Y-173161781D01*
X45764346Y-173179024D01*
X45749930Y-173194930D01*
X45734024Y-173209346D01*
X45716781Y-173222134D01*
X45698368Y-173233170D01*
X45678962Y-173242349D01*
X45658750Y-173249581D01*
X45637926Y-173254797D01*
X45616691Y-173257947D01*
X45595250Y-173259000D01*
X45082750Y-173259000D01*
X45061309Y-173257947D01*
X45040074Y-173254797D01*
X45019250Y-173249581D01*
X44999038Y-173242349D01*
X44979632Y-173233170D01*
X44961219Y-173222134D01*
X44943976Y-173209346D01*
X44928070Y-173194930D01*
X44913654Y-173179024D01*
X44900866Y-173161781D01*
X44889830Y-173143368D01*
X44880651Y-173123962D01*
X44873419Y-173103750D01*
X44868203Y-173082926D01*
X44865053Y-173061691D01*
X44864000Y-173040250D01*
X44864000Y-172602750D01*
X44865053Y-172581309D01*
X44868203Y-172560074D01*
X44873419Y-172539250D01*
X44880651Y-172519038D01*
X44889830Y-172499632D01*
X44900866Y-172481219D01*
X44913654Y-172463976D01*
X44928070Y-172448070D01*
X44943976Y-172433654D01*
X44961219Y-172420866D01*
X44979632Y-172409830D01*
X44999038Y-172400651D01*
X45019250Y-172393419D01*
X45040074Y-172388203D01*
X45061309Y-172385053D01*
X45082750Y-172384000D01*
X45595250Y-172384000D01*
X45616691Y-172385053D01*
X45616691Y-172385053D01*
G37*
D12*
G04 #@! TD*
G04 #@! TO.P,C6,1*
G04 #@! TO.N,+5V*
X45339000Y-172821500D03*
D11*
G04 #@! TO.N,GND*
G04 #@! TO.C,C6*
G36*
X45616691Y-173960053D02*
X45637926Y-173963203D01*
X45658750Y-173968419D01*
X45678962Y-173975651D01*
X45698368Y-173984830D01*
X45716781Y-173995866D01*
X45734024Y-174008654D01*
X45749930Y-174023070D01*
X45764346Y-174038976D01*
X45777134Y-174056219D01*
X45788170Y-174074632D01*
X45797349Y-174094038D01*
X45804581Y-174114250D01*
X45809797Y-174135074D01*
X45812947Y-174156309D01*
X45814000Y-174177750D01*
X45814000Y-174615250D01*
X45812947Y-174636691D01*
X45809797Y-174657926D01*
X45804581Y-174678750D01*
X45797349Y-174698962D01*
X45788170Y-174718368D01*
X45777134Y-174736781D01*
X45764346Y-174754024D01*
X45749930Y-174769930D01*
X45734024Y-174784346D01*
X45716781Y-174797134D01*
X45698368Y-174808170D01*
X45678962Y-174817349D01*
X45658750Y-174824581D01*
X45637926Y-174829797D01*
X45616691Y-174832947D01*
X45595250Y-174834000D01*
X45082750Y-174834000D01*
X45061309Y-174832947D01*
X45040074Y-174829797D01*
X45019250Y-174824581D01*
X44999038Y-174817349D01*
X44979632Y-174808170D01*
X44961219Y-174797134D01*
X44943976Y-174784346D01*
X44928070Y-174769930D01*
X44913654Y-174754024D01*
X44900866Y-174736781D01*
X44889830Y-174718368D01*
X44880651Y-174698962D01*
X44873419Y-174678750D01*
X44868203Y-174657926D01*
X44865053Y-174636691D01*
X44864000Y-174615250D01*
X44864000Y-174177750D01*
X44865053Y-174156309D01*
X44868203Y-174135074D01*
X44873419Y-174114250D01*
X44880651Y-174094038D01*
X44889830Y-174074632D01*
X44900866Y-174056219D01*
X44913654Y-174038976D01*
X44928070Y-174023070D01*
X44943976Y-174008654D01*
X44961219Y-173995866D01*
X44979632Y-173984830D01*
X44999038Y-173975651D01*
X45019250Y-173968419D01*
X45040074Y-173963203D01*
X45061309Y-173960053D01*
X45082750Y-173959000D01*
X45595250Y-173959000D01*
X45616691Y-173960053D01*
X45616691Y-173960053D01*
G37*
D12*
G04 #@! TD*
G04 #@! TO.P,C6,2*
G04 #@! TO.N,GND*
X45339000Y-174396500D03*
D15*
G04 #@! TO.P,J1,1*
G04 #@! TO.N,GND*
X61757558Y-161544000D03*
G04 #@! TO.P,J1,2*
G04 #@! TO.N,LIPO*
X63754000Y-161544000D03*
D16*
G04 #@! TO.P,J1,NC1*
G04 #@! TO.N,N/C*
X59357259Y-156347160D03*
G04 #@! TO.P,J1,NC2*
X66154299Y-156347160D03*
G04 #@! TD*
D17*
G04 #@! TO.P,Q1,1*
G04 #@! TO.N,+3V3*
X46609000Y-187259000D03*
G04 #@! TO.P,Q1,2*
G04 #@! TO.N,SDA_3V3*
X46609000Y-185359000D03*
G04 #@! TO.P,Q1,3*
G04 #@! TO.N,SDA_5V*
X44609000Y-186309000D03*
G04 #@! TD*
G04 #@! TO.P,Q2,3*
G04 #@! TO.N,SCL_5V*
X44609000Y-181864000D03*
G04 #@! TO.P,Q2,2*
G04 #@! TO.N,SCL_3V3*
X46609000Y-180914000D03*
G04 #@! TO.P,Q2,1*
G04 #@! TO.N,+3V3*
X46609000Y-182814000D03*
G04 #@! TD*
D11*
G04 #@! TO.N,+3V3*
G04 #@! TO.C,R3*
G36*
X49426691Y-186660053D02*
X49447926Y-186663203D01*
X49468750Y-186668419D01*
X49488962Y-186675651D01*
X49508368Y-186684830D01*
X49526781Y-186695866D01*
X49544024Y-186708654D01*
X49559930Y-186723070D01*
X49574346Y-186738976D01*
X49587134Y-186756219D01*
X49598170Y-186774632D01*
X49607349Y-186794038D01*
X49614581Y-186814250D01*
X49619797Y-186835074D01*
X49622947Y-186856309D01*
X49624000Y-186877750D01*
X49624000Y-187315250D01*
X49622947Y-187336691D01*
X49619797Y-187357926D01*
X49614581Y-187378750D01*
X49607349Y-187398962D01*
X49598170Y-187418368D01*
X49587134Y-187436781D01*
X49574346Y-187454024D01*
X49559930Y-187469930D01*
X49544024Y-187484346D01*
X49526781Y-187497134D01*
X49508368Y-187508170D01*
X49488962Y-187517349D01*
X49468750Y-187524581D01*
X49447926Y-187529797D01*
X49426691Y-187532947D01*
X49405250Y-187534000D01*
X48892750Y-187534000D01*
X48871309Y-187532947D01*
X48850074Y-187529797D01*
X48829250Y-187524581D01*
X48809038Y-187517349D01*
X48789632Y-187508170D01*
X48771219Y-187497134D01*
X48753976Y-187484346D01*
X48738070Y-187469930D01*
X48723654Y-187454024D01*
X48710866Y-187436781D01*
X48699830Y-187418368D01*
X48690651Y-187398962D01*
X48683419Y-187378750D01*
X48678203Y-187357926D01*
X48675053Y-187336691D01*
X48674000Y-187315250D01*
X48674000Y-186877750D01*
X48675053Y-186856309D01*
X48678203Y-186835074D01*
X48683419Y-186814250D01*
X48690651Y-186794038D01*
X48699830Y-186774632D01*
X48710866Y-186756219D01*
X48723654Y-186738976D01*
X48738070Y-186723070D01*
X48753976Y-186708654D01*
X48771219Y-186695866D01*
X48789632Y-186684830D01*
X48809038Y-186675651D01*
X48829250Y-186668419D01*
X48850074Y-186663203D01*
X48871309Y-186660053D01*
X48892750Y-186659000D01*
X49405250Y-186659000D01*
X49426691Y-186660053D01*
X49426691Y-186660053D01*
G37*
D12*
G04 #@! TD*
G04 #@! TO.P,R3,1*
G04 #@! TO.N,+3V3*
X49149000Y-187096500D03*
D11*
G04 #@! TO.N,SDA_3V3*
G04 #@! TO.C,R3*
G36*
X49426691Y-185085053D02*
X49447926Y-185088203D01*
X49468750Y-185093419D01*
X49488962Y-185100651D01*
X49508368Y-185109830D01*
X49526781Y-185120866D01*
X49544024Y-185133654D01*
X49559930Y-185148070D01*
X49574346Y-185163976D01*
X49587134Y-185181219D01*
X49598170Y-185199632D01*
X49607349Y-185219038D01*
X49614581Y-185239250D01*
X49619797Y-185260074D01*
X49622947Y-185281309D01*
X49624000Y-185302750D01*
X49624000Y-185740250D01*
X49622947Y-185761691D01*
X49619797Y-185782926D01*
X49614581Y-185803750D01*
X49607349Y-185823962D01*
X49598170Y-185843368D01*
X49587134Y-185861781D01*
X49574346Y-185879024D01*
X49559930Y-185894930D01*
X49544024Y-185909346D01*
X49526781Y-185922134D01*
X49508368Y-185933170D01*
X49488962Y-185942349D01*
X49468750Y-185949581D01*
X49447926Y-185954797D01*
X49426691Y-185957947D01*
X49405250Y-185959000D01*
X48892750Y-185959000D01*
X48871309Y-185957947D01*
X48850074Y-185954797D01*
X48829250Y-185949581D01*
X48809038Y-185942349D01*
X48789632Y-185933170D01*
X48771219Y-185922134D01*
X48753976Y-185909346D01*
X48738070Y-185894930D01*
X48723654Y-185879024D01*
X48710866Y-185861781D01*
X48699830Y-185843368D01*
X48690651Y-185823962D01*
X48683419Y-185803750D01*
X48678203Y-185782926D01*
X48675053Y-185761691D01*
X48674000Y-185740250D01*
X48674000Y-185302750D01*
X48675053Y-185281309D01*
X48678203Y-185260074D01*
X48683419Y-185239250D01*
X48690651Y-185219038D01*
X48699830Y-185199632D01*
X48710866Y-185181219D01*
X48723654Y-185163976D01*
X48738070Y-185148070D01*
X48753976Y-185133654D01*
X48771219Y-185120866D01*
X48789632Y-185109830D01*
X48809038Y-185100651D01*
X48829250Y-185093419D01*
X48850074Y-185088203D01*
X48871309Y-185085053D01*
X48892750Y-185084000D01*
X49405250Y-185084000D01*
X49426691Y-185085053D01*
X49426691Y-185085053D01*
G37*
D12*
G04 #@! TD*
G04 #@! TO.P,R3,2*
G04 #@! TO.N,SDA_3V3*
X49149000Y-185521500D03*
D11*
G04 #@! TO.N,+3V3*
G04 #@! TO.C,R4*
G36*
X49426691Y-182215053D02*
X49447926Y-182218203D01*
X49468750Y-182223419D01*
X49488962Y-182230651D01*
X49508368Y-182239830D01*
X49526781Y-182250866D01*
X49544024Y-182263654D01*
X49559930Y-182278070D01*
X49574346Y-182293976D01*
X49587134Y-182311219D01*
X49598170Y-182329632D01*
X49607349Y-182349038D01*
X49614581Y-182369250D01*
X49619797Y-182390074D01*
X49622947Y-182411309D01*
X49624000Y-182432750D01*
X49624000Y-182870250D01*
X49622947Y-182891691D01*
X49619797Y-182912926D01*
X49614581Y-182933750D01*
X49607349Y-182953962D01*
X49598170Y-182973368D01*
X49587134Y-182991781D01*
X49574346Y-183009024D01*
X49559930Y-183024930D01*
X49544024Y-183039346D01*
X49526781Y-183052134D01*
X49508368Y-183063170D01*
X49488962Y-183072349D01*
X49468750Y-183079581D01*
X49447926Y-183084797D01*
X49426691Y-183087947D01*
X49405250Y-183089000D01*
X48892750Y-183089000D01*
X48871309Y-183087947D01*
X48850074Y-183084797D01*
X48829250Y-183079581D01*
X48809038Y-183072349D01*
X48789632Y-183063170D01*
X48771219Y-183052134D01*
X48753976Y-183039346D01*
X48738070Y-183024930D01*
X48723654Y-183009024D01*
X48710866Y-182991781D01*
X48699830Y-182973368D01*
X48690651Y-182953962D01*
X48683419Y-182933750D01*
X48678203Y-182912926D01*
X48675053Y-182891691D01*
X48674000Y-182870250D01*
X48674000Y-182432750D01*
X48675053Y-182411309D01*
X48678203Y-182390074D01*
X48683419Y-182369250D01*
X48690651Y-182349038D01*
X48699830Y-182329632D01*
X48710866Y-182311219D01*
X48723654Y-182293976D01*
X48738070Y-182278070D01*
X48753976Y-182263654D01*
X48771219Y-182250866D01*
X48789632Y-182239830D01*
X48809038Y-182230651D01*
X48829250Y-182223419D01*
X48850074Y-182218203D01*
X48871309Y-182215053D01*
X48892750Y-182214000D01*
X49405250Y-182214000D01*
X49426691Y-182215053D01*
X49426691Y-182215053D01*
G37*
D12*
G04 #@! TD*
G04 #@! TO.P,R4,1*
G04 #@! TO.N,+3V3*
X49149000Y-182651500D03*
D11*
G04 #@! TO.N,SCL_3V3*
G04 #@! TO.C,R4*
G36*
X49426691Y-180640053D02*
X49447926Y-180643203D01*
X49468750Y-180648419D01*
X49488962Y-180655651D01*
X49508368Y-180664830D01*
X49526781Y-180675866D01*
X49544024Y-180688654D01*
X49559930Y-180703070D01*
X49574346Y-180718976D01*
X49587134Y-180736219D01*
X49598170Y-180754632D01*
X49607349Y-180774038D01*
X49614581Y-180794250D01*
X49619797Y-180815074D01*
X49622947Y-180836309D01*
X49624000Y-180857750D01*
X49624000Y-181295250D01*
X49622947Y-181316691D01*
X49619797Y-181337926D01*
X49614581Y-181358750D01*
X49607349Y-181378962D01*
X49598170Y-181398368D01*
X49587134Y-181416781D01*
X49574346Y-181434024D01*
X49559930Y-181449930D01*
X49544024Y-181464346D01*
X49526781Y-181477134D01*
X49508368Y-181488170D01*
X49488962Y-181497349D01*
X49468750Y-181504581D01*
X49447926Y-181509797D01*
X49426691Y-181512947D01*
X49405250Y-181514000D01*
X48892750Y-181514000D01*
X48871309Y-181512947D01*
X48850074Y-181509797D01*
X48829250Y-181504581D01*
X48809038Y-181497349D01*
X48789632Y-181488170D01*
X48771219Y-181477134D01*
X48753976Y-181464346D01*
X48738070Y-181449930D01*
X48723654Y-181434024D01*
X48710866Y-181416781D01*
X48699830Y-181398368D01*
X48690651Y-181378962D01*
X48683419Y-181358750D01*
X48678203Y-181337926D01*
X48675053Y-181316691D01*
X48674000Y-181295250D01*
X48674000Y-180857750D01*
X48675053Y-180836309D01*
X48678203Y-180815074D01*
X48683419Y-180794250D01*
X48690651Y-180774038D01*
X48699830Y-180754632D01*
X48710866Y-180736219D01*
X48723654Y-180718976D01*
X48738070Y-180703070D01*
X48753976Y-180688654D01*
X48771219Y-180675866D01*
X48789632Y-180664830D01*
X48809038Y-180655651D01*
X48829250Y-180648419D01*
X48850074Y-180643203D01*
X48871309Y-180640053D01*
X48892750Y-180639000D01*
X49405250Y-180639000D01*
X49426691Y-180640053D01*
X49426691Y-180640053D01*
G37*
D12*
G04 #@! TD*
G04 #@! TO.P,R4,2*
G04 #@! TO.N,SCL_3V3*
X49149000Y-181076500D03*
D11*
G04 #@! TO.N,+5V*
G04 #@! TO.C,R5*
G36*
X42441691Y-185085053D02*
X42462926Y-185088203D01*
X42483750Y-185093419D01*
X42503962Y-185100651D01*
X42523368Y-185109830D01*
X42541781Y-185120866D01*
X42559024Y-185133654D01*
X42574930Y-185148070D01*
X42589346Y-185163976D01*
X42602134Y-185181219D01*
X42613170Y-185199632D01*
X42622349Y-185219038D01*
X42629581Y-185239250D01*
X42634797Y-185260074D01*
X42637947Y-185281309D01*
X42639000Y-185302750D01*
X42639000Y-185740250D01*
X42637947Y-185761691D01*
X42634797Y-185782926D01*
X42629581Y-185803750D01*
X42622349Y-185823962D01*
X42613170Y-185843368D01*
X42602134Y-185861781D01*
X42589346Y-185879024D01*
X42574930Y-185894930D01*
X42559024Y-185909346D01*
X42541781Y-185922134D01*
X42523368Y-185933170D01*
X42503962Y-185942349D01*
X42483750Y-185949581D01*
X42462926Y-185954797D01*
X42441691Y-185957947D01*
X42420250Y-185959000D01*
X41907750Y-185959000D01*
X41886309Y-185957947D01*
X41865074Y-185954797D01*
X41844250Y-185949581D01*
X41824038Y-185942349D01*
X41804632Y-185933170D01*
X41786219Y-185922134D01*
X41768976Y-185909346D01*
X41753070Y-185894930D01*
X41738654Y-185879024D01*
X41725866Y-185861781D01*
X41714830Y-185843368D01*
X41705651Y-185823962D01*
X41698419Y-185803750D01*
X41693203Y-185782926D01*
X41690053Y-185761691D01*
X41689000Y-185740250D01*
X41689000Y-185302750D01*
X41690053Y-185281309D01*
X41693203Y-185260074D01*
X41698419Y-185239250D01*
X41705651Y-185219038D01*
X41714830Y-185199632D01*
X41725866Y-185181219D01*
X41738654Y-185163976D01*
X41753070Y-185148070D01*
X41768976Y-185133654D01*
X41786219Y-185120866D01*
X41804632Y-185109830D01*
X41824038Y-185100651D01*
X41844250Y-185093419D01*
X41865074Y-185088203D01*
X41886309Y-185085053D01*
X41907750Y-185084000D01*
X42420250Y-185084000D01*
X42441691Y-185085053D01*
X42441691Y-185085053D01*
G37*
D12*
G04 #@! TD*
G04 #@! TO.P,R5,2*
G04 #@! TO.N,+5V*
X42164000Y-185521500D03*
D11*
G04 #@! TO.N,SDA_5V*
G04 #@! TO.C,R5*
G36*
X42441691Y-186660053D02*
X42462926Y-186663203D01*
X42483750Y-186668419D01*
X42503962Y-186675651D01*
X42523368Y-186684830D01*
X42541781Y-186695866D01*
X42559024Y-186708654D01*
X42574930Y-186723070D01*
X42589346Y-186738976D01*
X42602134Y-186756219D01*
X42613170Y-186774632D01*
X42622349Y-186794038D01*
X42629581Y-186814250D01*
X42634797Y-186835074D01*
X42637947Y-186856309D01*
X42639000Y-186877750D01*
X42639000Y-187315250D01*
X42637947Y-187336691D01*
X42634797Y-187357926D01*
X42629581Y-187378750D01*
X42622349Y-187398962D01*
X42613170Y-187418368D01*
X42602134Y-187436781D01*
X42589346Y-187454024D01*
X42574930Y-187469930D01*
X42559024Y-187484346D01*
X42541781Y-187497134D01*
X42523368Y-187508170D01*
X42503962Y-187517349D01*
X42483750Y-187524581D01*
X42462926Y-187529797D01*
X42441691Y-187532947D01*
X42420250Y-187534000D01*
X41907750Y-187534000D01*
X41886309Y-187532947D01*
X41865074Y-187529797D01*
X41844250Y-187524581D01*
X41824038Y-187517349D01*
X41804632Y-187508170D01*
X41786219Y-187497134D01*
X41768976Y-187484346D01*
X41753070Y-187469930D01*
X41738654Y-187454024D01*
X41725866Y-187436781D01*
X41714830Y-187418368D01*
X41705651Y-187398962D01*
X41698419Y-187378750D01*
X41693203Y-187357926D01*
X41690053Y-187336691D01*
X41689000Y-187315250D01*
X41689000Y-186877750D01*
X41690053Y-186856309D01*
X41693203Y-186835074D01*
X41698419Y-186814250D01*
X41705651Y-186794038D01*
X41714830Y-186774632D01*
X41725866Y-186756219D01*
X41738654Y-186738976D01*
X41753070Y-186723070D01*
X41768976Y-186708654D01*
X41786219Y-186695866D01*
X41804632Y-186684830D01*
X41824038Y-186675651D01*
X41844250Y-186668419D01*
X41865074Y-186663203D01*
X41886309Y-186660053D01*
X41907750Y-186659000D01*
X42420250Y-186659000D01*
X42441691Y-186660053D01*
X42441691Y-186660053D01*
G37*
D12*
G04 #@! TD*
G04 #@! TO.P,R5,1*
G04 #@! TO.N,SDA_5V*
X42164000Y-187096500D03*
D11*
G04 #@! TO.N,+5V*
G04 #@! TO.C,R6*
G36*
X42441691Y-180640053D02*
X42462926Y-180643203D01*
X42483750Y-180648419D01*
X42503962Y-180655651D01*
X42523368Y-180664830D01*
X42541781Y-180675866D01*
X42559024Y-180688654D01*
X42574930Y-180703070D01*
X42589346Y-180718976D01*
X42602134Y-180736219D01*
X42613170Y-180754632D01*
X42622349Y-180774038D01*
X42629581Y-180794250D01*
X42634797Y-180815074D01*
X42637947Y-180836309D01*
X42639000Y-180857750D01*
X42639000Y-181295250D01*
X42637947Y-181316691D01*
X42634797Y-181337926D01*
X42629581Y-181358750D01*
X42622349Y-181378962D01*
X42613170Y-181398368D01*
X42602134Y-181416781D01*
X42589346Y-181434024D01*
X42574930Y-181449930D01*
X42559024Y-181464346D01*
X42541781Y-181477134D01*
X42523368Y-181488170D01*
X42503962Y-181497349D01*
X42483750Y-181504581D01*
X42462926Y-181509797D01*
X42441691Y-181512947D01*
X42420250Y-181514000D01*
X41907750Y-181514000D01*
X41886309Y-181512947D01*
X41865074Y-181509797D01*
X41844250Y-181504581D01*
X41824038Y-181497349D01*
X41804632Y-181488170D01*
X41786219Y-181477134D01*
X41768976Y-181464346D01*
X41753070Y-181449930D01*
X41738654Y-181434024D01*
X41725866Y-181416781D01*
X41714830Y-181398368D01*
X41705651Y-181378962D01*
X41698419Y-181358750D01*
X41693203Y-181337926D01*
X41690053Y-181316691D01*
X41689000Y-181295250D01*
X41689000Y-180857750D01*
X41690053Y-180836309D01*
X41693203Y-180815074D01*
X41698419Y-180794250D01*
X41705651Y-180774038D01*
X41714830Y-180754632D01*
X41725866Y-180736219D01*
X41738654Y-180718976D01*
X41753070Y-180703070D01*
X41768976Y-180688654D01*
X41786219Y-180675866D01*
X41804632Y-180664830D01*
X41824038Y-180655651D01*
X41844250Y-180648419D01*
X41865074Y-180643203D01*
X41886309Y-180640053D01*
X41907750Y-180639000D01*
X42420250Y-180639000D01*
X42441691Y-180640053D01*
X42441691Y-180640053D01*
G37*
D12*
G04 #@! TD*
G04 #@! TO.P,R6,2*
G04 #@! TO.N,+5V*
X42164000Y-181076500D03*
D11*
G04 #@! TO.N,SCL_5V*
G04 #@! TO.C,R6*
G36*
X42441691Y-182215053D02*
X42462926Y-182218203D01*
X42483750Y-182223419D01*
X42503962Y-182230651D01*
X42523368Y-182239830D01*
X42541781Y-182250866D01*
X42559024Y-182263654D01*
X42574930Y-182278070D01*
X42589346Y-182293976D01*
X42602134Y-182311219D01*
X42613170Y-182329632D01*
X42622349Y-182349038D01*
X42629581Y-182369250D01*
X42634797Y-182390074D01*
X42637947Y-182411309D01*
X42639000Y-182432750D01*
X42639000Y-182870250D01*
X42637947Y-182891691D01*
X42634797Y-182912926D01*
X42629581Y-182933750D01*
X42622349Y-182953962D01*
X42613170Y-182973368D01*
X42602134Y-182991781D01*
X42589346Y-183009024D01*
X42574930Y-183024930D01*
X42559024Y-183039346D01*
X42541781Y-183052134D01*
X42523368Y-183063170D01*
X42503962Y-183072349D01*
X42483750Y-183079581D01*
X42462926Y-183084797D01*
X42441691Y-183087947D01*
X42420250Y-183089000D01*
X41907750Y-183089000D01*
X41886309Y-183087947D01*
X41865074Y-183084797D01*
X41844250Y-183079581D01*
X41824038Y-183072349D01*
X41804632Y-183063170D01*
X41786219Y-183052134D01*
X41768976Y-183039346D01*
X41753070Y-183024930D01*
X41738654Y-183009024D01*
X41725866Y-182991781D01*
X41714830Y-182973368D01*
X41705651Y-182953962D01*
X41698419Y-182933750D01*
X41693203Y-182912926D01*
X41690053Y-182891691D01*
X41689000Y-182870250D01*
X41689000Y-182432750D01*
X41690053Y-182411309D01*
X41693203Y-182390074D01*
X41698419Y-182369250D01*
X41705651Y-182349038D01*
X41714830Y-182329632D01*
X41725866Y-182311219D01*
X41738654Y-182293976D01*
X41753070Y-182278070D01*
X41768976Y-182263654D01*
X41786219Y-182250866D01*
X41804632Y-182239830D01*
X41824038Y-182230651D01*
X41844250Y-182223419D01*
X41865074Y-182218203D01*
X41886309Y-182215053D01*
X41907750Y-182214000D01*
X42420250Y-182214000D01*
X42441691Y-182215053D01*
X42441691Y-182215053D01*
G37*
D12*
G04 #@! TD*
G04 #@! TO.P,R6,1*
G04 #@! TO.N,SCL_5V*
X42164000Y-182651500D03*
D18*
G04 #@! TO.P,U1,1*
G04 #@! TO.N,GND*
X43748960Y-164096700D03*
G04 #@! TO.P,U1,2*
G04 #@! TO.N,LED*
X43748960Y-163449000D03*
G04 #@! TO.P,U1,3*
G04 #@! TO.N,GND*
X43748960Y-162801300D03*
G04 #@! TO.P,U1,4*
G04 #@! TO.N,LED_BUFFERED*
X41849040Y-162801300D03*
G04 #@! TO.P,U1,5*
G04 #@! TO.N,+5V*
X41849040Y-164096700D03*
G04 #@! TD*
D19*
G04 #@! TO.P,U2,P$1*
G04 #@! TO.N,GND*
X61328300Y-170080940D03*
G04 #@! TO.P,U2,P$2*
G04 #@! TO.N,LIPO*
X60827920Y-170080940D03*
G04 #@! TO.P,U2,P$3*
X60330080Y-170080940D03*
G04 #@! TO.P,U2,P$4*
G04 #@! TO.N,GND*
X59829700Y-170080940D03*
G04 #@! TO.P,U2,P$5*
G04 #@! TO.N,Net-(JP1-Pad2)*
X59829700Y-172057060D03*
G04 #@! TO.P,U2,P$6*
G04 #@! TO.N,GND*
X60330080Y-172057060D03*
G04 #@! TO.P,U2,P$7*
G04 #@! TO.N,SCL_3V3*
X60827920Y-172057060D03*
G04 #@! TO.P,U2,P$8*
G04 #@! TO.N,SDA_3V3*
X61328300Y-172057060D03*
D20*
G04 #@! TO.P,U2,P$9*
G04 #@! TO.N,GND*
X60579000Y-171069000D03*
G04 #@! TD*
D21*
G04 #@! TO.P,U3,16*
G04 #@! TO.N,N/C*
X33909000Y-185039000D03*
G04 #@! TO.P,U3,15*
X33909000Y-182499000D03*
G04 #@! TO.P,U3,14*
X33909000Y-179959000D03*
G04 #@! TO.P,U3,13*
X33909000Y-177419000D03*
G04 #@! TO.P,U3,12*
X33909000Y-174879000D03*
G04 #@! TO.P,U3,11*
X33909000Y-172339000D03*
G04 #@! TO.P,U3,10*
X33909000Y-169799000D03*
G04 #@! TO.P,U3,9*
X33909000Y-167259000D03*
G04 #@! TO.P,U3,8*
X33909000Y-164719000D03*
G04 #@! TO.P,U3,7*
X33909000Y-162179000D03*
G04 #@! TO.P,U3,6*
X33909000Y-159639000D03*
G04 #@! TO.P,U3,5*
X33909000Y-157099000D03*
G04 #@! TO.P,U3,4*
G04 #@! TO.N,GND*
X33909000Y-154559000D03*
G04 #@! TO.P,U3,3*
G04 #@! TO.N,N/C*
X33909000Y-152019000D03*
G04 #@! TO.P,U3,2*
G04 #@! TO.N,+3V3*
X33909000Y-149479000D03*
G04 #@! TO.P,U3,1*
G04 #@! TO.N,N/C*
X33909000Y-146939000D03*
G04 #@! TO.P,U3,28*
G04 #@! TO.N,LIPO*
X54229000Y-157099000D03*
G04 #@! TO.P,U3,27*
G04 #@! TO.N,N/C*
X54229000Y-159639000D03*
G04 #@! TO.P,U3,26*
X54229000Y-162179000D03*
G04 #@! TO.P,U3,25*
X54229000Y-164719000D03*
G04 #@! TO.P,U3,24*
X54229000Y-167259000D03*
G04 #@! TO.P,U3,23*
X54229000Y-169799000D03*
G04 #@! TO.P,U3,22*
G04 #@! TO.N,ALERT*
X54229000Y-172339000D03*
G04 #@! TO.P,U3,21*
G04 #@! TO.N,EN*
X54229000Y-174879000D03*
G04 #@! TO.P,U3,20*
G04 #@! TO.N,LED*
X54229000Y-177419000D03*
G04 #@! TO.P,U3,19*
G04 #@! TO.N,MOTOR_EN*
X54229000Y-179959000D03*
G04 #@! TO.P,U3,18*
G04 #@! TO.N,SCL_3V3*
X54229000Y-182499000D03*
G04 #@! TO.P,U3,17*
G04 #@! TO.N,SDA_3V3*
X54229000Y-185039000D03*
D22*
G04 #@! TO.P,U3,*
G04 #@! TO.N,*
X35179000Y-188849000D03*
X35179000Y-143129000D03*
X52959000Y-188849000D03*
X52959000Y-143129000D03*
G04 #@! TD*
D23*
G04 #@! TO.P,U4,1*
G04 #@! TO.N,Net-(L1-Pad2)*
X68536820Y-170091100D03*
G04 #@! TO.P,U4,2*
G04 #@! TO.N,Net-(JP1-Pad2)*
X67886580Y-170091100D03*
G04 #@! TO.P,U4,3*
G04 #@! TO.N,LIPO*
X67241420Y-170091100D03*
G04 #@! TO.P,U4,4*
G04 #@! TO.N,GND*
X66591180Y-170091100D03*
G04 #@! TO.P,U4,5*
G04 #@! TO.N,Net-(R1-Pad2)*
X66591180Y-174586900D03*
G04 #@! TO.P,U4,6*
G04 #@! TO.N,N/C*
X67241420Y-174586900D03*
G04 #@! TO.P,U4,7*
G04 #@! TO.N,+5V*
X67886580Y-174586900D03*
G04 #@! TO.P,U4,8*
G04 #@! TO.N,GND*
X68536820Y-174586900D03*
G04 #@! TD*
D24*
G04 #@! TO.P,U5,P$1*
G04 #@! TO.N,Net-(C5-Pad1)*
X41739820Y-175768000D03*
G04 #@! TO.P,U5,P$2*
G04 #@! TO.N,SCL_5V*
X42240200Y-175768000D03*
G04 #@! TO.P,U5,P$3*
G04 #@! TO.N,SDA_5V*
X42740580Y-175768000D03*
G04 #@! TO.P,U5,P$4*
G04 #@! TO.N,N/C*
X43238420Y-175768000D03*
G04 #@! TO.P,U5,P$5*
G04 #@! TO.N,MOTOR_EN*
X43738800Y-175768000D03*
G04 #@! TO.P,U5,P$6*
G04 #@! TO.N,+5V*
X43738800Y-171368720D03*
G04 #@! TO.P,U5,P$7*
G04 #@! TO.N,OUT+*
X43238420Y-171368720D03*
G04 #@! TO.P,U5,P$8*
G04 #@! TO.N,GND*
X42740580Y-171368720D03*
G04 #@! TO.P,U5,P$9*
G04 #@! TO.N,OUT-*
X42240200Y-171368720D03*
G04 #@! TO.P,U5,P$10*
G04 #@! TO.N,+5V*
X41739820Y-171368720D03*
G04 #@! TD*
D11*
G04 #@! TO.N,LIPO*
G04 #@! TO.C,R7*
G36*
X65301691Y-169845053D02*
X65322926Y-169848203D01*
X65343750Y-169853419D01*
X65363962Y-169860651D01*
X65383368Y-169869830D01*
X65401781Y-169880866D01*
X65419024Y-169893654D01*
X65434930Y-169908070D01*
X65449346Y-169923976D01*
X65462134Y-169941219D01*
X65473170Y-169959632D01*
X65482349Y-169979038D01*
X65489581Y-169999250D01*
X65494797Y-170020074D01*
X65497947Y-170041309D01*
X65499000Y-170062750D01*
X65499000Y-170500250D01*
X65497947Y-170521691D01*
X65494797Y-170542926D01*
X65489581Y-170563750D01*
X65482349Y-170583962D01*
X65473170Y-170603368D01*
X65462134Y-170621781D01*
X65449346Y-170639024D01*
X65434930Y-170654930D01*
X65419024Y-170669346D01*
X65401781Y-170682134D01*
X65383368Y-170693170D01*
X65363962Y-170702349D01*
X65343750Y-170709581D01*
X65322926Y-170714797D01*
X65301691Y-170717947D01*
X65280250Y-170719000D01*
X64767750Y-170719000D01*
X64746309Y-170717947D01*
X64725074Y-170714797D01*
X64704250Y-170709581D01*
X64684038Y-170702349D01*
X64664632Y-170693170D01*
X64646219Y-170682134D01*
X64628976Y-170669346D01*
X64613070Y-170654930D01*
X64598654Y-170639024D01*
X64585866Y-170621781D01*
X64574830Y-170603368D01*
X64565651Y-170583962D01*
X64558419Y-170563750D01*
X64553203Y-170542926D01*
X64550053Y-170521691D01*
X64549000Y-170500250D01*
X64549000Y-170062750D01*
X64550053Y-170041309D01*
X64553203Y-170020074D01*
X64558419Y-169999250D01*
X64565651Y-169979038D01*
X64574830Y-169959632D01*
X64585866Y-169941219D01*
X64598654Y-169923976D01*
X64613070Y-169908070D01*
X64628976Y-169893654D01*
X64646219Y-169880866D01*
X64664632Y-169869830D01*
X64684038Y-169860651D01*
X64704250Y-169853419D01*
X64725074Y-169848203D01*
X64746309Y-169845053D01*
X64767750Y-169844000D01*
X65280250Y-169844000D01*
X65301691Y-169845053D01*
X65301691Y-169845053D01*
G37*
D12*
G04 #@! TD*
G04 #@! TO.P,R7,1*
G04 #@! TO.N,LIPO*
X65024000Y-170281500D03*
D11*
G04 #@! TO.N,Net-(JP1-Pad2)*
G04 #@! TO.C,R7*
G36*
X65301691Y-171420053D02*
X65322926Y-171423203D01*
X65343750Y-171428419D01*
X65363962Y-171435651D01*
X65383368Y-171444830D01*
X65401781Y-171455866D01*
X65419024Y-171468654D01*
X65434930Y-171483070D01*
X65449346Y-171498976D01*
X65462134Y-171516219D01*
X65473170Y-171534632D01*
X65482349Y-171554038D01*
X65489581Y-171574250D01*
X65494797Y-171595074D01*
X65497947Y-171616309D01*
X65499000Y-171637750D01*
X65499000Y-172075250D01*
X65497947Y-172096691D01*
X65494797Y-172117926D01*
X65489581Y-172138750D01*
X65482349Y-172158962D01*
X65473170Y-172178368D01*
X65462134Y-172196781D01*
X65449346Y-172214024D01*
X65434930Y-172229930D01*
X65419024Y-172244346D01*
X65401781Y-172257134D01*
X65383368Y-172268170D01*
X65363962Y-172277349D01*
X65343750Y-172284581D01*
X65322926Y-172289797D01*
X65301691Y-172292947D01*
X65280250Y-172294000D01*
X64767750Y-172294000D01*
X64746309Y-172292947D01*
X64725074Y-172289797D01*
X64704250Y-172284581D01*
X64684038Y-172277349D01*
X64664632Y-172268170D01*
X64646219Y-172257134D01*
X64628976Y-172244346D01*
X64613070Y-172229930D01*
X64598654Y-172214024D01*
X64585866Y-172196781D01*
X64574830Y-172178368D01*
X64565651Y-172158962D01*
X64558419Y-172138750D01*
X64553203Y-172117926D01*
X64550053Y-172096691D01*
X64549000Y-172075250D01*
X64549000Y-171637750D01*
X64550053Y-171616309D01*
X64553203Y-171595074D01*
X64558419Y-171574250D01*
X64565651Y-171554038D01*
X64574830Y-171534632D01*
X64585866Y-171516219D01*
X64598654Y-171498976D01*
X64613070Y-171483070D01*
X64628976Y-171468654D01*
X64646219Y-171455866D01*
X64664632Y-171444830D01*
X64684038Y-171435651D01*
X64704250Y-171428419D01*
X64725074Y-171423203D01*
X64746309Y-171420053D01*
X64767750Y-171419000D01*
X65280250Y-171419000D01*
X65301691Y-171420053D01*
X65301691Y-171420053D01*
G37*
D12*
G04 #@! TD*
G04 #@! TO.P,R7,2*
G04 #@! TO.N,Net-(JP1-Pad2)*
X65024000Y-171856500D03*
D25*
G04 #@! TO.P,JP1,2*
G04 #@! TO.N,Net-(JP1-Pad2)*
X57302400Y-172339000D03*
G04 #@! TO.P,JP1,1*
G04 #@! TO.N,ALERT*
X56489600Y-172339000D03*
G04 #@! TD*
G04 #@! TO.P,JP2,1*
G04 #@! TO.N,EN*
X56489600Y-174879000D03*
G04 #@! TO.P,JP2,2*
G04 #@! TO.N,Net-(JP1-Pad2)*
X57302400Y-174879000D03*
G04 #@! TD*
D11*
G04 #@! TO.N,+5V*
G04 #@! TO.C,R8*
G36*
X48004191Y-175941053D02*
X48025426Y-175944203D01*
X48046250Y-175949419D01*
X48066462Y-175956651D01*
X48085868Y-175965830D01*
X48104281Y-175976866D01*
X48121524Y-175989654D01*
X48137430Y-176004070D01*
X48151846Y-176019976D01*
X48164634Y-176037219D01*
X48175670Y-176055632D01*
X48184849Y-176075038D01*
X48192081Y-176095250D01*
X48197297Y-176116074D01*
X48200447Y-176137309D01*
X48201500Y-176158750D01*
X48201500Y-176596250D01*
X48200447Y-176617691D01*
X48197297Y-176638926D01*
X48192081Y-176659750D01*
X48184849Y-176679962D01*
X48175670Y-176699368D01*
X48164634Y-176717781D01*
X48151846Y-176735024D01*
X48137430Y-176750930D01*
X48121524Y-176765346D01*
X48104281Y-176778134D01*
X48085868Y-176789170D01*
X48066462Y-176798349D01*
X48046250Y-176805581D01*
X48025426Y-176810797D01*
X48004191Y-176813947D01*
X47982750Y-176815000D01*
X47470250Y-176815000D01*
X47448809Y-176813947D01*
X47427574Y-176810797D01*
X47406750Y-176805581D01*
X47386538Y-176798349D01*
X47367132Y-176789170D01*
X47348719Y-176778134D01*
X47331476Y-176765346D01*
X47315570Y-176750930D01*
X47301154Y-176735024D01*
X47288366Y-176717781D01*
X47277330Y-176699368D01*
X47268151Y-176679962D01*
X47260919Y-176659750D01*
X47255703Y-176638926D01*
X47252553Y-176617691D01*
X47251500Y-176596250D01*
X47251500Y-176158750D01*
X47252553Y-176137309D01*
X47255703Y-176116074D01*
X47260919Y-176095250D01*
X47268151Y-176075038D01*
X47277330Y-176055632D01*
X47288366Y-176037219D01*
X47301154Y-176019976D01*
X47315570Y-176004070D01*
X47331476Y-175989654D01*
X47348719Y-175976866D01*
X47367132Y-175965830D01*
X47386538Y-175956651D01*
X47406750Y-175949419D01*
X47427574Y-175944203D01*
X47448809Y-175941053D01*
X47470250Y-175940000D01*
X47982750Y-175940000D01*
X48004191Y-175941053D01*
X48004191Y-175941053D01*
G37*
D12*
G04 #@! TD*
G04 #@! TO.P,R8,1*
G04 #@! TO.N,+5V*
X47726500Y-176377500D03*
D11*
G04 #@! TO.N,MOTOR_EN*
G04 #@! TO.C,R8*
G36*
X48004191Y-177516053D02*
X48025426Y-177519203D01*
X48046250Y-177524419D01*
X48066462Y-177531651D01*
X48085868Y-177540830D01*
X48104281Y-177551866D01*
X48121524Y-177564654D01*
X48137430Y-177579070D01*
X48151846Y-177594976D01*
X48164634Y-177612219D01*
X48175670Y-177630632D01*
X48184849Y-177650038D01*
X48192081Y-177670250D01*
X48197297Y-177691074D01*
X48200447Y-177712309D01*
X48201500Y-177733750D01*
X48201500Y-178171250D01*
X48200447Y-178192691D01*
X48197297Y-178213926D01*
X48192081Y-178234750D01*
X48184849Y-178254962D01*
X48175670Y-178274368D01*
X48164634Y-178292781D01*
X48151846Y-178310024D01*
X48137430Y-178325930D01*
X48121524Y-178340346D01*
X48104281Y-178353134D01*
X48085868Y-178364170D01*
X48066462Y-178373349D01*
X48046250Y-178380581D01*
X48025426Y-178385797D01*
X48004191Y-178388947D01*
X47982750Y-178390000D01*
X47470250Y-178390000D01*
X47448809Y-178388947D01*
X47427574Y-178385797D01*
X47406750Y-178380581D01*
X47386538Y-178373349D01*
X47367132Y-178364170D01*
X47348719Y-178353134D01*
X47331476Y-178340346D01*
X47315570Y-178325930D01*
X47301154Y-178310024D01*
X47288366Y-178292781D01*
X47277330Y-178274368D01*
X47268151Y-178254962D01*
X47260919Y-178234750D01*
X47255703Y-178213926D01*
X47252553Y-178192691D01*
X47251500Y-178171250D01*
X47251500Y-177733750D01*
X47252553Y-177712309D01*
X47255703Y-177691074D01*
X47260919Y-177670250D01*
X47268151Y-177650038D01*
X47277330Y-177630632D01*
X47288366Y-177612219D01*
X47301154Y-177594976D01*
X47315570Y-177579070D01*
X47331476Y-177564654D01*
X47348719Y-177551866D01*
X47367132Y-177540830D01*
X47386538Y-177531651D01*
X47406750Y-177524419D01*
X47427574Y-177519203D01*
X47448809Y-177516053D01*
X47470250Y-177515000D01*
X47982750Y-177515000D01*
X48004191Y-177516053D01*
X48004191Y-177516053D01*
G37*
D12*
G04 #@! TD*
G04 #@! TO.P,R8,2*
G04 #@! TO.N,MOTOR_EN*
X47726500Y-177952500D03*
D26*
G04 #@! TO.P,C7,+*
G04 #@! TO.N,+5V*
X20193000Y-163997640D03*
D27*
G04 #@! TO.P,C7,-*
G04 #@! TO.N,GND*
X20193000Y-168996360D03*
G04 #@! TD*
D11*
G04 #@! TO.N,Net-(J2-Pad2)*
G04 #@! TO.C,R9*
G36*
X38695691Y-162340053D02*
X38716926Y-162343203D01*
X38737750Y-162348419D01*
X38757962Y-162355651D01*
X38777368Y-162364830D01*
X38795781Y-162375866D01*
X38813024Y-162388654D01*
X38828930Y-162403070D01*
X38843346Y-162418976D01*
X38856134Y-162436219D01*
X38867170Y-162454632D01*
X38876349Y-162474038D01*
X38883581Y-162494250D01*
X38888797Y-162515074D01*
X38891947Y-162536309D01*
X38893000Y-162557750D01*
X38893000Y-163070250D01*
X38891947Y-163091691D01*
X38888797Y-163112926D01*
X38883581Y-163133750D01*
X38876349Y-163153962D01*
X38867170Y-163173368D01*
X38856134Y-163191781D01*
X38843346Y-163209024D01*
X38828930Y-163224930D01*
X38813024Y-163239346D01*
X38795781Y-163252134D01*
X38777368Y-163263170D01*
X38757962Y-163272349D01*
X38737750Y-163279581D01*
X38716926Y-163284797D01*
X38695691Y-163287947D01*
X38674250Y-163289000D01*
X38236750Y-163289000D01*
X38215309Y-163287947D01*
X38194074Y-163284797D01*
X38173250Y-163279581D01*
X38153038Y-163272349D01*
X38133632Y-163263170D01*
X38115219Y-163252134D01*
X38097976Y-163239346D01*
X38082070Y-163224930D01*
X38067654Y-163209024D01*
X38054866Y-163191781D01*
X38043830Y-163173368D01*
X38034651Y-163153962D01*
X38027419Y-163133750D01*
X38022203Y-163112926D01*
X38019053Y-163091691D01*
X38018000Y-163070250D01*
X38018000Y-162557750D01*
X38019053Y-162536309D01*
X38022203Y-162515074D01*
X38027419Y-162494250D01*
X38034651Y-162474038D01*
X38043830Y-162454632D01*
X38054866Y-162436219D01*
X38067654Y-162418976D01*
X38082070Y-162403070D01*
X38097976Y-162388654D01*
X38115219Y-162375866D01*
X38133632Y-162364830D01*
X38153038Y-162355651D01*
X38173250Y-162348419D01*
X38194074Y-162343203D01*
X38215309Y-162340053D01*
X38236750Y-162339000D01*
X38674250Y-162339000D01*
X38695691Y-162340053D01*
X38695691Y-162340053D01*
G37*
D12*
G04 #@! TD*
G04 #@! TO.P,R9,1*
G04 #@! TO.N,Net-(J2-Pad2)*
X38455500Y-162814000D03*
D11*
G04 #@! TO.N,LED_BUFFERED*
G04 #@! TO.C,R9*
G36*
X40270691Y-162340053D02*
X40291926Y-162343203D01*
X40312750Y-162348419D01*
X40332962Y-162355651D01*
X40352368Y-162364830D01*
X40370781Y-162375866D01*
X40388024Y-162388654D01*
X40403930Y-162403070D01*
X40418346Y-162418976D01*
X40431134Y-162436219D01*
X40442170Y-162454632D01*
X40451349Y-162474038D01*
X40458581Y-162494250D01*
X40463797Y-162515074D01*
X40466947Y-162536309D01*
X40468000Y-162557750D01*
X40468000Y-163070250D01*
X40466947Y-163091691D01*
X40463797Y-163112926D01*
X40458581Y-163133750D01*
X40451349Y-163153962D01*
X40442170Y-163173368D01*
X40431134Y-163191781D01*
X40418346Y-163209024D01*
X40403930Y-163224930D01*
X40388024Y-163239346D01*
X40370781Y-163252134D01*
X40352368Y-163263170D01*
X40332962Y-163272349D01*
X40312750Y-163279581D01*
X40291926Y-163284797D01*
X40270691Y-163287947D01*
X40249250Y-163289000D01*
X39811750Y-163289000D01*
X39790309Y-163287947D01*
X39769074Y-163284797D01*
X39748250Y-163279581D01*
X39728038Y-163272349D01*
X39708632Y-163263170D01*
X39690219Y-163252134D01*
X39672976Y-163239346D01*
X39657070Y-163224930D01*
X39642654Y-163209024D01*
X39629866Y-163191781D01*
X39618830Y-163173368D01*
X39609651Y-163153962D01*
X39602419Y-163133750D01*
X39597203Y-163112926D01*
X39594053Y-163091691D01*
X39593000Y-163070250D01*
X39593000Y-162557750D01*
X39594053Y-162536309D01*
X39597203Y-162515074D01*
X39602419Y-162494250D01*
X39609651Y-162474038D01*
X39618830Y-162454632D01*
X39629866Y-162436219D01*
X39642654Y-162418976D01*
X39657070Y-162403070D01*
X39672976Y-162388654D01*
X39690219Y-162375866D01*
X39708632Y-162364830D01*
X39728038Y-162355651D01*
X39748250Y-162348419D01*
X39769074Y-162343203D01*
X39790309Y-162340053D01*
X39811750Y-162339000D01*
X40249250Y-162339000D01*
X40270691Y-162340053D01*
X40270691Y-162340053D01*
G37*
D12*
G04 #@! TD*
G04 #@! TO.P,R9,2*
G04 #@! TO.N,LED_BUFFERED*
X40030500Y-162814000D03*
D28*
G04 #@! TO.N,GND*
X59563000Y-173355000D03*
X42672000Y-169164000D03*
X45847000Y-164592000D03*
X48514000Y-166497000D03*
X45847000Y-162306000D03*
X49276000Y-163576000D03*
X50927000Y-166497000D03*
X45339000Y-176022000D03*
X48514000Y-174371000D03*
X40259000Y-171069000D03*
X38354000Y-172847000D03*
X62357000Y-178562000D03*
X64135000Y-178689000D03*
X61722000Y-157734000D03*
X59944000Y-161544000D03*
X64135000Y-173482000D03*
X62230000Y-173482000D03*
X66548000Y-171196000D03*
G04 #@! TO.N,+3V3*
X49149000Y-184023000D03*
X46609000Y-188722000D03*
G04 #@! TO.N,+5V*
X42189400Y-189230000D03*
X42189400Y-184150000D03*
X40767000Y-181102000D03*
X44958000Y-179324000D03*
X46990000Y-172847000D03*
G04 #@! TO.N,SDA_5V*
X40317847Y-178620847D03*
X42652313Y-178336992D03*
G04 #@! TO.N,Net-(JP1-Pad2)*
X58420000Y-174879000D03*
X65024000Y-174879000D03*
G04 #@! TD*
D29*
G04 #@! TO.N,GND*
X60330080Y-172587920D02*
X59563000Y-173355000D01*
X60330080Y-172057060D02*
X60330080Y-172587920D01*
X42740580Y-169232580D02*
X42672000Y-169164000D01*
X42740580Y-171368720D02*
X42740580Y-169232580D01*
X66591180Y-171152820D02*
X66548000Y-171196000D01*
X66591180Y-170091100D02*
X66591180Y-171152820D01*
X61904000Y-168529000D02*
X63017400Y-167415600D01*
X61366500Y-168529000D02*
X61904000Y-168529000D01*
G04 #@! TO.N,+3V3*
X48986500Y-182814000D02*
X49149000Y-182651500D01*
X46609000Y-182814000D02*
X48986500Y-182814000D01*
X46771500Y-187096500D02*
X46609000Y-187259000D01*
X49149000Y-187096500D02*
X46771500Y-187096500D01*
D30*
X49149000Y-184023000D02*
X49149000Y-182651500D01*
X46609000Y-188722000D02*
X46609000Y-187259000D01*
D31*
G04 #@! TO.N,LIPO*
X59791500Y-166624000D02*
X59791500Y-168529000D01*
D29*
X60330080Y-169931080D02*
X60304561Y-169905561D01*
X60330080Y-170080940D02*
X60330080Y-169931080D01*
X59791500Y-168529000D02*
X60330080Y-169067580D01*
X60330080Y-169418000D02*
X60330080Y-170080940D01*
X60330080Y-169067580D02*
X60330080Y-169418000D01*
X60341391Y-169406689D02*
X60330080Y-169418000D01*
X60827920Y-169411769D02*
X60833000Y-169406689D01*
X60827920Y-170080940D02*
X60827920Y-169411769D01*
X60833000Y-169406689D02*
X60341391Y-169406689D01*
D31*
X59791500Y-166624000D02*
X59791500Y-165760500D01*
X60579000Y-164973000D02*
X63373000Y-164973000D01*
X63754000Y-164592000D02*
X63754000Y-161544000D01*
X63373000Y-164973000D02*
X63754000Y-164592000D01*
X60579000Y-164973000D02*
X59791500Y-164973000D01*
X59791500Y-164973000D02*
X59791500Y-165760500D01*
X54229000Y-157099000D02*
X56134000Y-157099000D01*
X56134000Y-157099000D02*
X57404000Y-158369000D01*
X57404000Y-158369000D02*
X57404000Y-163449000D01*
X58928000Y-164973000D02*
X59791500Y-164973000D01*
X57404000Y-163449000D02*
X58928000Y-164973000D01*
D29*
X66352420Y-166277420D02*
X66064000Y-165989000D01*
X67241420Y-169291190D02*
X67241420Y-170091100D01*
X66987230Y-169037000D02*
X67241420Y-169291190D01*
X65024000Y-170281500D02*
X65024000Y-169744000D01*
X65024000Y-169744000D02*
X65024000Y-169037000D01*
X62103000Y-169418000D02*
X62484000Y-169037000D01*
X60833000Y-169406689D02*
X62103000Y-169418000D01*
X63119000Y-169744000D02*
X63119000Y-169037000D01*
X63119000Y-170281500D02*
X63119000Y-169744000D01*
X63119000Y-169037000D02*
X65024000Y-169037000D01*
X62484000Y-169037000D02*
X63119000Y-169037000D01*
X66064000Y-169013000D02*
X66040000Y-169037000D01*
X66064000Y-165989000D02*
X66064000Y-169013000D01*
X66040000Y-169037000D02*
X66987230Y-169037000D01*
X65024000Y-169037000D02*
X66040000Y-169037000D01*
D32*
G04 #@! TO.N,+5V*
X67310000Y-176530000D02*
X67310000Y-178562000D01*
X67310000Y-179264000D02*
X54600800Y-191973200D01*
X67310000Y-178689000D02*
X67310000Y-179264000D01*
X44932600Y-191973200D02*
X42189400Y-189230000D01*
D31*
X42189400Y-185496100D02*
X42164000Y-185521500D01*
D32*
X42189400Y-184150000D02*
X42189400Y-185496100D01*
X40792500Y-181076500D02*
X40767000Y-181102000D01*
X42164000Y-181076500D02*
X40792500Y-181076500D01*
D29*
X41739820Y-172549820D02*
X41739820Y-171368720D01*
D32*
X43205500Y-181076500D02*
X44958000Y-179324000D01*
X42164000Y-181076500D02*
X43205500Y-181076500D01*
D31*
X45364500Y-172847000D02*
X45339000Y-172821500D01*
D32*
X46990000Y-172847000D02*
X45364500Y-172847000D01*
D29*
X42011500Y-172821500D02*
X41739820Y-172549820D01*
X43738800Y-171368720D02*
X43738800Y-172770700D01*
X43688000Y-172821500D02*
X42011500Y-172821500D01*
X43738800Y-172770700D02*
X43688000Y-172821500D01*
X45339000Y-172821500D02*
X43688000Y-172821500D01*
D32*
X45339000Y-169164000D02*
X45339000Y-172821500D01*
X45339000Y-167005000D02*
X45339000Y-169164000D01*
X44831000Y-166497000D02*
X45339000Y-167005000D01*
X67310000Y-176119390D02*
X67310000Y-176784000D01*
X67886580Y-175542810D02*
X67310000Y-176119390D01*
D30*
X67886580Y-174586900D02*
X67886580Y-175542810D01*
D32*
X46990000Y-174371000D02*
X46990000Y-172847000D01*
X47726500Y-176377500D02*
X47726500Y-175234500D01*
X46990000Y-174498000D02*
X46990000Y-174371000D01*
X47726500Y-175234500D02*
X46990000Y-174498000D01*
X44932600Y-191973200D02*
X54600800Y-191973200D01*
X44831000Y-166497000D02*
X44323000Y-165989000D01*
D29*
X32131000Y-165989000D02*
X35306000Y-165989000D01*
D32*
X41833800Y-164956490D02*
X41833800Y-165989000D01*
X41849040Y-164096700D02*
X41849040Y-164941250D01*
X41849040Y-164941250D02*
X41833800Y-164956490D01*
X41833800Y-165989000D02*
X35306000Y-165989000D01*
X44323000Y-165989000D02*
X41833800Y-165989000D01*
X20193000Y-165597840D02*
X20193000Y-163997640D01*
X20584160Y-165989000D02*
X20193000Y-165597840D01*
X32131000Y-165989000D02*
X20584160Y-165989000D01*
X21125000Y-152821000D02*
X22860000Y-152821000D01*
X21042098Y-152821000D02*
X21125000Y-152821000D01*
X20193000Y-153670098D02*
X21042098Y-152821000D01*
X20193000Y-163997640D02*
X20193000Y-153670098D01*
D29*
G04 #@! TO.N,Net-(C5-Pad1)*
X40259000Y-174396500D02*
X40259000Y-175260000D01*
X40767000Y-175768000D02*
X41739820Y-175768000D01*
X40259000Y-175260000D02*
X40767000Y-175768000D01*
D30*
G04 #@! TO.N,LED_BUFFERED*
X41836340Y-162814000D02*
X41849040Y-162801300D01*
X40030500Y-162814000D02*
X41836340Y-162814000D01*
D29*
G04 #@! TO.N,OUT+*
X43561000Y-169418000D02*
X43238420Y-169740580D01*
X41783000Y-168529000D02*
X42037000Y-168275000D01*
X41021000Y-168529000D02*
X41783000Y-168529000D01*
X43561000Y-168656000D02*
X43561000Y-169418000D01*
X30601801Y-168534199D02*
X41021000Y-168529000D01*
X43238420Y-169740580D02*
X43238420Y-171368720D01*
X43180000Y-168275000D02*
X43561000Y-168656000D01*
X42037000Y-168275000D02*
X43180000Y-168275000D01*
X23237000Y-175641000D02*
X22987000Y-175641000D01*
X30343801Y-168534199D02*
X23237000Y-175641000D01*
X30601801Y-168534199D02*
X30343801Y-168534199D01*
G04 #@! TO.N,OUT-*
X23237000Y-178141000D02*
X22987000Y-178141000D01*
X30303801Y-171074199D02*
X23237000Y-178141000D01*
X42240200Y-171368720D02*
X42240200Y-170256200D01*
X41402000Y-169418000D02*
X36161906Y-169418000D01*
X36161906Y-169418000D02*
X34505707Y-171074199D01*
X42240200Y-170256200D02*
X41402000Y-169418000D01*
X34505707Y-171074199D02*
X30303801Y-171074199D01*
G04 #@! TO.N,SDA_3V3*
X61328300Y-182384700D02*
X61328300Y-172057060D01*
X58674000Y-185039000D02*
X61328300Y-182384700D01*
X54229000Y-185039000D02*
X58674000Y-185039000D01*
X53746500Y-185521500D02*
X54229000Y-185039000D01*
X49149000Y-185521500D02*
X53746500Y-185521500D01*
X48986500Y-185359000D02*
X49149000Y-185521500D01*
X46609000Y-185359000D02*
X48986500Y-185359000D01*
G04 #@! TO.N,SDA_5V*
X43281500Y-187096500D02*
X42164000Y-187096500D01*
X44069000Y-186309000D02*
X43281500Y-187096500D01*
X44609000Y-186309000D02*
X44069000Y-186309000D01*
X39591990Y-179346704D02*
X40317847Y-178620847D01*
X39591990Y-184524490D02*
X39591990Y-179346704D01*
X42164000Y-187096500D02*
X39591990Y-184524490D01*
X42740580Y-178248725D02*
X42740580Y-175768000D01*
X42652313Y-178336992D02*
X42740580Y-178248725D01*
G04 #@! TO.N,SCL_5V*
X43281500Y-182651500D02*
X42164000Y-182651500D01*
X44069000Y-181864000D02*
X43281500Y-182651500D01*
X44609000Y-181864000D02*
X44069000Y-181864000D01*
X42164000Y-182651500D02*
X40665500Y-182651500D01*
X40041999Y-182027999D02*
X40041999Y-179922001D01*
X40665500Y-182651500D02*
X40041999Y-182027999D01*
X42240200Y-177723800D02*
X42240200Y-175768000D01*
X40041999Y-179922001D02*
X42240200Y-177723800D01*
G04 #@! TO.N,SCL_3V3*
X54229000Y-182499000D02*
X59944000Y-182499000D01*
X60827920Y-181615080D02*
X60827920Y-172057060D01*
X59944000Y-182499000D02*
X60827920Y-181615080D01*
X52806500Y-181076500D02*
X54229000Y-182499000D01*
X49149000Y-181076500D02*
X52806500Y-181076500D01*
X48986500Y-180914000D02*
X49149000Y-181076500D01*
X46609000Y-180914000D02*
X48986500Y-180914000D01*
G04 #@! TO.N,Net-(R1-Pad2)*
X65702180Y-176497180D02*
X65735000Y-176530000D01*
X63906500Y-176784000D02*
X65735000Y-176784000D01*
X66591180Y-175927820D02*
X66591180Y-174586900D01*
X65735000Y-176784000D02*
X66591180Y-175927820D01*
G04 #@! TO.N,LED*
X43748960Y-163449000D02*
X47371000Y-163449000D01*
X47371000Y-163449000D02*
X49784000Y-165862000D01*
X49784000Y-165862000D02*
X49784000Y-176657000D01*
X50546000Y-177419000D02*
X54229000Y-177419000D01*
X49784000Y-176657000D02*
X50546000Y-177419000D01*
G04 #@! TO.N,Net-(JP1-Pad2)*
X59082940Y-172057060D02*
X59829700Y-172057060D01*
X58801000Y-172339000D02*
X59082940Y-172057060D01*
X58166000Y-172339000D02*
X58801000Y-172339000D01*
X57302400Y-172339000D02*
X58166000Y-172339000D01*
D30*
X57302400Y-172339000D02*
X57302400Y-174879000D01*
X57302400Y-174879000D02*
X58420000Y-174879000D01*
D29*
X65024000Y-174879000D02*
X65024000Y-171856500D01*
X67886580Y-171381420D02*
X67886580Y-170091100D01*
X65659000Y-172212000D02*
X67056000Y-172212000D01*
X65303500Y-171856500D02*
X65659000Y-172212000D01*
X67056000Y-172212000D02*
X67886580Y-171381420D01*
X65024000Y-171856500D02*
X65303500Y-171856500D01*
D30*
G04 #@! TO.N,ALERT*
X54229000Y-172339000D02*
X56489600Y-172339000D01*
G04 #@! TO.N,EN*
X54229000Y-174879000D02*
X56489600Y-174879000D01*
D29*
G04 #@! TO.N,MOTOR_EN*
X43738800Y-176741900D02*
X46955900Y-179959000D01*
X43738800Y-175768000D02*
X43738800Y-176741900D01*
X47726500Y-179933500D02*
X47752000Y-179959000D01*
X47726500Y-177952500D02*
X47726500Y-179933500D01*
X47752000Y-179959000D02*
X54229000Y-179959000D01*
X46955900Y-179959000D02*
X47752000Y-179959000D01*
G04 #@! TO.N,Net-(L1-Pad2)*
X69064000Y-168764010D02*
X69064000Y-165989000D01*
X68536820Y-169291190D02*
X69064000Y-168764010D01*
X68536820Y-170091100D02*
X68536820Y-169291190D01*
G04 #@! TO.N,Net-(J2-Pad2)*
X23110000Y-155321000D02*
X22860000Y-155321000D01*
X31232801Y-163443801D02*
X23110000Y-155321000D01*
X37111895Y-163443801D02*
X31232801Y-163443801D01*
X37741696Y-162814000D02*
X37111895Y-163443801D01*
X38455500Y-162814000D02*
X37741696Y-162814000D01*
G04 #@! TD*
D33*
G04 #@! TO.N,GND*
G36*
X46068710Y-136656194D02*
X48160813Y-136874237D01*
X50231972Y-137241303D01*
X52271587Y-137755511D01*
X54269217Y-138414231D01*
X56214638Y-139214090D01*
X58097892Y-140150995D01*
X59909341Y-141220150D01*
X61639711Y-142416082D01*
X63280147Y-143732672D01*
X64822252Y-145163178D01*
X66258133Y-146700281D01*
X66620851Y-147149000D01*
X58474365Y-147149000D01*
X58420000Y-147138186D01*
X58365635Y-147149000D01*
X58204620Y-147181028D01*
X58022030Y-147303030D01*
X57900028Y-147485620D01*
X57857186Y-147701000D01*
X57868000Y-147755365D01*
X57868001Y-153869630D01*
X57857186Y-153924000D01*
X57900028Y-154139380D01*
X58022030Y-154321970D01*
X58146815Y-154405348D01*
X58109106Y-154461784D01*
X58072085Y-154647900D01*
X58072085Y-158046420D01*
X58073975Y-158055924D01*
X57931022Y-157841978D01*
X57869984Y-157801194D01*
X56701808Y-156633019D01*
X56661022Y-156571978D01*
X56419222Y-156410413D01*
X56205997Y-156368000D01*
X56205995Y-156368000D01*
X56134000Y-156353679D01*
X56062005Y-156368000D01*
X55459743Y-156368000D01*
X55430105Y-156296447D01*
X55031553Y-155897895D01*
X54510819Y-155682200D01*
X53947181Y-155682200D01*
X53426447Y-155897895D01*
X53027895Y-156296447D01*
X52812200Y-156817181D01*
X52812200Y-157380819D01*
X53027895Y-157901553D01*
X53426447Y-158300105D01*
X53592774Y-158369000D01*
X53426447Y-158437895D01*
X53027895Y-158836447D01*
X52812200Y-159357181D01*
X52812200Y-159920819D01*
X53027895Y-160441553D01*
X53426447Y-160840105D01*
X53592774Y-160909000D01*
X53426447Y-160977895D01*
X53027895Y-161376447D01*
X52812200Y-161897181D01*
X52812200Y-162460819D01*
X53027895Y-162981553D01*
X53426447Y-163380105D01*
X53592774Y-163449000D01*
X53426447Y-163517895D01*
X53027895Y-163916447D01*
X52812200Y-164437181D01*
X52812200Y-165000819D01*
X53027895Y-165521553D01*
X53426447Y-165920105D01*
X53592774Y-165989000D01*
X53426447Y-166057895D01*
X53027895Y-166456447D01*
X52812200Y-166977181D01*
X52812200Y-167540819D01*
X53027895Y-168061553D01*
X53426447Y-168460105D01*
X53592774Y-168529000D01*
X53426447Y-168597895D01*
X53027895Y-168996447D01*
X52812200Y-169517181D01*
X52812200Y-170080819D01*
X53027895Y-170601553D01*
X53426447Y-171000105D01*
X53592774Y-171069000D01*
X53426447Y-171137895D01*
X53027895Y-171536447D01*
X52812200Y-172057181D01*
X52812200Y-172620819D01*
X53027895Y-173141553D01*
X53426447Y-173540105D01*
X53592774Y-173609000D01*
X53426447Y-173677895D01*
X53027895Y-174076447D01*
X52812200Y-174597181D01*
X52812200Y-175160819D01*
X53027895Y-175681553D01*
X53426447Y-176080105D01*
X53592774Y-176149000D01*
X53426447Y-176217895D01*
X53027895Y-176616447D01*
X52944823Y-176817000D01*
X50795357Y-176817000D01*
X50386000Y-176407644D01*
X50386000Y-165921282D01*
X50397792Y-165861999D01*
X50386000Y-165802716D01*
X50386000Y-165802712D01*
X50351071Y-165627112D01*
X50218017Y-165427983D01*
X50167755Y-165394399D01*
X47838601Y-163065245D01*
X47805017Y-163014983D01*
X47605888Y-162881929D01*
X47430288Y-162847000D01*
X47430283Y-162847000D01*
X47371000Y-162835208D01*
X47311717Y-162847000D01*
X44369442Y-162847000D01*
X44284326Y-162790127D01*
X44098210Y-162753106D01*
X43399710Y-162753106D01*
X43213594Y-162790127D01*
X43055813Y-162895553D01*
X43048782Y-162906075D01*
X42923460Y-162906075D01*
X42764710Y-163064825D01*
X42764710Y-163137159D01*
X42861383Y-163370548D01*
X42913366Y-163422531D01*
X42913366Y-163475469D01*
X42861383Y-163527452D01*
X42764710Y-163760841D01*
X42764710Y-163833175D01*
X42923460Y-163991925D01*
X43048782Y-163991925D01*
X43055813Y-164002447D01*
X43213594Y-164107873D01*
X43399710Y-164144894D01*
X44098210Y-164144894D01*
X44284326Y-164107873D01*
X44369442Y-164051000D01*
X47121644Y-164051000D01*
X49182000Y-166111356D01*
X49182001Y-176597712D01*
X49170208Y-176657000D01*
X49216930Y-176891888D01*
X49316399Y-177040755D01*
X49316402Y-177040758D01*
X49349984Y-177091017D01*
X49400243Y-177124599D01*
X50078401Y-177802758D01*
X50111983Y-177853017D01*
X50162242Y-177886599D01*
X50162244Y-177886601D01*
X50233441Y-177934173D01*
X50311112Y-177986071D01*
X50486712Y-178021000D01*
X50486717Y-178021000D01*
X50546000Y-178032792D01*
X50605283Y-178021000D01*
X52944823Y-178021000D01*
X53027895Y-178221553D01*
X53426447Y-178620105D01*
X53592774Y-178689000D01*
X53426447Y-178757895D01*
X53027895Y-179156447D01*
X52944823Y-179357000D01*
X48328500Y-179357000D01*
X48328500Y-178771943D01*
X48481327Y-178669827D01*
X48634172Y-178441078D01*
X48687844Y-178171250D01*
X48687844Y-177733750D01*
X48634172Y-177463922D01*
X48481327Y-177235173D01*
X48376306Y-177165000D01*
X48481327Y-177094827D01*
X48634172Y-176866078D01*
X48687844Y-176596250D01*
X48687844Y-176158750D01*
X48634172Y-175888922D01*
X48521000Y-175719548D01*
X48521000Y-175312744D01*
X48536564Y-175234499D01*
X48521000Y-175156254D01*
X48521000Y-175156250D01*
X48474902Y-174924502D01*
X48346775Y-174732746D01*
X48343627Y-174728034D01*
X48343625Y-174728032D01*
X48299302Y-174661698D01*
X48232968Y-174617375D01*
X47784500Y-174168908D01*
X47784500Y-173220617D01*
X47867000Y-173021446D01*
X47867000Y-172672554D01*
X47733484Y-172350220D01*
X47486780Y-172103516D01*
X47164446Y-171970000D01*
X46815554Y-171970000D01*
X46616383Y-172052500D01*
X46133500Y-172052500D01*
X46133500Y-167083244D01*
X46149064Y-167004999D01*
X46133500Y-166926754D01*
X46133500Y-166926750D01*
X46087402Y-166695002D01*
X45998401Y-166561802D01*
X45956127Y-166498534D01*
X45956125Y-166498532D01*
X45911802Y-166432198D01*
X45845468Y-166387875D01*
X44940127Y-165482534D01*
X44895802Y-165416198D01*
X44632998Y-165240598D01*
X44401250Y-165194500D01*
X44401245Y-165194500D01*
X44323000Y-165178936D01*
X44244755Y-165194500D01*
X42628300Y-165194500D01*
X42628300Y-165096116D01*
X42643540Y-165019500D01*
X42643540Y-165019496D01*
X42659104Y-164941250D01*
X42643540Y-164863004D01*
X42643540Y-164498462D01*
X42647613Y-164492366D01*
X42673897Y-164360225D01*
X42764710Y-164360225D01*
X42764710Y-164432559D01*
X42861383Y-164665948D01*
X43040011Y-164844577D01*
X43273400Y-164941250D01*
X43463210Y-164941250D01*
X43621960Y-164782500D01*
X43621960Y-164201475D01*
X43875960Y-164201475D01*
X43875960Y-164782500D01*
X44034710Y-164941250D01*
X44224520Y-164941250D01*
X44457909Y-164844577D01*
X44636537Y-164665948D01*
X44733210Y-164432559D01*
X44733210Y-164360225D01*
X44574460Y-164201475D01*
X43875960Y-164201475D01*
X43621960Y-164201475D01*
X42923460Y-164201475D01*
X42764710Y-164360225D01*
X42673897Y-164360225D01*
X42684634Y-164306250D01*
X42684634Y-163887150D01*
X42647613Y-163701034D01*
X42542187Y-163543253D01*
X42401128Y-163449000D01*
X42542187Y-163354747D01*
X42647613Y-163196966D01*
X42684634Y-163010850D01*
X42684634Y-162591750D01*
X42659510Y-162465441D01*
X42764710Y-162465441D01*
X42764710Y-162537775D01*
X42923460Y-162696525D01*
X43621960Y-162696525D01*
X43621960Y-162115500D01*
X43875960Y-162115500D01*
X43875960Y-162696525D01*
X44574460Y-162696525D01*
X44733210Y-162537775D01*
X44733210Y-162465441D01*
X44636537Y-162232052D01*
X44457909Y-162053423D01*
X44224520Y-161956750D01*
X44034710Y-161956750D01*
X43875960Y-162115500D01*
X43621960Y-162115500D01*
X43463210Y-161956750D01*
X43273400Y-161956750D01*
X43040011Y-162053423D01*
X42861383Y-162232052D01*
X42764710Y-162465441D01*
X42659510Y-162465441D01*
X42647613Y-162405634D01*
X42542187Y-162247853D01*
X42384406Y-162142427D01*
X42198290Y-162105406D01*
X41499790Y-162105406D01*
X41356039Y-162134000D01*
X40797825Y-162134000D01*
X40747827Y-162059173D01*
X40519078Y-161906328D01*
X40249250Y-161852656D01*
X39811750Y-161852656D01*
X39541922Y-161906328D01*
X39313173Y-162059173D01*
X39243000Y-162164194D01*
X39172827Y-162059173D01*
X38944078Y-161906328D01*
X38674250Y-161852656D01*
X38236750Y-161852656D01*
X37966922Y-161906328D01*
X37738173Y-162059173D01*
X37628953Y-162222633D01*
X37506808Y-162246929D01*
X37467621Y-162273113D01*
X37357940Y-162346399D01*
X37357938Y-162346401D01*
X37307679Y-162379983D01*
X37274097Y-162430243D01*
X36862539Y-162841801D01*
X35167992Y-162841801D01*
X35325800Y-162460819D01*
X35325800Y-161897181D01*
X35110105Y-161376447D01*
X34711553Y-160977895D01*
X34545226Y-160909000D01*
X34711553Y-160840105D01*
X35110105Y-160441553D01*
X35325800Y-159920819D01*
X35325800Y-159357181D01*
X35110105Y-158836447D01*
X34711553Y-158437895D01*
X34545226Y-158369000D01*
X34711553Y-158300105D01*
X35110105Y-157901553D01*
X35325800Y-157380819D01*
X35325800Y-156817181D01*
X35110105Y-156296447D01*
X34743655Y-155929997D01*
X34747077Y-155928580D01*
X34838363Y-155667968D01*
X33909000Y-154738605D01*
X32979637Y-155667968D01*
X33070923Y-155928580D01*
X33074460Y-155929882D01*
X32707895Y-156296447D01*
X32492200Y-156817181D01*
X32492200Y-157380819D01*
X32707895Y-157901553D01*
X33106447Y-158300105D01*
X33272774Y-158369000D01*
X33106447Y-158437895D01*
X32707895Y-158836447D01*
X32492200Y-159357181D01*
X32492200Y-159920819D01*
X32707895Y-160441553D01*
X33106447Y-160840105D01*
X33272774Y-160909000D01*
X33106447Y-160977895D01*
X32707895Y-161376447D01*
X32492200Y-161897181D01*
X32492200Y-162460819D01*
X32650008Y-162841801D01*
X31482157Y-162841801D01*
X24379769Y-155739413D01*
X24462997Y-155321000D01*
X24360006Y-154803230D01*
X24066713Y-154364287D01*
X23983721Y-154308833D01*
X32322955Y-154308833D01*
X32347951Y-154934828D01*
X32539420Y-155397077D01*
X32800032Y-155488363D01*
X33729395Y-154559000D01*
X34088605Y-154559000D01*
X35017968Y-155488363D01*
X35278580Y-155397077D01*
X35495045Y-154809167D01*
X35470049Y-154183172D01*
X35278580Y-153720923D01*
X35017968Y-153629637D01*
X34088605Y-154559000D01*
X33729395Y-154559000D01*
X32800032Y-153629637D01*
X32539420Y-153720923D01*
X32322955Y-154308833D01*
X23983721Y-154308833D01*
X23757002Y-154157344D01*
X23960000Y-154157344D01*
X24146116Y-154120323D01*
X24303897Y-154014897D01*
X24409323Y-153857116D01*
X24446344Y-153671000D01*
X24446344Y-151971000D01*
X24409323Y-151784884D01*
X24303897Y-151627103D01*
X24146116Y-151521677D01*
X23960000Y-151484656D01*
X21760000Y-151484656D01*
X21573884Y-151521677D01*
X21416103Y-151627103D01*
X21310677Y-151784884D01*
X21273656Y-151971000D01*
X21273656Y-152026500D01*
X21120343Y-152026500D01*
X21042098Y-152010936D01*
X20963853Y-152026500D01*
X20963848Y-152026500D01*
X20732100Y-152072598D01*
X20732098Y-152072599D01*
X20732099Y-152072599D01*
X20535632Y-152203873D01*
X20535630Y-152203875D01*
X20469296Y-152248198D01*
X20424973Y-152314532D01*
X19686533Y-153052973D01*
X19620199Y-153097296D01*
X19575876Y-153163630D01*
X19575873Y-153163633D01*
X19444599Y-153360100D01*
X19382936Y-153670098D01*
X19398501Y-153748348D01*
X19398500Y-162546096D01*
X19227800Y-162546096D01*
X19041684Y-162583117D01*
X18883903Y-162688543D01*
X18778477Y-162846324D01*
X18741456Y-163032440D01*
X18741456Y-164962840D01*
X18778477Y-165148956D01*
X18883903Y-165306737D01*
X19041684Y-165412163D01*
X19227800Y-165449184D01*
X19398500Y-165449184D01*
X19398500Y-165519595D01*
X19382936Y-165597840D01*
X19398500Y-165676085D01*
X19398500Y-165676089D01*
X19444598Y-165907837D01*
X19620198Y-166170642D01*
X19686535Y-166214967D01*
X19967033Y-166495465D01*
X20011358Y-166561802D01*
X20274162Y-166737402D01*
X20505910Y-166783500D01*
X20505915Y-166783500D01*
X20584160Y-166799064D01*
X20662405Y-166783500D01*
X32209250Y-166783500D01*
X32440998Y-166737402D01*
X32649122Y-166598338D01*
X32492200Y-166977181D01*
X32492200Y-167540819D01*
X32653891Y-167931175D01*
X30602337Y-167932199D01*
X30403083Y-167932199D01*
X30343800Y-167920407D01*
X30284517Y-167932199D01*
X30284513Y-167932199D01*
X30108913Y-167967128D01*
X30108912Y-167967129D01*
X30108911Y-167967129D01*
X30040083Y-168013119D01*
X29909784Y-168100182D01*
X29876200Y-168150444D01*
X23721988Y-174304656D01*
X21887000Y-174304656D01*
X21700884Y-174341677D01*
X21543103Y-174447103D01*
X21437677Y-174604884D01*
X21400656Y-174791000D01*
X21400656Y-175773183D01*
X21008606Y-175935576D01*
X20691576Y-176252606D01*
X20520000Y-176666826D01*
X20520000Y-177115174D01*
X20691576Y-177529394D01*
X21008606Y-177846424D01*
X21409562Y-178012506D01*
X21384003Y-178141000D01*
X21486994Y-178658770D01*
X21780287Y-179097713D01*
X22219230Y-179391006D01*
X22606304Y-179468000D01*
X23367696Y-179468000D01*
X23754770Y-179391006D01*
X24193713Y-179097713D01*
X24487006Y-178658770D01*
X24589997Y-178141000D01*
X24506769Y-177722587D01*
X30553158Y-171676199D01*
X32650008Y-171676199D01*
X32492200Y-172057181D01*
X32492200Y-172620819D01*
X32707895Y-173141553D01*
X33106447Y-173540105D01*
X33272774Y-173609000D01*
X33106447Y-173677895D01*
X32707895Y-174076447D01*
X32492200Y-174597181D01*
X32492200Y-175160819D01*
X32707895Y-175681553D01*
X33106447Y-176080105D01*
X33272774Y-176149000D01*
X33106447Y-176217895D01*
X32707895Y-176616447D01*
X32492200Y-177137181D01*
X32492200Y-177700819D01*
X32707895Y-178221553D01*
X33106447Y-178620105D01*
X33272774Y-178689000D01*
X33106447Y-178757895D01*
X32707895Y-179156447D01*
X32492200Y-179677181D01*
X32492200Y-180240819D01*
X32707895Y-180761553D01*
X33106447Y-181160105D01*
X33272774Y-181229000D01*
X33106447Y-181297895D01*
X32707895Y-181696447D01*
X32492200Y-182217181D01*
X32492200Y-182780819D01*
X32707895Y-183301553D01*
X33106447Y-183700105D01*
X33272774Y-183769000D01*
X33106447Y-183837895D01*
X32707895Y-184236447D01*
X32492200Y-184757181D01*
X32492200Y-185320819D01*
X32707895Y-185841553D01*
X33106447Y-186240105D01*
X33627181Y-186455800D01*
X34190819Y-186455800D01*
X34711553Y-186240105D01*
X35110105Y-185841553D01*
X35325800Y-185320819D01*
X35325800Y-184757181D01*
X35110105Y-184236447D01*
X34711553Y-183837895D01*
X34545226Y-183769000D01*
X34711553Y-183700105D01*
X35110105Y-183301553D01*
X35325800Y-182780819D01*
X35325800Y-182217181D01*
X35110105Y-181696447D01*
X34711553Y-181297895D01*
X34545226Y-181229000D01*
X34711553Y-181160105D01*
X35110105Y-180761553D01*
X35325800Y-180240819D01*
X35325800Y-179677181D01*
X35110105Y-179156447D01*
X34711553Y-178757895D01*
X34545226Y-178689000D01*
X34711553Y-178620105D01*
X35110105Y-178221553D01*
X35325800Y-177700819D01*
X35325800Y-177137181D01*
X35110105Y-176616447D01*
X34711553Y-176217895D01*
X34545226Y-176149000D01*
X34711553Y-176080105D01*
X35110105Y-175681553D01*
X35325800Y-175160819D01*
X35325800Y-174597181D01*
X35110105Y-174076447D01*
X34711553Y-173677895D01*
X34545226Y-173609000D01*
X34711553Y-173540105D01*
X35110105Y-173141553D01*
X35325800Y-172620819D01*
X35325800Y-172257691D01*
X39149000Y-172257691D01*
X39149000Y-172535750D01*
X39307750Y-172694500D01*
X40132000Y-172694500D01*
X40132000Y-171907750D01*
X39973250Y-171749000D01*
X39657690Y-171749000D01*
X39424301Y-171845673D01*
X39245673Y-172024302D01*
X39149000Y-172257691D01*
X35325800Y-172257691D01*
X35325800Y-172057181D01*
X35110105Y-171536447D01*
X35002460Y-171428802D01*
X36411263Y-170020000D01*
X41152644Y-170020000D01*
X41358463Y-170225820D01*
X41246063Y-170300923D01*
X41140637Y-170458704D01*
X41103616Y-170644820D01*
X41103616Y-171855590D01*
X41093699Y-171845673D01*
X40860310Y-171749000D01*
X40544750Y-171749000D01*
X40386000Y-171907750D01*
X40386000Y-172694500D01*
X40406000Y-172694500D01*
X40406000Y-172948500D01*
X40386000Y-172948500D01*
X40386000Y-172968500D01*
X40132000Y-172968500D01*
X40132000Y-172948500D01*
X39307750Y-172948500D01*
X39149000Y-173107250D01*
X39149000Y-173385309D01*
X39245673Y-173618698D01*
X39424301Y-173797327D01*
X39425025Y-173797627D01*
X39351328Y-173907922D01*
X39297656Y-174177750D01*
X39297656Y-174615250D01*
X39351328Y-174885078D01*
X39504173Y-175113827D01*
X39654327Y-175214156D01*
X39645208Y-175260000D01*
X39657000Y-175319283D01*
X39657000Y-175319288D01*
X39689109Y-175480707D01*
X39691930Y-175494888D01*
X39791399Y-175643755D01*
X39791402Y-175643758D01*
X39824984Y-175694017D01*
X39875243Y-175727599D01*
X40299399Y-176151755D01*
X40332983Y-176202017D01*
X40463282Y-176289080D01*
X40532110Y-176335070D01*
X40532111Y-176335070D01*
X40532112Y-176335071D01*
X40707712Y-176370000D01*
X40707716Y-176370000D01*
X40766999Y-176381792D01*
X40826282Y-176370000D01*
X41103616Y-176370000D01*
X41103616Y-176491900D01*
X41140637Y-176678016D01*
X41246063Y-176835797D01*
X41403844Y-176941223D01*
X41589960Y-176978244D01*
X41638200Y-176978244D01*
X41638200Y-177474443D01*
X41024954Y-178087690D01*
X40814627Y-177877363D01*
X40492293Y-177743847D01*
X40143401Y-177743847D01*
X39821067Y-177877363D01*
X39574363Y-178124067D01*
X39440847Y-178446401D01*
X39440847Y-178646491D01*
X39208233Y-178879105D01*
X39157974Y-178912687D01*
X39124392Y-178962946D01*
X39124389Y-178962949D01*
X39024920Y-179111816D01*
X38978198Y-179346704D01*
X38989991Y-179405991D01*
X38989990Y-184465207D01*
X38978198Y-184524490D01*
X38989990Y-184583773D01*
X38989990Y-184583777D01*
X39024919Y-184759377D01*
X39157973Y-184958507D01*
X39208235Y-184992091D01*
X41202656Y-186986512D01*
X41202656Y-187315250D01*
X41256328Y-187585078D01*
X41409173Y-187813827D01*
X41637922Y-187966672D01*
X41907750Y-188020344D01*
X42420250Y-188020344D01*
X42690078Y-187966672D01*
X42918827Y-187813827D01*
X42995886Y-187698500D01*
X43222217Y-187698500D01*
X43281500Y-187710292D01*
X43340783Y-187698500D01*
X43340788Y-187698500D01*
X43516388Y-187663571D01*
X43715517Y-187530517D01*
X43749101Y-187480255D01*
X44054749Y-187174607D01*
X44159000Y-187195344D01*
X45059000Y-187195344D01*
X45245116Y-187158323D01*
X45402897Y-187052897D01*
X45508323Y-186895116D01*
X45545344Y-186709000D01*
X45545344Y-185909000D01*
X45508323Y-185722884D01*
X45402897Y-185565103D01*
X45245116Y-185459677D01*
X45059000Y-185422656D01*
X44159000Y-185422656D01*
X43972884Y-185459677D01*
X43815103Y-185565103D01*
X43709677Y-185722884D01*
X43686234Y-185840737D01*
X43685244Y-185841399D01*
X43685242Y-185841401D01*
X43634983Y-185874983D01*
X43601401Y-185925242D01*
X43032144Y-186494500D01*
X42995886Y-186494500D01*
X42918827Y-186379173D01*
X42813806Y-186309000D01*
X42918827Y-186238827D01*
X43071672Y-186010078D01*
X43125344Y-185740250D01*
X43125344Y-185302750D01*
X43071672Y-185032922D01*
X42983900Y-184901562D01*
X42983900Y-184523617D01*
X43066400Y-184324446D01*
X43066400Y-183975554D01*
X42932884Y-183653220D01*
X42756772Y-183477108D01*
X42918827Y-183368827D01*
X42995886Y-183253500D01*
X43222217Y-183253500D01*
X43281500Y-183265292D01*
X43340783Y-183253500D01*
X43340788Y-183253500D01*
X43516388Y-183218571D01*
X43715517Y-183085517D01*
X43749101Y-183035255D01*
X44054749Y-182729607D01*
X44159000Y-182750344D01*
X45059000Y-182750344D01*
X45245116Y-182713323D01*
X45402897Y-182607897D01*
X45508323Y-182450116D01*
X45545344Y-182264000D01*
X45545344Y-181464000D01*
X45508323Y-181277884D01*
X45402897Y-181120103D01*
X45245116Y-181014677D01*
X45059000Y-180977656D01*
X44427936Y-180977656D01*
X45255609Y-180149984D01*
X45454780Y-180067484D01*
X45701484Y-179820780D01*
X45779054Y-179633510D01*
X46173200Y-180027656D01*
X46159000Y-180027656D01*
X45972884Y-180064677D01*
X45815103Y-180170103D01*
X45709677Y-180327884D01*
X45672656Y-180514000D01*
X45672656Y-181314000D01*
X45709677Y-181500116D01*
X45815103Y-181657897D01*
X45972884Y-181763323D01*
X46159000Y-181800344D01*
X47059000Y-181800344D01*
X47245116Y-181763323D01*
X47402897Y-181657897D01*
X47497710Y-181516000D01*
X48231566Y-181516000D01*
X48241328Y-181565078D01*
X48394173Y-181793827D01*
X48499194Y-181864000D01*
X48394173Y-181934173D01*
X48241328Y-182162922D01*
X48231566Y-182212000D01*
X47497710Y-182212000D01*
X47402897Y-182070103D01*
X47245116Y-181964677D01*
X47059000Y-181927656D01*
X46159000Y-181927656D01*
X45972884Y-181964677D01*
X45815103Y-182070103D01*
X45709677Y-182227884D01*
X45672656Y-182414000D01*
X45672656Y-183214000D01*
X45709677Y-183400116D01*
X45815103Y-183557897D01*
X45972884Y-183663323D01*
X46159000Y-183700344D01*
X47059000Y-183700344D01*
X47245116Y-183663323D01*
X47402897Y-183557897D01*
X47497710Y-183416000D01*
X48464772Y-183416000D01*
X48469000Y-183418825D01*
X48469000Y-183462736D01*
X48405516Y-183526220D01*
X48272000Y-183848554D01*
X48272000Y-184197446D01*
X48405516Y-184519780D01*
X48571454Y-184685718D01*
X48464772Y-184757000D01*
X47497710Y-184757000D01*
X47402897Y-184615103D01*
X47245116Y-184509677D01*
X47059000Y-184472656D01*
X46159000Y-184472656D01*
X45972884Y-184509677D01*
X45815103Y-184615103D01*
X45709677Y-184772884D01*
X45672656Y-184959000D01*
X45672656Y-185759000D01*
X45709677Y-185945116D01*
X45815103Y-186102897D01*
X45972884Y-186208323D01*
X46159000Y-186245344D01*
X47059000Y-186245344D01*
X47245116Y-186208323D01*
X47402897Y-186102897D01*
X47497710Y-185961000D01*
X48231566Y-185961000D01*
X48241328Y-186010078D01*
X48394173Y-186238827D01*
X48499194Y-186309000D01*
X48394173Y-186379173D01*
X48317114Y-186494500D01*
X47372062Y-186494500D01*
X47245116Y-186409677D01*
X47059000Y-186372656D01*
X46159000Y-186372656D01*
X45972884Y-186409677D01*
X45815103Y-186515103D01*
X45709677Y-186672884D01*
X45672656Y-186859000D01*
X45672656Y-187659000D01*
X45709677Y-187845116D01*
X45815103Y-188002897D01*
X45929000Y-188079001D01*
X45929000Y-188161736D01*
X45865516Y-188225220D01*
X45732000Y-188547554D01*
X45732000Y-188896446D01*
X45865516Y-189218780D01*
X46112220Y-189465484D01*
X46434554Y-189599000D01*
X46783446Y-189599000D01*
X47105780Y-189465484D01*
X47352484Y-189218780D01*
X47486000Y-188896446D01*
X47486000Y-188547554D01*
X47425069Y-188400453D01*
X50704000Y-188400453D01*
X50704000Y-189297547D01*
X51047303Y-190126355D01*
X51681645Y-190760697D01*
X52510453Y-191104000D01*
X53407547Y-191104000D01*
X54236355Y-190760697D01*
X54870697Y-190126355D01*
X55214000Y-189297547D01*
X55214000Y-188400453D01*
X54870697Y-187571645D01*
X54236355Y-186937303D01*
X53407547Y-186594000D01*
X52510453Y-186594000D01*
X51681645Y-186937303D01*
X51047303Y-187571645D01*
X50704000Y-188400453D01*
X47425069Y-188400453D01*
X47352484Y-188225220D01*
X47289000Y-188161736D01*
X47289000Y-188079001D01*
X47402897Y-188002897D01*
X47508323Y-187845116D01*
X47537487Y-187698500D01*
X48317114Y-187698500D01*
X48394173Y-187813827D01*
X48622922Y-187966672D01*
X48892750Y-188020344D01*
X49405250Y-188020344D01*
X49675078Y-187966672D01*
X49903827Y-187813827D01*
X50056672Y-187585078D01*
X50110344Y-187315250D01*
X50110344Y-186877750D01*
X50056672Y-186607922D01*
X49903827Y-186379173D01*
X49798806Y-186309000D01*
X49903827Y-186238827D01*
X49980886Y-186123500D01*
X53309842Y-186123500D01*
X53426447Y-186240105D01*
X53947181Y-186455800D01*
X54510819Y-186455800D01*
X55031553Y-186240105D01*
X55430105Y-185841553D01*
X55513177Y-185641000D01*
X58614717Y-185641000D01*
X58674000Y-185652792D01*
X58733283Y-185641000D01*
X58733288Y-185641000D01*
X58908888Y-185606071D01*
X59108017Y-185473017D01*
X59141601Y-185422755D01*
X61712058Y-182852299D01*
X61762317Y-182818717D01*
X61795899Y-182768458D01*
X61795901Y-182768456D01*
X61895370Y-182619589D01*
X61895371Y-182619588D01*
X61930300Y-182443988D01*
X61930300Y-182443984D01*
X61942092Y-182384701D01*
X61930300Y-182325418D01*
X61930300Y-177894000D01*
X62045750Y-177894000D01*
X62204500Y-177735250D01*
X62204500Y-176911000D01*
X62184500Y-176911000D01*
X62184500Y-176657000D01*
X62204500Y-176657000D01*
X62204500Y-175832750D01*
X62045750Y-175674000D01*
X61930300Y-175674000D01*
X61930300Y-172578264D01*
X61964504Y-172406310D01*
X61964504Y-172142250D01*
X62009000Y-172142250D01*
X62009000Y-172420309D01*
X62105673Y-172653698D01*
X62284301Y-172832327D01*
X62517690Y-172929000D01*
X62833250Y-172929000D01*
X62992000Y-172770250D01*
X62992000Y-171983500D01*
X62167750Y-171983500D01*
X62009000Y-172142250D01*
X61964504Y-172142250D01*
X61964504Y-171707810D01*
X61927483Y-171521694D01*
X61903610Y-171485966D01*
X61903610Y-171354750D01*
X61744860Y-171196000D01*
X60866156Y-171196000D01*
X60839639Y-171169483D01*
X60606250Y-171072810D01*
X60563760Y-171072810D01*
X60440570Y-171196000D01*
X60219590Y-171196000D01*
X60096400Y-171072810D01*
X60053910Y-171072810D01*
X59820521Y-171169483D01*
X59794004Y-171196000D01*
X59413140Y-171196000D01*
X59254390Y-171354750D01*
X59254390Y-171455060D01*
X59142222Y-171455060D01*
X59082939Y-171443268D01*
X59023656Y-171455060D01*
X59023652Y-171455060D01*
X58848052Y-171489989D01*
X58848051Y-171489990D01*
X58848050Y-171489990D01*
X58839475Y-171495720D01*
X58648923Y-171623043D01*
X58615337Y-171673308D01*
X58551645Y-171737000D01*
X58106244Y-171737000D01*
X58106244Y-171704000D01*
X58069223Y-171517884D01*
X57963797Y-171360103D01*
X57806016Y-171254677D01*
X57619900Y-171217656D01*
X56984900Y-171217656D01*
X56896000Y-171235339D01*
X56807100Y-171217656D01*
X56172100Y-171217656D01*
X55985984Y-171254677D01*
X55828203Y-171360103D01*
X55722777Y-171517884D01*
X55694707Y-171659000D01*
X55480868Y-171659000D01*
X55430105Y-171536447D01*
X55031553Y-171137895D01*
X54865226Y-171069000D01*
X55031553Y-171000105D01*
X55430105Y-170601553D01*
X55645800Y-170080819D01*
X55645800Y-169517181D01*
X55430105Y-168996447D01*
X55031553Y-168597895D01*
X54865226Y-168529000D01*
X55031553Y-168460105D01*
X55430105Y-168061553D01*
X55645800Y-167540819D01*
X55645800Y-166977181D01*
X55430105Y-166456447D01*
X55031553Y-166057895D01*
X54865226Y-165989000D01*
X55031553Y-165920105D01*
X55430105Y-165521553D01*
X55645800Y-165000819D01*
X55645800Y-164437181D01*
X55430105Y-163916447D01*
X55031553Y-163517895D01*
X54865226Y-163449000D01*
X55031553Y-163380105D01*
X55430105Y-162981553D01*
X55645800Y-162460819D01*
X55645800Y-161897181D01*
X55430105Y-161376447D01*
X55031553Y-160977895D01*
X54865226Y-160909000D01*
X55031553Y-160840105D01*
X55430105Y-160441553D01*
X55645800Y-159920819D01*
X55645800Y-159357181D01*
X55430105Y-158836447D01*
X55031553Y-158437895D01*
X54865226Y-158369000D01*
X55031553Y-158300105D01*
X55430105Y-157901553D01*
X55459743Y-157830000D01*
X55831211Y-157830000D01*
X56673000Y-158671790D01*
X56673001Y-163377000D01*
X56658679Y-163449000D01*
X56709135Y-163702656D01*
X56715414Y-163734222D01*
X56876979Y-163976022D01*
X56938017Y-164016806D01*
X58360193Y-165438983D01*
X58400978Y-165500022D01*
X58642778Y-165661587D01*
X58856003Y-165704000D01*
X58856004Y-165704000D01*
X58927999Y-165718321D01*
X58999994Y-165704000D01*
X59060500Y-165704000D01*
X59060500Y-165889636D01*
X58921328Y-166097922D01*
X58867656Y-166367750D01*
X58867656Y-166880250D01*
X58921328Y-167150078D01*
X59060500Y-167358364D01*
X59060501Y-167794635D01*
X58921328Y-168002922D01*
X58867656Y-168272750D01*
X58867656Y-168785250D01*
X58921328Y-169055078D01*
X59074173Y-169283827D01*
X59167391Y-169346113D01*
X59141513Y-169371992D01*
X59044840Y-169605381D01*
X59044840Y-169795190D01*
X59203590Y-169953940D01*
X59693876Y-169953940D01*
X59693876Y-170063886D01*
X59529692Y-170131893D01*
X59453645Y-170207940D01*
X59203590Y-170207940D01*
X59044840Y-170366690D01*
X59044840Y-170556499D01*
X59141513Y-170789888D01*
X59320141Y-170968517D01*
X59553530Y-171065190D01*
X59596020Y-171065190D01*
X59719210Y-170942000D01*
X59940190Y-170942000D01*
X60063380Y-171065190D01*
X60105870Y-171065190D01*
X60339259Y-170968517D01*
X60365776Y-170942000D01*
X60452000Y-170942000D01*
X60452000Y-170922000D01*
X60706000Y-170922000D01*
X60706000Y-170942000D01*
X60792224Y-170942000D01*
X60818741Y-170968517D01*
X61052130Y-171065190D01*
X61094620Y-171065190D01*
X61217810Y-170942000D01*
X61438790Y-170942000D01*
X61561980Y-171065190D01*
X61604470Y-171065190D01*
X61837859Y-170968517D01*
X62016487Y-170789888D01*
X62113160Y-170556499D01*
X62113160Y-170366690D01*
X61954410Y-170207940D01*
X61704355Y-170207940D01*
X61628308Y-170131893D01*
X61464124Y-170063886D01*
X61464124Y-170014334D01*
X62041064Y-170019472D01*
X62103000Y-170031792D01*
X62166319Y-170019197D01*
X62157656Y-170062750D01*
X62157656Y-170500250D01*
X62211328Y-170770078D01*
X62285025Y-170880373D01*
X62284301Y-170880673D01*
X62105673Y-171059302D01*
X62009000Y-171292691D01*
X62009000Y-171570750D01*
X62167750Y-171729500D01*
X62992000Y-171729500D01*
X62992000Y-171709500D01*
X63246000Y-171709500D01*
X63246000Y-171729500D01*
X63266000Y-171729500D01*
X63266000Y-171983500D01*
X63246000Y-171983500D01*
X63246000Y-172770250D01*
X63404750Y-172929000D01*
X63720310Y-172929000D01*
X63953699Y-172832327D01*
X64132327Y-172653698D01*
X64205119Y-172477963D01*
X64269173Y-172573827D01*
X64422001Y-172675943D01*
X64422000Y-174240736D01*
X64280516Y-174382220D01*
X64147000Y-174704554D01*
X64147000Y-175053446D01*
X64280516Y-175375780D01*
X64527220Y-175622484D01*
X64849554Y-175756000D01*
X65198446Y-175756000D01*
X65520780Y-175622484D01*
X65767484Y-175375780D01*
X65901000Y-175053446D01*
X65901000Y-174704554D01*
X65767484Y-174382220D01*
X65626000Y-174240736D01*
X65626000Y-172819228D01*
X65659000Y-172825792D01*
X65718283Y-172814000D01*
X66996717Y-172814000D01*
X67056000Y-172825792D01*
X67115283Y-172814000D01*
X67115288Y-172814000D01*
X67290888Y-172779071D01*
X67490017Y-172646017D01*
X67523601Y-172595755D01*
X68270335Y-171849021D01*
X68320597Y-171815437D01*
X68413633Y-171676199D01*
X68453651Y-171616309D01*
X68500373Y-171381420D01*
X68488580Y-171322132D01*
X68488580Y-171127354D01*
X68736210Y-171127354D01*
X68922326Y-171090333D01*
X69080107Y-170984907D01*
X69185533Y-170827126D01*
X69222554Y-170641010D01*
X69222554Y-169541190D01*
X69208555Y-169470812D01*
X69447758Y-169231609D01*
X69498017Y-169198027D01*
X69531599Y-169147768D01*
X69531601Y-169147766D01*
X69611616Y-169028014D01*
X69631071Y-168998898D01*
X69666000Y-168823298D01*
X69666000Y-168823294D01*
X69677792Y-168764011D01*
X69666000Y-168704728D01*
X69666000Y-168275344D01*
X69814000Y-168275344D01*
X70000116Y-168238323D01*
X70157897Y-168132897D01*
X70263323Y-167975116D01*
X70300344Y-167789000D01*
X70300344Y-164189000D01*
X70263323Y-164002884D01*
X70157897Y-163845103D01*
X70000116Y-163739677D01*
X69814000Y-163702656D01*
X68314000Y-163702656D01*
X68127884Y-163739677D01*
X67970103Y-163845103D01*
X67864677Y-164002884D01*
X67827656Y-164189000D01*
X67827656Y-167789000D01*
X67864677Y-167975116D01*
X67970103Y-168132897D01*
X68127884Y-168238323D01*
X68314000Y-168275344D01*
X68462000Y-168275344D01*
X68462000Y-168514653D01*
X68153063Y-168823591D01*
X68102804Y-168857173D01*
X68069222Y-168907432D01*
X68069219Y-168907435D01*
X67970723Y-169054846D01*
X67807518Y-169054846D01*
X67675437Y-168857173D01*
X67625175Y-168823589D01*
X67454831Y-168653245D01*
X67421247Y-168602983D01*
X67222118Y-168469929D01*
X67046518Y-168435000D01*
X67046513Y-168435000D01*
X66987230Y-168423208D01*
X66927947Y-168435000D01*
X66666000Y-168435000D01*
X66666000Y-168275344D01*
X66814000Y-168275344D01*
X67000116Y-168238323D01*
X67157897Y-168132897D01*
X67263323Y-167975116D01*
X67300344Y-167789000D01*
X67300344Y-164189000D01*
X67263323Y-164002884D01*
X67157897Y-163845103D01*
X67000116Y-163739677D01*
X66814000Y-163702656D01*
X65314000Y-163702656D01*
X65127884Y-163739677D01*
X64970103Y-163845103D01*
X64864677Y-164002884D01*
X64827656Y-164189000D01*
X64827656Y-167789000D01*
X64864677Y-167975116D01*
X64970103Y-168132897D01*
X65127884Y-168238323D01*
X65314000Y-168275344D01*
X65462001Y-168275344D01*
X65462001Y-168435000D01*
X65083288Y-168435000D01*
X65024000Y-168423207D01*
X64964713Y-168435000D01*
X63178288Y-168435000D01*
X63119000Y-168423207D01*
X63059713Y-168435000D01*
X62543282Y-168435000D01*
X62483999Y-168423208D01*
X62439000Y-168432159D01*
X62439000Y-168401998D01*
X62280252Y-168401998D01*
X62439000Y-168243250D01*
X62439000Y-167927690D01*
X62342327Y-167694301D01*
X62224525Y-167576500D01*
X62342327Y-167458699D01*
X62439000Y-167225310D01*
X62439000Y-166909750D01*
X62280250Y-166751000D01*
X61493500Y-166751000D01*
X61493500Y-167575250D01*
X61494750Y-167576500D01*
X61493500Y-167577750D01*
X61493500Y-168402000D01*
X61513500Y-168402000D01*
X61513500Y-168656000D01*
X61493500Y-168656000D01*
X61493500Y-168676000D01*
X61239500Y-168676000D01*
X61239500Y-168656000D01*
X61219500Y-168656000D01*
X61219500Y-168402000D01*
X61239500Y-168402000D01*
X61239500Y-167577750D01*
X61238250Y-167576500D01*
X61239500Y-167575250D01*
X61239500Y-166751000D01*
X61219500Y-166751000D01*
X61219500Y-166497000D01*
X61239500Y-166497000D01*
X61239500Y-166477000D01*
X61493500Y-166477000D01*
X61493500Y-166497000D01*
X62280250Y-166497000D01*
X62439000Y-166338250D01*
X62439000Y-166022690D01*
X62342327Y-165789301D01*
X62257026Y-165704000D01*
X63301005Y-165704000D01*
X63373000Y-165718321D01*
X63444995Y-165704000D01*
X63444997Y-165704000D01*
X63658222Y-165661587D01*
X63900022Y-165500022D01*
X63940808Y-165438981D01*
X64219981Y-165159808D01*
X64281022Y-165119022D01*
X64442587Y-164877222D01*
X64485000Y-164663997D01*
X64485000Y-164663996D01*
X64499321Y-164592001D01*
X64485000Y-164520006D01*
X64485000Y-164262708D01*
X64597007Y-164187867D01*
X64702433Y-164030086D01*
X64739454Y-163843970D01*
X64739454Y-159244030D01*
X64702433Y-159057914D01*
X64597007Y-158900133D01*
X64439226Y-158794707D01*
X64253110Y-158757686D01*
X63254890Y-158757686D01*
X63068774Y-158794707D01*
X62910993Y-158900133D01*
X62843426Y-159001254D01*
X62794995Y-158884331D01*
X62616366Y-158705703D01*
X62382977Y-158609030D01*
X62043308Y-158609030D01*
X61884558Y-158767780D01*
X61884558Y-161417000D01*
X61904558Y-161417000D01*
X61904558Y-161671000D01*
X61884558Y-161671000D01*
X61884558Y-161691000D01*
X61630558Y-161691000D01*
X61630558Y-161671000D01*
X60782198Y-161671000D01*
X60623448Y-161829750D01*
X60623448Y-163970280D01*
X60720121Y-164203669D01*
X60758452Y-164242000D01*
X59863497Y-164242000D01*
X59791500Y-164227679D01*
X59719503Y-164242000D01*
X59230790Y-164242000D01*
X58135000Y-163146211D01*
X58135000Y-159117720D01*
X60623448Y-159117720D01*
X60623448Y-161258250D01*
X60782198Y-161417000D01*
X61630558Y-161417000D01*
X61630558Y-158767780D01*
X61471808Y-158609030D01*
X61132139Y-158609030D01*
X60898750Y-158705703D01*
X60720121Y-158884331D01*
X60623448Y-159117720D01*
X58135000Y-159117720D01*
X58135000Y-158440994D01*
X58149321Y-158368999D01*
X58133307Y-158288491D01*
X58127717Y-158260390D01*
X58214532Y-158390317D01*
X58372313Y-158495743D01*
X58558429Y-158532764D01*
X60156089Y-158532764D01*
X60342205Y-158495743D01*
X60499986Y-158390317D01*
X60605412Y-158232536D01*
X60642433Y-158046420D01*
X60642433Y-154647900D01*
X60608240Y-154476000D01*
X64903318Y-154476000D01*
X64869125Y-154647900D01*
X64869125Y-158046420D01*
X64906146Y-158232536D01*
X65011572Y-158390317D01*
X65169353Y-158495743D01*
X65355469Y-158532764D01*
X66953129Y-158532764D01*
X67139245Y-158495743D01*
X67297026Y-158390317D01*
X67402452Y-158232536D01*
X67439473Y-158046420D01*
X67439473Y-154647900D01*
X67402452Y-154461784D01*
X67314568Y-154330257D01*
X67326970Y-154321970D01*
X67448972Y-154139380D01*
X67491814Y-153924000D01*
X67481000Y-153869635D01*
X67481000Y-148213092D01*
X67580441Y-148336111D01*
X68782406Y-150062296D01*
X69857878Y-151870002D01*
X70801351Y-153749974D01*
X71607996Y-155692591D01*
X72273685Y-157687910D01*
X72795009Y-159725717D01*
X73169302Y-161795582D01*
X73394647Y-163886912D01*
X73469890Y-165989000D01*
X73421138Y-167681434D01*
X73225015Y-169775705D01*
X72879658Y-171850595D01*
X72386837Y-173895482D01*
X71749072Y-175899901D01*
X70969629Y-177853591D01*
X70052496Y-179746553D01*
X69002369Y-181569098D01*
X67824622Y-183311897D01*
X66525283Y-184966030D01*
X65111003Y-186523031D01*
X63589022Y-187974929D01*
X61967128Y-189314294D01*
X60253624Y-190534270D01*
X58457280Y-191628613D01*
X56587290Y-192591721D01*
X54653227Y-193418664D01*
X52664988Y-194105211D01*
X50632752Y-194647847D01*
X48566920Y-195043794D01*
X46478065Y-195291026D01*
X44376880Y-195388278D01*
X42274119Y-195335051D01*
X40180544Y-195131619D01*
X38106873Y-194779022D01*
X36063718Y-194279065D01*
X34061538Y-193634308D01*
X32110581Y-192848050D01*
X30220831Y-191924315D01*
X28401963Y-190867832D01*
X26663286Y-189684009D01*
X25013698Y-188378904D01*
X23676480Y-187155714D01*
X26701000Y-187155714D01*
X26701000Y-188002286D01*
X27024969Y-188784415D01*
X27623585Y-189383031D01*
X28405714Y-189707000D01*
X29252286Y-189707000D01*
X30034415Y-189383031D01*
X30633031Y-188784415D01*
X30792073Y-188400453D01*
X32924000Y-188400453D01*
X32924000Y-189297547D01*
X33267303Y-190126355D01*
X33901645Y-190760697D01*
X34730453Y-191104000D01*
X35627547Y-191104000D01*
X36456355Y-190760697D01*
X37090697Y-190126355D01*
X37434000Y-189297547D01*
X37434000Y-189055554D01*
X41312400Y-189055554D01*
X41312400Y-189404446D01*
X41445916Y-189726780D01*
X41692620Y-189973484D01*
X41891792Y-190055984D01*
X44315473Y-192479665D01*
X44359798Y-192546002D01*
X44426135Y-192590327D01*
X44622601Y-192721602D01*
X44672095Y-192731447D01*
X44854350Y-192767700D01*
X44854354Y-192767700D01*
X44932600Y-192783264D01*
X45010846Y-192767700D01*
X54522555Y-192767700D01*
X54600800Y-192783264D01*
X54679045Y-192767700D01*
X54679050Y-192767700D01*
X54910798Y-192721602D01*
X55173602Y-192546002D01*
X55217927Y-192479665D01*
X67816468Y-179881125D01*
X67882802Y-179836802D01*
X67927125Y-179770468D01*
X67927127Y-179770466D01*
X68053328Y-179581592D01*
X68058402Y-179573998D01*
X68104500Y-179342250D01*
X68104500Y-179342246D01*
X68108442Y-179322430D01*
X68180172Y-179215078D01*
X68233844Y-178945250D01*
X68233844Y-178432750D01*
X68180172Y-178162922D01*
X68104500Y-178049671D01*
X68104500Y-177423329D01*
X68180172Y-177310078D01*
X68233844Y-177040250D01*
X68233844Y-176527750D01*
X68199233Y-176353749D01*
X68503707Y-176049276D01*
X68634981Y-175852809D01*
X68651093Y-175771810D01*
X68663822Y-175771810D01*
X68663822Y-175707818D01*
X68675013Y-175651558D01*
X68795265Y-175771810D01*
X68862519Y-175771810D01*
X69095908Y-175675137D01*
X69274537Y-175496509D01*
X69371210Y-175263120D01*
X69371210Y-174872650D01*
X69212460Y-174713900D01*
X68636515Y-174713900D01*
X68636515Y-174733900D01*
X68572314Y-174733900D01*
X68572314Y-174036990D01*
X68535293Y-173850874D01*
X68437125Y-173703955D01*
X68437125Y-173560740D01*
X68636515Y-173560740D01*
X68636515Y-174459900D01*
X69212460Y-174459900D01*
X69371210Y-174301150D01*
X69371210Y-173910680D01*
X69274537Y-173677291D01*
X69095908Y-173498663D01*
X68862519Y-173401990D01*
X68795265Y-173401990D01*
X68636515Y-173560740D01*
X68437125Y-173560740D01*
X68278375Y-173401990D01*
X68211121Y-173401990D01*
X67977732Y-173498663D01*
X67925749Y-173550646D01*
X67687190Y-173550646D01*
X67564000Y-173575150D01*
X67440810Y-173550646D01*
X67042030Y-173550646D01*
X66916300Y-173575655D01*
X66790570Y-173550646D01*
X66391790Y-173550646D01*
X66205674Y-173587667D01*
X66047893Y-173693093D01*
X65942467Y-173850874D01*
X65905446Y-174036990D01*
X65905446Y-175136810D01*
X65942467Y-175322926D01*
X65989180Y-175392837D01*
X65989180Y-175678464D01*
X65844988Y-175822656D01*
X65516250Y-175822656D01*
X65246422Y-175876328D01*
X65017673Y-176029173D01*
X64915557Y-176182000D01*
X64725943Y-176182000D01*
X64623827Y-176029173D01*
X64395078Y-175876328D01*
X64125250Y-175822656D01*
X63687750Y-175822656D01*
X63417922Y-175876328D01*
X63307627Y-175950025D01*
X63307327Y-175949301D01*
X63128698Y-175770673D01*
X62895309Y-175674000D01*
X62617250Y-175674000D01*
X62458500Y-175832750D01*
X62458500Y-176657000D01*
X62478500Y-176657000D01*
X62478500Y-176911000D01*
X62458500Y-176911000D01*
X62458500Y-177735250D01*
X62617250Y-177894000D01*
X62895309Y-177894000D01*
X63128698Y-177797327D01*
X63307327Y-177618699D01*
X63307627Y-177617975D01*
X63417922Y-177691672D01*
X63687750Y-177745344D01*
X64125250Y-177745344D01*
X64395078Y-177691672D01*
X64623827Y-177538827D01*
X64725943Y-177386000D01*
X64915557Y-177386000D01*
X65017673Y-177538827D01*
X65113537Y-177602881D01*
X64937802Y-177675673D01*
X64759173Y-177854301D01*
X64662500Y-178087690D01*
X64662500Y-178403250D01*
X64821250Y-178562000D01*
X65608000Y-178562000D01*
X65608000Y-178542000D01*
X65862000Y-178542000D01*
X65862000Y-178562000D01*
X65882000Y-178562000D01*
X65882000Y-178816000D01*
X65862000Y-178816000D01*
X65862000Y-178836000D01*
X65608000Y-178836000D01*
X65608000Y-178816000D01*
X64821250Y-178816000D01*
X64662500Y-178974750D01*
X64662500Y-179290310D01*
X64759173Y-179523699D01*
X64937802Y-179702327D01*
X65171191Y-179799000D01*
X65449250Y-179799000D01*
X65607998Y-179640252D01*
X65607998Y-179799000D01*
X65651407Y-179799000D01*
X54271708Y-191178700D01*
X45261692Y-191178700D01*
X43015384Y-188932392D01*
X42932884Y-188733220D01*
X42686180Y-188486516D01*
X42363846Y-188353000D01*
X42014954Y-188353000D01*
X41692620Y-188486516D01*
X41445916Y-188733220D01*
X41312400Y-189055554D01*
X37434000Y-189055554D01*
X37434000Y-188400453D01*
X37090697Y-187571645D01*
X36456355Y-186937303D01*
X35627547Y-186594000D01*
X34730453Y-186594000D01*
X33901645Y-186937303D01*
X33267303Y-187571645D01*
X32924000Y-188400453D01*
X30792073Y-188400453D01*
X30957000Y-188002286D01*
X30957000Y-187155714D01*
X30633031Y-186373585D01*
X30034415Y-185774969D01*
X29252286Y-185451000D01*
X28405714Y-185451000D01*
X27623585Y-185774969D01*
X27024969Y-186373585D01*
X26701000Y-187155714D01*
X23676480Y-187155714D01*
X23461644Y-186959198D01*
X22015067Y-185432157D01*
X20681372Y-183805598D01*
X19467384Y-182087846D01*
X18379319Y-180287693D01*
X17422744Y-178414353D01*
X16602557Y-176477415D01*
X15922955Y-174486792D01*
X15387416Y-172452674D01*
X14998682Y-170385472D01*
X14968627Y-170123710D01*
X19245255Y-170123710D01*
X19339654Y-170386956D01*
X19936769Y-170607665D01*
X20572893Y-170583067D01*
X21046346Y-170386956D01*
X21140745Y-170123710D01*
X20193000Y-169175965D01*
X19245255Y-170123710D01*
X14968627Y-170123710D01*
X14809765Y-168740129D01*
X18581695Y-168740129D01*
X18606293Y-169376253D01*
X18802404Y-169849706D01*
X19065650Y-169944105D01*
X20013395Y-168996360D01*
X20372605Y-168996360D01*
X21320350Y-169944105D01*
X21583596Y-169849706D01*
X21804305Y-169252591D01*
X21779707Y-168616467D01*
X21583596Y-168143014D01*
X21320350Y-168048615D01*
X20372605Y-168996360D01*
X20013395Y-168996360D01*
X19065650Y-168048615D01*
X18802404Y-168143014D01*
X18581695Y-168740129D01*
X14809765Y-168740129D01*
X14758743Y-168295767D01*
X14740484Y-167869010D01*
X19245255Y-167869010D01*
X20193000Y-168816755D01*
X21140745Y-167869010D01*
X21046346Y-167605764D01*
X20449231Y-167385055D01*
X19813107Y-167409653D01*
X19339654Y-167605764D01*
X19245255Y-167869010D01*
X14740484Y-167869010D01*
X14668826Y-166194255D01*
X14729393Y-164091693D01*
X14940132Y-161998841D01*
X15299965Y-159926413D01*
X15807051Y-157885016D01*
X16458793Y-155885099D01*
X17251857Y-153936898D01*
X18182182Y-152050385D01*
X19245008Y-150235215D01*
X20434893Y-148500681D01*
X21745748Y-146855659D01*
X21928577Y-146657181D01*
X32492200Y-146657181D01*
X32492200Y-147220819D01*
X32707895Y-147741553D01*
X33106447Y-148140105D01*
X33272774Y-148209000D01*
X33106447Y-148277895D01*
X32707895Y-148676447D01*
X32492200Y-149197181D01*
X32492200Y-149760819D01*
X32707895Y-150281553D01*
X33106447Y-150680105D01*
X33272774Y-150749000D01*
X33106447Y-150817895D01*
X32707895Y-151216447D01*
X32492200Y-151737181D01*
X32492200Y-152300819D01*
X32707895Y-152821553D01*
X33074345Y-153188003D01*
X33070923Y-153189420D01*
X32979637Y-153450032D01*
X33909000Y-154379395D01*
X34838363Y-153450032D01*
X34747077Y-153189420D01*
X34743540Y-153188118D01*
X35110105Y-152821553D01*
X35325800Y-152300819D01*
X35325800Y-151737181D01*
X35110105Y-151216447D01*
X34711553Y-150817895D01*
X34545226Y-150749000D01*
X34711553Y-150680105D01*
X35110105Y-150281553D01*
X35325800Y-149760819D01*
X35325800Y-149197181D01*
X35110105Y-148676447D01*
X34711553Y-148277895D01*
X34545226Y-148209000D01*
X34711553Y-148140105D01*
X35110105Y-147741553D01*
X35325800Y-147220819D01*
X35325800Y-146657181D01*
X35110105Y-146136447D01*
X34711553Y-145737895D01*
X34190819Y-145522200D01*
X33627181Y-145522200D01*
X33106447Y-145737895D01*
X32707895Y-146136447D01*
X32492200Y-146657181D01*
X21928577Y-146657181D01*
X23170863Y-145308570D01*
X24702944Y-143867332D01*
X26160796Y-142680453D01*
X32924000Y-142680453D01*
X32924000Y-143577547D01*
X33267303Y-144406355D01*
X33901645Y-145040697D01*
X34730453Y-145384000D01*
X35627547Y-145384000D01*
X36456355Y-145040697D01*
X37090697Y-144406355D01*
X37434000Y-143577547D01*
X37434000Y-142680453D01*
X37090697Y-141851645D01*
X37011431Y-141772379D01*
X37029635Y-141776000D01*
X37084000Y-141786814D01*
X37138365Y-141776000D01*
X50999635Y-141776000D01*
X51054000Y-141786814D01*
X51108365Y-141776000D01*
X51126569Y-141772379D01*
X51047303Y-141851645D01*
X50704000Y-142680453D01*
X50704000Y-143577547D01*
X51047303Y-144406355D01*
X51681645Y-145040697D01*
X52510453Y-145384000D01*
X53407547Y-145384000D01*
X54236355Y-145040697D01*
X54870697Y-144406355D01*
X55049074Y-143975714D01*
X57181000Y-143975714D01*
X57181000Y-144822286D01*
X57504969Y-145604415D01*
X58103585Y-146203031D01*
X58885714Y-146527000D01*
X59732286Y-146527000D01*
X60514415Y-146203031D01*
X61113031Y-145604415D01*
X61437000Y-144822286D01*
X61437000Y-143975714D01*
X61113031Y-143193585D01*
X60514415Y-142594969D01*
X59732286Y-142271000D01*
X58885714Y-142271000D01*
X58103585Y-142594969D01*
X57504969Y-143193585D01*
X57181000Y-143975714D01*
X55049074Y-143975714D01*
X55214000Y-143577547D01*
X55214000Y-142680453D01*
X54870697Y-141851645D01*
X54236355Y-141217303D01*
X53407547Y-140874000D01*
X52510453Y-140874000D01*
X51681645Y-141217303D01*
X51602379Y-141296569D01*
X51616814Y-141224000D01*
X51606000Y-141169635D01*
X51606000Y-138103365D01*
X51616814Y-138049000D01*
X51573972Y-137833620D01*
X51451970Y-137651030D01*
X51269380Y-137529028D01*
X51108365Y-137497000D01*
X51054000Y-137486186D01*
X50999635Y-137497000D01*
X37138365Y-137497000D01*
X37084000Y-137486186D01*
X37029635Y-137497000D01*
X36868620Y-137529028D01*
X36686030Y-137651030D01*
X36564028Y-137833620D01*
X36521186Y-138049000D01*
X36532000Y-138103365D01*
X36532001Y-141169630D01*
X36521186Y-141224000D01*
X36535621Y-141296569D01*
X36456355Y-141217303D01*
X35627547Y-140874000D01*
X34730453Y-140874000D01*
X33901645Y-141217303D01*
X33267303Y-141851645D01*
X32924000Y-142680453D01*
X26160796Y-142680453D01*
X26334148Y-142539323D01*
X28056128Y-141331339D01*
X29860068Y-140249564D01*
X31736735Y-139299534D01*
X33676525Y-138486113D01*
X35669508Y-137813463D01*
X37705483Y-137285028D01*
X39774029Y-136903513D01*
X41864559Y-136670870D01*
X43966372Y-136588289D01*
X46068710Y-136656194D01*
X46068710Y-136656194D01*
G37*
X46068710Y-136656194D02*
X48160813Y-136874237D01*
X50231972Y-137241303D01*
X52271587Y-137755511D01*
X54269217Y-138414231D01*
X56214638Y-139214090D01*
X58097892Y-140150995D01*
X59909341Y-141220150D01*
X61639711Y-142416082D01*
X63280147Y-143732672D01*
X64822252Y-145163178D01*
X66258133Y-146700281D01*
X66620851Y-147149000D01*
X58474365Y-147149000D01*
X58420000Y-147138186D01*
X58365635Y-147149000D01*
X58204620Y-147181028D01*
X58022030Y-147303030D01*
X57900028Y-147485620D01*
X57857186Y-147701000D01*
X57868000Y-147755365D01*
X57868001Y-153869630D01*
X57857186Y-153924000D01*
X57900028Y-154139380D01*
X58022030Y-154321970D01*
X58146815Y-154405348D01*
X58109106Y-154461784D01*
X58072085Y-154647900D01*
X58072085Y-158046420D01*
X58073975Y-158055924D01*
X57931022Y-157841978D01*
X57869984Y-157801194D01*
X56701808Y-156633019D01*
X56661022Y-156571978D01*
X56419222Y-156410413D01*
X56205997Y-156368000D01*
X56205995Y-156368000D01*
X56134000Y-156353679D01*
X56062005Y-156368000D01*
X55459743Y-156368000D01*
X55430105Y-156296447D01*
X55031553Y-155897895D01*
X54510819Y-155682200D01*
X53947181Y-155682200D01*
X53426447Y-155897895D01*
X53027895Y-156296447D01*
X52812200Y-156817181D01*
X52812200Y-157380819D01*
X53027895Y-157901553D01*
X53426447Y-158300105D01*
X53592774Y-158369000D01*
X53426447Y-158437895D01*
X53027895Y-158836447D01*
X52812200Y-159357181D01*
X52812200Y-159920819D01*
X53027895Y-160441553D01*
X53426447Y-160840105D01*
X53592774Y-160909000D01*
X53426447Y-160977895D01*
X53027895Y-161376447D01*
X52812200Y-161897181D01*
X52812200Y-162460819D01*
X53027895Y-162981553D01*
X53426447Y-163380105D01*
X53592774Y-163449000D01*
X53426447Y-163517895D01*
X53027895Y-163916447D01*
X52812200Y-164437181D01*
X52812200Y-165000819D01*
X53027895Y-165521553D01*
X53426447Y-165920105D01*
X53592774Y-165989000D01*
X53426447Y-166057895D01*
X53027895Y-166456447D01*
X52812200Y-166977181D01*
X52812200Y-167540819D01*
X53027895Y-168061553D01*
X53426447Y-168460105D01*
X53592774Y-168529000D01*
X53426447Y-168597895D01*
X53027895Y-168996447D01*
X52812200Y-169517181D01*
X52812200Y-170080819D01*
X53027895Y-170601553D01*
X53426447Y-171000105D01*
X53592774Y-171069000D01*
X53426447Y-171137895D01*
X53027895Y-171536447D01*
X52812200Y-172057181D01*
X52812200Y-172620819D01*
X53027895Y-173141553D01*
X53426447Y-173540105D01*
X53592774Y-173609000D01*
X53426447Y-173677895D01*
X53027895Y-174076447D01*
X52812200Y-174597181D01*
X52812200Y-175160819D01*
X53027895Y-175681553D01*
X53426447Y-176080105D01*
X53592774Y-176149000D01*
X53426447Y-176217895D01*
X53027895Y-176616447D01*
X52944823Y-176817000D01*
X50795357Y-176817000D01*
X50386000Y-176407644D01*
X50386000Y-165921282D01*
X50397792Y-165861999D01*
X50386000Y-165802716D01*
X50386000Y-165802712D01*
X50351071Y-165627112D01*
X50218017Y-165427983D01*
X50167755Y-165394399D01*
X47838601Y-163065245D01*
X47805017Y-163014983D01*
X47605888Y-162881929D01*
X47430288Y-162847000D01*
X47430283Y-162847000D01*
X47371000Y-162835208D01*
X47311717Y-162847000D01*
X44369442Y-162847000D01*
X44284326Y-162790127D01*
X44098210Y-162753106D01*
X43399710Y-162753106D01*
X43213594Y-162790127D01*
X43055813Y-162895553D01*
X43048782Y-162906075D01*
X42923460Y-162906075D01*
X42764710Y-163064825D01*
X42764710Y-163137159D01*
X42861383Y-163370548D01*
X42913366Y-163422531D01*
X42913366Y-163475469D01*
X42861383Y-163527452D01*
X42764710Y-163760841D01*
X42764710Y-163833175D01*
X42923460Y-163991925D01*
X43048782Y-163991925D01*
X43055813Y-164002447D01*
X43213594Y-164107873D01*
X43399710Y-164144894D01*
X44098210Y-164144894D01*
X44284326Y-164107873D01*
X44369442Y-164051000D01*
X47121644Y-164051000D01*
X49182000Y-166111356D01*
X49182001Y-176597712D01*
X49170208Y-176657000D01*
X49216930Y-176891888D01*
X49316399Y-177040755D01*
X49316402Y-177040758D01*
X49349984Y-177091017D01*
X49400243Y-177124599D01*
X50078401Y-177802758D01*
X50111983Y-177853017D01*
X50162242Y-177886599D01*
X50162244Y-177886601D01*
X50233441Y-177934173D01*
X50311112Y-177986071D01*
X50486712Y-178021000D01*
X50486717Y-178021000D01*
X50546000Y-178032792D01*
X50605283Y-178021000D01*
X52944823Y-178021000D01*
X53027895Y-178221553D01*
X53426447Y-178620105D01*
X53592774Y-178689000D01*
X53426447Y-178757895D01*
X53027895Y-179156447D01*
X52944823Y-179357000D01*
X48328500Y-179357000D01*
X48328500Y-178771943D01*
X48481327Y-178669827D01*
X48634172Y-178441078D01*
X48687844Y-178171250D01*
X48687844Y-177733750D01*
X48634172Y-177463922D01*
X48481327Y-177235173D01*
X48376306Y-177165000D01*
X48481327Y-177094827D01*
X48634172Y-176866078D01*
X48687844Y-176596250D01*
X48687844Y-176158750D01*
X48634172Y-175888922D01*
X48521000Y-175719548D01*
X48521000Y-175312744D01*
X48536564Y-175234499D01*
X48521000Y-175156254D01*
X48521000Y-175156250D01*
X48474902Y-174924502D01*
X48346775Y-174732746D01*
X48343627Y-174728034D01*
X48343625Y-174728032D01*
X48299302Y-174661698D01*
X48232968Y-174617375D01*
X47784500Y-174168908D01*
X47784500Y-173220617D01*
X47867000Y-173021446D01*
X47867000Y-172672554D01*
X47733484Y-172350220D01*
X47486780Y-172103516D01*
X47164446Y-171970000D01*
X46815554Y-171970000D01*
X46616383Y-172052500D01*
X46133500Y-172052500D01*
X46133500Y-167083244D01*
X46149064Y-167004999D01*
X46133500Y-166926754D01*
X46133500Y-166926750D01*
X46087402Y-166695002D01*
X45998401Y-166561802D01*
X45956127Y-166498534D01*
X45956125Y-166498532D01*
X45911802Y-166432198D01*
X45845468Y-166387875D01*
X44940127Y-165482534D01*
X44895802Y-165416198D01*
X44632998Y-165240598D01*
X44401250Y-165194500D01*
X44401245Y-165194500D01*
X44323000Y-165178936D01*
X44244755Y-165194500D01*
X42628300Y-165194500D01*
X42628300Y-165096116D01*
X42643540Y-165019500D01*
X42643540Y-165019496D01*
X42659104Y-164941250D01*
X42643540Y-164863004D01*
X42643540Y-164498462D01*
X42647613Y-164492366D01*
X42673897Y-164360225D01*
X42764710Y-164360225D01*
X42764710Y-164432559D01*
X42861383Y-164665948D01*
X43040011Y-164844577D01*
X43273400Y-164941250D01*
X43463210Y-164941250D01*
X43621960Y-164782500D01*
X43621960Y-164201475D01*
X43875960Y-164201475D01*
X43875960Y-164782500D01*
X44034710Y-164941250D01*
X44224520Y-164941250D01*
X44457909Y-164844577D01*
X44636537Y-164665948D01*
X44733210Y-164432559D01*
X44733210Y-164360225D01*
X44574460Y-164201475D01*
X43875960Y-164201475D01*
X43621960Y-164201475D01*
X42923460Y-164201475D01*
X42764710Y-164360225D01*
X42673897Y-164360225D01*
X42684634Y-164306250D01*
X42684634Y-163887150D01*
X42647613Y-163701034D01*
X42542187Y-163543253D01*
X42401128Y-163449000D01*
X42542187Y-163354747D01*
X42647613Y-163196966D01*
X42684634Y-163010850D01*
X42684634Y-162591750D01*
X42659510Y-162465441D01*
X42764710Y-162465441D01*
X42764710Y-162537775D01*
X42923460Y-162696525D01*
X43621960Y-162696525D01*
X43621960Y-162115500D01*
X43875960Y-162115500D01*
X43875960Y-162696525D01*
X44574460Y-162696525D01*
X44733210Y-162537775D01*
X44733210Y-162465441D01*
X44636537Y-162232052D01*
X44457909Y-162053423D01*
X44224520Y-161956750D01*
X44034710Y-161956750D01*
X43875960Y-162115500D01*
X43621960Y-162115500D01*
X43463210Y-161956750D01*
X43273400Y-161956750D01*
X43040011Y-162053423D01*
X42861383Y-162232052D01*
X42764710Y-162465441D01*
X42659510Y-162465441D01*
X42647613Y-162405634D01*
X42542187Y-162247853D01*
X42384406Y-162142427D01*
X42198290Y-162105406D01*
X41499790Y-162105406D01*
X41356039Y-162134000D01*
X40797825Y-162134000D01*
X40747827Y-162059173D01*
X40519078Y-161906328D01*
X40249250Y-161852656D01*
X39811750Y-161852656D01*
X39541922Y-161906328D01*
X39313173Y-162059173D01*
X39243000Y-162164194D01*
X39172827Y-162059173D01*
X38944078Y-161906328D01*
X38674250Y-161852656D01*
X38236750Y-161852656D01*
X37966922Y-161906328D01*
X37738173Y-162059173D01*
X37628953Y-162222633D01*
X37506808Y-162246929D01*
X37467621Y-162273113D01*
X37357940Y-162346399D01*
X37357938Y-162346401D01*
X37307679Y-162379983D01*
X37274097Y-162430243D01*
X36862539Y-162841801D01*
X35167992Y-162841801D01*
X35325800Y-162460819D01*
X35325800Y-161897181D01*
X35110105Y-161376447D01*
X34711553Y-160977895D01*
X34545226Y-160909000D01*
X34711553Y-160840105D01*
X35110105Y-160441553D01*
X35325800Y-159920819D01*
X35325800Y-159357181D01*
X35110105Y-158836447D01*
X34711553Y-158437895D01*
X34545226Y-158369000D01*
X34711553Y-158300105D01*
X35110105Y-157901553D01*
X35325800Y-157380819D01*
X35325800Y-156817181D01*
X35110105Y-156296447D01*
X34743655Y-155929997D01*
X34747077Y-155928580D01*
X34838363Y-155667968D01*
X33909000Y-154738605D01*
X32979637Y-155667968D01*
X33070923Y-155928580D01*
X33074460Y-155929882D01*
X32707895Y-156296447D01*
X32492200Y-156817181D01*
X32492200Y-157380819D01*
X32707895Y-157901553D01*
X33106447Y-158300105D01*
X33272774Y-158369000D01*
X33106447Y-158437895D01*
X32707895Y-158836447D01*
X32492200Y-159357181D01*
X32492200Y-159920819D01*
X32707895Y-160441553D01*
X33106447Y-160840105D01*
X33272774Y-160909000D01*
X33106447Y-160977895D01*
X32707895Y-161376447D01*
X32492200Y-161897181D01*
X32492200Y-162460819D01*
X32650008Y-162841801D01*
X31482157Y-162841801D01*
X24379769Y-155739413D01*
X24462997Y-155321000D01*
X24360006Y-154803230D01*
X24066713Y-154364287D01*
X23983721Y-154308833D01*
X32322955Y-154308833D01*
X32347951Y-154934828D01*
X32539420Y-155397077D01*
X32800032Y-155488363D01*
X33729395Y-154559000D01*
X34088605Y-154559000D01*
X35017968Y-155488363D01*
X35278580Y-155397077D01*
X35495045Y-154809167D01*
X35470049Y-154183172D01*
X35278580Y-153720923D01*
X35017968Y-153629637D01*
X34088605Y-154559000D01*
X33729395Y-154559000D01*
X32800032Y-153629637D01*
X32539420Y-153720923D01*
X32322955Y-154308833D01*
X23983721Y-154308833D01*
X23757002Y-154157344D01*
X23960000Y-154157344D01*
X24146116Y-154120323D01*
X24303897Y-154014897D01*
X24409323Y-153857116D01*
X24446344Y-153671000D01*
X24446344Y-151971000D01*
X24409323Y-151784884D01*
X24303897Y-151627103D01*
X24146116Y-151521677D01*
X23960000Y-151484656D01*
X21760000Y-151484656D01*
X21573884Y-151521677D01*
X21416103Y-151627103D01*
X21310677Y-151784884D01*
X21273656Y-151971000D01*
X21273656Y-152026500D01*
X21120343Y-152026500D01*
X21042098Y-152010936D01*
X20963853Y-152026500D01*
X20963848Y-152026500D01*
X20732100Y-152072598D01*
X20732098Y-152072599D01*
X20732099Y-152072599D01*
X20535632Y-152203873D01*
X20535630Y-152203875D01*
X20469296Y-152248198D01*
X20424973Y-152314532D01*
X19686533Y-153052973D01*
X19620199Y-153097296D01*
X19575876Y-153163630D01*
X19575873Y-153163633D01*
X19444599Y-153360100D01*
X19382936Y-153670098D01*
X19398501Y-153748348D01*
X19398500Y-162546096D01*
X19227800Y-162546096D01*
X19041684Y-162583117D01*
X18883903Y-162688543D01*
X18778477Y-162846324D01*
X18741456Y-163032440D01*
X18741456Y-164962840D01*
X18778477Y-165148956D01*
X18883903Y-165306737D01*
X19041684Y-165412163D01*
X19227800Y-165449184D01*
X19398500Y-165449184D01*
X19398500Y-165519595D01*
X19382936Y-165597840D01*
X19398500Y-165676085D01*
X19398500Y-165676089D01*
X19444598Y-165907837D01*
X19620198Y-166170642D01*
X19686535Y-166214967D01*
X19967033Y-166495465D01*
X20011358Y-166561802D01*
X20274162Y-166737402D01*
X20505910Y-166783500D01*
X20505915Y-166783500D01*
X20584160Y-166799064D01*
X20662405Y-166783500D01*
X32209250Y-166783500D01*
X32440998Y-166737402D01*
X32649122Y-166598338D01*
X32492200Y-166977181D01*
X32492200Y-167540819D01*
X32653891Y-167931175D01*
X30602337Y-167932199D01*
X30403083Y-167932199D01*
X30343800Y-167920407D01*
X30284517Y-167932199D01*
X30284513Y-167932199D01*
X30108913Y-167967128D01*
X30108912Y-167967129D01*
X30108911Y-167967129D01*
X30040083Y-168013119D01*
X29909784Y-168100182D01*
X29876200Y-168150444D01*
X23721988Y-174304656D01*
X21887000Y-174304656D01*
X21700884Y-174341677D01*
X21543103Y-174447103D01*
X21437677Y-174604884D01*
X21400656Y-174791000D01*
X21400656Y-175773183D01*
X21008606Y-175935576D01*
X20691576Y-176252606D01*
X20520000Y-176666826D01*
X20520000Y-177115174D01*
X20691576Y-177529394D01*
X21008606Y-177846424D01*
X21409562Y-178012506D01*
X21384003Y-178141000D01*
X21486994Y-178658770D01*
X21780287Y-179097713D01*
X22219230Y-179391006D01*
X22606304Y-179468000D01*
X23367696Y-179468000D01*
X23754770Y-179391006D01*
X24193713Y-179097713D01*
X24487006Y-178658770D01*
X24589997Y-178141000D01*
X24506769Y-177722587D01*
X30553158Y-171676199D01*
X32650008Y-171676199D01*
X32492200Y-172057181D01*
X32492200Y-172620819D01*
X32707895Y-173141553D01*
X33106447Y-173540105D01*
X33272774Y-173609000D01*
X33106447Y-173677895D01*
X32707895Y-174076447D01*
X32492200Y-174597181D01*
X32492200Y-175160819D01*
X32707895Y-175681553D01*
X33106447Y-176080105D01*
X33272774Y-176149000D01*
X33106447Y-176217895D01*
X32707895Y-176616447D01*
X32492200Y-177137181D01*
X32492200Y-177700819D01*
X32707895Y-178221553D01*
X33106447Y-178620105D01*
X33272774Y-178689000D01*
X33106447Y-178757895D01*
X32707895Y-179156447D01*
X32492200Y-179677181D01*
X32492200Y-180240819D01*
X32707895Y-180761553D01*
X33106447Y-181160105D01*
X33272774Y-181229000D01*
X33106447Y-181297895D01*
X32707895Y-181696447D01*
X32492200Y-182217181D01*
X32492200Y-182780819D01*
X32707895Y-183301553D01*
X33106447Y-183700105D01*
X33272774Y-183769000D01*
X33106447Y-183837895D01*
X32707895Y-184236447D01*
X32492200Y-184757181D01*
X32492200Y-185320819D01*
X32707895Y-185841553D01*
X33106447Y-186240105D01*
X33627181Y-186455800D01*
X34190819Y-186455800D01*
X34711553Y-186240105D01*
X35110105Y-185841553D01*
X35325800Y-185320819D01*
X35325800Y-184757181D01*
X35110105Y-184236447D01*
X34711553Y-183837895D01*
X34545226Y-183769000D01*
X34711553Y-183700105D01*
X35110105Y-183301553D01*
X35325800Y-182780819D01*
X35325800Y-182217181D01*
X35110105Y-181696447D01*
X34711553Y-181297895D01*
X34545226Y-181229000D01*
X34711553Y-181160105D01*
X35110105Y-180761553D01*
X35325800Y-180240819D01*
X35325800Y-179677181D01*
X35110105Y-179156447D01*
X34711553Y-178757895D01*
X34545226Y-178689000D01*
X34711553Y-178620105D01*
X35110105Y-178221553D01*
X35325800Y-177700819D01*
X35325800Y-177137181D01*
X35110105Y-176616447D01*
X34711553Y-176217895D01*
X34545226Y-176149000D01*
X34711553Y-176080105D01*
X35110105Y-175681553D01*
X35325800Y-175160819D01*
X35325800Y-174597181D01*
X35110105Y-174076447D01*
X34711553Y-173677895D01*
X34545226Y-173609000D01*
X34711553Y-173540105D01*
X35110105Y-173141553D01*
X35325800Y-172620819D01*
X35325800Y-172257691D01*
X39149000Y-172257691D01*
X39149000Y-172535750D01*
X39307750Y-172694500D01*
X40132000Y-172694500D01*
X40132000Y-171907750D01*
X39973250Y-171749000D01*
X39657690Y-171749000D01*
X39424301Y-171845673D01*
X39245673Y-172024302D01*
X39149000Y-172257691D01*
X35325800Y-172257691D01*
X35325800Y-172057181D01*
X35110105Y-171536447D01*
X35002460Y-171428802D01*
X36411263Y-170020000D01*
X41152644Y-170020000D01*
X41358463Y-170225820D01*
X41246063Y-170300923D01*
X41140637Y-170458704D01*
X41103616Y-170644820D01*
X41103616Y-171855590D01*
X41093699Y-171845673D01*
X40860310Y-171749000D01*
X40544750Y-171749000D01*
X40386000Y-171907750D01*
X40386000Y-172694500D01*
X40406000Y-172694500D01*
X40406000Y-172948500D01*
X40386000Y-172948500D01*
X40386000Y-172968500D01*
X40132000Y-172968500D01*
X40132000Y-172948500D01*
X39307750Y-172948500D01*
X39149000Y-173107250D01*
X39149000Y-173385309D01*
X39245673Y-173618698D01*
X39424301Y-173797327D01*
X39425025Y-173797627D01*
X39351328Y-173907922D01*
X39297656Y-174177750D01*
X39297656Y-174615250D01*
X39351328Y-174885078D01*
X39504173Y-175113827D01*
X39654327Y-175214156D01*
X39645208Y-175260000D01*
X39657000Y-175319283D01*
X39657000Y-175319288D01*
X39689109Y-175480707D01*
X39691930Y-175494888D01*
X39791399Y-175643755D01*
X39791402Y-175643758D01*
X39824984Y-175694017D01*
X39875243Y-175727599D01*
X40299399Y-176151755D01*
X40332983Y-176202017D01*
X40463282Y-176289080D01*
X40532110Y-176335070D01*
X40532111Y-176335070D01*
X40532112Y-176335071D01*
X40707712Y-176370000D01*
X40707716Y-176370000D01*
X40766999Y-176381792D01*
X40826282Y-176370000D01*
X41103616Y-176370000D01*
X41103616Y-176491900D01*
X41140637Y-176678016D01*
X41246063Y-176835797D01*
X41403844Y-176941223D01*
X41589960Y-176978244D01*
X41638200Y-176978244D01*
X41638200Y-177474443D01*
X41024954Y-178087690D01*
X40814627Y-177877363D01*
X40492293Y-177743847D01*
X40143401Y-177743847D01*
X39821067Y-177877363D01*
X39574363Y-178124067D01*
X39440847Y-178446401D01*
X39440847Y-178646491D01*
X39208233Y-178879105D01*
X39157974Y-178912687D01*
X39124392Y-178962946D01*
X39124389Y-178962949D01*
X39024920Y-179111816D01*
X38978198Y-179346704D01*
X38989991Y-179405991D01*
X38989990Y-184465207D01*
X38978198Y-184524490D01*
X38989990Y-184583773D01*
X38989990Y-184583777D01*
X39024919Y-184759377D01*
X39157973Y-184958507D01*
X39208235Y-184992091D01*
X41202656Y-186986512D01*
X41202656Y-187315250D01*
X41256328Y-187585078D01*
X41409173Y-187813827D01*
X41637922Y-187966672D01*
X41907750Y-188020344D01*
X42420250Y-188020344D01*
X42690078Y-187966672D01*
X42918827Y-187813827D01*
X42995886Y-187698500D01*
X43222217Y-187698500D01*
X43281500Y-187710292D01*
X43340783Y-187698500D01*
X43340788Y-187698500D01*
X43516388Y-187663571D01*
X43715517Y-187530517D01*
X43749101Y-187480255D01*
X44054749Y-187174607D01*
X44159000Y-187195344D01*
X45059000Y-187195344D01*
X45245116Y-187158323D01*
X45402897Y-187052897D01*
X45508323Y-186895116D01*
X45545344Y-186709000D01*
X45545344Y-185909000D01*
X45508323Y-185722884D01*
X45402897Y-185565103D01*
X45245116Y-185459677D01*
X45059000Y-185422656D01*
X44159000Y-185422656D01*
X43972884Y-185459677D01*
X43815103Y-185565103D01*
X43709677Y-185722884D01*
X43686234Y-185840737D01*
X43685244Y-185841399D01*
X43685242Y-185841401D01*
X43634983Y-185874983D01*
X43601401Y-185925242D01*
X43032144Y-186494500D01*
X42995886Y-186494500D01*
X42918827Y-186379173D01*
X42813806Y-186309000D01*
X42918827Y-186238827D01*
X43071672Y-186010078D01*
X43125344Y-185740250D01*
X43125344Y-185302750D01*
X43071672Y-185032922D01*
X42983900Y-184901562D01*
X42983900Y-184523617D01*
X43066400Y-184324446D01*
X43066400Y-183975554D01*
X42932884Y-183653220D01*
X42756772Y-183477108D01*
X42918827Y-183368827D01*
X42995886Y-183253500D01*
X43222217Y-183253500D01*
X43281500Y-183265292D01*
X43340783Y-183253500D01*
X43340788Y-183253500D01*
X43516388Y-183218571D01*
X43715517Y-183085517D01*
X43749101Y-183035255D01*
X44054749Y-182729607D01*
X44159000Y-182750344D01*
X45059000Y-182750344D01*
X45245116Y-182713323D01*
X45402897Y-182607897D01*
X45508323Y-182450116D01*
X45545344Y-182264000D01*
X45545344Y-181464000D01*
X45508323Y-181277884D01*
X45402897Y-181120103D01*
X45245116Y-181014677D01*
X45059000Y-180977656D01*
X44427936Y-180977656D01*
X45255609Y-180149984D01*
X45454780Y-180067484D01*
X45701484Y-179820780D01*
X45779054Y-179633510D01*
X46173200Y-180027656D01*
X46159000Y-180027656D01*
X45972884Y-180064677D01*
X45815103Y-180170103D01*
X45709677Y-180327884D01*
X45672656Y-180514000D01*
X45672656Y-181314000D01*
X45709677Y-181500116D01*
X45815103Y-181657897D01*
X45972884Y-181763323D01*
X46159000Y-181800344D01*
X47059000Y-181800344D01*
X47245116Y-181763323D01*
X47402897Y-181657897D01*
X47497710Y-181516000D01*
X48231566Y-181516000D01*
X48241328Y-181565078D01*
X48394173Y-181793827D01*
X48499194Y-181864000D01*
X48394173Y-181934173D01*
X48241328Y-182162922D01*
X48231566Y-182212000D01*
X47497710Y-182212000D01*
X47402897Y-182070103D01*
X47245116Y-181964677D01*
X47059000Y-181927656D01*
X46159000Y-181927656D01*
X45972884Y-181964677D01*
X45815103Y-182070103D01*
X45709677Y-182227884D01*
X45672656Y-182414000D01*
X45672656Y-183214000D01*
X45709677Y-183400116D01*
X45815103Y-183557897D01*
X45972884Y-183663323D01*
X46159000Y-183700344D01*
X47059000Y-183700344D01*
X47245116Y-183663323D01*
X47402897Y-183557897D01*
X47497710Y-183416000D01*
X48464772Y-183416000D01*
X48469000Y-183418825D01*
X48469000Y-183462736D01*
X48405516Y-183526220D01*
X48272000Y-183848554D01*
X48272000Y-184197446D01*
X48405516Y-184519780D01*
X48571454Y-184685718D01*
X48464772Y-184757000D01*
X47497710Y-184757000D01*
X47402897Y-184615103D01*
X47245116Y-184509677D01*
X47059000Y-184472656D01*
X46159000Y-184472656D01*
X45972884Y-184509677D01*
X45815103Y-184615103D01*
X45709677Y-184772884D01*
X45672656Y-184959000D01*
X45672656Y-185759000D01*
X45709677Y-185945116D01*
X45815103Y-186102897D01*
X45972884Y-186208323D01*
X46159000Y-186245344D01*
X47059000Y-186245344D01*
X47245116Y-186208323D01*
X47402897Y-186102897D01*
X47497710Y-185961000D01*
X48231566Y-185961000D01*
X48241328Y-186010078D01*
X48394173Y-186238827D01*
X48499194Y-186309000D01*
X48394173Y-186379173D01*
X48317114Y-186494500D01*
X47372062Y-186494500D01*
X47245116Y-186409677D01*
X47059000Y-186372656D01*
X46159000Y-186372656D01*
X45972884Y-186409677D01*
X45815103Y-186515103D01*
X45709677Y-186672884D01*
X45672656Y-186859000D01*
X45672656Y-187659000D01*
X45709677Y-187845116D01*
X45815103Y-188002897D01*
X45929000Y-188079001D01*
X45929000Y-188161736D01*
X45865516Y-188225220D01*
X45732000Y-188547554D01*
X45732000Y-188896446D01*
X45865516Y-189218780D01*
X46112220Y-189465484D01*
X46434554Y-189599000D01*
X46783446Y-189599000D01*
X47105780Y-189465484D01*
X47352484Y-189218780D01*
X47486000Y-188896446D01*
X47486000Y-188547554D01*
X47425069Y-188400453D01*
X50704000Y-188400453D01*
X50704000Y-189297547D01*
X51047303Y-190126355D01*
X51681645Y-190760697D01*
X52510453Y-191104000D01*
X53407547Y-191104000D01*
X54236355Y-190760697D01*
X54870697Y-190126355D01*
X55214000Y-189297547D01*
X55214000Y-188400453D01*
X54870697Y-187571645D01*
X54236355Y-186937303D01*
X53407547Y-186594000D01*
X52510453Y-186594000D01*
X51681645Y-186937303D01*
X51047303Y-187571645D01*
X50704000Y-188400453D01*
X47425069Y-188400453D01*
X47352484Y-188225220D01*
X47289000Y-188161736D01*
X47289000Y-188079001D01*
X47402897Y-188002897D01*
X47508323Y-187845116D01*
X47537487Y-187698500D01*
X48317114Y-187698500D01*
X48394173Y-187813827D01*
X48622922Y-187966672D01*
X48892750Y-188020344D01*
X49405250Y-188020344D01*
X49675078Y-187966672D01*
X49903827Y-187813827D01*
X50056672Y-187585078D01*
X50110344Y-187315250D01*
X50110344Y-186877750D01*
X50056672Y-186607922D01*
X49903827Y-186379173D01*
X49798806Y-186309000D01*
X49903827Y-186238827D01*
X49980886Y-186123500D01*
X53309842Y-186123500D01*
X53426447Y-186240105D01*
X53947181Y-186455800D01*
X54510819Y-186455800D01*
X55031553Y-186240105D01*
X55430105Y-185841553D01*
X55513177Y-185641000D01*
X58614717Y-185641000D01*
X58674000Y-185652792D01*
X58733283Y-185641000D01*
X58733288Y-185641000D01*
X58908888Y-185606071D01*
X59108017Y-185473017D01*
X59141601Y-185422755D01*
X61712058Y-182852299D01*
X61762317Y-182818717D01*
X61795899Y-182768458D01*
X61795901Y-182768456D01*
X61895370Y-182619589D01*
X61895371Y-182619588D01*
X61930300Y-182443988D01*
X61930300Y-182443984D01*
X61942092Y-182384701D01*
X61930300Y-182325418D01*
X61930300Y-177894000D01*
X62045750Y-177894000D01*
X62204500Y-177735250D01*
X62204500Y-176911000D01*
X62184500Y-176911000D01*
X62184500Y-176657000D01*
X62204500Y-176657000D01*
X62204500Y-175832750D01*
X62045750Y-175674000D01*
X61930300Y-175674000D01*
X61930300Y-172578264D01*
X61964504Y-172406310D01*
X61964504Y-172142250D01*
X62009000Y-172142250D01*
X62009000Y-172420309D01*
X62105673Y-172653698D01*
X62284301Y-172832327D01*
X62517690Y-172929000D01*
X62833250Y-172929000D01*
X62992000Y-172770250D01*
X62992000Y-171983500D01*
X62167750Y-171983500D01*
X62009000Y-172142250D01*
X61964504Y-172142250D01*
X61964504Y-171707810D01*
X61927483Y-171521694D01*
X61903610Y-171485966D01*
X61903610Y-171354750D01*
X61744860Y-171196000D01*
X60866156Y-171196000D01*
X60839639Y-171169483D01*
X60606250Y-171072810D01*
X60563760Y-171072810D01*
X60440570Y-171196000D01*
X60219590Y-171196000D01*
X60096400Y-171072810D01*
X60053910Y-171072810D01*
X59820521Y-171169483D01*
X59794004Y-171196000D01*
X59413140Y-171196000D01*
X59254390Y-171354750D01*
X59254390Y-171455060D01*
X59142222Y-171455060D01*
X59082939Y-171443268D01*
X59023656Y-171455060D01*
X59023652Y-171455060D01*
X58848052Y-171489989D01*
X58848051Y-171489990D01*
X58848050Y-171489990D01*
X58839475Y-171495720D01*
X58648923Y-171623043D01*
X58615337Y-171673308D01*
X58551645Y-171737000D01*
X58106244Y-171737000D01*
X58106244Y-171704000D01*
X58069223Y-171517884D01*
X57963797Y-171360103D01*
X57806016Y-171254677D01*
X57619900Y-171217656D01*
X56984900Y-171217656D01*
X56896000Y-171235339D01*
X56807100Y-171217656D01*
X56172100Y-171217656D01*
X55985984Y-171254677D01*
X55828203Y-171360103D01*
X55722777Y-171517884D01*
X55694707Y-171659000D01*
X55480868Y-171659000D01*
X55430105Y-171536447D01*
X55031553Y-171137895D01*
X54865226Y-171069000D01*
X55031553Y-171000105D01*
X55430105Y-170601553D01*
X55645800Y-170080819D01*
X55645800Y-169517181D01*
X55430105Y-168996447D01*
X55031553Y-168597895D01*
X54865226Y-168529000D01*
X55031553Y-168460105D01*
X55430105Y-168061553D01*
X55645800Y-167540819D01*
X55645800Y-166977181D01*
X55430105Y-166456447D01*
X55031553Y-166057895D01*
X54865226Y-165989000D01*
X55031553Y-165920105D01*
X55430105Y-165521553D01*
X55645800Y-165000819D01*
X55645800Y-164437181D01*
X55430105Y-163916447D01*
X55031553Y-163517895D01*
X54865226Y-163449000D01*
X55031553Y-163380105D01*
X55430105Y-162981553D01*
X55645800Y-162460819D01*
X55645800Y-161897181D01*
X55430105Y-161376447D01*
X55031553Y-160977895D01*
X54865226Y-160909000D01*
X55031553Y-160840105D01*
X55430105Y-160441553D01*
X55645800Y-159920819D01*
X55645800Y-159357181D01*
X55430105Y-158836447D01*
X55031553Y-158437895D01*
X54865226Y-158369000D01*
X55031553Y-158300105D01*
X55430105Y-157901553D01*
X55459743Y-157830000D01*
X55831211Y-157830000D01*
X56673000Y-158671790D01*
X56673001Y-163377000D01*
X56658679Y-163449000D01*
X56709135Y-163702656D01*
X56715414Y-163734222D01*
X56876979Y-163976022D01*
X56938017Y-164016806D01*
X58360193Y-165438983D01*
X58400978Y-165500022D01*
X58642778Y-165661587D01*
X58856003Y-165704000D01*
X58856004Y-165704000D01*
X58927999Y-165718321D01*
X58999994Y-165704000D01*
X59060500Y-165704000D01*
X59060500Y-165889636D01*
X58921328Y-166097922D01*
X58867656Y-166367750D01*
X58867656Y-166880250D01*
X58921328Y-167150078D01*
X59060500Y-167358364D01*
X59060501Y-167794635D01*
X58921328Y-168002922D01*
X58867656Y-168272750D01*
X58867656Y-168785250D01*
X58921328Y-169055078D01*
X59074173Y-169283827D01*
X59167391Y-169346113D01*
X59141513Y-169371992D01*
X59044840Y-169605381D01*
X59044840Y-169795190D01*
X59203590Y-169953940D01*
X59693876Y-169953940D01*
X59693876Y-170063886D01*
X59529692Y-170131893D01*
X59453645Y-170207940D01*
X59203590Y-170207940D01*
X59044840Y-170366690D01*
X59044840Y-170556499D01*
X59141513Y-170789888D01*
X59320141Y-170968517D01*
X59553530Y-171065190D01*
X59596020Y-171065190D01*
X59719210Y-170942000D01*
X59940190Y-170942000D01*
X60063380Y-171065190D01*
X60105870Y-171065190D01*
X60339259Y-170968517D01*
X60365776Y-170942000D01*
X60452000Y-170942000D01*
X60452000Y-170922000D01*
X60706000Y-170922000D01*
X60706000Y-170942000D01*
X60792224Y-170942000D01*
X60818741Y-170968517D01*
X61052130Y-171065190D01*
X61094620Y-171065190D01*
X61217810Y-170942000D01*
X61438790Y-170942000D01*
X61561980Y-171065190D01*
X61604470Y-171065190D01*
X61837859Y-170968517D01*
X62016487Y-170789888D01*
X62113160Y-170556499D01*
X62113160Y-170366690D01*
X61954410Y-170207940D01*
X61704355Y-170207940D01*
X61628308Y-170131893D01*
X61464124Y-170063886D01*
X61464124Y-170014334D01*
X62041064Y-170019472D01*
X62103000Y-170031792D01*
X62166319Y-170019197D01*
X62157656Y-170062750D01*
X62157656Y-170500250D01*
X62211328Y-170770078D01*
X62285025Y-170880373D01*
X62284301Y-170880673D01*
X62105673Y-171059302D01*
X62009000Y-171292691D01*
X62009000Y-171570750D01*
X62167750Y-171729500D01*
X62992000Y-171729500D01*
X62992000Y-171709500D01*
X63246000Y-171709500D01*
X63246000Y-171729500D01*
X63266000Y-171729500D01*
X63266000Y-171983500D01*
X63246000Y-171983500D01*
X63246000Y-172770250D01*
X63404750Y-172929000D01*
X63720310Y-172929000D01*
X63953699Y-172832327D01*
X64132327Y-172653698D01*
X64205119Y-172477963D01*
X64269173Y-172573827D01*
X64422001Y-172675943D01*
X64422000Y-174240736D01*
X64280516Y-174382220D01*
X64147000Y-174704554D01*
X64147000Y-175053446D01*
X64280516Y-175375780D01*
X64527220Y-175622484D01*
X64849554Y-175756000D01*
X65198446Y-175756000D01*
X65520780Y-175622484D01*
X65767484Y-175375780D01*
X65901000Y-175053446D01*
X65901000Y-174704554D01*
X65767484Y-174382220D01*
X65626000Y-174240736D01*
X65626000Y-172819228D01*
X65659000Y-172825792D01*
X65718283Y-172814000D01*
X66996717Y-172814000D01*
X67056000Y-172825792D01*
X67115283Y-172814000D01*
X67115288Y-172814000D01*
X67290888Y-172779071D01*
X67490017Y-172646017D01*
X67523601Y-172595755D01*
X68270335Y-171849021D01*
X68320597Y-171815437D01*
X68413633Y-171676199D01*
X68453651Y-171616309D01*
X68500373Y-171381420D01*
X68488580Y-171322132D01*
X68488580Y-171127354D01*
X68736210Y-171127354D01*
X68922326Y-171090333D01*
X69080107Y-170984907D01*
X69185533Y-170827126D01*
X69222554Y-170641010D01*
X69222554Y-169541190D01*
X69208555Y-169470812D01*
X69447758Y-169231609D01*
X69498017Y-169198027D01*
X69531599Y-169147768D01*
X69531601Y-169147766D01*
X69611616Y-169028014D01*
X69631071Y-168998898D01*
X69666000Y-168823298D01*
X69666000Y-168823294D01*
X69677792Y-168764011D01*
X69666000Y-168704728D01*
X69666000Y-168275344D01*
X69814000Y-168275344D01*
X70000116Y-168238323D01*
X70157897Y-168132897D01*
X70263323Y-167975116D01*
X70300344Y-167789000D01*
X70300344Y-164189000D01*
X70263323Y-164002884D01*
X70157897Y-163845103D01*
X70000116Y-163739677D01*
X69814000Y-163702656D01*
X68314000Y-163702656D01*
X68127884Y-163739677D01*
X67970103Y-163845103D01*
X67864677Y-164002884D01*
X67827656Y-164189000D01*
X67827656Y-167789000D01*
X67864677Y-167975116D01*
X67970103Y-168132897D01*
X68127884Y-168238323D01*
X68314000Y-168275344D01*
X68462000Y-168275344D01*
X68462000Y-168514653D01*
X68153063Y-168823591D01*
X68102804Y-168857173D01*
X68069222Y-168907432D01*
X68069219Y-168907435D01*
X67970723Y-169054846D01*
X67807518Y-169054846D01*
X67675437Y-168857173D01*
X67625175Y-168823589D01*
X67454831Y-168653245D01*
X67421247Y-168602983D01*
X67222118Y-168469929D01*
X67046518Y-168435000D01*
X67046513Y-168435000D01*
X66987230Y-168423208D01*
X66927947Y-168435000D01*
X66666000Y-168435000D01*
X66666000Y-168275344D01*
X66814000Y-168275344D01*
X67000116Y-168238323D01*
X67157897Y-168132897D01*
X67263323Y-167975116D01*
X67300344Y-167789000D01*
X67300344Y-164189000D01*
X67263323Y-164002884D01*
X67157897Y-163845103D01*
X67000116Y-163739677D01*
X66814000Y-163702656D01*
X65314000Y-163702656D01*
X65127884Y-163739677D01*
X64970103Y-163845103D01*
X64864677Y-164002884D01*
X64827656Y-164189000D01*
X64827656Y-167789000D01*
X64864677Y-167975116D01*
X64970103Y-168132897D01*
X65127884Y-168238323D01*
X65314000Y-168275344D01*
X65462001Y-168275344D01*
X65462001Y-168435000D01*
X65083288Y-168435000D01*
X65024000Y-168423207D01*
X64964713Y-168435000D01*
X63178288Y-168435000D01*
X63119000Y-168423207D01*
X63059713Y-168435000D01*
X62543282Y-168435000D01*
X62483999Y-168423208D01*
X62439000Y-168432159D01*
X62439000Y-168401998D01*
X62280252Y-168401998D01*
X62439000Y-168243250D01*
X62439000Y-167927690D01*
X62342327Y-167694301D01*
X62224525Y-167576500D01*
X62342327Y-167458699D01*
X62439000Y-167225310D01*
X62439000Y-166909750D01*
X62280250Y-166751000D01*
X61493500Y-166751000D01*
X61493500Y-167575250D01*
X61494750Y-167576500D01*
X61493500Y-167577750D01*
X61493500Y-168402000D01*
X61513500Y-168402000D01*
X61513500Y-168656000D01*
X61493500Y-168656000D01*
X61493500Y-168676000D01*
X61239500Y-168676000D01*
X61239500Y-168656000D01*
X61219500Y-168656000D01*
X61219500Y-168402000D01*
X61239500Y-168402000D01*
X61239500Y-167577750D01*
X61238250Y-167576500D01*
X61239500Y-167575250D01*
X61239500Y-166751000D01*
X61219500Y-166751000D01*
X61219500Y-166497000D01*
X61239500Y-166497000D01*
X61239500Y-166477000D01*
X61493500Y-166477000D01*
X61493500Y-166497000D01*
X62280250Y-166497000D01*
X62439000Y-166338250D01*
X62439000Y-166022690D01*
X62342327Y-165789301D01*
X62257026Y-165704000D01*
X63301005Y-165704000D01*
X63373000Y-165718321D01*
X63444995Y-165704000D01*
X63444997Y-165704000D01*
X63658222Y-165661587D01*
X63900022Y-165500022D01*
X63940808Y-165438981D01*
X64219981Y-165159808D01*
X64281022Y-165119022D01*
X64442587Y-164877222D01*
X64485000Y-164663997D01*
X64485000Y-164663996D01*
X64499321Y-164592001D01*
X64485000Y-164520006D01*
X64485000Y-164262708D01*
X64597007Y-164187867D01*
X64702433Y-164030086D01*
X64739454Y-163843970D01*
X64739454Y-159244030D01*
X64702433Y-159057914D01*
X64597007Y-158900133D01*
X64439226Y-158794707D01*
X64253110Y-158757686D01*
X63254890Y-158757686D01*
X63068774Y-158794707D01*
X62910993Y-158900133D01*
X62843426Y-159001254D01*
X62794995Y-158884331D01*
X62616366Y-158705703D01*
X62382977Y-158609030D01*
X62043308Y-158609030D01*
X61884558Y-158767780D01*
X61884558Y-161417000D01*
X61904558Y-161417000D01*
X61904558Y-161671000D01*
X61884558Y-161671000D01*
X61884558Y-161691000D01*
X61630558Y-161691000D01*
X61630558Y-161671000D01*
X60782198Y-161671000D01*
X60623448Y-161829750D01*
X60623448Y-163970280D01*
X60720121Y-164203669D01*
X60758452Y-164242000D01*
X59863497Y-164242000D01*
X59791500Y-164227679D01*
X59719503Y-164242000D01*
X59230790Y-164242000D01*
X58135000Y-163146211D01*
X58135000Y-159117720D01*
X60623448Y-159117720D01*
X60623448Y-161258250D01*
X60782198Y-161417000D01*
X61630558Y-161417000D01*
X61630558Y-158767780D01*
X61471808Y-158609030D01*
X61132139Y-158609030D01*
X60898750Y-158705703D01*
X60720121Y-158884331D01*
X60623448Y-159117720D01*
X58135000Y-159117720D01*
X58135000Y-158440994D01*
X58149321Y-158368999D01*
X58133307Y-158288491D01*
X58127717Y-158260390D01*
X58214532Y-158390317D01*
X58372313Y-158495743D01*
X58558429Y-158532764D01*
X60156089Y-158532764D01*
X60342205Y-158495743D01*
X60499986Y-158390317D01*
X60605412Y-158232536D01*
X60642433Y-158046420D01*
X60642433Y-154647900D01*
X60608240Y-154476000D01*
X64903318Y-154476000D01*
X64869125Y-154647900D01*
X64869125Y-158046420D01*
X64906146Y-158232536D01*
X65011572Y-158390317D01*
X65169353Y-158495743D01*
X65355469Y-158532764D01*
X66953129Y-158532764D01*
X67139245Y-158495743D01*
X67297026Y-158390317D01*
X67402452Y-158232536D01*
X67439473Y-158046420D01*
X67439473Y-154647900D01*
X67402452Y-154461784D01*
X67314568Y-154330257D01*
X67326970Y-154321970D01*
X67448972Y-154139380D01*
X67491814Y-153924000D01*
X67481000Y-153869635D01*
X67481000Y-148213092D01*
X67580441Y-148336111D01*
X68782406Y-150062296D01*
X69857878Y-151870002D01*
X70801351Y-153749974D01*
X71607996Y-155692591D01*
X72273685Y-157687910D01*
X72795009Y-159725717D01*
X73169302Y-161795582D01*
X73394647Y-163886912D01*
X73469890Y-165989000D01*
X73421138Y-167681434D01*
X73225015Y-169775705D01*
X72879658Y-171850595D01*
X72386837Y-173895482D01*
X71749072Y-175899901D01*
X70969629Y-177853591D01*
X70052496Y-179746553D01*
X69002369Y-181569098D01*
X67824622Y-183311897D01*
X66525283Y-184966030D01*
X65111003Y-186523031D01*
X63589022Y-187974929D01*
X61967128Y-189314294D01*
X60253624Y-190534270D01*
X58457280Y-191628613D01*
X56587290Y-192591721D01*
X54653227Y-193418664D01*
X52664988Y-194105211D01*
X50632752Y-194647847D01*
X48566920Y-195043794D01*
X46478065Y-195291026D01*
X44376880Y-195388278D01*
X42274119Y-195335051D01*
X40180544Y-195131619D01*
X38106873Y-194779022D01*
X36063718Y-194279065D01*
X34061538Y-193634308D01*
X32110581Y-192848050D01*
X30220831Y-191924315D01*
X28401963Y-190867832D01*
X26663286Y-189684009D01*
X25013698Y-188378904D01*
X23676480Y-187155714D01*
X26701000Y-187155714D01*
X26701000Y-188002286D01*
X27024969Y-188784415D01*
X27623585Y-189383031D01*
X28405714Y-189707000D01*
X29252286Y-189707000D01*
X30034415Y-189383031D01*
X30633031Y-188784415D01*
X30792073Y-188400453D01*
X32924000Y-188400453D01*
X32924000Y-189297547D01*
X33267303Y-190126355D01*
X33901645Y-190760697D01*
X34730453Y-191104000D01*
X35627547Y-191104000D01*
X36456355Y-190760697D01*
X37090697Y-190126355D01*
X37434000Y-189297547D01*
X37434000Y-189055554D01*
X41312400Y-189055554D01*
X41312400Y-189404446D01*
X41445916Y-189726780D01*
X41692620Y-189973484D01*
X41891792Y-190055984D01*
X44315473Y-192479665D01*
X44359798Y-192546002D01*
X44426135Y-192590327D01*
X44622601Y-192721602D01*
X44672095Y-192731447D01*
X44854350Y-192767700D01*
X44854354Y-192767700D01*
X44932600Y-192783264D01*
X45010846Y-192767700D01*
X54522555Y-192767700D01*
X54600800Y-192783264D01*
X54679045Y-192767700D01*
X54679050Y-192767700D01*
X54910798Y-192721602D01*
X55173602Y-192546002D01*
X55217927Y-192479665D01*
X67816468Y-179881125D01*
X67882802Y-179836802D01*
X67927125Y-179770468D01*
X67927127Y-179770466D01*
X68053328Y-179581592D01*
X68058402Y-179573998D01*
X68104500Y-179342250D01*
X68104500Y-179342246D01*
X68108442Y-179322430D01*
X68180172Y-179215078D01*
X68233844Y-178945250D01*
X68233844Y-178432750D01*
X68180172Y-178162922D01*
X68104500Y-178049671D01*
X68104500Y-177423329D01*
X68180172Y-177310078D01*
X68233844Y-177040250D01*
X68233844Y-176527750D01*
X68199233Y-176353749D01*
X68503707Y-176049276D01*
X68634981Y-175852809D01*
X68651093Y-175771810D01*
X68663822Y-175771810D01*
X68663822Y-175707818D01*
X68675013Y-175651558D01*
X68795265Y-175771810D01*
X68862519Y-175771810D01*
X69095908Y-175675137D01*
X69274537Y-175496509D01*
X69371210Y-175263120D01*
X69371210Y-174872650D01*
X69212460Y-174713900D01*
X68636515Y-174713900D01*
X68636515Y-174733900D01*
X68572314Y-174733900D01*
X68572314Y-174036990D01*
X68535293Y-173850874D01*
X68437125Y-173703955D01*
X68437125Y-173560740D01*
X68636515Y-173560740D01*
X68636515Y-174459900D01*
X69212460Y-174459900D01*
X69371210Y-174301150D01*
X69371210Y-173910680D01*
X69274537Y-173677291D01*
X69095908Y-173498663D01*
X68862519Y-173401990D01*
X68795265Y-173401990D01*
X68636515Y-173560740D01*
X68437125Y-173560740D01*
X68278375Y-173401990D01*
X68211121Y-173401990D01*
X67977732Y-173498663D01*
X67925749Y-173550646D01*
X67687190Y-173550646D01*
X67564000Y-173575150D01*
X67440810Y-173550646D01*
X67042030Y-173550646D01*
X66916300Y-173575655D01*
X66790570Y-173550646D01*
X66391790Y-173550646D01*
X66205674Y-173587667D01*
X66047893Y-173693093D01*
X65942467Y-173850874D01*
X65905446Y-174036990D01*
X65905446Y-175136810D01*
X65942467Y-175322926D01*
X65989180Y-175392837D01*
X65989180Y-175678464D01*
X65844988Y-175822656D01*
X65516250Y-175822656D01*
X65246422Y-175876328D01*
X65017673Y-176029173D01*
X64915557Y-176182000D01*
X64725943Y-176182000D01*
X64623827Y-176029173D01*
X64395078Y-175876328D01*
X64125250Y-175822656D01*
X63687750Y-175822656D01*
X63417922Y-175876328D01*
X63307627Y-175950025D01*
X63307327Y-175949301D01*
X63128698Y-175770673D01*
X62895309Y-175674000D01*
X62617250Y-175674000D01*
X62458500Y-175832750D01*
X62458500Y-176657000D01*
X62478500Y-176657000D01*
X62478500Y-176911000D01*
X62458500Y-176911000D01*
X62458500Y-177735250D01*
X62617250Y-177894000D01*
X62895309Y-177894000D01*
X63128698Y-177797327D01*
X63307327Y-177618699D01*
X63307627Y-177617975D01*
X63417922Y-177691672D01*
X63687750Y-177745344D01*
X64125250Y-177745344D01*
X64395078Y-177691672D01*
X64623827Y-177538827D01*
X64725943Y-177386000D01*
X64915557Y-177386000D01*
X65017673Y-177538827D01*
X65113537Y-177602881D01*
X64937802Y-177675673D01*
X64759173Y-177854301D01*
X64662500Y-178087690D01*
X64662500Y-178403250D01*
X64821250Y-178562000D01*
X65608000Y-178562000D01*
X65608000Y-178542000D01*
X65862000Y-178542000D01*
X65862000Y-178562000D01*
X65882000Y-178562000D01*
X65882000Y-178816000D01*
X65862000Y-178816000D01*
X65862000Y-178836000D01*
X65608000Y-178836000D01*
X65608000Y-178816000D01*
X64821250Y-178816000D01*
X64662500Y-178974750D01*
X64662500Y-179290310D01*
X64759173Y-179523699D01*
X64937802Y-179702327D01*
X65171191Y-179799000D01*
X65449250Y-179799000D01*
X65607998Y-179640252D01*
X65607998Y-179799000D01*
X65651407Y-179799000D01*
X54271708Y-191178700D01*
X45261692Y-191178700D01*
X43015384Y-188932392D01*
X42932884Y-188733220D01*
X42686180Y-188486516D01*
X42363846Y-188353000D01*
X42014954Y-188353000D01*
X41692620Y-188486516D01*
X41445916Y-188733220D01*
X41312400Y-189055554D01*
X37434000Y-189055554D01*
X37434000Y-188400453D01*
X37090697Y-187571645D01*
X36456355Y-186937303D01*
X35627547Y-186594000D01*
X34730453Y-186594000D01*
X33901645Y-186937303D01*
X33267303Y-187571645D01*
X32924000Y-188400453D01*
X30792073Y-188400453D01*
X30957000Y-188002286D01*
X30957000Y-187155714D01*
X30633031Y-186373585D01*
X30034415Y-185774969D01*
X29252286Y-185451000D01*
X28405714Y-185451000D01*
X27623585Y-185774969D01*
X27024969Y-186373585D01*
X26701000Y-187155714D01*
X23676480Y-187155714D01*
X23461644Y-186959198D01*
X22015067Y-185432157D01*
X20681372Y-183805598D01*
X19467384Y-182087846D01*
X18379319Y-180287693D01*
X17422744Y-178414353D01*
X16602557Y-176477415D01*
X15922955Y-174486792D01*
X15387416Y-172452674D01*
X14998682Y-170385472D01*
X14968627Y-170123710D01*
X19245255Y-170123710D01*
X19339654Y-170386956D01*
X19936769Y-170607665D01*
X20572893Y-170583067D01*
X21046346Y-170386956D01*
X21140745Y-170123710D01*
X20193000Y-169175965D01*
X19245255Y-170123710D01*
X14968627Y-170123710D01*
X14809765Y-168740129D01*
X18581695Y-168740129D01*
X18606293Y-169376253D01*
X18802404Y-169849706D01*
X19065650Y-169944105D01*
X20013395Y-168996360D01*
X20372605Y-168996360D01*
X21320350Y-169944105D01*
X21583596Y-169849706D01*
X21804305Y-169252591D01*
X21779707Y-168616467D01*
X21583596Y-168143014D01*
X21320350Y-168048615D01*
X20372605Y-168996360D01*
X20013395Y-168996360D01*
X19065650Y-168048615D01*
X18802404Y-168143014D01*
X18581695Y-168740129D01*
X14809765Y-168740129D01*
X14758743Y-168295767D01*
X14740484Y-167869010D01*
X19245255Y-167869010D01*
X20193000Y-168816755D01*
X21140745Y-167869010D01*
X21046346Y-167605764D01*
X20449231Y-167385055D01*
X19813107Y-167409653D01*
X19339654Y-167605764D01*
X19245255Y-167869010D01*
X14740484Y-167869010D01*
X14668826Y-166194255D01*
X14729393Y-164091693D01*
X14940132Y-161998841D01*
X15299965Y-159926413D01*
X15807051Y-157885016D01*
X16458793Y-155885099D01*
X17251857Y-153936898D01*
X18182182Y-152050385D01*
X19245008Y-150235215D01*
X20434893Y-148500681D01*
X21745748Y-146855659D01*
X21928577Y-146657181D01*
X32492200Y-146657181D01*
X32492200Y-147220819D01*
X32707895Y-147741553D01*
X33106447Y-148140105D01*
X33272774Y-148209000D01*
X33106447Y-148277895D01*
X32707895Y-148676447D01*
X32492200Y-149197181D01*
X32492200Y-149760819D01*
X32707895Y-150281553D01*
X33106447Y-150680105D01*
X33272774Y-150749000D01*
X33106447Y-150817895D01*
X32707895Y-151216447D01*
X32492200Y-151737181D01*
X32492200Y-152300819D01*
X32707895Y-152821553D01*
X33074345Y-153188003D01*
X33070923Y-153189420D01*
X32979637Y-153450032D01*
X33909000Y-154379395D01*
X34838363Y-153450032D01*
X34747077Y-153189420D01*
X34743540Y-153188118D01*
X35110105Y-152821553D01*
X35325800Y-152300819D01*
X35325800Y-151737181D01*
X35110105Y-151216447D01*
X34711553Y-150817895D01*
X34545226Y-150749000D01*
X34711553Y-150680105D01*
X35110105Y-150281553D01*
X35325800Y-149760819D01*
X35325800Y-149197181D01*
X35110105Y-148676447D01*
X34711553Y-148277895D01*
X34545226Y-148209000D01*
X34711553Y-148140105D01*
X35110105Y-147741553D01*
X35325800Y-147220819D01*
X35325800Y-146657181D01*
X35110105Y-146136447D01*
X34711553Y-145737895D01*
X34190819Y-145522200D01*
X33627181Y-145522200D01*
X33106447Y-145737895D01*
X32707895Y-146136447D01*
X32492200Y-146657181D01*
X21928577Y-146657181D01*
X23170863Y-145308570D01*
X24702944Y-143867332D01*
X26160796Y-142680453D01*
X32924000Y-142680453D01*
X32924000Y-143577547D01*
X33267303Y-144406355D01*
X33901645Y-145040697D01*
X34730453Y-145384000D01*
X35627547Y-145384000D01*
X36456355Y-145040697D01*
X37090697Y-144406355D01*
X37434000Y-143577547D01*
X37434000Y-142680453D01*
X37090697Y-141851645D01*
X37011431Y-141772379D01*
X37029635Y-141776000D01*
X37084000Y-141786814D01*
X37138365Y-141776000D01*
X50999635Y-141776000D01*
X51054000Y-141786814D01*
X51108365Y-141776000D01*
X51126569Y-141772379D01*
X51047303Y-141851645D01*
X50704000Y-142680453D01*
X50704000Y-143577547D01*
X51047303Y-144406355D01*
X51681645Y-145040697D01*
X52510453Y-145384000D01*
X53407547Y-145384000D01*
X54236355Y-145040697D01*
X54870697Y-144406355D01*
X55049074Y-143975714D01*
X57181000Y-143975714D01*
X57181000Y-144822286D01*
X57504969Y-145604415D01*
X58103585Y-146203031D01*
X58885714Y-146527000D01*
X59732286Y-146527000D01*
X60514415Y-146203031D01*
X61113031Y-145604415D01*
X61437000Y-144822286D01*
X61437000Y-143975714D01*
X61113031Y-143193585D01*
X60514415Y-142594969D01*
X59732286Y-142271000D01*
X58885714Y-142271000D01*
X58103585Y-142594969D01*
X57504969Y-143193585D01*
X57181000Y-143975714D01*
X55049074Y-143975714D01*
X55214000Y-143577547D01*
X55214000Y-142680453D01*
X54870697Y-141851645D01*
X54236355Y-141217303D01*
X53407547Y-140874000D01*
X52510453Y-140874000D01*
X51681645Y-141217303D01*
X51602379Y-141296569D01*
X51616814Y-141224000D01*
X51606000Y-141169635D01*
X51606000Y-138103365D01*
X51616814Y-138049000D01*
X51573972Y-137833620D01*
X51451970Y-137651030D01*
X51269380Y-137529028D01*
X51108365Y-137497000D01*
X51054000Y-137486186D01*
X50999635Y-137497000D01*
X37138365Y-137497000D01*
X37084000Y-137486186D01*
X37029635Y-137497000D01*
X36868620Y-137529028D01*
X36686030Y-137651030D01*
X36564028Y-137833620D01*
X36521186Y-138049000D01*
X36532000Y-138103365D01*
X36532001Y-141169630D01*
X36521186Y-141224000D01*
X36535621Y-141296569D01*
X36456355Y-141217303D01*
X35627547Y-140874000D01*
X34730453Y-140874000D01*
X33901645Y-141217303D01*
X33267303Y-141851645D01*
X32924000Y-142680453D01*
X26160796Y-142680453D01*
X26334148Y-142539323D01*
X28056128Y-141331339D01*
X29860068Y-140249564D01*
X31736735Y-139299534D01*
X33676525Y-138486113D01*
X35669508Y-137813463D01*
X37705483Y-137285028D01*
X39774029Y-136903513D01*
X41864559Y-136670870D01*
X43966372Y-136588289D01*
X46068710Y-136656194D01*
G36*
X59335943Y-172750207D02*
X59493724Y-172855633D01*
X59679840Y-172892654D01*
X59768538Y-172892654D01*
X59820521Y-172944637D01*
X60053910Y-173041310D01*
X60096400Y-173041310D01*
X60203078Y-172934632D01*
X60203078Y-173041310D01*
X60225921Y-173041310D01*
X60225920Y-181365723D01*
X59694644Y-181897000D01*
X55513177Y-181897000D01*
X55430105Y-181696447D01*
X55031553Y-181297895D01*
X54865226Y-181229000D01*
X55031553Y-181160105D01*
X55430105Y-180761553D01*
X55645800Y-180240819D01*
X55645800Y-179677181D01*
X55430105Y-179156447D01*
X55031553Y-178757895D01*
X54865226Y-178689000D01*
X55031553Y-178620105D01*
X55430105Y-178221553D01*
X55645800Y-177700819D01*
X55645800Y-177137181D01*
X55430105Y-176616447D01*
X55031553Y-176217895D01*
X54865226Y-176149000D01*
X55031553Y-176080105D01*
X55430105Y-175681553D01*
X55480868Y-175559000D01*
X55694707Y-175559000D01*
X55722777Y-175700116D01*
X55828203Y-175857897D01*
X55985984Y-175963323D01*
X56172100Y-176000344D01*
X56807100Y-176000344D01*
X56896000Y-175982661D01*
X56984900Y-176000344D01*
X57619900Y-176000344D01*
X57806016Y-175963323D01*
X57963797Y-175857897D01*
X58069223Y-175700116D01*
X58072376Y-175684267D01*
X58245554Y-175756000D01*
X58594446Y-175756000D01*
X58916780Y-175622484D01*
X59163484Y-175375780D01*
X59297000Y-175053446D01*
X59297000Y-174704554D01*
X59163484Y-174382220D01*
X58916780Y-174135516D01*
X58594446Y-174002000D01*
X58245554Y-174002000D01*
X58072376Y-174073733D01*
X58069223Y-174057884D01*
X57982400Y-173927944D01*
X57982400Y-173290056D01*
X58069223Y-173160116D01*
X58106244Y-172974000D01*
X58106244Y-172941000D01*
X58741717Y-172941000D01*
X58801000Y-172952792D01*
X58860283Y-172941000D01*
X58860288Y-172941000D01*
X59035888Y-172906071D01*
X59235017Y-172773017D01*
X59268602Y-172722754D01*
X59297974Y-172693382D01*
X59335943Y-172750207D01*
X59335943Y-172750207D01*
G37*
X59335943Y-172750207D02*
X59493724Y-172855633D01*
X59679840Y-172892654D01*
X59768538Y-172892654D01*
X59820521Y-172944637D01*
X60053910Y-173041310D01*
X60096400Y-173041310D01*
X60203078Y-172934632D01*
X60203078Y-173041310D01*
X60225921Y-173041310D01*
X60225920Y-181365723D01*
X59694644Y-181897000D01*
X55513177Y-181897000D01*
X55430105Y-181696447D01*
X55031553Y-181297895D01*
X54865226Y-181229000D01*
X55031553Y-181160105D01*
X55430105Y-180761553D01*
X55645800Y-180240819D01*
X55645800Y-179677181D01*
X55430105Y-179156447D01*
X55031553Y-178757895D01*
X54865226Y-178689000D01*
X55031553Y-178620105D01*
X55430105Y-178221553D01*
X55645800Y-177700819D01*
X55645800Y-177137181D01*
X55430105Y-176616447D01*
X55031553Y-176217895D01*
X54865226Y-176149000D01*
X55031553Y-176080105D01*
X55430105Y-175681553D01*
X55480868Y-175559000D01*
X55694707Y-175559000D01*
X55722777Y-175700116D01*
X55828203Y-175857897D01*
X55985984Y-175963323D01*
X56172100Y-176000344D01*
X56807100Y-176000344D01*
X56896000Y-175982661D01*
X56984900Y-176000344D01*
X57619900Y-176000344D01*
X57806016Y-175963323D01*
X57963797Y-175857897D01*
X58069223Y-175700116D01*
X58072376Y-175684267D01*
X58245554Y-175756000D01*
X58594446Y-175756000D01*
X58916780Y-175622484D01*
X59163484Y-175375780D01*
X59297000Y-175053446D01*
X59297000Y-174704554D01*
X59163484Y-174382220D01*
X58916780Y-174135516D01*
X58594446Y-174002000D01*
X58245554Y-174002000D01*
X58072376Y-174073733D01*
X58069223Y-174057884D01*
X57982400Y-173927944D01*
X57982400Y-173290056D01*
X58069223Y-173160116D01*
X58106244Y-172974000D01*
X58106244Y-172941000D01*
X58741717Y-172941000D01*
X58801000Y-172952792D01*
X58860283Y-172941000D01*
X58860288Y-172941000D01*
X59035888Y-172906071D01*
X59235017Y-172773017D01*
X59268602Y-172722754D01*
X59297974Y-172693382D01*
X59335943Y-172750207D01*
G36*
X41305803Y-172983837D02*
X41356065Y-173017421D01*
X41543899Y-173205255D01*
X41577483Y-173255517D01*
X41776612Y-173388571D01*
X41952212Y-173423500D01*
X41952213Y-173423500D01*
X42011500Y-173435293D01*
X42070787Y-173423500D01*
X43628717Y-173423500D01*
X43688000Y-173435292D01*
X43747283Y-173423500D01*
X44501474Y-173423500D01*
X44325673Y-173599302D01*
X44229000Y-173832691D01*
X44229000Y-174110750D01*
X44387750Y-174269500D01*
X45212000Y-174269500D01*
X45212000Y-174249500D01*
X45466000Y-174249500D01*
X45466000Y-174269500D01*
X45486000Y-174269500D01*
X45486000Y-174523500D01*
X45466000Y-174523500D01*
X45466000Y-175310250D01*
X45624750Y-175469000D01*
X45940310Y-175469000D01*
X46173699Y-175372327D01*
X46352327Y-175193698D01*
X46408577Y-175057899D01*
X46417198Y-175070802D01*
X46483534Y-175115127D01*
X46932001Y-175563593D01*
X46932001Y-175719547D01*
X46818828Y-175888922D01*
X46765156Y-176158750D01*
X46765156Y-176596250D01*
X46818828Y-176866078D01*
X46971673Y-177094827D01*
X47076694Y-177165000D01*
X46971673Y-177235173D01*
X46818828Y-177463922D01*
X46765156Y-177733750D01*
X46765156Y-178171250D01*
X46818828Y-178441078D01*
X46971673Y-178669827D01*
X47124500Y-178771943D01*
X47124501Y-179276245D01*
X44369222Y-176520966D01*
X44375004Y-176491900D01*
X44375004Y-175243029D01*
X44504301Y-175372327D01*
X44737690Y-175469000D01*
X45053250Y-175469000D01*
X45212000Y-175310250D01*
X45212000Y-174523500D01*
X44387750Y-174523500D01*
X44229000Y-174682250D01*
X44229000Y-174697826D01*
X44074776Y-174594777D01*
X43888660Y-174557756D01*
X43588940Y-174557756D01*
X43488610Y-174577713D01*
X43388280Y-174557756D01*
X43088560Y-174557756D01*
X42989500Y-174577460D01*
X42890440Y-174557756D01*
X42590720Y-174557756D01*
X42490390Y-174577713D01*
X42390060Y-174557756D01*
X42090340Y-174557756D01*
X41990010Y-174577713D01*
X41889680Y-174557756D01*
X41589960Y-174557756D01*
X41403844Y-174594777D01*
X41246063Y-174700203D01*
X41185381Y-174791019D01*
X41220344Y-174615250D01*
X41220344Y-174177750D01*
X41166672Y-173907922D01*
X41092975Y-173797627D01*
X41093699Y-173797327D01*
X41272327Y-173618698D01*
X41369000Y-173385309D01*
X41369000Y-173107250D01*
X41210252Y-172948502D01*
X41282193Y-172948502D01*
X41305803Y-172983837D01*
X41305803Y-172983837D01*
G37*
X41305803Y-172983837D02*
X41356065Y-173017421D01*
X41543899Y-173205255D01*
X41577483Y-173255517D01*
X41776612Y-173388571D01*
X41952212Y-173423500D01*
X41952213Y-173423500D01*
X42011500Y-173435293D01*
X42070787Y-173423500D01*
X43628717Y-173423500D01*
X43688000Y-173435292D01*
X43747283Y-173423500D01*
X44501474Y-173423500D01*
X44325673Y-173599302D01*
X44229000Y-173832691D01*
X44229000Y-174110750D01*
X44387750Y-174269500D01*
X45212000Y-174269500D01*
X45212000Y-174249500D01*
X45466000Y-174249500D01*
X45466000Y-174269500D01*
X45486000Y-174269500D01*
X45486000Y-174523500D01*
X45466000Y-174523500D01*
X45466000Y-175310250D01*
X45624750Y-175469000D01*
X45940310Y-175469000D01*
X46173699Y-175372327D01*
X46352327Y-175193698D01*
X46408577Y-175057899D01*
X46417198Y-175070802D01*
X46483534Y-175115127D01*
X46932001Y-175563593D01*
X46932001Y-175719547D01*
X46818828Y-175888922D01*
X46765156Y-176158750D01*
X46765156Y-176596250D01*
X46818828Y-176866078D01*
X46971673Y-177094827D01*
X47076694Y-177165000D01*
X46971673Y-177235173D01*
X46818828Y-177463922D01*
X46765156Y-177733750D01*
X46765156Y-178171250D01*
X46818828Y-178441078D01*
X46971673Y-178669827D01*
X47124500Y-178771943D01*
X47124501Y-179276245D01*
X44369222Y-176520966D01*
X44375004Y-176491900D01*
X44375004Y-175243029D01*
X44504301Y-175372327D01*
X44737690Y-175469000D01*
X45053250Y-175469000D01*
X45212000Y-175310250D01*
X45212000Y-174523500D01*
X44387750Y-174523500D01*
X44229000Y-174682250D01*
X44229000Y-174697826D01*
X44074776Y-174594777D01*
X43888660Y-174557756D01*
X43588940Y-174557756D01*
X43488610Y-174577713D01*
X43388280Y-174557756D01*
X43088560Y-174557756D01*
X42989500Y-174577460D01*
X42890440Y-174557756D01*
X42590720Y-174557756D01*
X42490390Y-174577713D01*
X42390060Y-174557756D01*
X42090340Y-174557756D01*
X41990010Y-174577713D01*
X41889680Y-174557756D01*
X41589960Y-174557756D01*
X41403844Y-174594777D01*
X41246063Y-174700203D01*
X41185381Y-174791019D01*
X41220344Y-174615250D01*
X41220344Y-174177750D01*
X41166672Y-173907922D01*
X41092975Y-173797627D01*
X41093699Y-173797327D01*
X41272327Y-173618698D01*
X41369000Y-173385309D01*
X41369000Y-173107250D01*
X41210252Y-172948502D01*
X41282193Y-172948502D01*
X41305803Y-172983837D01*
G36*
X66555686Y-170641010D02*
X66592707Y-170827126D01*
X66690875Y-170974045D01*
X66690875Y-171117260D01*
X66849625Y-171276010D01*
X66916879Y-171276010D01*
X67150268Y-171179337D01*
X67202251Y-171127354D01*
X67284580Y-171127354D01*
X67284580Y-171132064D01*
X66806644Y-171610000D01*
X65979824Y-171610000D01*
X65931672Y-171367922D01*
X65778827Y-171139173D01*
X65673806Y-171069000D01*
X65778827Y-170998827D01*
X65824420Y-170930593D01*
X65853463Y-171000709D01*
X66032092Y-171179337D01*
X66265481Y-171276010D01*
X66332735Y-171276010D01*
X66491485Y-171117260D01*
X66491485Y-170218100D01*
X66444180Y-170218100D01*
X66444180Y-169964100D01*
X66491485Y-169964100D01*
X66491485Y-169944100D01*
X66555686Y-169944100D01*
X66555686Y-170641010D01*
X66555686Y-170641010D01*
G37*
X66555686Y-170641010D02*
X66592707Y-170827126D01*
X66690875Y-170974045D01*
X66690875Y-171117260D01*
X66849625Y-171276010D01*
X66916879Y-171276010D01*
X67150268Y-171179337D01*
X67202251Y-171127354D01*
X67284580Y-171127354D01*
X67284580Y-171132064D01*
X66806644Y-171610000D01*
X65979824Y-171610000D01*
X65931672Y-171367922D01*
X65778827Y-171139173D01*
X65673806Y-171069000D01*
X65778827Y-170998827D01*
X65824420Y-170930593D01*
X65853463Y-171000709D01*
X66032092Y-171179337D01*
X66265481Y-171276010D01*
X66332735Y-171276010D01*
X66491485Y-171117260D01*
X66491485Y-170218100D01*
X66444180Y-170218100D01*
X66444180Y-169964100D01*
X66491485Y-169964100D01*
X66491485Y-169944100D01*
X66555686Y-169944100D01*
X66555686Y-170641010D01*
G36*
X42959000Y-168905355D02*
X42959000Y-169168644D01*
X42854665Y-169272979D01*
X42804403Y-169306563D01*
X42770819Y-169356825D01*
X42766226Y-169363699D01*
X42671349Y-169505693D01*
X42636420Y-169681293D01*
X42636420Y-169681297D01*
X42624628Y-169740580D01*
X42635747Y-169796478D01*
X42623958Y-169788601D01*
X41945772Y-169110416D01*
X42017888Y-169096071D01*
X42217017Y-168963017D01*
X42250601Y-168912755D01*
X42286356Y-168877000D01*
X42930644Y-168877000D01*
X42959000Y-168905355D01*
X42959000Y-168905355D01*
G37*
X42959000Y-168905355D02*
X42959000Y-169168644D01*
X42854665Y-169272979D01*
X42804403Y-169306563D01*
X42770819Y-169356825D01*
X42766226Y-169363699D01*
X42671349Y-169505693D01*
X42636420Y-169681293D01*
X42636420Y-169681297D01*
X42624628Y-169740580D01*
X42635747Y-169796478D01*
X42623958Y-169788601D01*
X41945772Y-169110416D01*
X42017888Y-169096071D01*
X42217017Y-168963017D01*
X42250601Y-168912755D01*
X42286356Y-168877000D01*
X42930644Y-168877000D01*
X42959000Y-168905355D01*
G36*
X21282562Y-155192506D02*
X21257003Y-155321000D01*
X21359994Y-155838770D01*
X21653287Y-156277713D01*
X21956653Y-156480416D01*
X21936226Y-156486093D01*
X21476667Y-156845549D01*
X21189648Y-157353509D01*
X21168524Y-157464110D01*
X21289845Y-157694000D01*
X22733000Y-157694000D01*
X22733000Y-157674000D01*
X22987000Y-157674000D01*
X22987000Y-157694000D01*
X24430155Y-157694000D01*
X24499757Y-157562113D01*
X30765200Y-163827556D01*
X30798784Y-163877818D01*
X30861001Y-163919390D01*
X30997911Y-164010871D01*
X30997912Y-164010871D01*
X30997913Y-164010872D01*
X31173513Y-164045801D01*
X31173517Y-164045801D01*
X31232800Y-164057593D01*
X31292083Y-164045801D01*
X32654315Y-164045801D01*
X32492200Y-164437181D01*
X32492200Y-165000819D01*
X32649122Y-165379662D01*
X32440998Y-165240598D01*
X32209250Y-165194500D01*
X21577091Y-165194500D01*
X21607523Y-165148956D01*
X21644544Y-164962840D01*
X21644544Y-163032440D01*
X21607523Y-162846324D01*
X21502097Y-162688543D01*
X21344316Y-162583117D01*
X21158200Y-162546096D01*
X20987500Y-162546096D01*
X20987500Y-158177890D01*
X21168524Y-158177890D01*
X21189648Y-158288491D01*
X21476667Y-158796451D01*
X21936226Y-159155907D01*
X22498361Y-159312135D01*
X22733000Y-159152491D01*
X22733000Y-157948000D01*
X22987000Y-157948000D01*
X22987000Y-159152491D01*
X23221639Y-159312135D01*
X23783774Y-159155907D01*
X24243333Y-158796451D01*
X24530352Y-158288491D01*
X24551476Y-158177890D01*
X24430155Y-157948000D01*
X22987000Y-157948000D01*
X22733000Y-157948000D01*
X21289845Y-157948000D01*
X21168524Y-158177890D01*
X20987500Y-158177890D01*
X20987500Y-155070287D01*
X21282562Y-155192506D01*
X21282562Y-155192506D01*
G37*
X21282562Y-155192506D02*
X21257003Y-155321000D01*
X21359994Y-155838770D01*
X21653287Y-156277713D01*
X21956653Y-156480416D01*
X21936226Y-156486093D01*
X21476667Y-156845549D01*
X21189648Y-157353509D01*
X21168524Y-157464110D01*
X21289845Y-157694000D01*
X22733000Y-157694000D01*
X22733000Y-157674000D01*
X22987000Y-157674000D01*
X22987000Y-157694000D01*
X24430155Y-157694000D01*
X24499757Y-157562113D01*
X30765200Y-163827556D01*
X30798784Y-163877818D01*
X30861001Y-163919390D01*
X30997911Y-164010871D01*
X30997912Y-164010871D01*
X30997913Y-164010872D01*
X31173513Y-164045801D01*
X31173517Y-164045801D01*
X31232800Y-164057593D01*
X31292083Y-164045801D01*
X32654315Y-164045801D01*
X32492200Y-164437181D01*
X32492200Y-165000819D01*
X32649122Y-165379662D01*
X32440998Y-165240598D01*
X32209250Y-165194500D01*
X21577091Y-165194500D01*
X21607523Y-165148956D01*
X21644544Y-164962840D01*
X21644544Y-163032440D01*
X21607523Y-162846324D01*
X21502097Y-162688543D01*
X21344316Y-162583117D01*
X21158200Y-162546096D01*
X20987500Y-162546096D01*
X20987500Y-158177890D01*
X21168524Y-158177890D01*
X21189648Y-158288491D01*
X21476667Y-158796451D01*
X21936226Y-159155907D01*
X22498361Y-159312135D01*
X22733000Y-159152491D01*
X22733000Y-157948000D01*
X22987000Y-157948000D01*
X22987000Y-159152491D01*
X23221639Y-159312135D01*
X23783774Y-159155907D01*
X24243333Y-158796451D01*
X24530352Y-158288491D01*
X24551476Y-158177890D01*
X24430155Y-157948000D01*
X22987000Y-157948000D01*
X22733000Y-157948000D01*
X21289845Y-157948000D01*
X21168524Y-158177890D01*
X20987500Y-158177890D01*
X20987500Y-155070287D01*
X21282562Y-155192506D01*
G04 #@! TD*
M02*
