G04 #@! TF.GenerationSoftware,KiCad,Pcbnew,(5.0.0-3-g5ebb6b6)*
G04 #@! TF.CreationDate,2018-10-15T13:07:59-06:00*
G04 #@! TF.ProjectId,DS_Special_Object,44535F5370656369616C5F4F626A6563,rev?*
G04 #@! TF.SameCoordinates,Original*
G04 #@! TF.FileFunction,Soldermask,Top*
G04 #@! TF.FilePolarity,Negative*
%FSLAX46Y46*%
G04 Gerber Fmt 4.6, Leading zero omitted, Abs format (unit mm)*
G04 Created by KiCad (PCBNEW (5.0.0-3-g5ebb6b6)) date Monday, October 15, 2018 at 01:07:59 PM*
%MOMM*%
%LPD*%
G01*
G04 APERTURE LIST*
%ADD10R,1.900000X4.000000*%
%ADD11C,0.100000*%
%ADD12C,1.275000*%
%ADD13C,1.700000*%
%ADD14O,2.600000X2.100000*%
%ADD15R,2.600000X2.100000*%
%ADD16C,3.505200*%
%ADD17R,1.201420X4.803140*%
%ADD18R,1.800860X3.601720*%
%ADD19R,1.300000X1.200000*%
%ADD20R,0.901700X0.622300*%
%ADD21R,0.502920X0.901700*%
%ADD22R,1.582420X1.000760*%
%ADD23C,2.082800*%
%ADD24C,3.956000*%
%ADD25R,0.601980X1.303020*%
%ADD26R,0.502920X1.651000*%
%ADD27R,0.838200X1.473200*%
%ADD28R,2.133600X2.133600*%
%ADD29C,2.133600*%
%ADD30C,1.200000*%
G04 APERTURE END LIST*
D10*
G04 #@! TO.C,L1*
X69064000Y-165989000D03*
X66064000Y-165989000D03*
G04 #@! TD*
D11*
G04 #@! TO.C,C1*
G36*
X61716493Y-165950535D02*
X61747435Y-165955125D01*
X61777778Y-165962725D01*
X61807230Y-165973263D01*
X61835508Y-165986638D01*
X61862338Y-166002719D01*
X61887463Y-166021353D01*
X61910640Y-166042360D01*
X61931647Y-166065537D01*
X61950281Y-166090662D01*
X61966362Y-166117492D01*
X61979737Y-166145770D01*
X61990275Y-166175222D01*
X61997875Y-166205565D01*
X62002465Y-166236507D01*
X62004000Y-166267750D01*
X62004000Y-166980250D01*
X62002465Y-167011493D01*
X61997875Y-167042435D01*
X61990275Y-167072778D01*
X61979737Y-167102230D01*
X61966362Y-167130508D01*
X61950281Y-167157338D01*
X61931647Y-167182463D01*
X61910640Y-167205640D01*
X61887463Y-167226647D01*
X61862338Y-167245281D01*
X61835508Y-167261362D01*
X61807230Y-167274737D01*
X61777778Y-167285275D01*
X61747435Y-167292875D01*
X61716493Y-167297465D01*
X61685250Y-167299000D01*
X61047750Y-167299000D01*
X61016507Y-167297465D01*
X60985565Y-167292875D01*
X60955222Y-167285275D01*
X60925770Y-167274737D01*
X60897492Y-167261362D01*
X60870662Y-167245281D01*
X60845537Y-167226647D01*
X60822360Y-167205640D01*
X60801353Y-167182463D01*
X60782719Y-167157338D01*
X60766638Y-167130508D01*
X60753263Y-167102230D01*
X60742725Y-167072778D01*
X60735125Y-167042435D01*
X60730535Y-167011493D01*
X60729000Y-166980250D01*
X60729000Y-166267750D01*
X60730535Y-166236507D01*
X60735125Y-166205565D01*
X60742725Y-166175222D01*
X60753263Y-166145770D01*
X60766638Y-166117492D01*
X60782719Y-166090662D01*
X60801353Y-166065537D01*
X60822360Y-166042360D01*
X60845537Y-166021353D01*
X60870662Y-166002719D01*
X60897492Y-165986638D01*
X60925770Y-165973263D01*
X60955222Y-165962725D01*
X60985565Y-165955125D01*
X61016507Y-165950535D01*
X61047750Y-165949000D01*
X61685250Y-165949000D01*
X61716493Y-165950535D01*
X61716493Y-165950535D01*
G37*
D12*
X61366500Y-166624000D03*
D11*
G36*
X60141493Y-165950535D02*
X60172435Y-165955125D01*
X60202778Y-165962725D01*
X60232230Y-165973263D01*
X60260508Y-165986638D01*
X60287338Y-166002719D01*
X60312463Y-166021353D01*
X60335640Y-166042360D01*
X60356647Y-166065537D01*
X60375281Y-166090662D01*
X60391362Y-166117492D01*
X60404737Y-166145770D01*
X60415275Y-166175222D01*
X60422875Y-166205565D01*
X60427465Y-166236507D01*
X60429000Y-166267750D01*
X60429000Y-166980250D01*
X60427465Y-167011493D01*
X60422875Y-167042435D01*
X60415275Y-167072778D01*
X60404737Y-167102230D01*
X60391362Y-167130508D01*
X60375281Y-167157338D01*
X60356647Y-167182463D01*
X60335640Y-167205640D01*
X60312463Y-167226647D01*
X60287338Y-167245281D01*
X60260508Y-167261362D01*
X60232230Y-167274737D01*
X60202778Y-167285275D01*
X60172435Y-167292875D01*
X60141493Y-167297465D01*
X60110250Y-167299000D01*
X59472750Y-167299000D01*
X59441507Y-167297465D01*
X59410565Y-167292875D01*
X59380222Y-167285275D01*
X59350770Y-167274737D01*
X59322492Y-167261362D01*
X59295662Y-167245281D01*
X59270537Y-167226647D01*
X59247360Y-167205640D01*
X59226353Y-167182463D01*
X59207719Y-167157338D01*
X59191638Y-167130508D01*
X59178263Y-167102230D01*
X59167725Y-167072778D01*
X59160125Y-167042435D01*
X59155535Y-167011493D01*
X59154000Y-166980250D01*
X59154000Y-166267750D01*
X59155535Y-166236507D01*
X59160125Y-166205565D01*
X59167725Y-166175222D01*
X59178263Y-166145770D01*
X59191638Y-166117492D01*
X59207719Y-166090662D01*
X59226353Y-166065537D01*
X59247360Y-166042360D01*
X59270537Y-166021353D01*
X59295662Y-166002719D01*
X59322492Y-165986638D01*
X59350770Y-165973263D01*
X59380222Y-165962725D01*
X59410565Y-165955125D01*
X59441507Y-165950535D01*
X59472750Y-165949000D01*
X60110250Y-165949000D01*
X60141493Y-165950535D01*
X60141493Y-165950535D01*
G37*
D12*
X59791500Y-166624000D03*
G04 #@! TD*
D11*
G04 #@! TO.C,C2*
G36*
X61716493Y-167855535D02*
X61747435Y-167860125D01*
X61777778Y-167867725D01*
X61807230Y-167878263D01*
X61835508Y-167891638D01*
X61862338Y-167907719D01*
X61887463Y-167926353D01*
X61910640Y-167947360D01*
X61931647Y-167970537D01*
X61950281Y-167995662D01*
X61966362Y-168022492D01*
X61979737Y-168050770D01*
X61990275Y-168080222D01*
X61997875Y-168110565D01*
X62002465Y-168141507D01*
X62004000Y-168172750D01*
X62004000Y-168885250D01*
X62002465Y-168916493D01*
X61997875Y-168947435D01*
X61990275Y-168977778D01*
X61979737Y-169007230D01*
X61966362Y-169035508D01*
X61950281Y-169062338D01*
X61931647Y-169087463D01*
X61910640Y-169110640D01*
X61887463Y-169131647D01*
X61862338Y-169150281D01*
X61835508Y-169166362D01*
X61807230Y-169179737D01*
X61777778Y-169190275D01*
X61747435Y-169197875D01*
X61716493Y-169202465D01*
X61685250Y-169204000D01*
X61047750Y-169204000D01*
X61016507Y-169202465D01*
X60985565Y-169197875D01*
X60955222Y-169190275D01*
X60925770Y-169179737D01*
X60897492Y-169166362D01*
X60870662Y-169150281D01*
X60845537Y-169131647D01*
X60822360Y-169110640D01*
X60801353Y-169087463D01*
X60782719Y-169062338D01*
X60766638Y-169035508D01*
X60753263Y-169007230D01*
X60742725Y-168977778D01*
X60735125Y-168947435D01*
X60730535Y-168916493D01*
X60729000Y-168885250D01*
X60729000Y-168172750D01*
X60730535Y-168141507D01*
X60735125Y-168110565D01*
X60742725Y-168080222D01*
X60753263Y-168050770D01*
X60766638Y-168022492D01*
X60782719Y-167995662D01*
X60801353Y-167970537D01*
X60822360Y-167947360D01*
X60845537Y-167926353D01*
X60870662Y-167907719D01*
X60897492Y-167891638D01*
X60925770Y-167878263D01*
X60955222Y-167867725D01*
X60985565Y-167860125D01*
X61016507Y-167855535D01*
X61047750Y-167854000D01*
X61685250Y-167854000D01*
X61716493Y-167855535D01*
X61716493Y-167855535D01*
G37*
D12*
X61366500Y-168529000D03*
D11*
G36*
X60141493Y-167855535D02*
X60172435Y-167860125D01*
X60202778Y-167867725D01*
X60232230Y-167878263D01*
X60260508Y-167891638D01*
X60287338Y-167907719D01*
X60312463Y-167926353D01*
X60335640Y-167947360D01*
X60356647Y-167970537D01*
X60375281Y-167995662D01*
X60391362Y-168022492D01*
X60404737Y-168050770D01*
X60415275Y-168080222D01*
X60422875Y-168110565D01*
X60427465Y-168141507D01*
X60429000Y-168172750D01*
X60429000Y-168885250D01*
X60427465Y-168916493D01*
X60422875Y-168947435D01*
X60415275Y-168977778D01*
X60404737Y-169007230D01*
X60391362Y-169035508D01*
X60375281Y-169062338D01*
X60356647Y-169087463D01*
X60335640Y-169110640D01*
X60312463Y-169131647D01*
X60287338Y-169150281D01*
X60260508Y-169166362D01*
X60232230Y-169179737D01*
X60202778Y-169190275D01*
X60172435Y-169197875D01*
X60141493Y-169202465D01*
X60110250Y-169204000D01*
X59472750Y-169204000D01*
X59441507Y-169202465D01*
X59410565Y-169197875D01*
X59380222Y-169190275D01*
X59350770Y-169179737D01*
X59322492Y-169166362D01*
X59295662Y-169150281D01*
X59270537Y-169131647D01*
X59247360Y-169110640D01*
X59226353Y-169087463D01*
X59207719Y-169062338D01*
X59191638Y-169035508D01*
X59178263Y-169007230D01*
X59167725Y-168977778D01*
X59160125Y-168947435D01*
X59155535Y-168916493D01*
X59154000Y-168885250D01*
X59154000Y-168172750D01*
X59155535Y-168141507D01*
X59160125Y-168110565D01*
X59167725Y-168080222D01*
X59178263Y-168050770D01*
X59191638Y-168022492D01*
X59207719Y-167995662D01*
X59226353Y-167970537D01*
X59247360Y-167947360D01*
X59270537Y-167926353D01*
X59295662Y-167907719D01*
X59322492Y-167891638D01*
X59350770Y-167878263D01*
X59380222Y-167867725D01*
X59410565Y-167860125D01*
X59441507Y-167855535D01*
X59472750Y-167854000D01*
X60110250Y-167854000D01*
X60141493Y-167855535D01*
X60141493Y-167855535D01*
G37*
D12*
X59791500Y-168529000D03*
G04 #@! TD*
D11*
G04 #@! TO.C,R1*
G36*
X66084993Y-176110535D02*
X66115935Y-176115125D01*
X66146278Y-176122725D01*
X66175730Y-176133263D01*
X66204008Y-176146638D01*
X66230838Y-176162719D01*
X66255963Y-176181353D01*
X66279140Y-176202360D01*
X66300147Y-176225537D01*
X66318781Y-176250662D01*
X66334862Y-176277492D01*
X66348237Y-176305770D01*
X66358775Y-176335222D01*
X66366375Y-176365565D01*
X66370965Y-176396507D01*
X66372500Y-176427750D01*
X66372500Y-177140250D01*
X66370965Y-177171493D01*
X66366375Y-177202435D01*
X66358775Y-177232778D01*
X66348237Y-177262230D01*
X66334862Y-177290508D01*
X66318781Y-177317338D01*
X66300147Y-177342463D01*
X66279140Y-177365640D01*
X66255963Y-177386647D01*
X66230838Y-177405281D01*
X66204008Y-177421362D01*
X66175730Y-177434737D01*
X66146278Y-177445275D01*
X66115935Y-177452875D01*
X66084993Y-177457465D01*
X66053750Y-177459000D01*
X65416250Y-177459000D01*
X65385007Y-177457465D01*
X65354065Y-177452875D01*
X65323722Y-177445275D01*
X65294270Y-177434737D01*
X65265992Y-177421362D01*
X65239162Y-177405281D01*
X65214037Y-177386647D01*
X65190860Y-177365640D01*
X65169853Y-177342463D01*
X65151219Y-177317338D01*
X65135138Y-177290508D01*
X65121763Y-177262230D01*
X65111225Y-177232778D01*
X65103625Y-177202435D01*
X65099035Y-177171493D01*
X65097500Y-177140250D01*
X65097500Y-176427750D01*
X65099035Y-176396507D01*
X65103625Y-176365565D01*
X65111225Y-176335222D01*
X65121763Y-176305770D01*
X65135138Y-176277492D01*
X65151219Y-176250662D01*
X65169853Y-176225537D01*
X65190860Y-176202360D01*
X65214037Y-176181353D01*
X65239162Y-176162719D01*
X65265992Y-176146638D01*
X65294270Y-176133263D01*
X65323722Y-176122725D01*
X65354065Y-176115125D01*
X65385007Y-176110535D01*
X65416250Y-176109000D01*
X66053750Y-176109000D01*
X66084993Y-176110535D01*
X66084993Y-176110535D01*
G37*
D12*
X65735000Y-176784000D03*
D11*
G36*
X67659993Y-176110535D02*
X67690935Y-176115125D01*
X67721278Y-176122725D01*
X67750730Y-176133263D01*
X67779008Y-176146638D01*
X67805838Y-176162719D01*
X67830963Y-176181353D01*
X67854140Y-176202360D01*
X67875147Y-176225537D01*
X67893781Y-176250662D01*
X67909862Y-176277492D01*
X67923237Y-176305770D01*
X67933775Y-176335222D01*
X67941375Y-176365565D01*
X67945965Y-176396507D01*
X67947500Y-176427750D01*
X67947500Y-177140250D01*
X67945965Y-177171493D01*
X67941375Y-177202435D01*
X67933775Y-177232778D01*
X67923237Y-177262230D01*
X67909862Y-177290508D01*
X67893781Y-177317338D01*
X67875147Y-177342463D01*
X67854140Y-177365640D01*
X67830963Y-177386647D01*
X67805838Y-177405281D01*
X67779008Y-177421362D01*
X67750730Y-177434737D01*
X67721278Y-177445275D01*
X67690935Y-177452875D01*
X67659993Y-177457465D01*
X67628750Y-177459000D01*
X66991250Y-177459000D01*
X66960007Y-177457465D01*
X66929065Y-177452875D01*
X66898722Y-177445275D01*
X66869270Y-177434737D01*
X66840992Y-177421362D01*
X66814162Y-177405281D01*
X66789037Y-177386647D01*
X66765860Y-177365640D01*
X66744853Y-177342463D01*
X66726219Y-177317338D01*
X66710138Y-177290508D01*
X66696763Y-177262230D01*
X66686225Y-177232778D01*
X66678625Y-177202435D01*
X66674035Y-177171493D01*
X66672500Y-177140250D01*
X66672500Y-176427750D01*
X66674035Y-176396507D01*
X66678625Y-176365565D01*
X66686225Y-176335222D01*
X66696763Y-176305770D01*
X66710138Y-176277492D01*
X66726219Y-176250662D01*
X66744853Y-176225537D01*
X66765860Y-176202360D01*
X66789037Y-176181353D01*
X66814162Y-176162719D01*
X66840992Y-176146638D01*
X66869270Y-176133263D01*
X66898722Y-176122725D01*
X66929065Y-176115125D01*
X66960007Y-176110535D01*
X66991250Y-176109000D01*
X67628750Y-176109000D01*
X67659993Y-176110535D01*
X67659993Y-176110535D01*
G37*
D12*
X67310000Y-176784000D03*
G04 #@! TD*
D11*
G04 #@! TO.C,R2*
G36*
X64256493Y-176110535D02*
X64287435Y-176115125D01*
X64317778Y-176122725D01*
X64347230Y-176133263D01*
X64375508Y-176146638D01*
X64402338Y-176162719D01*
X64427463Y-176181353D01*
X64450640Y-176202360D01*
X64471647Y-176225537D01*
X64490281Y-176250662D01*
X64506362Y-176277492D01*
X64519737Y-176305770D01*
X64530275Y-176335222D01*
X64537875Y-176365565D01*
X64542465Y-176396507D01*
X64544000Y-176427750D01*
X64544000Y-177140250D01*
X64542465Y-177171493D01*
X64537875Y-177202435D01*
X64530275Y-177232778D01*
X64519737Y-177262230D01*
X64506362Y-177290508D01*
X64490281Y-177317338D01*
X64471647Y-177342463D01*
X64450640Y-177365640D01*
X64427463Y-177386647D01*
X64402338Y-177405281D01*
X64375508Y-177421362D01*
X64347230Y-177434737D01*
X64317778Y-177445275D01*
X64287435Y-177452875D01*
X64256493Y-177457465D01*
X64225250Y-177459000D01*
X63587750Y-177459000D01*
X63556507Y-177457465D01*
X63525565Y-177452875D01*
X63495222Y-177445275D01*
X63465770Y-177434737D01*
X63437492Y-177421362D01*
X63410662Y-177405281D01*
X63385537Y-177386647D01*
X63362360Y-177365640D01*
X63341353Y-177342463D01*
X63322719Y-177317338D01*
X63306638Y-177290508D01*
X63293263Y-177262230D01*
X63282725Y-177232778D01*
X63275125Y-177202435D01*
X63270535Y-177171493D01*
X63269000Y-177140250D01*
X63269000Y-176427750D01*
X63270535Y-176396507D01*
X63275125Y-176365565D01*
X63282725Y-176335222D01*
X63293263Y-176305770D01*
X63306638Y-176277492D01*
X63322719Y-176250662D01*
X63341353Y-176225537D01*
X63362360Y-176202360D01*
X63385537Y-176181353D01*
X63410662Y-176162719D01*
X63437492Y-176146638D01*
X63465770Y-176133263D01*
X63495222Y-176122725D01*
X63525565Y-176115125D01*
X63556507Y-176110535D01*
X63587750Y-176109000D01*
X64225250Y-176109000D01*
X64256493Y-176110535D01*
X64256493Y-176110535D01*
G37*
D12*
X63906500Y-176784000D03*
D11*
G36*
X62681493Y-176110535D02*
X62712435Y-176115125D01*
X62742778Y-176122725D01*
X62772230Y-176133263D01*
X62800508Y-176146638D01*
X62827338Y-176162719D01*
X62852463Y-176181353D01*
X62875640Y-176202360D01*
X62896647Y-176225537D01*
X62915281Y-176250662D01*
X62931362Y-176277492D01*
X62944737Y-176305770D01*
X62955275Y-176335222D01*
X62962875Y-176365565D01*
X62967465Y-176396507D01*
X62969000Y-176427750D01*
X62969000Y-177140250D01*
X62967465Y-177171493D01*
X62962875Y-177202435D01*
X62955275Y-177232778D01*
X62944737Y-177262230D01*
X62931362Y-177290508D01*
X62915281Y-177317338D01*
X62896647Y-177342463D01*
X62875640Y-177365640D01*
X62852463Y-177386647D01*
X62827338Y-177405281D01*
X62800508Y-177421362D01*
X62772230Y-177434737D01*
X62742778Y-177445275D01*
X62712435Y-177452875D01*
X62681493Y-177457465D01*
X62650250Y-177459000D01*
X62012750Y-177459000D01*
X61981507Y-177457465D01*
X61950565Y-177452875D01*
X61920222Y-177445275D01*
X61890770Y-177434737D01*
X61862492Y-177421362D01*
X61835662Y-177405281D01*
X61810537Y-177386647D01*
X61787360Y-177365640D01*
X61766353Y-177342463D01*
X61747719Y-177317338D01*
X61731638Y-177290508D01*
X61718263Y-177262230D01*
X61707725Y-177232778D01*
X61700125Y-177202435D01*
X61695535Y-177171493D01*
X61694000Y-177140250D01*
X61694000Y-176427750D01*
X61695535Y-176396507D01*
X61700125Y-176365565D01*
X61707725Y-176335222D01*
X61718263Y-176305770D01*
X61731638Y-176277492D01*
X61747719Y-176250662D01*
X61766353Y-176225537D01*
X61787360Y-176202360D01*
X61810537Y-176181353D01*
X61835662Y-176162719D01*
X61862492Y-176146638D01*
X61890770Y-176133263D01*
X61920222Y-176122725D01*
X61950565Y-176115125D01*
X61981507Y-176110535D01*
X62012750Y-176109000D01*
X62650250Y-176109000D01*
X62681493Y-176110535D01*
X62681493Y-176110535D01*
G37*
D12*
X62331500Y-176784000D03*
G04 #@! TD*
D13*
G04 #@! TO.C,J2*
X21520000Y-154071000D03*
D14*
X22860000Y-157821000D03*
X22860000Y-155321000D03*
D15*
X22860000Y-152821000D03*
G04 #@! TD*
G04 #@! TO.C,J3*
X22987000Y-175641000D03*
D14*
X22987000Y-178141000D03*
D13*
X21647000Y-176891000D03*
G04 #@! TD*
D16*
G04 #@! TO.C,H1*
X59309000Y-144399000D03*
G04 #@! TD*
G04 #@! TO.C,H3*
X28829000Y-187579000D03*
G04 #@! TD*
D11*
G04 #@! TO.C,C3*
G36*
X63506493Y-171220535D02*
X63537435Y-171225125D01*
X63567778Y-171232725D01*
X63597230Y-171243263D01*
X63625508Y-171256638D01*
X63652338Y-171272719D01*
X63677463Y-171291353D01*
X63700640Y-171312360D01*
X63721647Y-171335537D01*
X63740281Y-171360662D01*
X63756362Y-171387492D01*
X63769737Y-171415770D01*
X63780275Y-171445222D01*
X63787875Y-171475565D01*
X63792465Y-171506507D01*
X63794000Y-171537750D01*
X63794000Y-172175250D01*
X63792465Y-172206493D01*
X63787875Y-172237435D01*
X63780275Y-172267778D01*
X63769737Y-172297230D01*
X63756362Y-172325508D01*
X63740281Y-172352338D01*
X63721647Y-172377463D01*
X63700640Y-172400640D01*
X63677463Y-172421647D01*
X63652338Y-172440281D01*
X63625508Y-172456362D01*
X63597230Y-172469737D01*
X63567778Y-172480275D01*
X63537435Y-172487875D01*
X63506493Y-172492465D01*
X63475250Y-172494000D01*
X62762750Y-172494000D01*
X62731507Y-172492465D01*
X62700565Y-172487875D01*
X62670222Y-172480275D01*
X62640770Y-172469737D01*
X62612492Y-172456362D01*
X62585662Y-172440281D01*
X62560537Y-172421647D01*
X62537360Y-172400640D01*
X62516353Y-172377463D01*
X62497719Y-172352338D01*
X62481638Y-172325508D01*
X62468263Y-172297230D01*
X62457725Y-172267778D01*
X62450125Y-172237435D01*
X62445535Y-172206493D01*
X62444000Y-172175250D01*
X62444000Y-171537750D01*
X62445535Y-171506507D01*
X62450125Y-171475565D01*
X62457725Y-171445222D01*
X62468263Y-171415770D01*
X62481638Y-171387492D01*
X62497719Y-171360662D01*
X62516353Y-171335537D01*
X62537360Y-171312360D01*
X62560537Y-171291353D01*
X62585662Y-171272719D01*
X62612492Y-171256638D01*
X62640770Y-171243263D01*
X62670222Y-171232725D01*
X62700565Y-171225125D01*
X62731507Y-171220535D01*
X62762750Y-171219000D01*
X63475250Y-171219000D01*
X63506493Y-171220535D01*
X63506493Y-171220535D01*
G37*
D12*
X63119000Y-171856500D03*
D11*
G36*
X63506493Y-169645535D02*
X63537435Y-169650125D01*
X63567778Y-169657725D01*
X63597230Y-169668263D01*
X63625508Y-169681638D01*
X63652338Y-169697719D01*
X63677463Y-169716353D01*
X63700640Y-169737360D01*
X63721647Y-169760537D01*
X63740281Y-169785662D01*
X63756362Y-169812492D01*
X63769737Y-169840770D01*
X63780275Y-169870222D01*
X63787875Y-169900565D01*
X63792465Y-169931507D01*
X63794000Y-169962750D01*
X63794000Y-170600250D01*
X63792465Y-170631493D01*
X63787875Y-170662435D01*
X63780275Y-170692778D01*
X63769737Y-170722230D01*
X63756362Y-170750508D01*
X63740281Y-170777338D01*
X63721647Y-170802463D01*
X63700640Y-170825640D01*
X63677463Y-170846647D01*
X63652338Y-170865281D01*
X63625508Y-170881362D01*
X63597230Y-170894737D01*
X63567778Y-170905275D01*
X63537435Y-170912875D01*
X63506493Y-170917465D01*
X63475250Y-170919000D01*
X62762750Y-170919000D01*
X62731507Y-170917465D01*
X62700565Y-170912875D01*
X62670222Y-170905275D01*
X62640770Y-170894737D01*
X62612492Y-170881362D01*
X62585662Y-170865281D01*
X62560537Y-170846647D01*
X62537360Y-170825640D01*
X62516353Y-170802463D01*
X62497719Y-170777338D01*
X62481638Y-170750508D01*
X62468263Y-170722230D01*
X62457725Y-170692778D01*
X62450125Y-170662435D01*
X62445535Y-170631493D01*
X62444000Y-170600250D01*
X62444000Y-169962750D01*
X62445535Y-169931507D01*
X62450125Y-169900565D01*
X62457725Y-169870222D01*
X62468263Y-169840770D01*
X62481638Y-169812492D01*
X62497719Y-169785662D01*
X62516353Y-169760537D01*
X62537360Y-169737360D01*
X62560537Y-169716353D01*
X62585662Y-169697719D01*
X62612492Y-169681638D01*
X62640770Y-169668263D01*
X62670222Y-169657725D01*
X62700565Y-169650125D01*
X62731507Y-169645535D01*
X62762750Y-169644000D01*
X63475250Y-169644000D01*
X63506493Y-169645535D01*
X63506493Y-169645535D01*
G37*
D12*
X63119000Y-170281500D03*
G04 #@! TD*
D11*
G04 #@! TO.C,C4*
G36*
X67659993Y-178015535D02*
X67690935Y-178020125D01*
X67721278Y-178027725D01*
X67750730Y-178038263D01*
X67779008Y-178051638D01*
X67805838Y-178067719D01*
X67830963Y-178086353D01*
X67854140Y-178107360D01*
X67875147Y-178130537D01*
X67893781Y-178155662D01*
X67909862Y-178182492D01*
X67923237Y-178210770D01*
X67933775Y-178240222D01*
X67941375Y-178270565D01*
X67945965Y-178301507D01*
X67947500Y-178332750D01*
X67947500Y-179045250D01*
X67945965Y-179076493D01*
X67941375Y-179107435D01*
X67933775Y-179137778D01*
X67923237Y-179167230D01*
X67909862Y-179195508D01*
X67893781Y-179222338D01*
X67875147Y-179247463D01*
X67854140Y-179270640D01*
X67830963Y-179291647D01*
X67805838Y-179310281D01*
X67779008Y-179326362D01*
X67750730Y-179339737D01*
X67721278Y-179350275D01*
X67690935Y-179357875D01*
X67659993Y-179362465D01*
X67628750Y-179364000D01*
X66991250Y-179364000D01*
X66960007Y-179362465D01*
X66929065Y-179357875D01*
X66898722Y-179350275D01*
X66869270Y-179339737D01*
X66840992Y-179326362D01*
X66814162Y-179310281D01*
X66789037Y-179291647D01*
X66765860Y-179270640D01*
X66744853Y-179247463D01*
X66726219Y-179222338D01*
X66710138Y-179195508D01*
X66696763Y-179167230D01*
X66686225Y-179137778D01*
X66678625Y-179107435D01*
X66674035Y-179076493D01*
X66672500Y-179045250D01*
X66672500Y-178332750D01*
X66674035Y-178301507D01*
X66678625Y-178270565D01*
X66686225Y-178240222D01*
X66696763Y-178210770D01*
X66710138Y-178182492D01*
X66726219Y-178155662D01*
X66744853Y-178130537D01*
X66765860Y-178107360D01*
X66789037Y-178086353D01*
X66814162Y-178067719D01*
X66840992Y-178051638D01*
X66869270Y-178038263D01*
X66898722Y-178027725D01*
X66929065Y-178020125D01*
X66960007Y-178015535D01*
X66991250Y-178014000D01*
X67628750Y-178014000D01*
X67659993Y-178015535D01*
X67659993Y-178015535D01*
G37*
D12*
X67310000Y-178689000D03*
D11*
G36*
X66084993Y-178015535D02*
X66115935Y-178020125D01*
X66146278Y-178027725D01*
X66175730Y-178038263D01*
X66204008Y-178051638D01*
X66230838Y-178067719D01*
X66255963Y-178086353D01*
X66279140Y-178107360D01*
X66300147Y-178130537D01*
X66318781Y-178155662D01*
X66334862Y-178182492D01*
X66348237Y-178210770D01*
X66358775Y-178240222D01*
X66366375Y-178270565D01*
X66370965Y-178301507D01*
X66372500Y-178332750D01*
X66372500Y-179045250D01*
X66370965Y-179076493D01*
X66366375Y-179107435D01*
X66358775Y-179137778D01*
X66348237Y-179167230D01*
X66334862Y-179195508D01*
X66318781Y-179222338D01*
X66300147Y-179247463D01*
X66279140Y-179270640D01*
X66255963Y-179291647D01*
X66230838Y-179310281D01*
X66204008Y-179326362D01*
X66175730Y-179339737D01*
X66146278Y-179350275D01*
X66115935Y-179357875D01*
X66084993Y-179362465D01*
X66053750Y-179364000D01*
X65416250Y-179364000D01*
X65385007Y-179362465D01*
X65354065Y-179357875D01*
X65323722Y-179350275D01*
X65294270Y-179339737D01*
X65265992Y-179326362D01*
X65239162Y-179310281D01*
X65214037Y-179291647D01*
X65190860Y-179270640D01*
X65169853Y-179247463D01*
X65151219Y-179222338D01*
X65135138Y-179195508D01*
X65121763Y-179167230D01*
X65111225Y-179137778D01*
X65103625Y-179107435D01*
X65099035Y-179076493D01*
X65097500Y-179045250D01*
X65097500Y-178332750D01*
X65099035Y-178301507D01*
X65103625Y-178270565D01*
X65111225Y-178240222D01*
X65121763Y-178210770D01*
X65135138Y-178182492D01*
X65151219Y-178155662D01*
X65169853Y-178130537D01*
X65190860Y-178107360D01*
X65214037Y-178086353D01*
X65239162Y-178067719D01*
X65265992Y-178051638D01*
X65294270Y-178038263D01*
X65323722Y-178027725D01*
X65354065Y-178020125D01*
X65385007Y-178015535D01*
X65416250Y-178014000D01*
X66053750Y-178014000D01*
X66084993Y-178015535D01*
X66084993Y-178015535D01*
G37*
D12*
X65735000Y-178689000D03*
G04 #@! TD*
D11*
G04 #@! TO.C,C5*
G36*
X40646493Y-172185535D02*
X40677435Y-172190125D01*
X40707778Y-172197725D01*
X40737230Y-172208263D01*
X40765508Y-172221638D01*
X40792338Y-172237719D01*
X40817463Y-172256353D01*
X40840640Y-172277360D01*
X40861647Y-172300537D01*
X40880281Y-172325662D01*
X40896362Y-172352492D01*
X40909737Y-172380770D01*
X40920275Y-172410222D01*
X40927875Y-172440565D01*
X40932465Y-172471507D01*
X40934000Y-172502750D01*
X40934000Y-173140250D01*
X40932465Y-173171493D01*
X40927875Y-173202435D01*
X40920275Y-173232778D01*
X40909737Y-173262230D01*
X40896362Y-173290508D01*
X40880281Y-173317338D01*
X40861647Y-173342463D01*
X40840640Y-173365640D01*
X40817463Y-173386647D01*
X40792338Y-173405281D01*
X40765508Y-173421362D01*
X40737230Y-173434737D01*
X40707778Y-173445275D01*
X40677435Y-173452875D01*
X40646493Y-173457465D01*
X40615250Y-173459000D01*
X39902750Y-173459000D01*
X39871507Y-173457465D01*
X39840565Y-173452875D01*
X39810222Y-173445275D01*
X39780770Y-173434737D01*
X39752492Y-173421362D01*
X39725662Y-173405281D01*
X39700537Y-173386647D01*
X39677360Y-173365640D01*
X39656353Y-173342463D01*
X39637719Y-173317338D01*
X39621638Y-173290508D01*
X39608263Y-173262230D01*
X39597725Y-173232778D01*
X39590125Y-173202435D01*
X39585535Y-173171493D01*
X39584000Y-173140250D01*
X39584000Y-172502750D01*
X39585535Y-172471507D01*
X39590125Y-172440565D01*
X39597725Y-172410222D01*
X39608263Y-172380770D01*
X39621638Y-172352492D01*
X39637719Y-172325662D01*
X39656353Y-172300537D01*
X39677360Y-172277360D01*
X39700537Y-172256353D01*
X39725662Y-172237719D01*
X39752492Y-172221638D01*
X39780770Y-172208263D01*
X39810222Y-172197725D01*
X39840565Y-172190125D01*
X39871507Y-172185535D01*
X39902750Y-172184000D01*
X40615250Y-172184000D01*
X40646493Y-172185535D01*
X40646493Y-172185535D01*
G37*
D12*
X40259000Y-172821500D03*
D11*
G36*
X40646493Y-173760535D02*
X40677435Y-173765125D01*
X40707778Y-173772725D01*
X40737230Y-173783263D01*
X40765508Y-173796638D01*
X40792338Y-173812719D01*
X40817463Y-173831353D01*
X40840640Y-173852360D01*
X40861647Y-173875537D01*
X40880281Y-173900662D01*
X40896362Y-173927492D01*
X40909737Y-173955770D01*
X40920275Y-173985222D01*
X40927875Y-174015565D01*
X40932465Y-174046507D01*
X40934000Y-174077750D01*
X40934000Y-174715250D01*
X40932465Y-174746493D01*
X40927875Y-174777435D01*
X40920275Y-174807778D01*
X40909737Y-174837230D01*
X40896362Y-174865508D01*
X40880281Y-174892338D01*
X40861647Y-174917463D01*
X40840640Y-174940640D01*
X40817463Y-174961647D01*
X40792338Y-174980281D01*
X40765508Y-174996362D01*
X40737230Y-175009737D01*
X40707778Y-175020275D01*
X40677435Y-175027875D01*
X40646493Y-175032465D01*
X40615250Y-175034000D01*
X39902750Y-175034000D01*
X39871507Y-175032465D01*
X39840565Y-175027875D01*
X39810222Y-175020275D01*
X39780770Y-175009737D01*
X39752492Y-174996362D01*
X39725662Y-174980281D01*
X39700537Y-174961647D01*
X39677360Y-174940640D01*
X39656353Y-174917463D01*
X39637719Y-174892338D01*
X39621638Y-174865508D01*
X39608263Y-174837230D01*
X39597725Y-174807778D01*
X39590125Y-174777435D01*
X39585535Y-174746493D01*
X39584000Y-174715250D01*
X39584000Y-174077750D01*
X39585535Y-174046507D01*
X39590125Y-174015565D01*
X39597725Y-173985222D01*
X39608263Y-173955770D01*
X39621638Y-173927492D01*
X39637719Y-173900662D01*
X39656353Y-173875537D01*
X39677360Y-173852360D01*
X39700537Y-173831353D01*
X39725662Y-173812719D01*
X39752492Y-173796638D01*
X39780770Y-173783263D01*
X39810222Y-173772725D01*
X39840565Y-173765125D01*
X39871507Y-173760535D01*
X39902750Y-173759000D01*
X40615250Y-173759000D01*
X40646493Y-173760535D01*
X40646493Y-173760535D01*
G37*
D12*
X40259000Y-174396500D03*
G04 #@! TD*
D11*
G04 #@! TO.C,C6*
G36*
X45726493Y-172185535D02*
X45757435Y-172190125D01*
X45787778Y-172197725D01*
X45817230Y-172208263D01*
X45845508Y-172221638D01*
X45872338Y-172237719D01*
X45897463Y-172256353D01*
X45920640Y-172277360D01*
X45941647Y-172300537D01*
X45960281Y-172325662D01*
X45976362Y-172352492D01*
X45989737Y-172380770D01*
X46000275Y-172410222D01*
X46007875Y-172440565D01*
X46012465Y-172471507D01*
X46014000Y-172502750D01*
X46014000Y-173140250D01*
X46012465Y-173171493D01*
X46007875Y-173202435D01*
X46000275Y-173232778D01*
X45989737Y-173262230D01*
X45976362Y-173290508D01*
X45960281Y-173317338D01*
X45941647Y-173342463D01*
X45920640Y-173365640D01*
X45897463Y-173386647D01*
X45872338Y-173405281D01*
X45845508Y-173421362D01*
X45817230Y-173434737D01*
X45787778Y-173445275D01*
X45757435Y-173452875D01*
X45726493Y-173457465D01*
X45695250Y-173459000D01*
X44982750Y-173459000D01*
X44951507Y-173457465D01*
X44920565Y-173452875D01*
X44890222Y-173445275D01*
X44860770Y-173434737D01*
X44832492Y-173421362D01*
X44805662Y-173405281D01*
X44780537Y-173386647D01*
X44757360Y-173365640D01*
X44736353Y-173342463D01*
X44717719Y-173317338D01*
X44701638Y-173290508D01*
X44688263Y-173262230D01*
X44677725Y-173232778D01*
X44670125Y-173202435D01*
X44665535Y-173171493D01*
X44664000Y-173140250D01*
X44664000Y-172502750D01*
X44665535Y-172471507D01*
X44670125Y-172440565D01*
X44677725Y-172410222D01*
X44688263Y-172380770D01*
X44701638Y-172352492D01*
X44717719Y-172325662D01*
X44736353Y-172300537D01*
X44757360Y-172277360D01*
X44780537Y-172256353D01*
X44805662Y-172237719D01*
X44832492Y-172221638D01*
X44860770Y-172208263D01*
X44890222Y-172197725D01*
X44920565Y-172190125D01*
X44951507Y-172185535D01*
X44982750Y-172184000D01*
X45695250Y-172184000D01*
X45726493Y-172185535D01*
X45726493Y-172185535D01*
G37*
D12*
X45339000Y-172821500D03*
D11*
G36*
X45726493Y-173760535D02*
X45757435Y-173765125D01*
X45787778Y-173772725D01*
X45817230Y-173783263D01*
X45845508Y-173796638D01*
X45872338Y-173812719D01*
X45897463Y-173831353D01*
X45920640Y-173852360D01*
X45941647Y-173875537D01*
X45960281Y-173900662D01*
X45976362Y-173927492D01*
X45989737Y-173955770D01*
X46000275Y-173985222D01*
X46007875Y-174015565D01*
X46012465Y-174046507D01*
X46014000Y-174077750D01*
X46014000Y-174715250D01*
X46012465Y-174746493D01*
X46007875Y-174777435D01*
X46000275Y-174807778D01*
X45989737Y-174837230D01*
X45976362Y-174865508D01*
X45960281Y-174892338D01*
X45941647Y-174917463D01*
X45920640Y-174940640D01*
X45897463Y-174961647D01*
X45872338Y-174980281D01*
X45845508Y-174996362D01*
X45817230Y-175009737D01*
X45787778Y-175020275D01*
X45757435Y-175027875D01*
X45726493Y-175032465D01*
X45695250Y-175034000D01*
X44982750Y-175034000D01*
X44951507Y-175032465D01*
X44920565Y-175027875D01*
X44890222Y-175020275D01*
X44860770Y-175009737D01*
X44832492Y-174996362D01*
X44805662Y-174980281D01*
X44780537Y-174961647D01*
X44757360Y-174940640D01*
X44736353Y-174917463D01*
X44717719Y-174892338D01*
X44701638Y-174865508D01*
X44688263Y-174837230D01*
X44677725Y-174807778D01*
X44670125Y-174777435D01*
X44665535Y-174746493D01*
X44664000Y-174715250D01*
X44664000Y-174077750D01*
X44665535Y-174046507D01*
X44670125Y-174015565D01*
X44677725Y-173985222D01*
X44688263Y-173955770D01*
X44701638Y-173927492D01*
X44717719Y-173900662D01*
X44736353Y-173875537D01*
X44757360Y-173852360D01*
X44780537Y-173831353D01*
X44805662Y-173812719D01*
X44832492Y-173796638D01*
X44860770Y-173783263D01*
X44890222Y-173772725D01*
X44920565Y-173765125D01*
X44951507Y-173760535D01*
X44982750Y-173759000D01*
X45695250Y-173759000D01*
X45726493Y-173760535D01*
X45726493Y-173760535D01*
G37*
D12*
X45339000Y-174396500D03*
G04 #@! TD*
D17*
G04 #@! TO.C,J1*
X61757558Y-161544000D03*
X63754000Y-161544000D03*
D18*
X59357259Y-156347160D03*
X66154299Y-156347160D03*
G04 #@! TD*
D19*
G04 #@! TO.C,Q1*
X46609000Y-187259000D03*
X46609000Y-185359000D03*
X44609000Y-186309000D03*
G04 #@! TD*
G04 #@! TO.C,Q2*
X44609000Y-181864000D03*
X46609000Y-180914000D03*
X46609000Y-182814000D03*
G04 #@! TD*
D11*
G04 #@! TO.C,R3*
G36*
X49536493Y-186460535D02*
X49567435Y-186465125D01*
X49597778Y-186472725D01*
X49627230Y-186483263D01*
X49655508Y-186496638D01*
X49682338Y-186512719D01*
X49707463Y-186531353D01*
X49730640Y-186552360D01*
X49751647Y-186575537D01*
X49770281Y-186600662D01*
X49786362Y-186627492D01*
X49799737Y-186655770D01*
X49810275Y-186685222D01*
X49817875Y-186715565D01*
X49822465Y-186746507D01*
X49824000Y-186777750D01*
X49824000Y-187415250D01*
X49822465Y-187446493D01*
X49817875Y-187477435D01*
X49810275Y-187507778D01*
X49799737Y-187537230D01*
X49786362Y-187565508D01*
X49770281Y-187592338D01*
X49751647Y-187617463D01*
X49730640Y-187640640D01*
X49707463Y-187661647D01*
X49682338Y-187680281D01*
X49655508Y-187696362D01*
X49627230Y-187709737D01*
X49597778Y-187720275D01*
X49567435Y-187727875D01*
X49536493Y-187732465D01*
X49505250Y-187734000D01*
X48792750Y-187734000D01*
X48761507Y-187732465D01*
X48730565Y-187727875D01*
X48700222Y-187720275D01*
X48670770Y-187709737D01*
X48642492Y-187696362D01*
X48615662Y-187680281D01*
X48590537Y-187661647D01*
X48567360Y-187640640D01*
X48546353Y-187617463D01*
X48527719Y-187592338D01*
X48511638Y-187565508D01*
X48498263Y-187537230D01*
X48487725Y-187507778D01*
X48480125Y-187477435D01*
X48475535Y-187446493D01*
X48474000Y-187415250D01*
X48474000Y-186777750D01*
X48475535Y-186746507D01*
X48480125Y-186715565D01*
X48487725Y-186685222D01*
X48498263Y-186655770D01*
X48511638Y-186627492D01*
X48527719Y-186600662D01*
X48546353Y-186575537D01*
X48567360Y-186552360D01*
X48590537Y-186531353D01*
X48615662Y-186512719D01*
X48642492Y-186496638D01*
X48670770Y-186483263D01*
X48700222Y-186472725D01*
X48730565Y-186465125D01*
X48761507Y-186460535D01*
X48792750Y-186459000D01*
X49505250Y-186459000D01*
X49536493Y-186460535D01*
X49536493Y-186460535D01*
G37*
D12*
X49149000Y-187096500D03*
D11*
G36*
X49536493Y-184885535D02*
X49567435Y-184890125D01*
X49597778Y-184897725D01*
X49627230Y-184908263D01*
X49655508Y-184921638D01*
X49682338Y-184937719D01*
X49707463Y-184956353D01*
X49730640Y-184977360D01*
X49751647Y-185000537D01*
X49770281Y-185025662D01*
X49786362Y-185052492D01*
X49799737Y-185080770D01*
X49810275Y-185110222D01*
X49817875Y-185140565D01*
X49822465Y-185171507D01*
X49824000Y-185202750D01*
X49824000Y-185840250D01*
X49822465Y-185871493D01*
X49817875Y-185902435D01*
X49810275Y-185932778D01*
X49799737Y-185962230D01*
X49786362Y-185990508D01*
X49770281Y-186017338D01*
X49751647Y-186042463D01*
X49730640Y-186065640D01*
X49707463Y-186086647D01*
X49682338Y-186105281D01*
X49655508Y-186121362D01*
X49627230Y-186134737D01*
X49597778Y-186145275D01*
X49567435Y-186152875D01*
X49536493Y-186157465D01*
X49505250Y-186159000D01*
X48792750Y-186159000D01*
X48761507Y-186157465D01*
X48730565Y-186152875D01*
X48700222Y-186145275D01*
X48670770Y-186134737D01*
X48642492Y-186121362D01*
X48615662Y-186105281D01*
X48590537Y-186086647D01*
X48567360Y-186065640D01*
X48546353Y-186042463D01*
X48527719Y-186017338D01*
X48511638Y-185990508D01*
X48498263Y-185962230D01*
X48487725Y-185932778D01*
X48480125Y-185902435D01*
X48475535Y-185871493D01*
X48474000Y-185840250D01*
X48474000Y-185202750D01*
X48475535Y-185171507D01*
X48480125Y-185140565D01*
X48487725Y-185110222D01*
X48498263Y-185080770D01*
X48511638Y-185052492D01*
X48527719Y-185025662D01*
X48546353Y-185000537D01*
X48567360Y-184977360D01*
X48590537Y-184956353D01*
X48615662Y-184937719D01*
X48642492Y-184921638D01*
X48670770Y-184908263D01*
X48700222Y-184897725D01*
X48730565Y-184890125D01*
X48761507Y-184885535D01*
X48792750Y-184884000D01*
X49505250Y-184884000D01*
X49536493Y-184885535D01*
X49536493Y-184885535D01*
G37*
D12*
X49149000Y-185521500D03*
G04 #@! TD*
D11*
G04 #@! TO.C,R4*
G36*
X49536493Y-182015535D02*
X49567435Y-182020125D01*
X49597778Y-182027725D01*
X49627230Y-182038263D01*
X49655508Y-182051638D01*
X49682338Y-182067719D01*
X49707463Y-182086353D01*
X49730640Y-182107360D01*
X49751647Y-182130537D01*
X49770281Y-182155662D01*
X49786362Y-182182492D01*
X49799737Y-182210770D01*
X49810275Y-182240222D01*
X49817875Y-182270565D01*
X49822465Y-182301507D01*
X49824000Y-182332750D01*
X49824000Y-182970250D01*
X49822465Y-183001493D01*
X49817875Y-183032435D01*
X49810275Y-183062778D01*
X49799737Y-183092230D01*
X49786362Y-183120508D01*
X49770281Y-183147338D01*
X49751647Y-183172463D01*
X49730640Y-183195640D01*
X49707463Y-183216647D01*
X49682338Y-183235281D01*
X49655508Y-183251362D01*
X49627230Y-183264737D01*
X49597778Y-183275275D01*
X49567435Y-183282875D01*
X49536493Y-183287465D01*
X49505250Y-183289000D01*
X48792750Y-183289000D01*
X48761507Y-183287465D01*
X48730565Y-183282875D01*
X48700222Y-183275275D01*
X48670770Y-183264737D01*
X48642492Y-183251362D01*
X48615662Y-183235281D01*
X48590537Y-183216647D01*
X48567360Y-183195640D01*
X48546353Y-183172463D01*
X48527719Y-183147338D01*
X48511638Y-183120508D01*
X48498263Y-183092230D01*
X48487725Y-183062778D01*
X48480125Y-183032435D01*
X48475535Y-183001493D01*
X48474000Y-182970250D01*
X48474000Y-182332750D01*
X48475535Y-182301507D01*
X48480125Y-182270565D01*
X48487725Y-182240222D01*
X48498263Y-182210770D01*
X48511638Y-182182492D01*
X48527719Y-182155662D01*
X48546353Y-182130537D01*
X48567360Y-182107360D01*
X48590537Y-182086353D01*
X48615662Y-182067719D01*
X48642492Y-182051638D01*
X48670770Y-182038263D01*
X48700222Y-182027725D01*
X48730565Y-182020125D01*
X48761507Y-182015535D01*
X48792750Y-182014000D01*
X49505250Y-182014000D01*
X49536493Y-182015535D01*
X49536493Y-182015535D01*
G37*
D12*
X49149000Y-182651500D03*
D11*
G36*
X49536493Y-180440535D02*
X49567435Y-180445125D01*
X49597778Y-180452725D01*
X49627230Y-180463263D01*
X49655508Y-180476638D01*
X49682338Y-180492719D01*
X49707463Y-180511353D01*
X49730640Y-180532360D01*
X49751647Y-180555537D01*
X49770281Y-180580662D01*
X49786362Y-180607492D01*
X49799737Y-180635770D01*
X49810275Y-180665222D01*
X49817875Y-180695565D01*
X49822465Y-180726507D01*
X49824000Y-180757750D01*
X49824000Y-181395250D01*
X49822465Y-181426493D01*
X49817875Y-181457435D01*
X49810275Y-181487778D01*
X49799737Y-181517230D01*
X49786362Y-181545508D01*
X49770281Y-181572338D01*
X49751647Y-181597463D01*
X49730640Y-181620640D01*
X49707463Y-181641647D01*
X49682338Y-181660281D01*
X49655508Y-181676362D01*
X49627230Y-181689737D01*
X49597778Y-181700275D01*
X49567435Y-181707875D01*
X49536493Y-181712465D01*
X49505250Y-181714000D01*
X48792750Y-181714000D01*
X48761507Y-181712465D01*
X48730565Y-181707875D01*
X48700222Y-181700275D01*
X48670770Y-181689737D01*
X48642492Y-181676362D01*
X48615662Y-181660281D01*
X48590537Y-181641647D01*
X48567360Y-181620640D01*
X48546353Y-181597463D01*
X48527719Y-181572338D01*
X48511638Y-181545508D01*
X48498263Y-181517230D01*
X48487725Y-181487778D01*
X48480125Y-181457435D01*
X48475535Y-181426493D01*
X48474000Y-181395250D01*
X48474000Y-180757750D01*
X48475535Y-180726507D01*
X48480125Y-180695565D01*
X48487725Y-180665222D01*
X48498263Y-180635770D01*
X48511638Y-180607492D01*
X48527719Y-180580662D01*
X48546353Y-180555537D01*
X48567360Y-180532360D01*
X48590537Y-180511353D01*
X48615662Y-180492719D01*
X48642492Y-180476638D01*
X48670770Y-180463263D01*
X48700222Y-180452725D01*
X48730565Y-180445125D01*
X48761507Y-180440535D01*
X48792750Y-180439000D01*
X49505250Y-180439000D01*
X49536493Y-180440535D01*
X49536493Y-180440535D01*
G37*
D12*
X49149000Y-181076500D03*
G04 #@! TD*
D11*
G04 #@! TO.C,R5*
G36*
X42551493Y-184885535D02*
X42582435Y-184890125D01*
X42612778Y-184897725D01*
X42642230Y-184908263D01*
X42670508Y-184921638D01*
X42697338Y-184937719D01*
X42722463Y-184956353D01*
X42745640Y-184977360D01*
X42766647Y-185000537D01*
X42785281Y-185025662D01*
X42801362Y-185052492D01*
X42814737Y-185080770D01*
X42825275Y-185110222D01*
X42832875Y-185140565D01*
X42837465Y-185171507D01*
X42839000Y-185202750D01*
X42839000Y-185840250D01*
X42837465Y-185871493D01*
X42832875Y-185902435D01*
X42825275Y-185932778D01*
X42814737Y-185962230D01*
X42801362Y-185990508D01*
X42785281Y-186017338D01*
X42766647Y-186042463D01*
X42745640Y-186065640D01*
X42722463Y-186086647D01*
X42697338Y-186105281D01*
X42670508Y-186121362D01*
X42642230Y-186134737D01*
X42612778Y-186145275D01*
X42582435Y-186152875D01*
X42551493Y-186157465D01*
X42520250Y-186159000D01*
X41807750Y-186159000D01*
X41776507Y-186157465D01*
X41745565Y-186152875D01*
X41715222Y-186145275D01*
X41685770Y-186134737D01*
X41657492Y-186121362D01*
X41630662Y-186105281D01*
X41605537Y-186086647D01*
X41582360Y-186065640D01*
X41561353Y-186042463D01*
X41542719Y-186017338D01*
X41526638Y-185990508D01*
X41513263Y-185962230D01*
X41502725Y-185932778D01*
X41495125Y-185902435D01*
X41490535Y-185871493D01*
X41489000Y-185840250D01*
X41489000Y-185202750D01*
X41490535Y-185171507D01*
X41495125Y-185140565D01*
X41502725Y-185110222D01*
X41513263Y-185080770D01*
X41526638Y-185052492D01*
X41542719Y-185025662D01*
X41561353Y-185000537D01*
X41582360Y-184977360D01*
X41605537Y-184956353D01*
X41630662Y-184937719D01*
X41657492Y-184921638D01*
X41685770Y-184908263D01*
X41715222Y-184897725D01*
X41745565Y-184890125D01*
X41776507Y-184885535D01*
X41807750Y-184884000D01*
X42520250Y-184884000D01*
X42551493Y-184885535D01*
X42551493Y-184885535D01*
G37*
D12*
X42164000Y-185521500D03*
D11*
G36*
X42551493Y-186460535D02*
X42582435Y-186465125D01*
X42612778Y-186472725D01*
X42642230Y-186483263D01*
X42670508Y-186496638D01*
X42697338Y-186512719D01*
X42722463Y-186531353D01*
X42745640Y-186552360D01*
X42766647Y-186575537D01*
X42785281Y-186600662D01*
X42801362Y-186627492D01*
X42814737Y-186655770D01*
X42825275Y-186685222D01*
X42832875Y-186715565D01*
X42837465Y-186746507D01*
X42839000Y-186777750D01*
X42839000Y-187415250D01*
X42837465Y-187446493D01*
X42832875Y-187477435D01*
X42825275Y-187507778D01*
X42814737Y-187537230D01*
X42801362Y-187565508D01*
X42785281Y-187592338D01*
X42766647Y-187617463D01*
X42745640Y-187640640D01*
X42722463Y-187661647D01*
X42697338Y-187680281D01*
X42670508Y-187696362D01*
X42642230Y-187709737D01*
X42612778Y-187720275D01*
X42582435Y-187727875D01*
X42551493Y-187732465D01*
X42520250Y-187734000D01*
X41807750Y-187734000D01*
X41776507Y-187732465D01*
X41745565Y-187727875D01*
X41715222Y-187720275D01*
X41685770Y-187709737D01*
X41657492Y-187696362D01*
X41630662Y-187680281D01*
X41605537Y-187661647D01*
X41582360Y-187640640D01*
X41561353Y-187617463D01*
X41542719Y-187592338D01*
X41526638Y-187565508D01*
X41513263Y-187537230D01*
X41502725Y-187507778D01*
X41495125Y-187477435D01*
X41490535Y-187446493D01*
X41489000Y-187415250D01*
X41489000Y-186777750D01*
X41490535Y-186746507D01*
X41495125Y-186715565D01*
X41502725Y-186685222D01*
X41513263Y-186655770D01*
X41526638Y-186627492D01*
X41542719Y-186600662D01*
X41561353Y-186575537D01*
X41582360Y-186552360D01*
X41605537Y-186531353D01*
X41630662Y-186512719D01*
X41657492Y-186496638D01*
X41685770Y-186483263D01*
X41715222Y-186472725D01*
X41745565Y-186465125D01*
X41776507Y-186460535D01*
X41807750Y-186459000D01*
X42520250Y-186459000D01*
X42551493Y-186460535D01*
X42551493Y-186460535D01*
G37*
D12*
X42164000Y-187096500D03*
G04 #@! TD*
D11*
G04 #@! TO.C,R6*
G36*
X42551493Y-180440535D02*
X42582435Y-180445125D01*
X42612778Y-180452725D01*
X42642230Y-180463263D01*
X42670508Y-180476638D01*
X42697338Y-180492719D01*
X42722463Y-180511353D01*
X42745640Y-180532360D01*
X42766647Y-180555537D01*
X42785281Y-180580662D01*
X42801362Y-180607492D01*
X42814737Y-180635770D01*
X42825275Y-180665222D01*
X42832875Y-180695565D01*
X42837465Y-180726507D01*
X42839000Y-180757750D01*
X42839000Y-181395250D01*
X42837465Y-181426493D01*
X42832875Y-181457435D01*
X42825275Y-181487778D01*
X42814737Y-181517230D01*
X42801362Y-181545508D01*
X42785281Y-181572338D01*
X42766647Y-181597463D01*
X42745640Y-181620640D01*
X42722463Y-181641647D01*
X42697338Y-181660281D01*
X42670508Y-181676362D01*
X42642230Y-181689737D01*
X42612778Y-181700275D01*
X42582435Y-181707875D01*
X42551493Y-181712465D01*
X42520250Y-181714000D01*
X41807750Y-181714000D01*
X41776507Y-181712465D01*
X41745565Y-181707875D01*
X41715222Y-181700275D01*
X41685770Y-181689737D01*
X41657492Y-181676362D01*
X41630662Y-181660281D01*
X41605537Y-181641647D01*
X41582360Y-181620640D01*
X41561353Y-181597463D01*
X41542719Y-181572338D01*
X41526638Y-181545508D01*
X41513263Y-181517230D01*
X41502725Y-181487778D01*
X41495125Y-181457435D01*
X41490535Y-181426493D01*
X41489000Y-181395250D01*
X41489000Y-180757750D01*
X41490535Y-180726507D01*
X41495125Y-180695565D01*
X41502725Y-180665222D01*
X41513263Y-180635770D01*
X41526638Y-180607492D01*
X41542719Y-180580662D01*
X41561353Y-180555537D01*
X41582360Y-180532360D01*
X41605537Y-180511353D01*
X41630662Y-180492719D01*
X41657492Y-180476638D01*
X41685770Y-180463263D01*
X41715222Y-180452725D01*
X41745565Y-180445125D01*
X41776507Y-180440535D01*
X41807750Y-180439000D01*
X42520250Y-180439000D01*
X42551493Y-180440535D01*
X42551493Y-180440535D01*
G37*
D12*
X42164000Y-181076500D03*
D11*
G36*
X42551493Y-182015535D02*
X42582435Y-182020125D01*
X42612778Y-182027725D01*
X42642230Y-182038263D01*
X42670508Y-182051638D01*
X42697338Y-182067719D01*
X42722463Y-182086353D01*
X42745640Y-182107360D01*
X42766647Y-182130537D01*
X42785281Y-182155662D01*
X42801362Y-182182492D01*
X42814737Y-182210770D01*
X42825275Y-182240222D01*
X42832875Y-182270565D01*
X42837465Y-182301507D01*
X42839000Y-182332750D01*
X42839000Y-182970250D01*
X42837465Y-183001493D01*
X42832875Y-183032435D01*
X42825275Y-183062778D01*
X42814737Y-183092230D01*
X42801362Y-183120508D01*
X42785281Y-183147338D01*
X42766647Y-183172463D01*
X42745640Y-183195640D01*
X42722463Y-183216647D01*
X42697338Y-183235281D01*
X42670508Y-183251362D01*
X42642230Y-183264737D01*
X42612778Y-183275275D01*
X42582435Y-183282875D01*
X42551493Y-183287465D01*
X42520250Y-183289000D01*
X41807750Y-183289000D01*
X41776507Y-183287465D01*
X41745565Y-183282875D01*
X41715222Y-183275275D01*
X41685770Y-183264737D01*
X41657492Y-183251362D01*
X41630662Y-183235281D01*
X41605537Y-183216647D01*
X41582360Y-183195640D01*
X41561353Y-183172463D01*
X41542719Y-183147338D01*
X41526638Y-183120508D01*
X41513263Y-183092230D01*
X41502725Y-183062778D01*
X41495125Y-183032435D01*
X41490535Y-183001493D01*
X41489000Y-182970250D01*
X41489000Y-182332750D01*
X41490535Y-182301507D01*
X41495125Y-182270565D01*
X41502725Y-182240222D01*
X41513263Y-182210770D01*
X41526638Y-182182492D01*
X41542719Y-182155662D01*
X41561353Y-182130537D01*
X41582360Y-182107360D01*
X41605537Y-182086353D01*
X41630662Y-182067719D01*
X41657492Y-182051638D01*
X41685770Y-182038263D01*
X41715222Y-182027725D01*
X41745565Y-182020125D01*
X41776507Y-182015535D01*
X41807750Y-182014000D01*
X42520250Y-182014000D01*
X42551493Y-182015535D01*
X42551493Y-182015535D01*
G37*
D12*
X42164000Y-182651500D03*
G04 #@! TD*
D20*
G04 #@! TO.C,U1*
X43748960Y-164096700D03*
X43748960Y-163449000D03*
X43748960Y-162801300D03*
X41849040Y-162801300D03*
X41849040Y-164096700D03*
G04 #@! TD*
D21*
G04 #@! TO.C,U2*
X61328300Y-170080940D03*
X60827920Y-170080940D03*
X60330080Y-170080940D03*
X59829700Y-170080940D03*
X59829700Y-172057060D03*
X60330080Y-172057060D03*
X60827920Y-172057060D03*
X61328300Y-172057060D03*
D22*
X60579000Y-171069000D03*
G04 #@! TD*
D23*
G04 #@! TO.C,U3*
X33909000Y-185039000D03*
X33909000Y-182499000D03*
X33909000Y-179959000D03*
X33909000Y-177419000D03*
X33909000Y-174879000D03*
X33909000Y-172339000D03*
X33909000Y-169799000D03*
X33909000Y-167259000D03*
X33909000Y-164719000D03*
X33909000Y-162179000D03*
X33909000Y-159639000D03*
X33909000Y-157099000D03*
X33909000Y-154559000D03*
X33909000Y-152019000D03*
X33909000Y-149479000D03*
X33909000Y-146939000D03*
X54229000Y-157099000D03*
X54229000Y-159639000D03*
X54229000Y-162179000D03*
X54229000Y-164719000D03*
X54229000Y-167259000D03*
X54229000Y-169799000D03*
X54229000Y-172339000D03*
X54229000Y-174879000D03*
X54229000Y-177419000D03*
X54229000Y-179959000D03*
X54229000Y-182499000D03*
X54229000Y-185039000D03*
D24*
X35179000Y-188849000D03*
X35179000Y-143129000D03*
X52959000Y-188849000D03*
X52959000Y-143129000D03*
G04 #@! TD*
D25*
G04 #@! TO.C,U4*
X68536820Y-170091100D03*
X67886580Y-170091100D03*
X67241420Y-170091100D03*
X66591180Y-170091100D03*
X66591180Y-174586900D03*
X67241420Y-174586900D03*
X67886580Y-174586900D03*
X68536820Y-174586900D03*
G04 #@! TD*
D26*
G04 #@! TO.C,U5*
X41739820Y-175768000D03*
X42240200Y-175768000D03*
X42740580Y-175768000D03*
X43238420Y-175768000D03*
X43738800Y-175768000D03*
X43738800Y-171368720D03*
X43238420Y-171368720D03*
X42740580Y-171368720D03*
X42240200Y-171368720D03*
X41739820Y-171368720D03*
G04 #@! TD*
D11*
G04 #@! TO.C,R7*
G36*
X65411493Y-169645535D02*
X65442435Y-169650125D01*
X65472778Y-169657725D01*
X65502230Y-169668263D01*
X65530508Y-169681638D01*
X65557338Y-169697719D01*
X65582463Y-169716353D01*
X65605640Y-169737360D01*
X65626647Y-169760537D01*
X65645281Y-169785662D01*
X65661362Y-169812492D01*
X65674737Y-169840770D01*
X65685275Y-169870222D01*
X65692875Y-169900565D01*
X65697465Y-169931507D01*
X65699000Y-169962750D01*
X65699000Y-170600250D01*
X65697465Y-170631493D01*
X65692875Y-170662435D01*
X65685275Y-170692778D01*
X65674737Y-170722230D01*
X65661362Y-170750508D01*
X65645281Y-170777338D01*
X65626647Y-170802463D01*
X65605640Y-170825640D01*
X65582463Y-170846647D01*
X65557338Y-170865281D01*
X65530508Y-170881362D01*
X65502230Y-170894737D01*
X65472778Y-170905275D01*
X65442435Y-170912875D01*
X65411493Y-170917465D01*
X65380250Y-170919000D01*
X64667750Y-170919000D01*
X64636507Y-170917465D01*
X64605565Y-170912875D01*
X64575222Y-170905275D01*
X64545770Y-170894737D01*
X64517492Y-170881362D01*
X64490662Y-170865281D01*
X64465537Y-170846647D01*
X64442360Y-170825640D01*
X64421353Y-170802463D01*
X64402719Y-170777338D01*
X64386638Y-170750508D01*
X64373263Y-170722230D01*
X64362725Y-170692778D01*
X64355125Y-170662435D01*
X64350535Y-170631493D01*
X64349000Y-170600250D01*
X64349000Y-169962750D01*
X64350535Y-169931507D01*
X64355125Y-169900565D01*
X64362725Y-169870222D01*
X64373263Y-169840770D01*
X64386638Y-169812492D01*
X64402719Y-169785662D01*
X64421353Y-169760537D01*
X64442360Y-169737360D01*
X64465537Y-169716353D01*
X64490662Y-169697719D01*
X64517492Y-169681638D01*
X64545770Y-169668263D01*
X64575222Y-169657725D01*
X64605565Y-169650125D01*
X64636507Y-169645535D01*
X64667750Y-169644000D01*
X65380250Y-169644000D01*
X65411493Y-169645535D01*
X65411493Y-169645535D01*
G37*
D12*
X65024000Y-170281500D03*
D11*
G36*
X65411493Y-171220535D02*
X65442435Y-171225125D01*
X65472778Y-171232725D01*
X65502230Y-171243263D01*
X65530508Y-171256638D01*
X65557338Y-171272719D01*
X65582463Y-171291353D01*
X65605640Y-171312360D01*
X65626647Y-171335537D01*
X65645281Y-171360662D01*
X65661362Y-171387492D01*
X65674737Y-171415770D01*
X65685275Y-171445222D01*
X65692875Y-171475565D01*
X65697465Y-171506507D01*
X65699000Y-171537750D01*
X65699000Y-172175250D01*
X65697465Y-172206493D01*
X65692875Y-172237435D01*
X65685275Y-172267778D01*
X65674737Y-172297230D01*
X65661362Y-172325508D01*
X65645281Y-172352338D01*
X65626647Y-172377463D01*
X65605640Y-172400640D01*
X65582463Y-172421647D01*
X65557338Y-172440281D01*
X65530508Y-172456362D01*
X65502230Y-172469737D01*
X65472778Y-172480275D01*
X65442435Y-172487875D01*
X65411493Y-172492465D01*
X65380250Y-172494000D01*
X64667750Y-172494000D01*
X64636507Y-172492465D01*
X64605565Y-172487875D01*
X64575222Y-172480275D01*
X64545770Y-172469737D01*
X64517492Y-172456362D01*
X64490662Y-172440281D01*
X64465537Y-172421647D01*
X64442360Y-172400640D01*
X64421353Y-172377463D01*
X64402719Y-172352338D01*
X64386638Y-172325508D01*
X64373263Y-172297230D01*
X64362725Y-172267778D01*
X64355125Y-172237435D01*
X64350535Y-172206493D01*
X64349000Y-172175250D01*
X64349000Y-171537750D01*
X64350535Y-171506507D01*
X64355125Y-171475565D01*
X64362725Y-171445222D01*
X64373263Y-171415770D01*
X64386638Y-171387492D01*
X64402719Y-171360662D01*
X64421353Y-171335537D01*
X64442360Y-171312360D01*
X64465537Y-171291353D01*
X64490662Y-171272719D01*
X64517492Y-171256638D01*
X64545770Y-171243263D01*
X64575222Y-171232725D01*
X64605565Y-171225125D01*
X64636507Y-171220535D01*
X64667750Y-171219000D01*
X65380250Y-171219000D01*
X65411493Y-171220535D01*
X65411493Y-171220535D01*
G37*
D12*
X65024000Y-171856500D03*
G04 #@! TD*
D27*
G04 #@! TO.C,JP1*
X57302400Y-172339000D03*
X56489600Y-172339000D03*
G04 #@! TD*
G04 #@! TO.C,JP2*
X56489600Y-174879000D03*
X57302400Y-174879000D03*
G04 #@! TD*
D11*
G04 #@! TO.C,R8*
G36*
X48113993Y-175741535D02*
X48144935Y-175746125D01*
X48175278Y-175753725D01*
X48204730Y-175764263D01*
X48233008Y-175777638D01*
X48259838Y-175793719D01*
X48284963Y-175812353D01*
X48308140Y-175833360D01*
X48329147Y-175856537D01*
X48347781Y-175881662D01*
X48363862Y-175908492D01*
X48377237Y-175936770D01*
X48387775Y-175966222D01*
X48395375Y-175996565D01*
X48399965Y-176027507D01*
X48401500Y-176058750D01*
X48401500Y-176696250D01*
X48399965Y-176727493D01*
X48395375Y-176758435D01*
X48387775Y-176788778D01*
X48377237Y-176818230D01*
X48363862Y-176846508D01*
X48347781Y-176873338D01*
X48329147Y-176898463D01*
X48308140Y-176921640D01*
X48284963Y-176942647D01*
X48259838Y-176961281D01*
X48233008Y-176977362D01*
X48204730Y-176990737D01*
X48175278Y-177001275D01*
X48144935Y-177008875D01*
X48113993Y-177013465D01*
X48082750Y-177015000D01*
X47370250Y-177015000D01*
X47339007Y-177013465D01*
X47308065Y-177008875D01*
X47277722Y-177001275D01*
X47248270Y-176990737D01*
X47219992Y-176977362D01*
X47193162Y-176961281D01*
X47168037Y-176942647D01*
X47144860Y-176921640D01*
X47123853Y-176898463D01*
X47105219Y-176873338D01*
X47089138Y-176846508D01*
X47075763Y-176818230D01*
X47065225Y-176788778D01*
X47057625Y-176758435D01*
X47053035Y-176727493D01*
X47051500Y-176696250D01*
X47051500Y-176058750D01*
X47053035Y-176027507D01*
X47057625Y-175996565D01*
X47065225Y-175966222D01*
X47075763Y-175936770D01*
X47089138Y-175908492D01*
X47105219Y-175881662D01*
X47123853Y-175856537D01*
X47144860Y-175833360D01*
X47168037Y-175812353D01*
X47193162Y-175793719D01*
X47219992Y-175777638D01*
X47248270Y-175764263D01*
X47277722Y-175753725D01*
X47308065Y-175746125D01*
X47339007Y-175741535D01*
X47370250Y-175740000D01*
X48082750Y-175740000D01*
X48113993Y-175741535D01*
X48113993Y-175741535D01*
G37*
D12*
X47726500Y-176377500D03*
D11*
G36*
X48113993Y-177316535D02*
X48144935Y-177321125D01*
X48175278Y-177328725D01*
X48204730Y-177339263D01*
X48233008Y-177352638D01*
X48259838Y-177368719D01*
X48284963Y-177387353D01*
X48308140Y-177408360D01*
X48329147Y-177431537D01*
X48347781Y-177456662D01*
X48363862Y-177483492D01*
X48377237Y-177511770D01*
X48387775Y-177541222D01*
X48395375Y-177571565D01*
X48399965Y-177602507D01*
X48401500Y-177633750D01*
X48401500Y-178271250D01*
X48399965Y-178302493D01*
X48395375Y-178333435D01*
X48387775Y-178363778D01*
X48377237Y-178393230D01*
X48363862Y-178421508D01*
X48347781Y-178448338D01*
X48329147Y-178473463D01*
X48308140Y-178496640D01*
X48284963Y-178517647D01*
X48259838Y-178536281D01*
X48233008Y-178552362D01*
X48204730Y-178565737D01*
X48175278Y-178576275D01*
X48144935Y-178583875D01*
X48113993Y-178588465D01*
X48082750Y-178590000D01*
X47370250Y-178590000D01*
X47339007Y-178588465D01*
X47308065Y-178583875D01*
X47277722Y-178576275D01*
X47248270Y-178565737D01*
X47219992Y-178552362D01*
X47193162Y-178536281D01*
X47168037Y-178517647D01*
X47144860Y-178496640D01*
X47123853Y-178473463D01*
X47105219Y-178448338D01*
X47089138Y-178421508D01*
X47075763Y-178393230D01*
X47065225Y-178363778D01*
X47057625Y-178333435D01*
X47053035Y-178302493D01*
X47051500Y-178271250D01*
X47051500Y-177633750D01*
X47053035Y-177602507D01*
X47057625Y-177571565D01*
X47065225Y-177541222D01*
X47075763Y-177511770D01*
X47089138Y-177483492D01*
X47105219Y-177456662D01*
X47123853Y-177431537D01*
X47144860Y-177408360D01*
X47168037Y-177387353D01*
X47193162Y-177368719D01*
X47219992Y-177352638D01*
X47248270Y-177339263D01*
X47277722Y-177328725D01*
X47308065Y-177321125D01*
X47339007Y-177316535D01*
X47370250Y-177315000D01*
X48082750Y-177315000D01*
X48113993Y-177316535D01*
X48113993Y-177316535D01*
G37*
D12*
X47726500Y-177952500D03*
G04 #@! TD*
D28*
G04 #@! TO.C,C7*
X20193000Y-163997640D03*
D29*
X20193000Y-168996360D03*
G04 #@! TD*
D11*
G04 #@! TO.C,R9*
G36*
X38805493Y-162140535D02*
X38836435Y-162145125D01*
X38866778Y-162152725D01*
X38896230Y-162163263D01*
X38924508Y-162176638D01*
X38951338Y-162192719D01*
X38976463Y-162211353D01*
X38999640Y-162232360D01*
X39020647Y-162255537D01*
X39039281Y-162280662D01*
X39055362Y-162307492D01*
X39068737Y-162335770D01*
X39079275Y-162365222D01*
X39086875Y-162395565D01*
X39091465Y-162426507D01*
X39093000Y-162457750D01*
X39093000Y-163170250D01*
X39091465Y-163201493D01*
X39086875Y-163232435D01*
X39079275Y-163262778D01*
X39068737Y-163292230D01*
X39055362Y-163320508D01*
X39039281Y-163347338D01*
X39020647Y-163372463D01*
X38999640Y-163395640D01*
X38976463Y-163416647D01*
X38951338Y-163435281D01*
X38924508Y-163451362D01*
X38896230Y-163464737D01*
X38866778Y-163475275D01*
X38836435Y-163482875D01*
X38805493Y-163487465D01*
X38774250Y-163489000D01*
X38136750Y-163489000D01*
X38105507Y-163487465D01*
X38074565Y-163482875D01*
X38044222Y-163475275D01*
X38014770Y-163464737D01*
X37986492Y-163451362D01*
X37959662Y-163435281D01*
X37934537Y-163416647D01*
X37911360Y-163395640D01*
X37890353Y-163372463D01*
X37871719Y-163347338D01*
X37855638Y-163320508D01*
X37842263Y-163292230D01*
X37831725Y-163262778D01*
X37824125Y-163232435D01*
X37819535Y-163201493D01*
X37818000Y-163170250D01*
X37818000Y-162457750D01*
X37819535Y-162426507D01*
X37824125Y-162395565D01*
X37831725Y-162365222D01*
X37842263Y-162335770D01*
X37855638Y-162307492D01*
X37871719Y-162280662D01*
X37890353Y-162255537D01*
X37911360Y-162232360D01*
X37934537Y-162211353D01*
X37959662Y-162192719D01*
X37986492Y-162176638D01*
X38014770Y-162163263D01*
X38044222Y-162152725D01*
X38074565Y-162145125D01*
X38105507Y-162140535D01*
X38136750Y-162139000D01*
X38774250Y-162139000D01*
X38805493Y-162140535D01*
X38805493Y-162140535D01*
G37*
D12*
X38455500Y-162814000D03*
D11*
G36*
X40380493Y-162140535D02*
X40411435Y-162145125D01*
X40441778Y-162152725D01*
X40471230Y-162163263D01*
X40499508Y-162176638D01*
X40526338Y-162192719D01*
X40551463Y-162211353D01*
X40574640Y-162232360D01*
X40595647Y-162255537D01*
X40614281Y-162280662D01*
X40630362Y-162307492D01*
X40643737Y-162335770D01*
X40654275Y-162365222D01*
X40661875Y-162395565D01*
X40666465Y-162426507D01*
X40668000Y-162457750D01*
X40668000Y-163170250D01*
X40666465Y-163201493D01*
X40661875Y-163232435D01*
X40654275Y-163262778D01*
X40643737Y-163292230D01*
X40630362Y-163320508D01*
X40614281Y-163347338D01*
X40595647Y-163372463D01*
X40574640Y-163395640D01*
X40551463Y-163416647D01*
X40526338Y-163435281D01*
X40499508Y-163451362D01*
X40471230Y-163464737D01*
X40441778Y-163475275D01*
X40411435Y-163482875D01*
X40380493Y-163487465D01*
X40349250Y-163489000D01*
X39711750Y-163489000D01*
X39680507Y-163487465D01*
X39649565Y-163482875D01*
X39619222Y-163475275D01*
X39589770Y-163464737D01*
X39561492Y-163451362D01*
X39534662Y-163435281D01*
X39509537Y-163416647D01*
X39486360Y-163395640D01*
X39465353Y-163372463D01*
X39446719Y-163347338D01*
X39430638Y-163320508D01*
X39417263Y-163292230D01*
X39406725Y-163262778D01*
X39399125Y-163232435D01*
X39394535Y-163201493D01*
X39393000Y-163170250D01*
X39393000Y-162457750D01*
X39394535Y-162426507D01*
X39399125Y-162395565D01*
X39406725Y-162365222D01*
X39417263Y-162335770D01*
X39430638Y-162307492D01*
X39446719Y-162280662D01*
X39465353Y-162255537D01*
X39486360Y-162232360D01*
X39509537Y-162211353D01*
X39534662Y-162192719D01*
X39561492Y-162176638D01*
X39589770Y-162163263D01*
X39619222Y-162152725D01*
X39649565Y-162145125D01*
X39680507Y-162140535D01*
X39711750Y-162139000D01*
X40349250Y-162139000D01*
X40380493Y-162140535D01*
X40380493Y-162140535D01*
G37*
D12*
X40030500Y-162814000D03*
G04 #@! TD*
D30*
X59563000Y-173355000D03*
X42672000Y-169164000D03*
X45847000Y-164592000D03*
X48514000Y-166497000D03*
X45847000Y-162306000D03*
X49276000Y-163576000D03*
X50927000Y-166497000D03*
X45339000Y-176022000D03*
X48514000Y-174371000D03*
X40259000Y-171069000D03*
X38354000Y-172847000D03*
X62357000Y-178562000D03*
X64135000Y-178689000D03*
X61722000Y-157734000D03*
X59944000Y-161544000D03*
X64135000Y-173482000D03*
X62230000Y-173482000D03*
X66548000Y-171196000D03*
X49149000Y-184023000D03*
X46609000Y-188722000D03*
X42189400Y-189230000D03*
X42189400Y-184150000D03*
X40767000Y-181102000D03*
X44958000Y-179324000D03*
X46990000Y-172847000D03*
X40317847Y-178620847D03*
X42652313Y-178336992D03*
X58420000Y-174879000D03*
X65024000Y-174879000D03*
M02*
