M48
;DRILL file {KiCad (5.0.0-3-g5ebb6b6)} date Monday, October 15, 2018 at 01:08:16 PM
;FORMAT={-:-/ absolute / metric / decimal}
FMAT,2
METRIC,TZ
T1C0.400
T2C0.899
T3C1.016
T4C1.200
%
G90
G05
M71
T1
X38.354Y-172.847
X40.259Y-171.069
X40.318Y-178.621
X40.767Y-181.102
X42.189Y-184.15
X42.189Y-189.23
X42.652Y-178.337
X42.672Y-169.164
X44.958Y-179.324
X45.339Y-176.022
X45.847Y-162.306
X45.847Y-164.592
X46.609Y-188.722
X46.99Y-172.847
X48.514Y-166.497
X48.514Y-174.371
X49.149Y-184.023
X49.276Y-163.576
X50.927Y-166.497
X58.42Y-174.879
X59.563Y-173.355
X59.944Y-161.544
X61.722Y-157.734
X62.23Y-173.482
X62.357Y-178.562
X64.135Y-173.482
X64.135Y-178.689
X65.024Y-174.879
X66.548Y-171.196
T2
X20.193Y-163.998
X20.193Y-168.996
T3
X33.909Y-146.939
X33.909Y-149.479
X33.909Y-152.019
X33.909Y-154.559
X33.909Y-157.099
X33.909Y-159.639
X33.909Y-162.179
X33.909Y-164.719
X33.909Y-167.259
X33.909Y-169.799
X33.909Y-172.339
X33.909Y-174.879
X33.909Y-177.419
X33.909Y-179.959
X33.909Y-182.499
X33.909Y-185.039
X54.229Y-157.099
X54.229Y-159.639
X54.229Y-162.179
X54.229Y-164.719
X54.229Y-167.259
X54.229Y-169.799
X54.229Y-172.339
X54.229Y-174.879
X54.229Y-177.419
X54.229Y-179.959
X54.229Y-182.499
X54.229Y-185.039
T4
X22.86Y-152.821
X22.86Y-155.321
X22.86Y-157.821
X22.987Y-175.641
X22.987Y-178.141
T0
M30
