G04 #@! TF.GenerationSoftware,KiCad,Pcbnew,(5.0.0-3-g5ebb6b6)*
G04 #@! TF.CreationDate,2018-10-15T13:07:59-06:00*
G04 #@! TF.ProjectId,DS_Special_Object,44535F5370656369616C5F4F626A6563,rev?*
G04 #@! TF.SameCoordinates,Original*
G04 #@! TF.FileFunction,Soldermask,Bot*
G04 #@! TF.FilePolarity,Negative*
%FSLAX46Y46*%
G04 Gerber Fmt 4.6, Leading zero omitted, Abs format (unit mm)*
G04 Created by KiCad (PCBNEW (5.0.0-3-g5ebb6b6)) date Monday, October 15, 2018 at 01:07:59 PM*
%MOMM*%
%LPD*%
G01*
G04 APERTURE LIST*
%ADD10C,1.700000*%
%ADD11O,2.600000X2.100000*%
%ADD12R,2.600000X2.100000*%
%ADD13C,3.505200*%
%ADD14C,2.082800*%
%ADD15C,3.956000*%
%ADD16R,2.133600X2.133600*%
%ADD17C,2.133600*%
%ADD18C,1.200000*%
G04 APERTURE END LIST*
D10*
G04 #@! TO.C,J2*
X21520000Y-154071000D03*
D11*
X22860000Y-157821000D03*
X22860000Y-155321000D03*
D12*
X22860000Y-152821000D03*
G04 #@! TD*
G04 #@! TO.C,J3*
X22987000Y-175641000D03*
D11*
X22987000Y-178141000D03*
D10*
X21647000Y-176891000D03*
G04 #@! TD*
D13*
G04 #@! TO.C,H1*
X59309000Y-144399000D03*
G04 #@! TD*
G04 #@! TO.C,H3*
X28829000Y-187579000D03*
G04 #@! TD*
D14*
G04 #@! TO.C,U3*
X33909000Y-185039000D03*
X33909000Y-182499000D03*
X33909000Y-179959000D03*
X33909000Y-177419000D03*
X33909000Y-174879000D03*
X33909000Y-172339000D03*
X33909000Y-169799000D03*
X33909000Y-167259000D03*
X33909000Y-164719000D03*
X33909000Y-162179000D03*
X33909000Y-159639000D03*
X33909000Y-157099000D03*
X33909000Y-154559000D03*
X33909000Y-152019000D03*
X33909000Y-149479000D03*
X33909000Y-146939000D03*
X54229000Y-157099000D03*
X54229000Y-159639000D03*
X54229000Y-162179000D03*
X54229000Y-164719000D03*
X54229000Y-167259000D03*
X54229000Y-169799000D03*
X54229000Y-172339000D03*
X54229000Y-174879000D03*
X54229000Y-177419000D03*
X54229000Y-179959000D03*
X54229000Y-182499000D03*
X54229000Y-185039000D03*
D15*
X35179000Y-188849000D03*
X35179000Y-143129000D03*
X52959000Y-188849000D03*
X52959000Y-143129000D03*
G04 #@! TD*
D16*
G04 #@! TO.C,C7*
X20193000Y-163997640D03*
D17*
X20193000Y-168996360D03*
G04 #@! TD*
D18*
X59563000Y-173355000D03*
X42672000Y-169164000D03*
X45847000Y-164592000D03*
X48514000Y-166497000D03*
X45847000Y-162306000D03*
X49276000Y-163576000D03*
X50927000Y-166497000D03*
X45339000Y-176022000D03*
X48514000Y-174371000D03*
X40259000Y-171069000D03*
X38354000Y-172847000D03*
X62357000Y-178562000D03*
X64135000Y-178689000D03*
X61722000Y-157734000D03*
X59944000Y-161544000D03*
X64135000Y-173482000D03*
X62230000Y-173482000D03*
X66548000Y-171196000D03*
X49149000Y-184023000D03*
X46609000Y-188722000D03*
X42189400Y-189230000D03*
X42189400Y-184150000D03*
X40767000Y-181102000D03*
X44958000Y-179324000D03*
X46990000Y-172847000D03*
X40317847Y-178620847D03*
X42652313Y-178336992D03*
X58420000Y-174879000D03*
X65024000Y-174879000D03*
M02*
