G04 #@! TF.GenerationSoftware,KiCad,Pcbnew,(5.0.0-3-g5ebb6b6)*
G04 #@! TF.CreationDate,2018-10-15T13:07:59-06:00*
G04 #@! TF.ProjectId,DS_Special_Object,44535F5370656369616C5F4F626A6563,rev?*
G04 #@! TF.SameCoordinates,Original*
G04 #@! TF.FileFunction,Legend,Top*
G04 #@! TF.FilePolarity,Positive*
%FSLAX46Y46*%
G04 Gerber Fmt 4.6, Leading zero omitted, Abs format (unit mm)*
G04 Created by KiCad (PCBNEW (5.0.0-3-g5ebb6b6)) date Monday, October 15, 2018 at 01:07:59 PM*
%MOMM*%
%LPD*%
G01*
G04 APERTURE LIST*
%ADD10C,0.200000*%
%ADD11C,0.300000*%
%ADD12C,0.250000*%
%ADD13C,0.120000*%
%ADD14C,0.203200*%
%ADD15C,0.010000*%
%ADD16C,0.177800*%
%ADD17C,0.127000*%
%ADD18C,0.150000*%
%ADD19C,0.152400*%
%ADD20C,0.355600*%
%ADD21C,0.254000*%
%ADD22C,0.099060*%
G04 APERTURE END LIST*
D10*
X58547000Y-173609000D02*
X58674000Y-173609000D01*
X58166000Y-173609000D02*
X58293000Y-173609000D01*
X57785000Y-173609000D02*
X57912000Y-173609000D01*
X57404000Y-173609000D02*
X57531000Y-173609000D01*
X57023000Y-173609000D02*
X57150000Y-173609000D01*
X56642000Y-173609000D02*
X56769000Y-173609000D01*
X56261000Y-173609000D02*
X56388000Y-173609000D01*
X55880000Y-173609000D02*
X56007000Y-173609000D01*
D11*
X26967571Y-158999571D02*
X26967571Y-159713857D01*
X25467571Y-159713857D01*
X26181857Y-158499571D02*
X26181857Y-157999571D01*
X26967571Y-157785285D02*
X26967571Y-158499571D01*
X25467571Y-158499571D01*
X25467571Y-157785285D01*
X26967571Y-157142428D02*
X25467571Y-157142428D01*
X25467571Y-156785285D01*
X25539000Y-156571000D01*
X25681857Y-156428142D01*
X25824714Y-156356714D01*
X26110428Y-156285285D01*
X26324714Y-156285285D01*
X26610428Y-156356714D01*
X26753285Y-156428142D01*
X26896142Y-156571000D01*
X26967571Y-156785285D01*
X26967571Y-157142428D01*
X27110428Y-155999571D02*
X27110428Y-154856714D01*
X25467571Y-154213857D02*
X25467571Y-153928142D01*
X25539000Y-153785285D01*
X25681857Y-153642428D01*
X25967571Y-153571000D01*
X26467571Y-153571000D01*
X26753285Y-153642428D01*
X26896142Y-153785285D01*
X26967571Y-153928142D01*
X26967571Y-154213857D01*
X26896142Y-154356714D01*
X26753285Y-154499571D01*
X26467571Y-154571000D01*
X25967571Y-154571000D01*
X25681857Y-154499571D01*
X25539000Y-154356714D01*
X25467571Y-154213857D01*
X25467571Y-152928142D02*
X26681857Y-152928142D01*
X26824714Y-152856714D01*
X26896142Y-152785285D01*
X26967571Y-152642428D01*
X26967571Y-152356714D01*
X26896142Y-152213857D01*
X26824714Y-152142428D01*
X26681857Y-152071000D01*
X25467571Y-152071000D01*
X25467571Y-151571000D02*
X25467571Y-150713857D01*
X26967571Y-151142428D02*
X25467571Y-151142428D01*
X27094571Y-183422857D02*
X25594571Y-183422857D01*
X26308857Y-183422857D02*
X26308857Y-182565714D01*
X27094571Y-182565714D02*
X25594571Y-182565714D01*
X27094571Y-181208571D02*
X26308857Y-181208571D01*
X26166000Y-181280000D01*
X26094571Y-181422857D01*
X26094571Y-181708571D01*
X26166000Y-181851428D01*
X27023142Y-181208571D02*
X27094571Y-181351428D01*
X27094571Y-181708571D01*
X27023142Y-181851428D01*
X26880285Y-181922857D01*
X26737428Y-181922857D01*
X26594571Y-181851428D01*
X26523142Y-181708571D01*
X26523142Y-181351428D01*
X26451714Y-181208571D01*
X26094571Y-180494285D02*
X27594571Y-180494285D01*
X26166000Y-180494285D02*
X26094571Y-180351428D01*
X26094571Y-180065714D01*
X26166000Y-179922857D01*
X26237428Y-179851428D01*
X26380285Y-179780000D01*
X26808857Y-179780000D01*
X26951714Y-179851428D01*
X27023142Y-179922857D01*
X27094571Y-180065714D01*
X27094571Y-180351428D01*
X27023142Y-180494285D01*
X26094571Y-179351428D02*
X26094571Y-178780000D01*
X25594571Y-179137142D02*
X26880285Y-179137142D01*
X27023142Y-179065714D01*
X27094571Y-178922857D01*
X27094571Y-178780000D01*
X27094571Y-178280000D02*
X26094571Y-178280000D01*
X25594571Y-178280000D02*
X25666000Y-178351428D01*
X25737428Y-178280000D01*
X25666000Y-178208571D01*
X25594571Y-178280000D01*
X25737428Y-178280000D01*
X27023142Y-176922857D02*
X27094571Y-177065714D01*
X27094571Y-177351428D01*
X27023142Y-177494285D01*
X26951714Y-177565714D01*
X26808857Y-177637142D01*
X26380285Y-177637142D01*
X26237428Y-177565714D01*
X26166000Y-177494285D01*
X26094571Y-177351428D01*
X26094571Y-177065714D01*
X26166000Y-176922857D01*
X27237428Y-176637142D02*
X27237428Y-175494285D01*
X27094571Y-175137142D02*
X25594571Y-175137142D01*
X26666000Y-174637142D01*
X25594571Y-174137142D01*
X27094571Y-174137142D01*
X27094571Y-173208571D02*
X27023142Y-173351428D01*
X26951714Y-173422857D01*
X26808857Y-173494285D01*
X26380285Y-173494285D01*
X26237428Y-173422857D01*
X26166000Y-173351428D01*
X26094571Y-173208571D01*
X26094571Y-172994285D01*
X26166000Y-172851428D01*
X26237428Y-172780000D01*
X26380285Y-172708571D01*
X26808857Y-172708571D01*
X26951714Y-172780000D01*
X27023142Y-172851428D01*
X27094571Y-172994285D01*
X27094571Y-173208571D01*
X26094571Y-172280000D02*
X26094571Y-171708571D01*
X25594571Y-172065714D02*
X26880285Y-172065714D01*
X27023142Y-171994285D01*
X27094571Y-171851428D01*
X27094571Y-171708571D01*
X27094571Y-170994285D02*
X27023142Y-171137142D01*
X26951714Y-171208571D01*
X26808857Y-171280000D01*
X26380285Y-171280000D01*
X26237428Y-171208571D01*
X26166000Y-171137142D01*
X26094571Y-170994285D01*
X26094571Y-170780000D01*
X26166000Y-170637142D01*
X26237428Y-170565714D01*
X26380285Y-170494285D01*
X26808857Y-170494285D01*
X26951714Y-170565714D01*
X27023142Y-170637142D01*
X27094571Y-170780000D01*
X27094571Y-170994285D01*
X27094571Y-169851428D02*
X26094571Y-169851428D01*
X26380285Y-169851428D02*
X26237428Y-169780000D01*
X26166000Y-169708571D01*
X26094571Y-169565714D01*
X26094571Y-169422857D01*
D12*
X41029761Y-149578380D02*
X41029761Y-148578380D01*
X41267857Y-148578380D01*
X41410714Y-148626000D01*
X41505952Y-148721238D01*
X41553571Y-148816476D01*
X41601190Y-149006952D01*
X41601190Y-149149809D01*
X41553571Y-149340285D01*
X41505952Y-149435523D01*
X41410714Y-149530761D01*
X41267857Y-149578380D01*
X41029761Y-149578380D01*
X41982142Y-149530761D02*
X42125000Y-149578380D01*
X42363095Y-149578380D01*
X42458333Y-149530761D01*
X42505952Y-149483142D01*
X42553571Y-149387904D01*
X42553571Y-149292666D01*
X42505952Y-149197428D01*
X42458333Y-149149809D01*
X42363095Y-149102190D01*
X42172619Y-149054571D01*
X42077380Y-149006952D01*
X42029761Y-148959333D01*
X41982142Y-148864095D01*
X41982142Y-148768857D01*
X42029761Y-148673619D01*
X42077380Y-148626000D01*
X42172619Y-148578380D01*
X42410714Y-148578380D01*
X42553571Y-148626000D01*
X43696428Y-149530761D02*
X43839285Y-149578380D01*
X44077380Y-149578380D01*
X44172619Y-149530761D01*
X44220238Y-149483142D01*
X44267857Y-149387904D01*
X44267857Y-149292666D01*
X44220238Y-149197428D01*
X44172619Y-149149809D01*
X44077380Y-149102190D01*
X43886904Y-149054571D01*
X43791666Y-149006952D01*
X43744047Y-148959333D01*
X43696428Y-148864095D01*
X43696428Y-148768857D01*
X43744047Y-148673619D01*
X43791666Y-148626000D01*
X43886904Y-148578380D01*
X44125000Y-148578380D01*
X44267857Y-148626000D01*
X44696428Y-148911714D02*
X44696428Y-149911714D01*
X44696428Y-148959333D02*
X44791666Y-148911714D01*
X44982142Y-148911714D01*
X45077380Y-148959333D01*
X45125000Y-149006952D01*
X45172619Y-149102190D01*
X45172619Y-149387904D01*
X45125000Y-149483142D01*
X45077380Y-149530761D01*
X44982142Y-149578380D01*
X44791666Y-149578380D01*
X44696428Y-149530761D01*
X45982142Y-149530761D02*
X45886904Y-149578380D01*
X45696428Y-149578380D01*
X45601190Y-149530761D01*
X45553571Y-149435523D01*
X45553571Y-149054571D01*
X45601190Y-148959333D01*
X45696428Y-148911714D01*
X45886904Y-148911714D01*
X45982142Y-148959333D01*
X46029761Y-149054571D01*
X46029761Y-149149809D01*
X45553571Y-149245047D01*
X46886904Y-149530761D02*
X46791666Y-149578380D01*
X46601190Y-149578380D01*
X46505952Y-149530761D01*
X46458333Y-149483142D01*
X46410714Y-149387904D01*
X46410714Y-149102190D01*
X46458333Y-149006952D01*
X46505952Y-148959333D01*
X46601190Y-148911714D01*
X46791666Y-148911714D01*
X46886904Y-148959333D01*
X47315476Y-149578380D02*
X47315476Y-148911714D01*
X47315476Y-148578380D02*
X47267857Y-148626000D01*
X47315476Y-148673619D01*
X47363095Y-148626000D01*
X47315476Y-148578380D01*
X47315476Y-148673619D01*
X48220238Y-149578380D02*
X48220238Y-149054571D01*
X48172619Y-148959333D01*
X48077380Y-148911714D01*
X47886904Y-148911714D01*
X47791666Y-148959333D01*
X48220238Y-149530761D02*
X48125000Y-149578380D01*
X47886904Y-149578380D01*
X47791666Y-149530761D01*
X47744047Y-149435523D01*
X47744047Y-149340285D01*
X47791666Y-149245047D01*
X47886904Y-149197428D01*
X48125000Y-149197428D01*
X48220238Y-149149809D01*
X48839285Y-149578380D02*
X48744047Y-149530761D01*
X48696428Y-149435523D01*
X48696428Y-148578380D01*
X50172619Y-148578380D02*
X50363095Y-148578380D01*
X50458333Y-148626000D01*
X50553571Y-148721238D01*
X50601190Y-148911714D01*
X50601190Y-149245047D01*
X50553571Y-149435523D01*
X50458333Y-149530761D01*
X50363095Y-149578380D01*
X50172619Y-149578380D01*
X50077380Y-149530761D01*
X49982142Y-149435523D01*
X49934523Y-149245047D01*
X49934523Y-148911714D01*
X49982142Y-148721238D01*
X50077380Y-148626000D01*
X50172619Y-148578380D01*
X51029761Y-149578380D02*
X51029761Y-148578380D01*
X51029761Y-148959333D02*
X51125000Y-148911714D01*
X51315476Y-148911714D01*
X51410714Y-148959333D01*
X51458333Y-149006952D01*
X51505952Y-149102190D01*
X51505952Y-149387904D01*
X51458333Y-149483142D01*
X51410714Y-149530761D01*
X51315476Y-149578380D01*
X51125000Y-149578380D01*
X51029761Y-149530761D01*
X51934523Y-148911714D02*
X51934523Y-149768857D01*
X51886904Y-149864095D01*
X51791666Y-149911714D01*
X51744047Y-149911714D01*
X51934523Y-148578380D02*
X51886904Y-148626000D01*
X51934523Y-148673619D01*
X51982142Y-148626000D01*
X51934523Y-148578380D01*
X51934523Y-148673619D01*
X52791666Y-149530761D02*
X52696428Y-149578380D01*
X52505952Y-149578380D01*
X52410714Y-149530761D01*
X52363095Y-149435523D01*
X52363095Y-149054571D01*
X52410714Y-148959333D01*
X52505952Y-148911714D01*
X52696428Y-148911714D01*
X52791666Y-148959333D01*
X52839285Y-149054571D01*
X52839285Y-149149809D01*
X52363095Y-149245047D01*
X53696428Y-149530761D02*
X53601190Y-149578380D01*
X53410714Y-149578380D01*
X53315476Y-149530761D01*
X53267857Y-149483142D01*
X53220238Y-149387904D01*
X53220238Y-149102190D01*
X53267857Y-149006952D01*
X53315476Y-148959333D01*
X53410714Y-148911714D01*
X53601190Y-148911714D01*
X53696428Y-148959333D01*
X53982142Y-148911714D02*
X54363095Y-148911714D01*
X54124999Y-148578380D02*
X54124999Y-149435523D01*
X54172619Y-149530761D01*
X54267857Y-149578380D01*
X54363095Y-149578380D01*
X41910714Y-150328380D02*
X41910714Y-151042666D01*
X41863095Y-151185523D01*
X41767857Y-151280761D01*
X41625000Y-151328380D01*
X41529761Y-151328380D01*
X42529761Y-151328380D02*
X42434523Y-151280761D01*
X42386904Y-151233142D01*
X42339285Y-151137904D01*
X42339285Y-150852190D01*
X42386904Y-150756952D01*
X42434523Y-150709333D01*
X42529761Y-150661714D01*
X42672619Y-150661714D01*
X42767857Y-150709333D01*
X42815476Y-150756952D01*
X42863095Y-150852190D01*
X42863095Y-151137904D01*
X42815476Y-151233142D01*
X42767857Y-151280761D01*
X42672619Y-151328380D01*
X42529761Y-151328380D01*
X43672619Y-151280761D02*
X43577380Y-151328380D01*
X43386904Y-151328380D01*
X43291666Y-151280761D01*
X43244047Y-151185523D01*
X43244047Y-150804571D01*
X43291666Y-150709333D01*
X43386904Y-150661714D01*
X43577380Y-150661714D01*
X43672619Y-150709333D01*
X43720238Y-150804571D01*
X43720238Y-150899809D01*
X43244047Y-150995047D01*
X44291666Y-151328380D02*
X44196428Y-151280761D01*
X44148809Y-151185523D01*
X44148809Y-150328380D01*
X45434523Y-150804571D02*
X45767857Y-150804571D01*
X45910714Y-151328380D02*
X45434523Y-151328380D01*
X45434523Y-150328380D01*
X45910714Y-150328380D01*
X47434523Y-150804571D02*
X47577380Y-150852190D01*
X47625000Y-150899809D01*
X47672619Y-150995047D01*
X47672619Y-151137904D01*
X47625000Y-151233142D01*
X47577380Y-151280761D01*
X47482142Y-151328380D01*
X47101190Y-151328380D01*
X47101190Y-150328380D01*
X47434523Y-150328380D01*
X47529761Y-150376000D01*
X47577380Y-150423619D01*
X47625000Y-150518857D01*
X47625000Y-150614095D01*
X47577380Y-150709333D01*
X47529761Y-150756952D01*
X47434523Y-150804571D01*
X47101190Y-150804571D01*
X48863095Y-150947428D02*
X49625000Y-150947428D01*
X50720238Y-150328380D02*
X51053571Y-151328380D01*
X51386904Y-150328380D01*
X51910714Y-150328380D02*
X52005952Y-150328380D01*
X52101190Y-150376000D01*
X52148809Y-150423619D01*
X52196428Y-150518857D01*
X52244047Y-150709333D01*
X52244047Y-150947428D01*
X52196428Y-151137904D01*
X52148809Y-151233142D01*
X52101190Y-151280761D01*
X52005952Y-151328380D01*
X51910714Y-151328380D01*
X51815476Y-151280761D01*
X51767857Y-151233142D01*
X51720238Y-151137904D01*
X51672619Y-150947428D01*
X51672619Y-150709333D01*
X51720238Y-150518857D01*
X51767857Y-150423619D01*
X51815476Y-150376000D01*
X51910714Y-150328380D01*
X52672619Y-151233142D02*
X52720238Y-151280761D01*
X52672619Y-151328380D01*
X52625000Y-151280761D01*
X52672619Y-151233142D01*
X52672619Y-151328380D01*
X53672619Y-151328380D02*
X53101190Y-151328380D01*
X53386904Y-151328380D02*
X53386904Y-150328380D01*
X53291666Y-150471238D01*
X53196428Y-150566476D01*
X53101190Y-150614095D01*
X40386904Y-152554571D02*
X40720238Y-152554571D01*
X40863095Y-153078380D02*
X40386904Y-153078380D01*
X40386904Y-152078380D01*
X40863095Y-152078380D01*
X41291666Y-152411714D02*
X41291666Y-153078380D01*
X41291666Y-152506952D02*
X41339285Y-152459333D01*
X41434523Y-152411714D01*
X41577380Y-152411714D01*
X41672619Y-152459333D01*
X41720238Y-152554571D01*
X41720238Y-153078380D01*
X42625000Y-152411714D02*
X42625000Y-153221238D01*
X42577380Y-153316476D01*
X42529761Y-153364095D01*
X42434523Y-153411714D01*
X42291666Y-153411714D01*
X42196428Y-153364095D01*
X42625000Y-153030761D02*
X42529761Y-153078380D01*
X42339285Y-153078380D01*
X42244047Y-153030761D01*
X42196428Y-152983142D01*
X42148809Y-152887904D01*
X42148809Y-152602190D01*
X42196428Y-152506952D01*
X42244047Y-152459333D01*
X42339285Y-152411714D01*
X42529761Y-152411714D01*
X42625000Y-152459333D01*
X43101190Y-153078380D02*
X43101190Y-152411714D01*
X43101190Y-152078380D02*
X43053571Y-152126000D01*
X43101190Y-152173619D01*
X43148809Y-152126000D01*
X43101190Y-152078380D01*
X43101190Y-152173619D01*
X43577380Y-152411714D02*
X43577380Y-153078380D01*
X43577380Y-152506952D02*
X43625000Y-152459333D01*
X43720238Y-152411714D01*
X43863095Y-152411714D01*
X43958333Y-152459333D01*
X44005952Y-152554571D01*
X44005952Y-153078380D01*
X44863095Y-153030761D02*
X44767857Y-153078380D01*
X44577380Y-153078380D01*
X44482142Y-153030761D01*
X44434523Y-152935523D01*
X44434523Y-152554571D01*
X44482142Y-152459333D01*
X44577380Y-152411714D01*
X44767857Y-152411714D01*
X44863095Y-152459333D01*
X44910714Y-152554571D01*
X44910714Y-152649809D01*
X44434523Y-152745047D01*
X45720238Y-153030761D02*
X45625000Y-153078380D01*
X45434523Y-153078380D01*
X45339285Y-153030761D01*
X45291666Y-152935523D01*
X45291666Y-152554571D01*
X45339285Y-152459333D01*
X45434523Y-152411714D01*
X45625000Y-152411714D01*
X45720238Y-152459333D01*
X45767857Y-152554571D01*
X45767857Y-152649809D01*
X45291666Y-152745047D01*
X46196428Y-153078380D02*
X46196428Y-152411714D01*
X46196428Y-152602190D02*
X46244047Y-152506952D01*
X46291666Y-152459333D01*
X46386904Y-152411714D01*
X46482142Y-152411714D01*
X46815476Y-153078380D02*
X46815476Y-152411714D01*
X46815476Y-152078380D02*
X46767857Y-152126000D01*
X46815476Y-152173619D01*
X46863095Y-152126000D01*
X46815476Y-152078380D01*
X46815476Y-152173619D01*
X47291666Y-152411714D02*
X47291666Y-153078380D01*
X47291666Y-152506952D02*
X47339285Y-152459333D01*
X47434523Y-152411714D01*
X47577380Y-152411714D01*
X47672619Y-152459333D01*
X47720238Y-152554571D01*
X47720238Y-153078380D01*
X48625000Y-152411714D02*
X48625000Y-153221238D01*
X48577380Y-153316476D01*
X48529761Y-153364095D01*
X48434523Y-153411714D01*
X48291666Y-153411714D01*
X48196428Y-153364095D01*
X48625000Y-153030761D02*
X48529761Y-153078380D01*
X48339285Y-153078380D01*
X48244047Y-153030761D01*
X48196428Y-152983142D01*
X48148809Y-152887904D01*
X48148809Y-152602190D01*
X48196428Y-152506952D01*
X48244047Y-152459333D01*
X48339285Y-152411714D01*
X48529761Y-152411714D01*
X48625000Y-152459333D01*
X49815476Y-153030761D02*
X49958333Y-153078380D01*
X50196428Y-153078380D01*
X50291666Y-153030761D01*
X50339285Y-152983142D01*
X50386904Y-152887904D01*
X50386904Y-152792666D01*
X50339285Y-152697428D01*
X50291666Y-152649809D01*
X50196428Y-152602190D01*
X50005952Y-152554571D01*
X49910714Y-152506952D01*
X49863095Y-152459333D01*
X49815476Y-152364095D01*
X49815476Y-152268857D01*
X49863095Y-152173619D01*
X49910714Y-152126000D01*
X50005952Y-152078380D01*
X50244047Y-152078380D01*
X50386904Y-152126000D01*
X51244047Y-153078380D02*
X51244047Y-152554571D01*
X51196428Y-152459333D01*
X51101190Y-152411714D01*
X50910714Y-152411714D01*
X50815476Y-152459333D01*
X51244047Y-153030761D02*
X51148809Y-153078380D01*
X50910714Y-153078380D01*
X50815476Y-153030761D01*
X50767857Y-152935523D01*
X50767857Y-152840285D01*
X50815476Y-152745047D01*
X50910714Y-152697428D01*
X51148809Y-152697428D01*
X51244047Y-152649809D01*
X51720238Y-153078380D02*
X51720238Y-152411714D01*
X51720238Y-152506952D02*
X51767857Y-152459333D01*
X51863095Y-152411714D01*
X52005952Y-152411714D01*
X52101190Y-152459333D01*
X52148809Y-152554571D01*
X52148809Y-153078380D01*
X52148809Y-152554571D02*
X52196428Y-152459333D01*
X52291666Y-152411714D01*
X52434523Y-152411714D01*
X52529761Y-152459333D01*
X52577380Y-152554571D01*
X52577380Y-153078380D01*
X53053571Y-152411714D02*
X53053571Y-153411714D01*
X53053571Y-152459333D02*
X53148809Y-152411714D01*
X53339285Y-152411714D01*
X53434523Y-152459333D01*
X53482142Y-152506952D01*
X53529761Y-152602190D01*
X53529761Y-152887904D01*
X53482142Y-152983142D01*
X53434523Y-153030761D01*
X53339285Y-153078380D01*
X53148809Y-153078380D01*
X53053571Y-153030761D01*
X54101190Y-153078380D02*
X54005952Y-153030761D01*
X53958333Y-152935523D01*
X53958333Y-152078380D01*
X54863095Y-153030761D02*
X54767857Y-153078380D01*
X54577380Y-153078380D01*
X54482142Y-153030761D01*
X54434523Y-152935523D01*
X54434523Y-152554571D01*
X54482142Y-152459333D01*
X54577380Y-152411714D01*
X54767857Y-152411714D01*
X54863095Y-152459333D01*
X54910714Y-152554571D01*
X54910714Y-152649809D01*
X54434523Y-152745047D01*
D13*
G04 #@! TO.C,L1*
X65434300Y-168115300D02*
X66834300Y-168115300D01*
X69704300Y-168115300D02*
X68304300Y-168115300D01*
X65434300Y-168115300D02*
X65434300Y-166915300D01*
X69704300Y-168115300D02*
X69704300Y-166915300D01*
X69694300Y-163865300D02*
X69694300Y-165065300D01*
X69694300Y-163865300D02*
X68294300Y-163865300D01*
X65434300Y-163855300D02*
X66834300Y-163855300D01*
X65434300Y-163855300D02*
X65434300Y-165055300D01*
G04 #@! TO.C,C1*
X60416221Y-167134000D02*
X60741779Y-167134000D01*
X60416221Y-166114000D02*
X60741779Y-166114000D01*
G04 #@! TO.C,C2*
X60416221Y-169039000D02*
X60741779Y-169039000D01*
X60416221Y-168019000D02*
X60741779Y-168019000D01*
G04 #@! TO.C,R1*
X66685279Y-176274000D02*
X66359721Y-176274000D01*
X66685279Y-177294000D02*
X66359721Y-177294000D01*
G04 #@! TO.C,R2*
X63281779Y-177294000D02*
X62956221Y-177294000D01*
X63281779Y-176274000D02*
X62956221Y-176274000D01*
G04 #@! TO.C,J2*
X20710000Y-150691000D02*
X20710000Y-152611000D01*
X22860000Y-150691000D02*
X20710000Y-150691000D01*
X18150000Y-158031000D02*
X18150000Y-155321000D01*
X21010000Y-158031000D02*
X18150000Y-158031000D01*
X21010000Y-159651000D02*
X21010000Y-158031000D01*
X24710000Y-159651000D02*
X21010000Y-159651000D01*
X24710000Y-155321000D02*
X24710000Y-159651000D01*
X18150000Y-152611000D02*
X18150000Y-155321000D01*
X21010000Y-152611000D02*
X18150000Y-152611000D01*
X21010000Y-150991000D02*
X21010000Y-152611000D01*
X24710000Y-150991000D02*
X21010000Y-150991000D01*
X24710000Y-155321000D02*
X24710000Y-150991000D01*
G04 #@! TO.C,J3*
X24837000Y-176891000D02*
X24837000Y-173811000D01*
X24837000Y-173811000D02*
X21137000Y-173811000D01*
X21137000Y-173811000D02*
X21137000Y-174181000D01*
X21137000Y-174181000D02*
X18277000Y-174181000D01*
X18277000Y-174181000D02*
X18277000Y-176891000D01*
X24837000Y-176891000D02*
X24837000Y-179971000D01*
X24837000Y-179971000D02*
X21137000Y-179971000D01*
X21137000Y-179971000D02*
X21137000Y-179601000D01*
X21137000Y-179601000D02*
X18277000Y-179601000D01*
X18277000Y-179601000D02*
X18277000Y-176891000D01*
X22987000Y-173511000D02*
X20837000Y-173511000D01*
X20837000Y-173511000D02*
X20837000Y-174181000D01*
D14*
G04 #@! TO.C,H1*
X59309000Y-146253200D02*
G75*
G03X59309000Y-142544800I0J1854200D01*
G01*
X59309000Y-142544800D02*
G75*
G03X59309000Y-146253200I0J-1854200D01*
G01*
X59309000Y-146253200D02*
G75*
G03X59309000Y-142544800I0J1854200D01*
G01*
X59309000Y-142544800D02*
G75*
G03X59309000Y-146253200I0J-1854200D01*
G01*
G04 #@! TO.C,H3*
X28829000Y-189433200D02*
G75*
G03X28829000Y-185724800I0J1854200D01*
G01*
X28829000Y-185724800D02*
G75*
G03X28829000Y-189433200I0J-1854200D01*
G01*
X28829000Y-189433200D02*
G75*
G03X28829000Y-185724800I0J1854200D01*
G01*
X28829000Y-185724800D02*
G75*
G03X28829000Y-189433200I0J-1854200D01*
G01*
D15*
G04 #@! TO.C,LOGO1*
G36*
X28577054Y-173202040D02*
X28647470Y-172905579D01*
X28739713Y-172672573D01*
X28898042Y-172417703D01*
X29101474Y-172200523D01*
X29342254Y-172023250D01*
X29612628Y-171888100D01*
X29904839Y-171797287D01*
X30211134Y-171753028D01*
X30523757Y-171757539D01*
X30834954Y-171813033D01*
X31136969Y-171921729D01*
X31221656Y-171963480D01*
X31478967Y-172132932D01*
X31707723Y-172351174D01*
X31898749Y-172606355D01*
X32042869Y-172886629D01*
X32118350Y-173121470D01*
X32151053Y-173326104D01*
X32162819Y-173555647D01*
X32153691Y-173783192D01*
X32123714Y-173981830D01*
X32116910Y-174009416D01*
X32012855Y-174294510D01*
X31858922Y-174566496D01*
X31665279Y-174811533D01*
X31442093Y-175015780D01*
X31312385Y-175104534D01*
X31014571Y-175250221D01*
X30706107Y-175337264D01*
X30393782Y-175368237D01*
X30084386Y-175345714D01*
X29784707Y-175272268D01*
X29501535Y-175150472D01*
X29241658Y-174982901D01*
X29011866Y-174772129D01*
X28818946Y-174520728D01*
X28669689Y-174231273D01*
X28616459Y-174082515D01*
X28559938Y-173808937D01*
X28547340Y-173509302D01*
X28577054Y-173202040D01*
X28577054Y-173202040D01*
G37*
X28577054Y-173202040D02*
X28647470Y-172905579D01*
X28739713Y-172672573D01*
X28898042Y-172417703D01*
X29101474Y-172200523D01*
X29342254Y-172023250D01*
X29612628Y-171888100D01*
X29904839Y-171797287D01*
X30211134Y-171753028D01*
X30523757Y-171757539D01*
X30834954Y-171813033D01*
X31136969Y-171921729D01*
X31221656Y-171963480D01*
X31478967Y-172132932D01*
X31707723Y-172351174D01*
X31898749Y-172606355D01*
X32042869Y-172886629D01*
X32118350Y-173121470D01*
X32151053Y-173326104D01*
X32162819Y-173555647D01*
X32153691Y-173783192D01*
X32123714Y-173981830D01*
X32116910Y-174009416D01*
X32012855Y-174294510D01*
X31858922Y-174566496D01*
X31665279Y-174811533D01*
X31442093Y-175015780D01*
X31312385Y-175104534D01*
X31014571Y-175250221D01*
X30706107Y-175337264D01*
X30393782Y-175368237D01*
X30084386Y-175345714D01*
X29784707Y-175272268D01*
X29501535Y-175150472D01*
X29241658Y-174982901D01*
X29011866Y-174772129D01*
X28818946Y-174520728D01*
X28669689Y-174231273D01*
X28616459Y-174082515D01*
X28559938Y-173808937D01*
X28547340Y-173509302D01*
X28577054Y-173202040D01*
G36*
X28634398Y-168628454D02*
X28634963Y-168212844D01*
X28635871Y-167820098D01*
X28637096Y-167454574D01*
X28638610Y-167120631D01*
X28640385Y-166822629D01*
X28642395Y-166564925D01*
X28644612Y-166351879D01*
X28647009Y-166187849D01*
X28649559Y-166077194D01*
X28652234Y-166024272D01*
X28653221Y-166020193D01*
X28683639Y-166036276D01*
X28762711Y-166082254D01*
X28884840Y-166154717D01*
X29044425Y-166250257D01*
X29235869Y-166365463D01*
X29453574Y-166496927D01*
X29691940Y-166641239D01*
X29945370Y-166794991D01*
X30208265Y-166954773D01*
X30475026Y-167117176D01*
X30740056Y-167278790D01*
X30997754Y-167436208D01*
X31242524Y-167586018D01*
X31468767Y-167724813D01*
X31670883Y-167849183D01*
X31843275Y-167955719D01*
X31980344Y-168041011D01*
X32076492Y-168101651D01*
X32126120Y-168134229D01*
X32131176Y-168138090D01*
X32153763Y-168172830D01*
X32127450Y-168206368D01*
X32099347Y-168225043D01*
X32048103Y-168257400D01*
X31953920Y-168317389D01*
X31827413Y-168398227D01*
X31679200Y-168493134D01*
X31562524Y-168567963D01*
X31369639Y-168691482D01*
X31156621Y-168827453D01*
X30945520Y-168961827D01*
X30758389Y-169080555D01*
X30704147Y-169114859D01*
X30563642Y-169203907D01*
X30443321Y-169280707D01*
X30352967Y-169338972D01*
X30302363Y-169372416D01*
X30295192Y-169377667D01*
X30302293Y-169408981D01*
X30336954Y-169463177D01*
X30382092Y-169517756D01*
X30420625Y-169550217D01*
X30427772Y-169552275D01*
X30464701Y-169537415D01*
X30543773Y-169496407D01*
X30652577Y-169435911D01*
X30753319Y-169377587D01*
X31051840Y-169201898D01*
X31608804Y-169560607D01*
X31775270Y-169668760D01*
X31921957Y-169765864D01*
X32040954Y-169846533D01*
X32124348Y-169905379D01*
X32164230Y-169937018D01*
X32166527Y-169940335D01*
X32140211Y-169960111D01*
X32064027Y-170010085D01*
X31942529Y-170087427D01*
X31780268Y-170189304D01*
X31581795Y-170312885D01*
X31351665Y-170455338D01*
X31094427Y-170613832D01*
X30814636Y-170785535D01*
X30516842Y-170967614D01*
X30426802Y-171022541D01*
X30123905Y-171207139D01*
X29836941Y-171381871D01*
X29570548Y-171543923D01*
X29329361Y-171690484D01*
X29118015Y-171818740D01*
X28941146Y-171925879D01*
X28803389Y-172009089D01*
X28709380Y-172065557D01*
X28663755Y-172092471D01*
X28660261Y-172094336D01*
X28656544Y-172064770D01*
X28652986Y-171975884D01*
X28649623Y-171832015D01*
X28646493Y-171637503D01*
X28643634Y-171396685D01*
X28641082Y-171113901D01*
X28638874Y-170793489D01*
X28637049Y-170439786D01*
X28635643Y-170057133D01*
X28634694Y-169649866D01*
X28634239Y-169222325D01*
X28634203Y-169062569D01*
X28634398Y-168628454D01*
X28634398Y-168628454D01*
G37*
X28634398Y-168628454D02*
X28634963Y-168212844D01*
X28635871Y-167820098D01*
X28637096Y-167454574D01*
X28638610Y-167120631D01*
X28640385Y-166822629D01*
X28642395Y-166564925D01*
X28644612Y-166351879D01*
X28647009Y-166187849D01*
X28649559Y-166077194D01*
X28652234Y-166024272D01*
X28653221Y-166020193D01*
X28683639Y-166036276D01*
X28762711Y-166082254D01*
X28884840Y-166154717D01*
X29044425Y-166250257D01*
X29235869Y-166365463D01*
X29453574Y-166496927D01*
X29691940Y-166641239D01*
X29945370Y-166794991D01*
X30208265Y-166954773D01*
X30475026Y-167117176D01*
X30740056Y-167278790D01*
X30997754Y-167436208D01*
X31242524Y-167586018D01*
X31468767Y-167724813D01*
X31670883Y-167849183D01*
X31843275Y-167955719D01*
X31980344Y-168041011D01*
X32076492Y-168101651D01*
X32126120Y-168134229D01*
X32131176Y-168138090D01*
X32153763Y-168172830D01*
X32127450Y-168206368D01*
X32099347Y-168225043D01*
X32048103Y-168257400D01*
X31953920Y-168317389D01*
X31827413Y-168398227D01*
X31679200Y-168493134D01*
X31562524Y-168567963D01*
X31369639Y-168691482D01*
X31156621Y-168827453D01*
X30945520Y-168961827D01*
X30758389Y-169080555D01*
X30704147Y-169114859D01*
X30563642Y-169203907D01*
X30443321Y-169280707D01*
X30352967Y-169338972D01*
X30302363Y-169372416D01*
X30295192Y-169377667D01*
X30302293Y-169408981D01*
X30336954Y-169463177D01*
X30382092Y-169517756D01*
X30420625Y-169550217D01*
X30427772Y-169552275D01*
X30464701Y-169537415D01*
X30543773Y-169496407D01*
X30652577Y-169435911D01*
X30753319Y-169377587D01*
X31051840Y-169201898D01*
X31608804Y-169560607D01*
X31775270Y-169668760D01*
X31921957Y-169765864D01*
X32040954Y-169846533D01*
X32124348Y-169905379D01*
X32164230Y-169937018D01*
X32166527Y-169940335D01*
X32140211Y-169960111D01*
X32064027Y-170010085D01*
X31942529Y-170087427D01*
X31780268Y-170189304D01*
X31581795Y-170312885D01*
X31351665Y-170455338D01*
X31094427Y-170613832D01*
X30814636Y-170785535D01*
X30516842Y-170967614D01*
X30426802Y-171022541D01*
X30123905Y-171207139D01*
X29836941Y-171381871D01*
X29570548Y-171543923D01*
X29329361Y-171690484D01*
X29118015Y-171818740D01*
X28941146Y-171925879D01*
X28803389Y-172009089D01*
X28709380Y-172065557D01*
X28663755Y-172092471D01*
X28660261Y-172094336D01*
X28656544Y-172064770D01*
X28652986Y-171975884D01*
X28649623Y-171832015D01*
X28646493Y-171637503D01*
X28643634Y-171396685D01*
X28641082Y-171113901D01*
X28638874Y-170793489D01*
X28637049Y-170439786D01*
X28635643Y-170057133D01*
X28634694Y-169649866D01*
X28634239Y-169222325D01*
X28634203Y-169062569D01*
X28634398Y-168628454D01*
G36*
X28634472Y-162162019D02*
X28635254Y-161746873D01*
X28636510Y-161354761D01*
X28638204Y-160990022D01*
X28640297Y-160656994D01*
X28642752Y-160360015D01*
X28645532Y-160103425D01*
X28648598Y-159891561D01*
X28651913Y-159728762D01*
X28655440Y-159619367D01*
X28659140Y-159567713D01*
X28660522Y-159564094D01*
X28698953Y-159585131D01*
X28784902Y-159635636D01*
X28912843Y-159712213D01*
X29077251Y-159811470D01*
X29272600Y-159930011D01*
X29493364Y-160064442D01*
X29734018Y-160211370D01*
X29989036Y-160367399D01*
X30252891Y-160529137D01*
X30520060Y-160693187D01*
X30785015Y-160856157D01*
X31042232Y-161014652D01*
X31286184Y-161165278D01*
X31511346Y-161304641D01*
X31712192Y-161429346D01*
X31883197Y-161535999D01*
X32018835Y-161621206D01*
X32113580Y-161681573D01*
X32161906Y-161713706D01*
X32167041Y-161718021D01*
X32141693Y-161744648D01*
X32077404Y-161788915D01*
X32031765Y-161816212D01*
X31965980Y-161855833D01*
X31856575Y-161924071D01*
X31713251Y-162014771D01*
X31545711Y-162121777D01*
X31363659Y-162238935D01*
X31276058Y-162295614D01*
X31086766Y-162417883D01*
X30903934Y-162535201D01*
X30738169Y-162640820D01*
X30600076Y-162727995D01*
X30500261Y-162789979D01*
X30472361Y-162806843D01*
X30380169Y-162864066D01*
X30314802Y-162909139D01*
X30290486Y-162932203D01*
X30309469Y-162965403D01*
X30354533Y-163025349D01*
X30362833Y-163035587D01*
X30434036Y-163122535D01*
X30697815Y-162963970D01*
X30815728Y-162895568D01*
X30915931Y-162841990D01*
X30984271Y-162810578D01*
X31003467Y-162805406D01*
X31040837Y-162820918D01*
X31122349Y-162863462D01*
X31237721Y-162927047D01*
X31376670Y-163005684D01*
X31528914Y-163093383D01*
X31684170Y-163184154D01*
X31832155Y-163272007D01*
X31962588Y-163350952D01*
X32065185Y-163414999D01*
X32129664Y-163458159D01*
X32144378Y-163470017D01*
X32140115Y-163505141D01*
X32081129Y-163557507D01*
X32051583Y-163576942D01*
X31938884Y-163646764D01*
X31787481Y-163739888D01*
X31602953Y-163852929D01*
X31390883Y-163982501D01*
X31156852Y-164125220D01*
X30906440Y-164277699D01*
X30645230Y-164436553D01*
X30378803Y-164598396D01*
X30112739Y-164759844D01*
X29852621Y-164917510D01*
X29604029Y-165068009D01*
X29372545Y-165207955D01*
X29163750Y-165333964D01*
X28983226Y-165442649D01*
X28836553Y-165530625D01*
X28729313Y-165594506D01*
X28667088Y-165630908D01*
X28653351Y-165638238D01*
X28650619Y-165607135D01*
X28648003Y-165516731D01*
X28645532Y-165371386D01*
X28643231Y-165175458D01*
X28641129Y-164933305D01*
X28639254Y-164649288D01*
X28637632Y-164327763D01*
X28636291Y-163973090D01*
X28635258Y-163589628D01*
X28634562Y-163181735D01*
X28634229Y-162753770D01*
X28634203Y-162595861D01*
X28634472Y-162162019D01*
X28634472Y-162162019D01*
G37*
X28634472Y-162162019D02*
X28635254Y-161746873D01*
X28636510Y-161354761D01*
X28638204Y-160990022D01*
X28640297Y-160656994D01*
X28642752Y-160360015D01*
X28645532Y-160103425D01*
X28648598Y-159891561D01*
X28651913Y-159728762D01*
X28655440Y-159619367D01*
X28659140Y-159567713D01*
X28660522Y-159564094D01*
X28698953Y-159585131D01*
X28784902Y-159635636D01*
X28912843Y-159712213D01*
X29077251Y-159811470D01*
X29272600Y-159930011D01*
X29493364Y-160064442D01*
X29734018Y-160211370D01*
X29989036Y-160367399D01*
X30252891Y-160529137D01*
X30520060Y-160693187D01*
X30785015Y-160856157D01*
X31042232Y-161014652D01*
X31286184Y-161165278D01*
X31511346Y-161304641D01*
X31712192Y-161429346D01*
X31883197Y-161535999D01*
X32018835Y-161621206D01*
X32113580Y-161681573D01*
X32161906Y-161713706D01*
X32167041Y-161718021D01*
X32141693Y-161744648D01*
X32077404Y-161788915D01*
X32031765Y-161816212D01*
X31965980Y-161855833D01*
X31856575Y-161924071D01*
X31713251Y-162014771D01*
X31545711Y-162121777D01*
X31363659Y-162238935D01*
X31276058Y-162295614D01*
X31086766Y-162417883D01*
X30903934Y-162535201D01*
X30738169Y-162640820D01*
X30600076Y-162727995D01*
X30500261Y-162789979D01*
X30472361Y-162806843D01*
X30380169Y-162864066D01*
X30314802Y-162909139D01*
X30290486Y-162932203D01*
X30309469Y-162965403D01*
X30354533Y-163025349D01*
X30362833Y-163035587D01*
X30434036Y-163122535D01*
X30697815Y-162963970D01*
X30815728Y-162895568D01*
X30915931Y-162841990D01*
X30984271Y-162810578D01*
X31003467Y-162805406D01*
X31040837Y-162820918D01*
X31122349Y-162863462D01*
X31237721Y-162927047D01*
X31376670Y-163005684D01*
X31528914Y-163093383D01*
X31684170Y-163184154D01*
X31832155Y-163272007D01*
X31962588Y-163350952D01*
X32065185Y-163414999D01*
X32129664Y-163458159D01*
X32144378Y-163470017D01*
X32140115Y-163505141D01*
X32081129Y-163557507D01*
X32051583Y-163576942D01*
X31938884Y-163646764D01*
X31787481Y-163739888D01*
X31602953Y-163852929D01*
X31390883Y-163982501D01*
X31156852Y-164125220D01*
X30906440Y-164277699D01*
X30645230Y-164436553D01*
X30378803Y-164598396D01*
X30112739Y-164759844D01*
X29852621Y-164917510D01*
X29604029Y-165068009D01*
X29372545Y-165207955D01*
X29163750Y-165333964D01*
X28983226Y-165442649D01*
X28836553Y-165530625D01*
X28729313Y-165594506D01*
X28667088Y-165630908D01*
X28653351Y-165638238D01*
X28650619Y-165607135D01*
X28648003Y-165516731D01*
X28645532Y-165371386D01*
X28643231Y-165175458D01*
X28641129Y-164933305D01*
X28639254Y-164649288D01*
X28637632Y-164327763D01*
X28636291Y-163973090D01*
X28635258Y-163589628D01*
X28634562Y-163181735D01*
X28634229Y-162753770D01*
X28634203Y-162595861D01*
X28634472Y-162162019D01*
G36*
X28581423Y-157822086D02*
X28660870Y-157517816D01*
X28796414Y-157239069D01*
X28990695Y-156979434D01*
X29079817Y-156885105D01*
X29330184Y-156671227D01*
X29597546Y-156516016D01*
X29888632Y-156416766D01*
X30210174Y-156370770D01*
X30368915Y-156366740D01*
X30714255Y-156398831D01*
X31034440Y-156488093D01*
X31325224Y-156631569D01*
X31582362Y-156826303D01*
X31801606Y-157069337D01*
X31978710Y-157357714D01*
X32060460Y-157544611D01*
X32114428Y-157738482D01*
X32148076Y-157968776D01*
X32160044Y-158211148D01*
X32148974Y-158441250D01*
X32119968Y-158610852D01*
X32008784Y-158922510D01*
X31843409Y-159207476D01*
X31630254Y-159458562D01*
X31375725Y-159668581D01*
X31086231Y-159830343D01*
X31001605Y-159865312D01*
X30805555Y-159921036D01*
X30573037Y-159956954D01*
X30328645Y-159971253D01*
X30096973Y-159962119D01*
X29961324Y-159942030D01*
X29763382Y-159882331D01*
X29548558Y-159787039D01*
X29341003Y-159668848D01*
X29164866Y-159540456D01*
X29118954Y-159499167D01*
X28893203Y-159245074D01*
X28726448Y-158970491D01*
X28616826Y-158670985D01*
X28562473Y-158342123D01*
X28555434Y-158158288D01*
X28581423Y-157822086D01*
X28581423Y-157822086D01*
G37*
X28581423Y-157822086D02*
X28660870Y-157517816D01*
X28796414Y-157239069D01*
X28990695Y-156979434D01*
X29079817Y-156885105D01*
X29330184Y-156671227D01*
X29597546Y-156516016D01*
X29888632Y-156416766D01*
X30210174Y-156370770D01*
X30368915Y-156366740D01*
X30714255Y-156398831D01*
X31034440Y-156488093D01*
X31325224Y-156631569D01*
X31582362Y-156826303D01*
X31801606Y-157069337D01*
X31978710Y-157357714D01*
X32060460Y-157544611D01*
X32114428Y-157738482D01*
X32148076Y-157968776D01*
X32160044Y-158211148D01*
X32148974Y-158441250D01*
X32119968Y-158610852D01*
X32008784Y-158922510D01*
X31843409Y-159207476D01*
X31630254Y-159458562D01*
X31375725Y-159668581D01*
X31086231Y-159830343D01*
X31001605Y-159865312D01*
X30805555Y-159921036D01*
X30573037Y-159956954D01*
X30328645Y-159971253D01*
X30096973Y-159962119D01*
X29961324Y-159942030D01*
X29763382Y-159882331D01*
X29548558Y-159787039D01*
X29341003Y-159668848D01*
X29164866Y-159540456D01*
X29118954Y-159499167D01*
X28893203Y-159245074D01*
X28726448Y-158970491D01*
X28616826Y-158670985D01*
X28562473Y-158342123D01*
X28555434Y-158158288D01*
X28581423Y-157822086D01*
G36*
X28659083Y-182070255D02*
X28692854Y-182022068D01*
X28757984Y-181929348D01*
X28849183Y-181799617D01*
X28961163Y-181640397D01*
X29088636Y-181459207D01*
X29226312Y-181263569D01*
X29250097Y-181229776D01*
X29385452Y-181036807D01*
X29508045Y-180860755D01*
X29613288Y-180708311D01*
X29696594Y-180586164D01*
X29753376Y-180501006D01*
X29779046Y-180459528D01*
X29780068Y-180456832D01*
X29762375Y-180426840D01*
X29712263Y-180351408D01*
X29634182Y-180236991D01*
X29532582Y-180090044D01*
X29411912Y-179917023D01*
X29276623Y-179724382D01*
X29213008Y-179634216D01*
X29071451Y-179433658D01*
X28941277Y-179248849D01*
X28827169Y-179086467D01*
X28733810Y-178953193D01*
X28665883Y-178855702D01*
X28628071Y-178800675D01*
X28622283Y-178791809D01*
X28628677Y-178782886D01*
X28662080Y-178775318D01*
X28726633Y-178769009D01*
X28826476Y-178763863D01*
X28965749Y-178759784D01*
X29148593Y-178756676D01*
X29379148Y-178754443D01*
X29661555Y-178752988D01*
X29999955Y-178752215D01*
X30335207Y-178752022D01*
X32071797Y-178752022D01*
X32071797Y-182157786D01*
X28598039Y-182157786D01*
X28659083Y-182070255D01*
X28659083Y-182070255D01*
G37*
X28659083Y-182070255D02*
X28692854Y-182022068D01*
X28757984Y-181929348D01*
X28849183Y-181799617D01*
X28961163Y-181640397D01*
X29088636Y-181459207D01*
X29226312Y-181263569D01*
X29250097Y-181229776D01*
X29385452Y-181036807D01*
X29508045Y-180860755D01*
X29613288Y-180708311D01*
X29696594Y-180586164D01*
X29753376Y-180501006D01*
X29779046Y-180459528D01*
X29780068Y-180456832D01*
X29762375Y-180426840D01*
X29712263Y-180351408D01*
X29634182Y-180236991D01*
X29532582Y-180090044D01*
X29411912Y-179917023D01*
X29276623Y-179724382D01*
X29213008Y-179634216D01*
X29071451Y-179433658D01*
X28941277Y-179248849D01*
X28827169Y-179086467D01*
X28733810Y-178953193D01*
X28665883Y-178855702D01*
X28628071Y-178800675D01*
X28622283Y-178791809D01*
X28628677Y-178782886D01*
X28662080Y-178775318D01*
X28726633Y-178769009D01*
X28826476Y-178763863D01*
X28965749Y-178759784D01*
X29148593Y-178756676D01*
X29379148Y-178754443D01*
X29661555Y-178752988D01*
X29999955Y-178752215D01*
X30335207Y-178752022D01*
X32071797Y-178752022D01*
X32071797Y-182157786D01*
X28598039Y-182157786D01*
X28659083Y-182070255D01*
G36*
X29716409Y-175632724D02*
X29716409Y-176332974D01*
X29939216Y-176332974D01*
X29939216Y-175632724D01*
X30766785Y-175632724D01*
X30766785Y-176332974D01*
X31021421Y-176332974D01*
X31021421Y-175632724D01*
X32071797Y-175632724D01*
X32071797Y-178465556D01*
X28666033Y-178465556D01*
X28666033Y-175632724D01*
X29716409Y-175632724D01*
X29716409Y-175632724D01*
G37*
X29716409Y-175632724D02*
X29716409Y-176332974D01*
X29939216Y-176332974D01*
X29939216Y-175632724D01*
X30766785Y-175632724D01*
X30766785Y-176332974D01*
X31021421Y-176332974D01*
X31021421Y-175632724D01*
X32071797Y-175632724D01*
X32071797Y-178465556D01*
X28666033Y-178465556D01*
X28666033Y-175632724D01*
X29716409Y-175632724D01*
G36*
X30353000Y-154370568D02*
X30353000Y-153415681D01*
X32071797Y-153415681D01*
X32071797Y-156089365D01*
X28666033Y-156089365D01*
X28666033Y-154370568D01*
X30353000Y-154370568D01*
X30353000Y-154370568D01*
G37*
X30353000Y-154370568D02*
X30353000Y-153415681D01*
X32071797Y-153415681D01*
X32071797Y-156089365D01*
X28666033Y-156089365D01*
X28666033Y-154370568D01*
X30353000Y-154370568D01*
G36*
X29748238Y-150296383D02*
X29748238Y-150996634D01*
X29971045Y-150996634D01*
X29971045Y-150296383D01*
X31053251Y-150296383D01*
X31053251Y-151060293D01*
X32071797Y-151060293D01*
X32071797Y-153129215D01*
X28666033Y-153129215D01*
X28666033Y-150296383D01*
X29748238Y-150296383D01*
X29748238Y-150296383D01*
G37*
X29748238Y-150296383D02*
X29748238Y-150996634D01*
X29971045Y-150996634D01*
X29971045Y-150296383D01*
X31053251Y-150296383D01*
X31053251Y-151060293D01*
X32071797Y-151060293D01*
X32071797Y-153129215D01*
X28666033Y-153129215D01*
X28666033Y-150296383D01*
X29748238Y-150296383D01*
D13*
G04 #@! TO.C,C3*
X62609000Y-170906221D02*
X62609000Y-171231779D01*
X63629000Y-170906221D02*
X63629000Y-171231779D01*
G04 #@! TO.C,C4*
X66685279Y-179199000D02*
X66359721Y-179199000D01*
X66685279Y-178179000D02*
X66359721Y-178179000D01*
G04 #@! TO.C,C5*
X40769000Y-173771779D02*
X40769000Y-173446221D01*
X39749000Y-173771779D02*
X39749000Y-173446221D01*
G04 #@! TO.C,C6*
X45849000Y-173446221D02*
X45849000Y-173771779D01*
X44829000Y-173446221D02*
X44829000Y-173771779D01*
D14*
G04 #@! TO.C,J1*
X58757819Y-158843981D02*
X58757819Y-162344100D01*
X58757819Y-162344100D02*
X59557919Y-162344100D01*
X59557919Y-162344100D02*
X59557919Y-159844740D01*
X59557919Y-159844740D02*
X60756799Y-159844740D01*
X64754759Y-159844740D02*
X65953639Y-159844740D01*
X65953639Y-159844740D02*
X65953639Y-162344100D01*
X65953639Y-162344100D02*
X66753739Y-162344100D01*
X66753739Y-162344100D02*
X66753739Y-158843981D01*
X64754759Y-154846020D02*
X60756799Y-154846020D01*
D13*
G04 #@! TO.C,Q1*
X44849000Y-184729000D02*
X44849000Y-185659000D01*
X44849000Y-187889000D02*
X44849000Y-186959000D01*
X44849000Y-187889000D02*
X47009000Y-187889000D01*
X44849000Y-184729000D02*
X46309000Y-184729000D01*
G04 #@! TO.C,Q2*
X44849000Y-180284000D02*
X46309000Y-180284000D01*
X44849000Y-183444000D02*
X47009000Y-183444000D01*
X44849000Y-183444000D02*
X44849000Y-182514000D01*
X44849000Y-180284000D02*
X44849000Y-181214000D01*
G04 #@! TO.C,R3*
X48639000Y-186471779D02*
X48639000Y-186146221D01*
X49659000Y-186471779D02*
X49659000Y-186146221D01*
G04 #@! TO.C,R4*
X48639000Y-182026779D02*
X48639000Y-181701221D01*
X49659000Y-182026779D02*
X49659000Y-181701221D01*
G04 #@! TO.C,R5*
X42674000Y-186471779D02*
X42674000Y-186146221D01*
X41654000Y-186471779D02*
X41654000Y-186146221D01*
G04 #@! TO.C,R6*
X42674000Y-182026779D02*
X42674000Y-181701221D01*
X41654000Y-182026779D02*
X41654000Y-181701221D01*
D16*
G04 #@! TO.C,U1*
X43472100Y-164548820D02*
X42125900Y-164548820D01*
X42125900Y-162349180D02*
X43472100Y-162349180D01*
X42125900Y-163647120D02*
X42125900Y-163250880D01*
D17*
G04 #@! TO.C,U2*
X61577220Y-172067220D02*
X59580780Y-172067220D01*
X59580780Y-172067220D02*
X59580780Y-170070780D01*
X59580780Y-170070780D02*
X61577220Y-170070780D01*
X61577220Y-170070780D02*
X61577220Y-172067220D01*
X61917580Y-169926000D02*
G75*
G03X61917580Y-169926000I-68580J0D01*
G01*
D18*
G04 #@! TO.C,U3*
X36449000Y-191389000D02*
X51689000Y-191389000D01*
X55499000Y-187579000D02*
X55499000Y-144399000D01*
X51689000Y-140589000D02*
X36449000Y-140589000D01*
X32639000Y-144399000D02*
X32639000Y-187579000D01*
X32639000Y-188849000D02*
G75*
G03X35179000Y-191389000I2540000J0D01*
G01*
X32639000Y-188849000D02*
X32639000Y-187579000D01*
X35179000Y-191389000D02*
X36449000Y-191389000D01*
X52959000Y-191389000D02*
G75*
G03X55499000Y-188849000I0J2540000D01*
G01*
X51689000Y-191389000D02*
X52959000Y-191389000D01*
X55499000Y-187579000D02*
X55499000Y-188849000D01*
X35179000Y-140589000D02*
G75*
G03X32639000Y-143129000I0J-2540000D01*
G01*
X35179000Y-140589000D02*
X36449000Y-140589000D01*
X32639000Y-143129000D02*
X32639000Y-144399000D01*
X55499000Y-143129000D02*
G75*
G03X52959000Y-140589000I-2540000J0D01*
G01*
X51689000Y-140589000D02*
X52959000Y-140589000D01*
X55499000Y-144399000D02*
X55499000Y-143129000D01*
X39624000Y-140589000D02*
X39624000Y-144399000D01*
X39624000Y-144399000D02*
X49149000Y-144399000D01*
X49149000Y-144399000D02*
X49149000Y-140589000D01*
D19*
G04 #@! TO.C,U4*
X66324480Y-170850560D02*
X68783200Y-170850560D01*
X68783200Y-173817280D02*
X66324480Y-173817280D01*
X69042280Y-173568360D02*
X69042280Y-171109640D01*
X66085720Y-171099480D02*
X66085720Y-173568360D01*
D20*
X69380100Y-170548300D02*
G75*
G03X69380100Y-170548300I-152400J0D01*
G01*
D19*
X68793360Y-173817280D02*
G75*
G03X69042280Y-173568360I0J248920D01*
G01*
X66085720Y-173568360D02*
G75*
G03X66334640Y-173817280I248920J0D01*
G01*
X66334640Y-170850560D02*
G75*
G03X66085720Y-171099480I0J-248920D01*
G01*
X69042280Y-171099480D02*
G75*
G03X68793360Y-170850560I-248920J0D01*
G01*
D21*
G04 #@! TO.C,U5*
X41275000Y-175514000D02*
G75*
G03X41275000Y-175514000I-127000J0D01*
G01*
D22*
X44038520Y-175066960D02*
X44038520Y-172069760D01*
X41440100Y-175066960D02*
X41440100Y-172069760D01*
D13*
G04 #@! TO.C,R7*
X65534000Y-170906221D02*
X65534000Y-171231779D01*
X64514000Y-170906221D02*
X64514000Y-171231779D01*
G04 #@! TO.C,R8*
X48236500Y-177002221D02*
X48236500Y-177327779D01*
X47216500Y-177002221D02*
X47216500Y-177327779D01*
D14*
G04 #@! TO.C,C7*
X17653000Y-168402000D02*
X17653000Y-169672000D01*
X17653000Y-163322000D02*
X17653000Y-164592000D01*
X17018000Y-163957000D02*
X18288000Y-163957000D01*
X25191720Y-166497000D02*
G75*
G03X25191720Y-166497000I-4998720J0D01*
G01*
D13*
G04 #@! TO.C,R9*
X39080221Y-162304000D02*
X39405779Y-162304000D01*
X39080221Y-163324000D02*
X39405779Y-163324000D01*
G04 #@! TO.C,L1*
D18*
X67439000Y-163228285D02*
X67081857Y-163228285D01*
X67081857Y-162478285D01*
X68081857Y-163228285D02*
X67653285Y-163228285D01*
X67867571Y-163228285D02*
X67867571Y-162478285D01*
X67796142Y-162585428D01*
X67724714Y-162656857D01*
X67653285Y-162692571D01*
G04 #@! TO.C,C1*
X62994000Y-166891857D02*
X62958285Y-166927571D01*
X62851142Y-166963285D01*
X62779714Y-166963285D01*
X62672571Y-166927571D01*
X62601142Y-166856142D01*
X62565428Y-166784714D01*
X62529714Y-166641857D01*
X62529714Y-166534714D01*
X62565428Y-166391857D01*
X62601142Y-166320428D01*
X62672571Y-166249000D01*
X62779714Y-166213285D01*
X62851142Y-166213285D01*
X62958285Y-166249000D01*
X62994000Y-166284714D01*
X63708285Y-166963285D02*
X63279714Y-166963285D01*
X63494000Y-166963285D02*
X63494000Y-166213285D01*
X63422571Y-166320428D01*
X63351142Y-166391857D01*
X63279714Y-166427571D01*
G04 #@! TO.C,C2*
X62994000Y-168796857D02*
X62958285Y-168832571D01*
X62851142Y-168868285D01*
X62779714Y-168868285D01*
X62672571Y-168832571D01*
X62601142Y-168761142D01*
X62565428Y-168689714D01*
X62529714Y-168546857D01*
X62529714Y-168439714D01*
X62565428Y-168296857D01*
X62601142Y-168225428D01*
X62672571Y-168154000D01*
X62779714Y-168118285D01*
X62851142Y-168118285D01*
X62958285Y-168154000D01*
X62994000Y-168189714D01*
X63279714Y-168189714D02*
X63315428Y-168154000D01*
X63386857Y-168118285D01*
X63565428Y-168118285D01*
X63636857Y-168154000D01*
X63672571Y-168189714D01*
X63708285Y-168261142D01*
X63708285Y-168332571D01*
X63672571Y-168439714D01*
X63244000Y-168868285D01*
X63708285Y-168868285D01*
G04 #@! TO.C,R1*
X68836000Y-177250285D02*
X68586000Y-176893142D01*
X68407428Y-177250285D02*
X68407428Y-176500285D01*
X68693142Y-176500285D01*
X68764571Y-176536000D01*
X68800285Y-176571714D01*
X68836000Y-176643142D01*
X68836000Y-176750285D01*
X68800285Y-176821714D01*
X68764571Y-176857428D01*
X68693142Y-176893142D01*
X68407428Y-176893142D01*
X69550285Y-177250285D02*
X69121714Y-177250285D01*
X69336000Y-177250285D02*
X69336000Y-176500285D01*
X69264571Y-176607428D01*
X69193142Y-176678857D01*
X69121714Y-176714571D01*
G04 #@! TO.C,R2*
X60606500Y-177123285D02*
X60356500Y-176766142D01*
X60177928Y-177123285D02*
X60177928Y-176373285D01*
X60463642Y-176373285D01*
X60535071Y-176409000D01*
X60570785Y-176444714D01*
X60606500Y-176516142D01*
X60606500Y-176623285D01*
X60570785Y-176694714D01*
X60535071Y-176730428D01*
X60463642Y-176766142D01*
X60177928Y-176766142D01*
X60892214Y-176444714D02*
X60927928Y-176409000D01*
X60999357Y-176373285D01*
X61177928Y-176373285D01*
X61249357Y-176409000D01*
X61285071Y-176444714D01*
X61320785Y-176516142D01*
X61320785Y-176587571D01*
X61285071Y-176694714D01*
X60856500Y-177123285D01*
X61320785Y-177123285D01*
G04 #@! TO.C,J2*
X22526666Y-149353380D02*
X22526666Y-150067666D01*
X22479047Y-150210523D01*
X22383809Y-150305761D01*
X22240952Y-150353380D01*
X22145714Y-150353380D01*
X22955238Y-149448619D02*
X23002857Y-149401000D01*
X23098095Y-149353380D01*
X23336190Y-149353380D01*
X23431428Y-149401000D01*
X23479047Y-149448619D01*
X23526666Y-149543857D01*
X23526666Y-149639095D01*
X23479047Y-149781952D01*
X22907619Y-150353380D01*
X23526666Y-150353380D01*
G04 #@! TO.C,J3*
X22653666Y-172173380D02*
X22653666Y-172887666D01*
X22606047Y-173030523D01*
X22510809Y-173125761D01*
X22367952Y-173173380D01*
X22272714Y-173173380D01*
X23034619Y-172173380D02*
X23653666Y-172173380D01*
X23320333Y-172554333D01*
X23463190Y-172554333D01*
X23558428Y-172601952D01*
X23606047Y-172649571D01*
X23653666Y-172744809D01*
X23653666Y-172982904D01*
X23606047Y-173078142D01*
X23558428Y-173125761D01*
X23463190Y-173173380D01*
X23177476Y-173173380D01*
X23082238Y-173125761D01*
X23034619Y-173078142D01*
G04 #@! TO.C,C3*
X63513857Y-173734000D02*
X63549571Y-173769714D01*
X63585285Y-173876857D01*
X63585285Y-173948285D01*
X63549571Y-174055428D01*
X63478142Y-174126857D01*
X63406714Y-174162571D01*
X63263857Y-174198285D01*
X63156714Y-174198285D01*
X63013857Y-174162571D01*
X62942428Y-174126857D01*
X62871000Y-174055428D01*
X62835285Y-173948285D01*
X62835285Y-173876857D01*
X62871000Y-173769714D01*
X62906714Y-173734000D01*
X62835285Y-173484000D02*
X62835285Y-173019714D01*
X63121000Y-173269714D01*
X63121000Y-173162571D01*
X63156714Y-173091142D01*
X63192428Y-173055428D01*
X63263857Y-173019714D01*
X63442428Y-173019714D01*
X63513857Y-173055428D01*
X63549571Y-173091142D01*
X63585285Y-173162571D01*
X63585285Y-173376857D01*
X63549571Y-173448285D01*
X63513857Y-173484000D01*
G04 #@! TO.C,C4*
X68836000Y-178956857D02*
X68800285Y-178992571D01*
X68693142Y-179028285D01*
X68621714Y-179028285D01*
X68514571Y-178992571D01*
X68443142Y-178921142D01*
X68407428Y-178849714D01*
X68371714Y-178706857D01*
X68371714Y-178599714D01*
X68407428Y-178456857D01*
X68443142Y-178385428D01*
X68514571Y-178314000D01*
X68621714Y-178278285D01*
X68693142Y-178278285D01*
X68800285Y-178314000D01*
X68836000Y-178349714D01*
X69478857Y-178528285D02*
X69478857Y-179028285D01*
X69300285Y-178242571D02*
X69121714Y-178778285D01*
X69586000Y-178778285D01*
G04 #@! TO.C,C5*
X40616142Y-171235666D02*
X40663761Y-171283285D01*
X40711380Y-171426142D01*
X40711380Y-171521380D01*
X40663761Y-171664238D01*
X40568523Y-171759476D01*
X40473285Y-171807095D01*
X40282809Y-171854714D01*
X40139952Y-171854714D01*
X39949476Y-171807095D01*
X39854238Y-171759476D01*
X39759000Y-171664238D01*
X39711380Y-171521380D01*
X39711380Y-171426142D01*
X39759000Y-171283285D01*
X39806619Y-171235666D01*
X39711380Y-170330904D02*
X39711380Y-170807095D01*
X40187571Y-170854714D01*
X40139952Y-170807095D01*
X40092333Y-170711857D01*
X40092333Y-170473761D01*
X40139952Y-170378523D01*
X40187571Y-170330904D01*
X40282809Y-170283285D01*
X40520904Y-170283285D01*
X40616142Y-170330904D01*
X40663761Y-170378523D01*
X40711380Y-170473761D01*
X40711380Y-170711857D01*
X40663761Y-170807095D01*
X40616142Y-170854714D01*
G04 #@! TO.C,C6*
X45696142Y-171235666D02*
X45743761Y-171283285D01*
X45791380Y-171426142D01*
X45791380Y-171521380D01*
X45743761Y-171664238D01*
X45648523Y-171759476D01*
X45553285Y-171807095D01*
X45362809Y-171854714D01*
X45219952Y-171854714D01*
X45029476Y-171807095D01*
X44934238Y-171759476D01*
X44839000Y-171664238D01*
X44791380Y-171521380D01*
X44791380Y-171426142D01*
X44839000Y-171283285D01*
X44886619Y-171235666D01*
X44791380Y-170378523D02*
X44791380Y-170569000D01*
X44839000Y-170664238D01*
X44886619Y-170711857D01*
X45029476Y-170807095D01*
X45219952Y-170854714D01*
X45600904Y-170854714D01*
X45696142Y-170807095D01*
X45743761Y-170759476D01*
X45791380Y-170664238D01*
X45791380Y-170473761D01*
X45743761Y-170378523D01*
X45696142Y-170330904D01*
X45600904Y-170283285D01*
X45362809Y-170283285D01*
X45267571Y-170330904D01*
X45219952Y-170378523D01*
X45172333Y-170473761D01*
X45172333Y-170664238D01*
X45219952Y-170759476D01*
X45267571Y-170807095D01*
X45362809Y-170854714D01*
G04 #@! TO.C,J1*
D17*
X57722950Y-161858960D02*
X58158379Y-161858960D01*
X58245464Y-161887988D01*
X58303521Y-161946045D01*
X58332550Y-162033131D01*
X58332550Y-162091188D01*
X58332550Y-161249360D02*
X58332550Y-161597702D01*
X58332550Y-161423531D02*
X57722950Y-161423531D01*
X57810036Y-161481588D01*
X57868093Y-161539645D01*
X57897121Y-161597702D01*
G04 #@! TO.C,Q1*
D18*
X45116761Y-189396619D02*
X45021523Y-189349000D01*
X44926285Y-189253761D01*
X44783428Y-189110904D01*
X44688190Y-189063285D01*
X44592952Y-189063285D01*
X44640571Y-189301380D02*
X44545333Y-189253761D01*
X44450095Y-189158523D01*
X44402476Y-188968047D01*
X44402476Y-188634714D01*
X44450095Y-188444238D01*
X44545333Y-188349000D01*
X44640571Y-188301380D01*
X44831047Y-188301380D01*
X44926285Y-188349000D01*
X45021523Y-188444238D01*
X45069142Y-188634714D01*
X45069142Y-188968047D01*
X45021523Y-189158523D01*
X44926285Y-189253761D01*
X44831047Y-189301380D01*
X44640571Y-189301380D01*
X46021523Y-189301380D02*
X45450095Y-189301380D01*
X45735809Y-189301380D02*
X45735809Y-188301380D01*
X45640571Y-188444238D01*
X45545333Y-188539476D01*
X45450095Y-188587095D01*
G04 #@! TO.C,Q2*
X47148761Y-179998619D02*
X47053523Y-179951000D01*
X46958285Y-179855761D01*
X46815428Y-179712904D01*
X46720190Y-179665285D01*
X46624952Y-179665285D01*
X46672571Y-179903380D02*
X46577333Y-179855761D01*
X46482095Y-179760523D01*
X46434476Y-179570047D01*
X46434476Y-179236714D01*
X46482095Y-179046238D01*
X46577333Y-178951000D01*
X46672571Y-178903380D01*
X46863047Y-178903380D01*
X46958285Y-178951000D01*
X47053523Y-179046238D01*
X47101142Y-179236714D01*
X47101142Y-179570047D01*
X47053523Y-179760523D01*
X46958285Y-179855761D01*
X46863047Y-179903380D01*
X46672571Y-179903380D01*
X47482095Y-178998619D02*
X47529714Y-178951000D01*
X47624952Y-178903380D01*
X47863047Y-178903380D01*
X47958285Y-178951000D01*
X48005904Y-178998619D01*
X48053523Y-179093857D01*
X48053523Y-179189095D01*
X48005904Y-179331952D01*
X47434476Y-179903380D01*
X48053523Y-179903380D01*
G04 #@! TO.C,R3*
X49601380Y-189015666D02*
X49125190Y-189349000D01*
X49601380Y-189587095D02*
X48601380Y-189587095D01*
X48601380Y-189206142D01*
X48649000Y-189110904D01*
X48696619Y-189063285D01*
X48791857Y-189015666D01*
X48934714Y-189015666D01*
X49029952Y-189063285D01*
X49077571Y-189110904D01*
X49125190Y-189206142D01*
X49125190Y-189587095D01*
X48601380Y-188682333D02*
X48601380Y-188063285D01*
X48982333Y-188396619D01*
X48982333Y-188253761D01*
X49029952Y-188158523D01*
X49077571Y-188110904D01*
X49172809Y-188063285D01*
X49410904Y-188063285D01*
X49506142Y-188110904D01*
X49553761Y-188158523D01*
X49601380Y-188253761D01*
X49601380Y-188539476D01*
X49553761Y-188634714D01*
X49506142Y-188682333D01*
G04 #@! TO.C,R4*
X49601380Y-179490666D02*
X49125190Y-179824000D01*
X49601380Y-180062095D02*
X48601380Y-180062095D01*
X48601380Y-179681142D01*
X48649000Y-179585904D01*
X48696619Y-179538285D01*
X48791857Y-179490666D01*
X48934714Y-179490666D01*
X49029952Y-179538285D01*
X49077571Y-179585904D01*
X49125190Y-179681142D01*
X49125190Y-180062095D01*
X48934714Y-178633523D02*
X49601380Y-178633523D01*
X48553761Y-178871619D02*
X49268047Y-179109714D01*
X49268047Y-178490666D01*
G04 #@! TO.C,R5*
X41219380Y-186348666D02*
X40743190Y-186682000D01*
X41219380Y-186920095D02*
X40219380Y-186920095D01*
X40219380Y-186539142D01*
X40267000Y-186443904D01*
X40314619Y-186396285D01*
X40409857Y-186348666D01*
X40552714Y-186348666D01*
X40647952Y-186396285D01*
X40695571Y-186443904D01*
X40743190Y-186539142D01*
X40743190Y-186920095D01*
X40219380Y-185443904D02*
X40219380Y-185920095D01*
X40695571Y-185967714D01*
X40647952Y-185920095D01*
X40600333Y-185824857D01*
X40600333Y-185586761D01*
X40647952Y-185491523D01*
X40695571Y-185443904D01*
X40790809Y-185396285D01*
X41028904Y-185396285D01*
X41124142Y-185443904D01*
X41171761Y-185491523D01*
X41219380Y-185586761D01*
X41219380Y-185824857D01*
X41171761Y-185920095D01*
X41124142Y-185967714D01*
G04 #@! TO.C,R6*
X42235380Y-179617666D02*
X41759190Y-179951000D01*
X42235380Y-180189095D02*
X41235380Y-180189095D01*
X41235380Y-179808142D01*
X41283000Y-179712904D01*
X41330619Y-179665285D01*
X41425857Y-179617666D01*
X41568714Y-179617666D01*
X41663952Y-179665285D01*
X41711571Y-179712904D01*
X41759190Y-179808142D01*
X41759190Y-180189095D01*
X41235380Y-178760523D02*
X41235380Y-178951000D01*
X41283000Y-179046238D01*
X41330619Y-179093857D01*
X41473476Y-179189095D01*
X41663952Y-179236714D01*
X42044904Y-179236714D01*
X42140142Y-179189095D01*
X42187761Y-179141476D01*
X42235380Y-179046238D01*
X42235380Y-178855761D01*
X42187761Y-178760523D01*
X42140142Y-178712904D01*
X42044904Y-178665285D01*
X41806809Y-178665285D01*
X41711571Y-178712904D01*
X41663952Y-178760523D01*
X41616333Y-178855761D01*
X41616333Y-179046238D01*
X41663952Y-179141476D01*
X41711571Y-179189095D01*
X41806809Y-179236714D01*
G04 #@! TO.C,U1*
D17*
X42334542Y-164766171D02*
X42334542Y-165259657D01*
X42363571Y-165317714D01*
X42392600Y-165346742D01*
X42450657Y-165375771D01*
X42566771Y-165375771D01*
X42624828Y-165346742D01*
X42653857Y-165317714D01*
X42682885Y-165259657D01*
X42682885Y-164766171D01*
X43292485Y-165375771D02*
X42944142Y-165375771D01*
X43118314Y-165375771D02*
X43118314Y-164766171D01*
X43060257Y-164853257D01*
X43002200Y-164911314D01*
X42944142Y-164940342D01*
G04 #@! TO.C,U2*
X58336542Y-171116171D02*
X58336542Y-171609657D01*
X58365571Y-171667714D01*
X58394600Y-171696742D01*
X58452657Y-171725771D01*
X58568771Y-171725771D01*
X58626828Y-171696742D01*
X58655857Y-171667714D01*
X58684885Y-171609657D01*
X58684885Y-171116171D01*
X58946142Y-171174228D02*
X58975171Y-171145200D01*
X59033228Y-171116171D01*
X59178371Y-171116171D01*
X59236428Y-171145200D01*
X59265457Y-171174228D01*
X59294485Y-171232285D01*
X59294485Y-171290342D01*
X59265457Y-171377428D01*
X58917114Y-171725771D01*
X59294485Y-171725771D01*
G04 #@! TO.C,U3*
X32174542Y-191055171D02*
X32174542Y-191548657D01*
X32203571Y-191606714D01*
X32232600Y-191635742D01*
X32290657Y-191664771D01*
X32406771Y-191664771D01*
X32464828Y-191635742D01*
X32493857Y-191606714D01*
X32522885Y-191548657D01*
X32522885Y-191055171D01*
X32755114Y-191055171D02*
X33132485Y-191055171D01*
X32929285Y-191287400D01*
X33016371Y-191287400D01*
X33074428Y-191316428D01*
X33103457Y-191345457D01*
X33132485Y-191403514D01*
X33132485Y-191548657D01*
X33103457Y-191606714D01*
X33074428Y-191635742D01*
X33016371Y-191664771D01*
X32842200Y-191664771D01*
X32784142Y-191635742D01*
X32755114Y-191606714D01*
X35750500Y-152230666D02*
X35750500Y-151341666D01*
X36258500Y-152230666D01*
X36258500Y-151341666D01*
X37189833Y-152146000D02*
X37147500Y-152188333D01*
X37020500Y-152230666D01*
X36935833Y-152230666D01*
X36808833Y-152188333D01*
X36724166Y-152103666D01*
X36681833Y-152019000D01*
X36639500Y-151849666D01*
X36639500Y-151722666D01*
X36681833Y-151553333D01*
X36724166Y-151468666D01*
X36808833Y-151384000D01*
X36935833Y-151341666D01*
X37020500Y-151341666D01*
X37147500Y-151384000D01*
X37189833Y-151426333D01*
X36406666Y-154114500D02*
X36322000Y-154072166D01*
X36195000Y-154072166D01*
X36068000Y-154114500D01*
X35983333Y-154199166D01*
X35941000Y-154283833D01*
X35898666Y-154453166D01*
X35898666Y-154580166D01*
X35941000Y-154749500D01*
X35983333Y-154834166D01*
X36068000Y-154918833D01*
X36195000Y-154961166D01*
X36279666Y-154961166D01*
X36406666Y-154918833D01*
X36449000Y-154876500D01*
X36449000Y-154580166D01*
X36279666Y-154580166D01*
X36830000Y-154961166D02*
X36830000Y-154072166D01*
X37338000Y-154961166D01*
X37338000Y-154072166D01*
X37761333Y-154961166D02*
X37761333Y-154072166D01*
X37973000Y-154072166D01*
X38100000Y-154114500D01*
X38184666Y-154199166D01*
X38227000Y-154283833D01*
X38269333Y-154453166D01*
X38269333Y-154580166D01*
X38227000Y-154749500D01*
X38184666Y-154834166D01*
X38100000Y-154918833D01*
X37973000Y-154961166D01*
X37761333Y-154961166D01*
X35708166Y-145945860D02*
X36597166Y-145945860D01*
X36427833Y-147153206D02*
X36131500Y-146729873D01*
X35919833Y-147153206D02*
X35919833Y-146264206D01*
X36258500Y-146264206D01*
X36343166Y-146306540D01*
X36385500Y-146348873D01*
X36427833Y-146433540D01*
X36427833Y-146560540D01*
X36385500Y-146645206D01*
X36343166Y-146687540D01*
X36258500Y-146729873D01*
X35919833Y-146729873D01*
X36597166Y-145945860D02*
X37401500Y-145945860D01*
X36808833Y-146687540D02*
X37105166Y-146687540D01*
X37232166Y-147153206D02*
X36808833Y-147153206D01*
X36808833Y-146264206D01*
X37232166Y-146264206D01*
X37401500Y-145945860D02*
X38248166Y-145945860D01*
X37570833Y-147110873D02*
X37697833Y-147153206D01*
X37909500Y-147153206D01*
X37994166Y-147110873D01*
X38036500Y-147068540D01*
X38078833Y-146983873D01*
X38078833Y-146899206D01*
X38036500Y-146814540D01*
X37994166Y-146772206D01*
X37909500Y-146729873D01*
X37740166Y-146687540D01*
X37655500Y-146645206D01*
X37613166Y-146602873D01*
X37570833Y-146518206D01*
X37570833Y-146433540D01*
X37613166Y-146348873D01*
X37655500Y-146306540D01*
X37740166Y-146264206D01*
X37951833Y-146264206D01*
X38078833Y-146306540D01*
X38248166Y-145945860D02*
X39052500Y-145945860D01*
X38459833Y-146687540D02*
X38756166Y-146687540D01*
X38883166Y-147153206D02*
X38459833Y-147153206D01*
X38459833Y-146264206D01*
X38883166Y-146264206D01*
X39052500Y-145945860D02*
X39729833Y-145945860D01*
X39137166Y-146264206D02*
X39645166Y-146264206D01*
X39391166Y-147153206D02*
X39391166Y-146264206D01*
X35814000Y-157056666D02*
X36237333Y-157056666D01*
X35729333Y-157310666D02*
X36025666Y-156421666D01*
X36322000Y-157310666D01*
X36787666Y-156421666D02*
X36872333Y-156421666D01*
X36957000Y-156464000D01*
X36999333Y-156506333D01*
X37041666Y-156591000D01*
X37084000Y-156760333D01*
X37084000Y-156972000D01*
X37041666Y-157141333D01*
X36999333Y-157226000D01*
X36957000Y-157268333D01*
X36872333Y-157310666D01*
X36787666Y-157310666D01*
X36703000Y-157268333D01*
X36660666Y-157226000D01*
X36618333Y-157141333D01*
X36576000Y-156972000D01*
X36576000Y-156760333D01*
X36618333Y-156591000D01*
X36660666Y-156506333D01*
X36703000Y-156464000D01*
X36787666Y-156421666D01*
X35814000Y-159599206D02*
X36237333Y-159599206D01*
X35729333Y-159853206D02*
X36025666Y-158964206D01*
X36322000Y-159853206D01*
X37084000Y-159853206D02*
X36576000Y-159853206D01*
X36830000Y-159853206D02*
X36830000Y-158964206D01*
X36745333Y-159091206D01*
X36660666Y-159175873D01*
X36576000Y-159218206D01*
X35788600Y-162136666D02*
X36211933Y-162136666D01*
X35703933Y-162390666D02*
X36000266Y-161501666D01*
X36296600Y-162390666D01*
X36550600Y-161586333D02*
X36592933Y-161544000D01*
X36677600Y-161501666D01*
X36889266Y-161501666D01*
X36973933Y-161544000D01*
X37016266Y-161586333D01*
X37058600Y-161671000D01*
X37058600Y-161755666D01*
X37016266Y-161882666D01*
X36508266Y-162390666D01*
X37058600Y-162390666D01*
X35788600Y-164676666D02*
X36211933Y-164676666D01*
X35703933Y-164930666D02*
X36000266Y-164041666D01*
X36296600Y-164930666D01*
X36508266Y-164041666D02*
X37058600Y-164041666D01*
X36762266Y-164380333D01*
X36889266Y-164380333D01*
X36973933Y-164422666D01*
X37016266Y-164465000D01*
X37058600Y-164549666D01*
X37058600Y-164761333D01*
X37016266Y-164846000D01*
X36973933Y-164888333D01*
X36889266Y-164930666D01*
X36635266Y-164930666D01*
X36550600Y-164888333D01*
X36508266Y-164846000D01*
X35788600Y-167216666D02*
X36211933Y-167216666D01*
X35703933Y-167470666D02*
X36000266Y-166581666D01*
X36296600Y-167470666D01*
X36973933Y-166878000D02*
X36973933Y-167470666D01*
X36762266Y-166539333D02*
X36550600Y-167174333D01*
X37100933Y-167174333D01*
X35814000Y-169629666D02*
X36237333Y-169629666D01*
X35729333Y-169883666D02*
X36025666Y-168994666D01*
X36322000Y-169883666D01*
X37041666Y-168994666D02*
X36618333Y-168994666D01*
X36576000Y-169418000D01*
X36618333Y-169375666D01*
X36703000Y-169333333D01*
X36914666Y-169333333D01*
X36999333Y-169375666D01*
X37041666Y-169418000D01*
X37084000Y-169502666D01*
X37084000Y-169714333D01*
X37041666Y-169799000D01*
X36999333Y-169841333D01*
X36914666Y-169883666D01*
X36703000Y-169883666D01*
X36618333Y-169841333D01*
X36576000Y-169799000D01*
X35433000Y-180043666D02*
X35433000Y-179154666D01*
X35644666Y-179154666D01*
X35771666Y-179197000D01*
X35856333Y-179281666D01*
X35898666Y-179366333D01*
X35941000Y-179535666D01*
X35941000Y-179662666D01*
X35898666Y-179832000D01*
X35856333Y-179916666D01*
X35771666Y-180001333D01*
X35644666Y-180043666D01*
X35433000Y-180043666D01*
X36787666Y-180043666D02*
X36279666Y-180043666D01*
X36533666Y-180043666D02*
X36533666Y-179154666D01*
X36449000Y-179281666D01*
X36364333Y-179366333D01*
X36279666Y-179408666D01*
X37549666Y-179154666D02*
X37380333Y-179154666D01*
X37295666Y-179197000D01*
X37253333Y-179239333D01*
X37168666Y-179366333D01*
X37126333Y-179535666D01*
X37126333Y-179874333D01*
X37168666Y-179959000D01*
X37211000Y-180001333D01*
X37295666Y-180043666D01*
X37465000Y-180043666D01*
X37549666Y-180001333D01*
X37592000Y-179959000D01*
X37634333Y-179874333D01*
X37634333Y-179662666D01*
X37592000Y-179578000D01*
X37549666Y-179535666D01*
X37465000Y-179493333D01*
X37295666Y-179493333D01*
X37211000Y-179535666D01*
X37168666Y-179578000D01*
X37126333Y-179662666D01*
X37803666Y-180128333D02*
X38481000Y-180128333D01*
X39200666Y-180043666D02*
X38904333Y-179620333D01*
X38692666Y-180043666D02*
X38692666Y-179154666D01*
X39031333Y-179154666D01*
X39116000Y-179197000D01*
X39158333Y-179239333D01*
X39200666Y-179324000D01*
X39200666Y-179451000D01*
X39158333Y-179535666D01*
X39116000Y-179578000D01*
X39031333Y-179620333D01*
X38692666Y-179620333D01*
X39497000Y-179154666D02*
X40089666Y-180043666D01*
X40089666Y-179154666D02*
X39497000Y-180043666D01*
X50609500Y-167724666D02*
X50609500Y-166835666D01*
X50821166Y-166835666D01*
X50948166Y-166878000D01*
X51032833Y-166962666D01*
X51075166Y-167047333D01*
X51117500Y-167216666D01*
X51117500Y-167343666D01*
X51075166Y-167513000D01*
X51032833Y-167597666D01*
X50948166Y-167682333D01*
X50821166Y-167724666D01*
X50609500Y-167724666D01*
X51964166Y-167724666D02*
X51456166Y-167724666D01*
X51710166Y-167724666D02*
X51710166Y-166835666D01*
X51625500Y-166962666D01*
X51540833Y-167047333D01*
X51456166Y-167089666D01*
X52302833Y-166920333D02*
X52345166Y-166878000D01*
X52429833Y-166835666D01*
X52641500Y-166835666D01*
X52726166Y-166878000D01*
X52768500Y-166920333D01*
X52810833Y-167005000D01*
X52810833Y-167089666D01*
X52768500Y-167216666D01*
X52260500Y-167724666D01*
X52810833Y-167724666D01*
X49555400Y-156675666D02*
X49851733Y-157564666D01*
X50148066Y-156675666D01*
X50740733Y-157099000D02*
X50867733Y-157141333D01*
X50910066Y-157183666D01*
X50952400Y-157268333D01*
X50952400Y-157395333D01*
X50910066Y-157480000D01*
X50867733Y-157522333D01*
X50783066Y-157564666D01*
X50444400Y-157564666D01*
X50444400Y-156675666D01*
X50740733Y-156675666D01*
X50825400Y-156718000D01*
X50867733Y-156760333D01*
X50910066Y-156845000D01*
X50910066Y-156929666D01*
X50867733Y-157014333D01*
X50825400Y-157056666D01*
X50740733Y-157099000D01*
X50444400Y-157099000D01*
X51291066Y-157310666D02*
X51714400Y-157310666D01*
X51206400Y-157564666D02*
X51502733Y-156675666D01*
X51799066Y-157564666D01*
X51968400Y-156675666D02*
X52476400Y-156675666D01*
X52222400Y-157564666D02*
X52222400Y-156675666D01*
X50609500Y-165187206D02*
X50609500Y-164298206D01*
X50821166Y-164298206D01*
X50948166Y-164340540D01*
X51032833Y-164425206D01*
X51075166Y-164509873D01*
X51117500Y-164679206D01*
X51117500Y-164806206D01*
X51075166Y-164975540D01*
X51032833Y-165060206D01*
X50948166Y-165144873D01*
X50821166Y-165187206D01*
X50609500Y-165187206D01*
X51964166Y-165187206D02*
X51456166Y-165187206D01*
X51710166Y-165187206D02*
X51710166Y-164298206D01*
X51625500Y-164425206D01*
X51540833Y-164509873D01*
X51456166Y-164552206D01*
X52260500Y-164298206D02*
X52810833Y-164298206D01*
X52514500Y-164636873D01*
X52641500Y-164636873D01*
X52726166Y-164679206D01*
X52768500Y-164721540D01*
X52810833Y-164806206D01*
X52810833Y-165017873D01*
X52768500Y-165102540D01*
X52726166Y-165144873D01*
X52641500Y-165187206D01*
X52387500Y-165187206D01*
X52302833Y-165144873D01*
X52260500Y-165102540D01*
X49436866Y-161755666D02*
X49733200Y-162644666D01*
X50029533Y-161755666D01*
X50325866Y-161755666D02*
X50325866Y-162475333D01*
X50368200Y-162560000D01*
X50410533Y-162602333D01*
X50495200Y-162644666D01*
X50664533Y-162644666D01*
X50749200Y-162602333D01*
X50791533Y-162560000D01*
X50833866Y-162475333D01*
X50833866Y-161755666D01*
X51214866Y-162602333D02*
X51341866Y-162644666D01*
X51553533Y-162644666D01*
X51638200Y-162602333D01*
X51680533Y-162560000D01*
X51722866Y-162475333D01*
X51722866Y-162390666D01*
X51680533Y-162306000D01*
X51638200Y-162263666D01*
X51553533Y-162221333D01*
X51384200Y-162179000D01*
X51299533Y-162136666D01*
X51257200Y-162094333D01*
X51214866Y-162009666D01*
X51214866Y-161925000D01*
X51257200Y-161840333D01*
X51299533Y-161798000D01*
X51384200Y-161755666D01*
X51595866Y-161755666D01*
X51722866Y-161798000D01*
X52400200Y-162179000D02*
X52527200Y-162221333D01*
X52569533Y-162263666D01*
X52611866Y-162348333D01*
X52611866Y-162475333D01*
X52569533Y-162560000D01*
X52527200Y-162602333D01*
X52442533Y-162644666D01*
X52103866Y-162644666D01*
X52103866Y-161755666D01*
X52400200Y-161755666D01*
X52484866Y-161798000D01*
X52527200Y-161840333D01*
X52569533Y-161925000D01*
X52569533Y-162009666D01*
X52527200Y-162094333D01*
X52484866Y-162136666D01*
X52400200Y-162179000D01*
X52103866Y-162179000D01*
X51032833Y-159639000D02*
X51329166Y-159639000D01*
X51456166Y-160104666D02*
X51032833Y-160104666D01*
X51032833Y-159215666D01*
X51456166Y-159215666D01*
X51837166Y-160104666D02*
X51837166Y-159215666D01*
X52345166Y-160104666D01*
X52345166Y-159215666D01*
X50609500Y-170264666D02*
X50609500Y-169375666D01*
X50821166Y-169375666D01*
X50948166Y-169418000D01*
X51032833Y-169502666D01*
X51075166Y-169587333D01*
X51117500Y-169756666D01*
X51117500Y-169883666D01*
X51075166Y-170053000D01*
X51032833Y-170137666D01*
X50948166Y-170222333D01*
X50821166Y-170264666D01*
X50609500Y-170264666D01*
X51456166Y-169460333D02*
X51498500Y-169418000D01*
X51583166Y-169375666D01*
X51794833Y-169375666D01*
X51879500Y-169418000D01*
X51921833Y-169460333D01*
X51964166Y-169545000D01*
X51964166Y-169629666D01*
X51921833Y-169756666D01*
X51413833Y-170264666D01*
X51964166Y-170264666D01*
X52260500Y-169375666D02*
X52853166Y-169375666D01*
X52472166Y-170264666D01*
X50609500Y-172804666D02*
X50609500Y-171915666D01*
X50821166Y-171915666D01*
X50948166Y-171958000D01*
X51032833Y-172042666D01*
X51075166Y-172127333D01*
X51117500Y-172296666D01*
X51117500Y-172423666D01*
X51075166Y-172593000D01*
X51032833Y-172677666D01*
X50948166Y-172762333D01*
X50821166Y-172804666D01*
X50609500Y-172804666D01*
X51413833Y-171915666D02*
X51964166Y-171915666D01*
X51667833Y-172254333D01*
X51794833Y-172254333D01*
X51879500Y-172296666D01*
X51921833Y-172339000D01*
X51964166Y-172423666D01*
X51964166Y-172635333D01*
X51921833Y-172720000D01*
X51879500Y-172762333D01*
X51794833Y-172804666D01*
X51540833Y-172804666D01*
X51456166Y-172762333D01*
X51413833Y-172720000D01*
X52260500Y-171915666D02*
X52810833Y-171915666D01*
X52514500Y-172254333D01*
X52641500Y-172254333D01*
X52726166Y-172296666D01*
X52768500Y-172339000D01*
X52810833Y-172423666D01*
X52810833Y-172635333D01*
X52768500Y-172720000D01*
X52726166Y-172762333D01*
X52641500Y-172804666D01*
X52387500Y-172804666D01*
X52302833Y-172762333D01*
X52260500Y-172720000D01*
X50609500Y-175281166D02*
X50609500Y-174392166D01*
X50821166Y-174392166D01*
X50948166Y-174434500D01*
X51032833Y-174519166D01*
X51075166Y-174603833D01*
X51117500Y-174773166D01*
X51117500Y-174900166D01*
X51075166Y-175069500D01*
X51032833Y-175154166D01*
X50948166Y-175238833D01*
X50821166Y-175281166D01*
X50609500Y-175281166D01*
X51964166Y-175281166D02*
X51456166Y-175281166D01*
X51710166Y-175281166D02*
X51710166Y-174392166D01*
X51625500Y-174519166D01*
X51540833Y-174603833D01*
X51456166Y-174646166D01*
X52768500Y-174392166D02*
X52345166Y-174392166D01*
X52302833Y-174815500D01*
X52345166Y-174773166D01*
X52429833Y-174730833D01*
X52641500Y-174730833D01*
X52726166Y-174773166D01*
X52768500Y-174815500D01*
X52810833Y-174900166D01*
X52810833Y-175111833D01*
X52768500Y-175196500D01*
X52726166Y-175238833D01*
X52641500Y-175281166D01*
X52429833Y-175281166D01*
X52345166Y-175238833D01*
X52302833Y-175196500D01*
X50609500Y-177887206D02*
X50609500Y-176998206D01*
X50821166Y-176998206D01*
X50948166Y-177040540D01*
X51032833Y-177125206D01*
X51075166Y-177209873D01*
X51117500Y-177379206D01*
X51117500Y-177506206D01*
X51075166Y-177675540D01*
X51032833Y-177760206D01*
X50948166Y-177844873D01*
X50821166Y-177887206D01*
X50609500Y-177887206D01*
X51413833Y-176998206D02*
X51964166Y-176998206D01*
X51667833Y-177336873D01*
X51794833Y-177336873D01*
X51879500Y-177379206D01*
X51921833Y-177421540D01*
X51964166Y-177506206D01*
X51964166Y-177717873D01*
X51921833Y-177802540D01*
X51879500Y-177844873D01*
X51794833Y-177887206D01*
X51540833Y-177887206D01*
X51456166Y-177844873D01*
X51413833Y-177802540D01*
X52302833Y-177082873D02*
X52345166Y-177040540D01*
X52429833Y-176998206D01*
X52641500Y-176998206D01*
X52726166Y-177040540D01*
X52768500Y-177082873D01*
X52810833Y-177167540D01*
X52810833Y-177252206D01*
X52768500Y-177379206D01*
X52260500Y-177887206D01*
X52810833Y-177887206D01*
X50609500Y-180424666D02*
X50609500Y-179535666D01*
X50821166Y-179535666D01*
X50948166Y-179578000D01*
X51032833Y-179662666D01*
X51075166Y-179747333D01*
X51117500Y-179916666D01*
X51117500Y-180043666D01*
X51075166Y-180213000D01*
X51032833Y-180297666D01*
X50948166Y-180382333D01*
X50821166Y-180424666D01*
X50609500Y-180424666D01*
X51964166Y-180424666D02*
X51456166Y-180424666D01*
X51710166Y-180424666D02*
X51710166Y-179535666D01*
X51625500Y-179662666D01*
X51540833Y-179747333D01*
X51456166Y-179789666D01*
X52726166Y-179832000D02*
X52726166Y-180424666D01*
X52514500Y-179493333D02*
X52302833Y-180128333D01*
X52853166Y-180128333D01*
X50630666Y-182922333D02*
X50757666Y-182964666D01*
X50969333Y-182964666D01*
X51054000Y-182922333D01*
X51096333Y-182880000D01*
X51138666Y-182795333D01*
X51138666Y-182710666D01*
X51096333Y-182626000D01*
X51054000Y-182583666D01*
X50969333Y-182541333D01*
X50800000Y-182499000D01*
X50715333Y-182456666D01*
X50673000Y-182414333D01*
X50630666Y-182329666D01*
X50630666Y-182245000D01*
X50673000Y-182160333D01*
X50715333Y-182118000D01*
X50800000Y-182075666D01*
X51011666Y-182075666D01*
X51138666Y-182118000D01*
X52027666Y-182880000D02*
X51985333Y-182922333D01*
X51858333Y-182964666D01*
X51773666Y-182964666D01*
X51646666Y-182922333D01*
X51562000Y-182837666D01*
X51519666Y-182753000D01*
X51477333Y-182583666D01*
X51477333Y-182456666D01*
X51519666Y-182287333D01*
X51562000Y-182202666D01*
X51646666Y-182118000D01*
X51773666Y-182075666D01*
X51858333Y-182075666D01*
X51985333Y-182118000D01*
X52027666Y-182160333D01*
X52832000Y-182964666D02*
X52408666Y-182964666D01*
X52408666Y-182075666D01*
X50609500Y-185462333D02*
X50736500Y-185504666D01*
X50948166Y-185504666D01*
X51032833Y-185462333D01*
X51075166Y-185420000D01*
X51117500Y-185335333D01*
X51117500Y-185250666D01*
X51075166Y-185166000D01*
X51032833Y-185123666D01*
X50948166Y-185081333D01*
X50778833Y-185039000D01*
X50694166Y-184996666D01*
X50651833Y-184954333D01*
X50609500Y-184869666D01*
X50609500Y-184785000D01*
X50651833Y-184700333D01*
X50694166Y-184658000D01*
X50778833Y-184615666D01*
X50990500Y-184615666D01*
X51117500Y-184658000D01*
X51498500Y-185504666D02*
X51498500Y-184615666D01*
X51710166Y-184615666D01*
X51837166Y-184658000D01*
X51921833Y-184742666D01*
X51964166Y-184827333D01*
X52006500Y-184996666D01*
X52006500Y-185123666D01*
X51964166Y-185293000D01*
X51921833Y-185377666D01*
X51837166Y-185462333D01*
X51710166Y-185504666D01*
X51498500Y-185504666D01*
X52345166Y-185250666D02*
X52768500Y-185250666D01*
X52260500Y-185504666D02*
X52556833Y-184615666D01*
X52853166Y-185504666D01*
X35496500Y-174963666D02*
X35496500Y-174074666D01*
X35792833Y-174709666D01*
X36089166Y-174074666D01*
X36089166Y-174963666D01*
X36681833Y-174074666D02*
X36851166Y-174074666D01*
X36935833Y-174117000D01*
X37020500Y-174201666D01*
X37062833Y-174371000D01*
X37062833Y-174667333D01*
X37020500Y-174836666D01*
X36935833Y-174921333D01*
X36851166Y-174963666D01*
X36681833Y-174963666D01*
X36597166Y-174921333D01*
X36512500Y-174836666D01*
X36470166Y-174667333D01*
X36470166Y-174371000D01*
X36512500Y-174201666D01*
X36597166Y-174117000D01*
X36681833Y-174074666D01*
X37401500Y-174921333D02*
X37528500Y-174963666D01*
X37740166Y-174963666D01*
X37824833Y-174921333D01*
X37867166Y-174879000D01*
X37909500Y-174794333D01*
X37909500Y-174709666D01*
X37867166Y-174625000D01*
X37824833Y-174582666D01*
X37740166Y-174540333D01*
X37570833Y-174498000D01*
X37486166Y-174455666D01*
X37443833Y-174413333D01*
X37401500Y-174328666D01*
X37401500Y-174244000D01*
X37443833Y-174159333D01*
X37486166Y-174117000D01*
X37570833Y-174074666D01*
X37782500Y-174074666D01*
X37909500Y-174117000D01*
X38290500Y-174963666D02*
X38290500Y-174074666D01*
X35496500Y-177503666D02*
X35496500Y-176614666D01*
X35792833Y-177249666D01*
X36089166Y-176614666D01*
X36089166Y-177503666D01*
X36512500Y-177503666D02*
X36512500Y-176614666D01*
X36893500Y-177461333D02*
X37020500Y-177503666D01*
X37232166Y-177503666D01*
X37316833Y-177461333D01*
X37359166Y-177419000D01*
X37401500Y-177334333D01*
X37401500Y-177249666D01*
X37359166Y-177165000D01*
X37316833Y-177122666D01*
X37232166Y-177080333D01*
X37062833Y-177038000D01*
X36978166Y-176995666D01*
X36935833Y-176953333D01*
X36893500Y-176868666D01*
X36893500Y-176784000D01*
X36935833Y-176699333D01*
X36978166Y-176657000D01*
X37062833Y-176614666D01*
X37274500Y-176614666D01*
X37401500Y-176657000D01*
X37951833Y-176614666D02*
X38121166Y-176614666D01*
X38205833Y-176657000D01*
X38290500Y-176741666D01*
X38332833Y-176911000D01*
X38332833Y-177207333D01*
X38290500Y-177376666D01*
X38205833Y-177461333D01*
X38121166Y-177503666D01*
X37951833Y-177503666D01*
X37867166Y-177461333D01*
X37782500Y-177376666D01*
X37740166Y-177207333D01*
X37740166Y-176911000D01*
X37782500Y-176741666D01*
X37867166Y-176657000D01*
X37951833Y-176614666D01*
X35538833Y-182586206D02*
X35538833Y-181697206D01*
X35750500Y-181697206D01*
X35877500Y-181739540D01*
X35962166Y-181824206D01*
X36004500Y-181908873D01*
X36046833Y-182078206D01*
X36046833Y-182205206D01*
X36004500Y-182374540D01*
X35962166Y-182459206D01*
X35877500Y-182543873D01*
X35750500Y-182586206D01*
X35538833Y-182586206D01*
X36893500Y-182586206D02*
X36385500Y-182586206D01*
X36639500Y-182586206D02*
X36639500Y-181697206D01*
X36554833Y-181824206D01*
X36470166Y-181908873D01*
X36385500Y-181951206D01*
X37189833Y-181697206D02*
X37782500Y-181697206D01*
X37401500Y-182586206D01*
X37909500Y-182670873D02*
X38586833Y-182670873D01*
X38671500Y-181697206D02*
X39179500Y-181697206D01*
X38925500Y-182586206D02*
X38925500Y-181697206D01*
X39391166Y-181697206D02*
X39983833Y-182586206D01*
X39983833Y-181697206D02*
X39391166Y-182586206D01*
X35814000Y-185441166D02*
X35814000Y-184552166D01*
X36025666Y-184552166D01*
X36152666Y-184594500D01*
X36237333Y-184679166D01*
X36279666Y-184763833D01*
X36322000Y-184933166D01*
X36322000Y-185060166D01*
X36279666Y-185229500D01*
X36237333Y-185314166D01*
X36152666Y-185398833D01*
X36025666Y-185441166D01*
X35814000Y-185441166D01*
X36660666Y-184636833D02*
X36703000Y-184594500D01*
X36787666Y-184552166D01*
X36999333Y-184552166D01*
X37084000Y-184594500D01*
X37126333Y-184636833D01*
X37168666Y-184721500D01*
X37168666Y-184806166D01*
X37126333Y-184933166D01*
X36618333Y-185441166D01*
X37168666Y-185441166D01*
X38015333Y-185441166D02*
X37507333Y-185441166D01*
X37761333Y-185441166D02*
X37761333Y-184552166D01*
X37676666Y-184679166D01*
X37592000Y-184763833D01*
X37507333Y-184806166D01*
X35750500Y-172698833D02*
X35877500Y-172741166D01*
X36089166Y-172741166D01*
X36173833Y-172698833D01*
X36216166Y-172656500D01*
X36258500Y-172571833D01*
X36258500Y-172487166D01*
X36216166Y-172402500D01*
X36173833Y-172360166D01*
X36089166Y-172317833D01*
X35919833Y-172275500D01*
X35835166Y-172233166D01*
X35792833Y-172190833D01*
X35750500Y-172106166D01*
X35750500Y-172021500D01*
X35792833Y-171936833D01*
X35835166Y-171894500D01*
X35919833Y-171852166D01*
X36131500Y-171852166D01*
X36258500Y-171894500D01*
X37147500Y-172656500D02*
X37105166Y-172698833D01*
X36978166Y-172741166D01*
X36893500Y-172741166D01*
X36766500Y-172698833D01*
X36681833Y-172614166D01*
X36639500Y-172529500D01*
X36597166Y-172360166D01*
X36597166Y-172233166D01*
X36639500Y-172063833D01*
X36681833Y-171979166D01*
X36766500Y-171894500D01*
X36893500Y-171852166D01*
X36978166Y-171852166D01*
X37105166Y-171894500D01*
X37147500Y-171936833D01*
X37528500Y-172741166D02*
X37528500Y-171852166D01*
X38036500Y-172741166D02*
X37655500Y-172233166D01*
X38036500Y-171852166D02*
X37528500Y-172360166D01*
X35771666Y-148992166D02*
X36322000Y-148992166D01*
X36025666Y-149330833D01*
X36152666Y-149330833D01*
X36237333Y-149373166D01*
X36279666Y-149415500D01*
X36322000Y-149500166D01*
X36322000Y-149711833D01*
X36279666Y-149796500D01*
X36237333Y-149838833D01*
X36152666Y-149881166D01*
X35898666Y-149881166D01*
X35814000Y-149838833D01*
X35771666Y-149796500D01*
X36703000Y-149796500D02*
X36745333Y-149838833D01*
X36703000Y-149881166D01*
X36660666Y-149838833D01*
X36703000Y-149796500D01*
X36703000Y-149881166D01*
X37041666Y-148992166D02*
X37592000Y-148992166D01*
X37295666Y-149330833D01*
X37422666Y-149330833D01*
X37507333Y-149373166D01*
X37549666Y-149415500D01*
X37592000Y-149500166D01*
X37592000Y-149711833D01*
X37549666Y-149796500D01*
X37507333Y-149838833D01*
X37422666Y-149881166D01*
X37168666Y-149881166D01*
X37084000Y-149838833D01*
X37041666Y-149796500D01*
X37846000Y-148992166D02*
X38142333Y-149881166D01*
X38438666Y-148992166D01*
X43328166Y-140991166D02*
X43328166Y-141710833D01*
X43370500Y-141795500D01*
X43412833Y-141837833D01*
X43497500Y-141880166D01*
X43666833Y-141880166D01*
X43751500Y-141837833D01*
X43793833Y-141795500D01*
X43836166Y-141710833D01*
X43836166Y-140991166D01*
X44217166Y-141837833D02*
X44344166Y-141880166D01*
X44555833Y-141880166D01*
X44640500Y-141837833D01*
X44682833Y-141795500D01*
X44725166Y-141710833D01*
X44725166Y-141626166D01*
X44682833Y-141541500D01*
X44640500Y-141499166D01*
X44555833Y-141456833D01*
X44386500Y-141414500D01*
X44301833Y-141372166D01*
X44259500Y-141329833D01*
X44217166Y-141245166D01*
X44217166Y-141160500D01*
X44259500Y-141075833D01*
X44301833Y-141033500D01*
X44386500Y-140991166D01*
X44598166Y-140991166D01*
X44725166Y-141033500D01*
X45402500Y-141414500D02*
X45529500Y-141456833D01*
X45571833Y-141499166D01*
X45614166Y-141583833D01*
X45614166Y-141710833D01*
X45571833Y-141795500D01*
X45529500Y-141837833D01*
X45444833Y-141880166D01*
X45106166Y-141880166D01*
X45106166Y-140991166D01*
X45402500Y-140991166D01*
X45487166Y-141033500D01*
X45529500Y-141075833D01*
X45571833Y-141160500D01*
X45571833Y-141245166D01*
X45529500Y-141329833D01*
X45487166Y-141372166D01*
X45402500Y-141414500D01*
X45106166Y-141414500D01*
G04 #@! TO.C,U4*
X69262171Y-172803457D02*
X69755657Y-172803457D01*
X69813714Y-172774428D01*
X69842742Y-172745400D01*
X69871771Y-172687342D01*
X69871771Y-172571228D01*
X69842742Y-172513171D01*
X69813714Y-172484142D01*
X69755657Y-172455114D01*
X69262171Y-172455114D01*
X69465371Y-171903571D02*
X69871771Y-171903571D01*
X69233142Y-172048714D02*
X69668571Y-172193857D01*
X69668571Y-171816485D01*
G04 #@! TO.C,U5*
X44497171Y-176359457D02*
X44990657Y-176359457D01*
X45048714Y-176330428D01*
X45077742Y-176301400D01*
X45106771Y-176243342D01*
X45106771Y-176127228D01*
X45077742Y-176069171D01*
X45048714Y-176040142D01*
X44990657Y-176011114D01*
X44497171Y-176011114D01*
X44497171Y-175430542D02*
X44497171Y-175720828D01*
X44787457Y-175749857D01*
X44758428Y-175720828D01*
X44729400Y-175662771D01*
X44729400Y-175517628D01*
X44758428Y-175459571D01*
X44787457Y-175430542D01*
X44845514Y-175401514D01*
X44990657Y-175401514D01*
X45048714Y-175430542D01*
X45077742Y-175459571D01*
X45106771Y-175517628D01*
X45106771Y-175662771D01*
X45077742Y-175720828D01*
X45048714Y-175749857D01*
G04 #@! TO.C,R7*
D18*
X65363285Y-173734000D02*
X65006142Y-173984000D01*
X65363285Y-174162571D02*
X64613285Y-174162571D01*
X64613285Y-173876857D01*
X64649000Y-173805428D01*
X64684714Y-173769714D01*
X64756142Y-173734000D01*
X64863285Y-173734000D01*
X64934714Y-173769714D01*
X64970428Y-173805428D01*
X65006142Y-173876857D01*
X65006142Y-174162571D01*
X64613285Y-173484000D02*
X64613285Y-172984000D01*
X65363285Y-173305428D01*
G04 #@! TO.C,JP1*
D17*
X56388000Y-170608171D02*
X56388000Y-171043600D01*
X56358971Y-171130685D01*
X56300914Y-171188742D01*
X56213828Y-171217771D01*
X56155771Y-171217771D01*
X56678285Y-171217771D02*
X56678285Y-170608171D01*
X56910514Y-170608171D01*
X56968571Y-170637200D01*
X56997600Y-170666228D01*
X57026628Y-170724285D01*
X57026628Y-170811371D01*
X56997600Y-170869428D01*
X56968571Y-170898457D01*
X56910514Y-170927485D01*
X56678285Y-170927485D01*
X57607200Y-171217771D02*
X57258857Y-171217771D01*
X57433028Y-171217771D02*
X57433028Y-170608171D01*
X57374971Y-170695257D01*
X57316914Y-170753314D01*
X57258857Y-170782342D01*
G04 #@! TO.C,JP2*
X56388000Y-175942171D02*
X56388000Y-176377600D01*
X56358971Y-176464685D01*
X56300914Y-176522742D01*
X56213828Y-176551771D01*
X56155771Y-176551771D01*
X56678285Y-176551771D02*
X56678285Y-175942171D01*
X56910514Y-175942171D01*
X56968571Y-175971200D01*
X56997600Y-176000228D01*
X57026628Y-176058285D01*
X57026628Y-176145371D01*
X56997600Y-176203428D01*
X56968571Y-176232457D01*
X56910514Y-176261485D01*
X56678285Y-176261485D01*
X57258857Y-176000228D02*
X57287885Y-175971200D01*
X57345942Y-175942171D01*
X57491085Y-175942171D01*
X57549142Y-175971200D01*
X57578171Y-176000228D01*
X57607200Y-176058285D01*
X57607200Y-176116342D01*
X57578171Y-176203428D01*
X57229828Y-176551771D01*
X57607200Y-176551771D01*
G04 #@! TO.C,R8*
D18*
X47950380Y-174791666D02*
X47474190Y-175125000D01*
X47950380Y-175363095D02*
X46950380Y-175363095D01*
X46950380Y-174982142D01*
X46998000Y-174886904D01*
X47045619Y-174839285D01*
X47140857Y-174791666D01*
X47283714Y-174791666D01*
X47378952Y-174839285D01*
X47426571Y-174886904D01*
X47474190Y-174982142D01*
X47474190Y-175363095D01*
X47378952Y-174220238D02*
X47331333Y-174315476D01*
X47283714Y-174363095D01*
X47188476Y-174410714D01*
X47140857Y-174410714D01*
X47045619Y-174363095D01*
X46998000Y-174315476D01*
X46950380Y-174220238D01*
X46950380Y-174029761D01*
X46998000Y-173934523D01*
X47045619Y-173886904D01*
X47140857Y-173839285D01*
X47188476Y-173839285D01*
X47283714Y-173886904D01*
X47331333Y-173934523D01*
X47378952Y-174029761D01*
X47378952Y-174220238D01*
X47426571Y-174315476D01*
X47474190Y-174363095D01*
X47569428Y-174410714D01*
X47759904Y-174410714D01*
X47855142Y-174363095D01*
X47902761Y-174315476D01*
X47950380Y-174220238D01*
X47950380Y-174029761D01*
X47902761Y-173934523D01*
X47855142Y-173886904D01*
X47759904Y-173839285D01*
X47569428Y-173839285D01*
X47474190Y-173886904D01*
X47426571Y-173934523D01*
X47378952Y-174029761D01*
G04 #@! TO.C,C7*
D17*
X25998714Y-166598600D02*
X26027742Y-166627628D01*
X26056771Y-166714714D01*
X26056771Y-166772771D01*
X26027742Y-166859857D01*
X25969685Y-166917914D01*
X25911628Y-166946942D01*
X25795514Y-166975971D01*
X25708428Y-166975971D01*
X25592314Y-166946942D01*
X25534257Y-166917914D01*
X25476200Y-166859857D01*
X25447171Y-166772771D01*
X25447171Y-166714714D01*
X25476200Y-166627628D01*
X25505228Y-166598600D01*
X25447171Y-166395400D02*
X25447171Y-165989000D01*
X26056771Y-166250257D01*
G04 #@! TO.C,R9*
D18*
X39076333Y-161836380D02*
X38743000Y-161360190D01*
X38504904Y-161836380D02*
X38504904Y-160836380D01*
X38885857Y-160836380D01*
X38981095Y-160884000D01*
X39028714Y-160931619D01*
X39076333Y-161026857D01*
X39076333Y-161169714D01*
X39028714Y-161264952D01*
X38981095Y-161312571D01*
X38885857Y-161360190D01*
X38504904Y-161360190D01*
X39552523Y-161836380D02*
X39743000Y-161836380D01*
X39838238Y-161788761D01*
X39885857Y-161741142D01*
X39981095Y-161598285D01*
X40028714Y-161407809D01*
X40028714Y-161026857D01*
X39981095Y-160931619D01*
X39933476Y-160884000D01*
X39838238Y-160836380D01*
X39647761Y-160836380D01*
X39552523Y-160884000D01*
X39504904Y-160931619D01*
X39457285Y-161026857D01*
X39457285Y-161264952D01*
X39504904Y-161360190D01*
X39552523Y-161407809D01*
X39647761Y-161455428D01*
X39838238Y-161455428D01*
X39933476Y-161407809D01*
X39981095Y-161360190D01*
X40028714Y-161264952D01*
G04 #@! TD*
M02*
