G04 #@! TF.GenerationSoftware,KiCad,Pcbnew,(5.0.0-3-g5ebb6b6)*
G04 #@! TF.CreationDate,2018-10-15T13:07:59-06:00*
G04 #@! TF.ProjectId,DS_Special_Object,44535F5370656369616C5F4F626A6563,rev?*
G04 #@! TF.SameCoordinates,Original*
G04 #@! TF.FileFunction,Paste,Top*
G04 #@! TF.FilePolarity,Positive*
%FSLAX46Y46*%
G04 Gerber Fmt 4.6, Leading zero omitted, Abs format (unit mm)*
G04 Created by KiCad (PCBNEW (5.0.0-3-g5ebb6b6)) date Monday, October 15, 2018 at 01:07:59 PM*
%MOMM*%
%LPD*%
G01*
G04 APERTURE LIST*
%ADD10R,1.500000X3.600000*%
%ADD11C,0.100000*%
%ADD12C,0.875000*%
%ADD13R,0.998220X4.599940*%
%ADD14R,1.597660X3.398520*%
%ADD15R,0.900000X0.800000*%
%ADD16R,0.698500X0.419100*%
%ADD17R,0.299720X0.698500*%
%ADD18R,1.379220X0.797560*%
%ADD19R,0.398780X1.099820*%
%ADD20R,0.299720X1.447800*%
G04 APERTURE END LIST*
D10*
G04 #@! TO.C,L1*
X69064000Y-165989000D03*
X66064000Y-165989000D03*
G04 #@! TD*
D11*
G04 #@! TO.C,C1*
G36*
X61606691Y-166150053D02*
X61627926Y-166153203D01*
X61648750Y-166158419D01*
X61668962Y-166165651D01*
X61688368Y-166174830D01*
X61706781Y-166185866D01*
X61724024Y-166198654D01*
X61739930Y-166213070D01*
X61754346Y-166228976D01*
X61767134Y-166246219D01*
X61778170Y-166264632D01*
X61787349Y-166284038D01*
X61794581Y-166304250D01*
X61799797Y-166325074D01*
X61802947Y-166346309D01*
X61804000Y-166367750D01*
X61804000Y-166880250D01*
X61802947Y-166901691D01*
X61799797Y-166922926D01*
X61794581Y-166943750D01*
X61787349Y-166963962D01*
X61778170Y-166983368D01*
X61767134Y-167001781D01*
X61754346Y-167019024D01*
X61739930Y-167034930D01*
X61724024Y-167049346D01*
X61706781Y-167062134D01*
X61688368Y-167073170D01*
X61668962Y-167082349D01*
X61648750Y-167089581D01*
X61627926Y-167094797D01*
X61606691Y-167097947D01*
X61585250Y-167099000D01*
X61147750Y-167099000D01*
X61126309Y-167097947D01*
X61105074Y-167094797D01*
X61084250Y-167089581D01*
X61064038Y-167082349D01*
X61044632Y-167073170D01*
X61026219Y-167062134D01*
X61008976Y-167049346D01*
X60993070Y-167034930D01*
X60978654Y-167019024D01*
X60965866Y-167001781D01*
X60954830Y-166983368D01*
X60945651Y-166963962D01*
X60938419Y-166943750D01*
X60933203Y-166922926D01*
X60930053Y-166901691D01*
X60929000Y-166880250D01*
X60929000Y-166367750D01*
X60930053Y-166346309D01*
X60933203Y-166325074D01*
X60938419Y-166304250D01*
X60945651Y-166284038D01*
X60954830Y-166264632D01*
X60965866Y-166246219D01*
X60978654Y-166228976D01*
X60993070Y-166213070D01*
X61008976Y-166198654D01*
X61026219Y-166185866D01*
X61044632Y-166174830D01*
X61064038Y-166165651D01*
X61084250Y-166158419D01*
X61105074Y-166153203D01*
X61126309Y-166150053D01*
X61147750Y-166149000D01*
X61585250Y-166149000D01*
X61606691Y-166150053D01*
X61606691Y-166150053D01*
G37*
D12*
X61366500Y-166624000D03*
D11*
G36*
X60031691Y-166150053D02*
X60052926Y-166153203D01*
X60073750Y-166158419D01*
X60093962Y-166165651D01*
X60113368Y-166174830D01*
X60131781Y-166185866D01*
X60149024Y-166198654D01*
X60164930Y-166213070D01*
X60179346Y-166228976D01*
X60192134Y-166246219D01*
X60203170Y-166264632D01*
X60212349Y-166284038D01*
X60219581Y-166304250D01*
X60224797Y-166325074D01*
X60227947Y-166346309D01*
X60229000Y-166367750D01*
X60229000Y-166880250D01*
X60227947Y-166901691D01*
X60224797Y-166922926D01*
X60219581Y-166943750D01*
X60212349Y-166963962D01*
X60203170Y-166983368D01*
X60192134Y-167001781D01*
X60179346Y-167019024D01*
X60164930Y-167034930D01*
X60149024Y-167049346D01*
X60131781Y-167062134D01*
X60113368Y-167073170D01*
X60093962Y-167082349D01*
X60073750Y-167089581D01*
X60052926Y-167094797D01*
X60031691Y-167097947D01*
X60010250Y-167099000D01*
X59572750Y-167099000D01*
X59551309Y-167097947D01*
X59530074Y-167094797D01*
X59509250Y-167089581D01*
X59489038Y-167082349D01*
X59469632Y-167073170D01*
X59451219Y-167062134D01*
X59433976Y-167049346D01*
X59418070Y-167034930D01*
X59403654Y-167019024D01*
X59390866Y-167001781D01*
X59379830Y-166983368D01*
X59370651Y-166963962D01*
X59363419Y-166943750D01*
X59358203Y-166922926D01*
X59355053Y-166901691D01*
X59354000Y-166880250D01*
X59354000Y-166367750D01*
X59355053Y-166346309D01*
X59358203Y-166325074D01*
X59363419Y-166304250D01*
X59370651Y-166284038D01*
X59379830Y-166264632D01*
X59390866Y-166246219D01*
X59403654Y-166228976D01*
X59418070Y-166213070D01*
X59433976Y-166198654D01*
X59451219Y-166185866D01*
X59469632Y-166174830D01*
X59489038Y-166165651D01*
X59509250Y-166158419D01*
X59530074Y-166153203D01*
X59551309Y-166150053D01*
X59572750Y-166149000D01*
X60010250Y-166149000D01*
X60031691Y-166150053D01*
X60031691Y-166150053D01*
G37*
D12*
X59791500Y-166624000D03*
G04 #@! TD*
D11*
G04 #@! TO.C,C2*
G36*
X61606691Y-168055053D02*
X61627926Y-168058203D01*
X61648750Y-168063419D01*
X61668962Y-168070651D01*
X61688368Y-168079830D01*
X61706781Y-168090866D01*
X61724024Y-168103654D01*
X61739930Y-168118070D01*
X61754346Y-168133976D01*
X61767134Y-168151219D01*
X61778170Y-168169632D01*
X61787349Y-168189038D01*
X61794581Y-168209250D01*
X61799797Y-168230074D01*
X61802947Y-168251309D01*
X61804000Y-168272750D01*
X61804000Y-168785250D01*
X61802947Y-168806691D01*
X61799797Y-168827926D01*
X61794581Y-168848750D01*
X61787349Y-168868962D01*
X61778170Y-168888368D01*
X61767134Y-168906781D01*
X61754346Y-168924024D01*
X61739930Y-168939930D01*
X61724024Y-168954346D01*
X61706781Y-168967134D01*
X61688368Y-168978170D01*
X61668962Y-168987349D01*
X61648750Y-168994581D01*
X61627926Y-168999797D01*
X61606691Y-169002947D01*
X61585250Y-169004000D01*
X61147750Y-169004000D01*
X61126309Y-169002947D01*
X61105074Y-168999797D01*
X61084250Y-168994581D01*
X61064038Y-168987349D01*
X61044632Y-168978170D01*
X61026219Y-168967134D01*
X61008976Y-168954346D01*
X60993070Y-168939930D01*
X60978654Y-168924024D01*
X60965866Y-168906781D01*
X60954830Y-168888368D01*
X60945651Y-168868962D01*
X60938419Y-168848750D01*
X60933203Y-168827926D01*
X60930053Y-168806691D01*
X60929000Y-168785250D01*
X60929000Y-168272750D01*
X60930053Y-168251309D01*
X60933203Y-168230074D01*
X60938419Y-168209250D01*
X60945651Y-168189038D01*
X60954830Y-168169632D01*
X60965866Y-168151219D01*
X60978654Y-168133976D01*
X60993070Y-168118070D01*
X61008976Y-168103654D01*
X61026219Y-168090866D01*
X61044632Y-168079830D01*
X61064038Y-168070651D01*
X61084250Y-168063419D01*
X61105074Y-168058203D01*
X61126309Y-168055053D01*
X61147750Y-168054000D01*
X61585250Y-168054000D01*
X61606691Y-168055053D01*
X61606691Y-168055053D01*
G37*
D12*
X61366500Y-168529000D03*
D11*
G36*
X60031691Y-168055053D02*
X60052926Y-168058203D01*
X60073750Y-168063419D01*
X60093962Y-168070651D01*
X60113368Y-168079830D01*
X60131781Y-168090866D01*
X60149024Y-168103654D01*
X60164930Y-168118070D01*
X60179346Y-168133976D01*
X60192134Y-168151219D01*
X60203170Y-168169632D01*
X60212349Y-168189038D01*
X60219581Y-168209250D01*
X60224797Y-168230074D01*
X60227947Y-168251309D01*
X60229000Y-168272750D01*
X60229000Y-168785250D01*
X60227947Y-168806691D01*
X60224797Y-168827926D01*
X60219581Y-168848750D01*
X60212349Y-168868962D01*
X60203170Y-168888368D01*
X60192134Y-168906781D01*
X60179346Y-168924024D01*
X60164930Y-168939930D01*
X60149024Y-168954346D01*
X60131781Y-168967134D01*
X60113368Y-168978170D01*
X60093962Y-168987349D01*
X60073750Y-168994581D01*
X60052926Y-168999797D01*
X60031691Y-169002947D01*
X60010250Y-169004000D01*
X59572750Y-169004000D01*
X59551309Y-169002947D01*
X59530074Y-168999797D01*
X59509250Y-168994581D01*
X59489038Y-168987349D01*
X59469632Y-168978170D01*
X59451219Y-168967134D01*
X59433976Y-168954346D01*
X59418070Y-168939930D01*
X59403654Y-168924024D01*
X59390866Y-168906781D01*
X59379830Y-168888368D01*
X59370651Y-168868962D01*
X59363419Y-168848750D01*
X59358203Y-168827926D01*
X59355053Y-168806691D01*
X59354000Y-168785250D01*
X59354000Y-168272750D01*
X59355053Y-168251309D01*
X59358203Y-168230074D01*
X59363419Y-168209250D01*
X59370651Y-168189038D01*
X59379830Y-168169632D01*
X59390866Y-168151219D01*
X59403654Y-168133976D01*
X59418070Y-168118070D01*
X59433976Y-168103654D01*
X59451219Y-168090866D01*
X59469632Y-168079830D01*
X59489038Y-168070651D01*
X59509250Y-168063419D01*
X59530074Y-168058203D01*
X59551309Y-168055053D01*
X59572750Y-168054000D01*
X60010250Y-168054000D01*
X60031691Y-168055053D01*
X60031691Y-168055053D01*
G37*
D12*
X59791500Y-168529000D03*
G04 #@! TD*
D11*
G04 #@! TO.C,R1*
G36*
X65975191Y-176310053D02*
X65996426Y-176313203D01*
X66017250Y-176318419D01*
X66037462Y-176325651D01*
X66056868Y-176334830D01*
X66075281Y-176345866D01*
X66092524Y-176358654D01*
X66108430Y-176373070D01*
X66122846Y-176388976D01*
X66135634Y-176406219D01*
X66146670Y-176424632D01*
X66155849Y-176444038D01*
X66163081Y-176464250D01*
X66168297Y-176485074D01*
X66171447Y-176506309D01*
X66172500Y-176527750D01*
X66172500Y-177040250D01*
X66171447Y-177061691D01*
X66168297Y-177082926D01*
X66163081Y-177103750D01*
X66155849Y-177123962D01*
X66146670Y-177143368D01*
X66135634Y-177161781D01*
X66122846Y-177179024D01*
X66108430Y-177194930D01*
X66092524Y-177209346D01*
X66075281Y-177222134D01*
X66056868Y-177233170D01*
X66037462Y-177242349D01*
X66017250Y-177249581D01*
X65996426Y-177254797D01*
X65975191Y-177257947D01*
X65953750Y-177259000D01*
X65516250Y-177259000D01*
X65494809Y-177257947D01*
X65473574Y-177254797D01*
X65452750Y-177249581D01*
X65432538Y-177242349D01*
X65413132Y-177233170D01*
X65394719Y-177222134D01*
X65377476Y-177209346D01*
X65361570Y-177194930D01*
X65347154Y-177179024D01*
X65334366Y-177161781D01*
X65323330Y-177143368D01*
X65314151Y-177123962D01*
X65306919Y-177103750D01*
X65301703Y-177082926D01*
X65298553Y-177061691D01*
X65297500Y-177040250D01*
X65297500Y-176527750D01*
X65298553Y-176506309D01*
X65301703Y-176485074D01*
X65306919Y-176464250D01*
X65314151Y-176444038D01*
X65323330Y-176424632D01*
X65334366Y-176406219D01*
X65347154Y-176388976D01*
X65361570Y-176373070D01*
X65377476Y-176358654D01*
X65394719Y-176345866D01*
X65413132Y-176334830D01*
X65432538Y-176325651D01*
X65452750Y-176318419D01*
X65473574Y-176313203D01*
X65494809Y-176310053D01*
X65516250Y-176309000D01*
X65953750Y-176309000D01*
X65975191Y-176310053D01*
X65975191Y-176310053D01*
G37*
D12*
X65735000Y-176784000D03*
D11*
G36*
X67550191Y-176310053D02*
X67571426Y-176313203D01*
X67592250Y-176318419D01*
X67612462Y-176325651D01*
X67631868Y-176334830D01*
X67650281Y-176345866D01*
X67667524Y-176358654D01*
X67683430Y-176373070D01*
X67697846Y-176388976D01*
X67710634Y-176406219D01*
X67721670Y-176424632D01*
X67730849Y-176444038D01*
X67738081Y-176464250D01*
X67743297Y-176485074D01*
X67746447Y-176506309D01*
X67747500Y-176527750D01*
X67747500Y-177040250D01*
X67746447Y-177061691D01*
X67743297Y-177082926D01*
X67738081Y-177103750D01*
X67730849Y-177123962D01*
X67721670Y-177143368D01*
X67710634Y-177161781D01*
X67697846Y-177179024D01*
X67683430Y-177194930D01*
X67667524Y-177209346D01*
X67650281Y-177222134D01*
X67631868Y-177233170D01*
X67612462Y-177242349D01*
X67592250Y-177249581D01*
X67571426Y-177254797D01*
X67550191Y-177257947D01*
X67528750Y-177259000D01*
X67091250Y-177259000D01*
X67069809Y-177257947D01*
X67048574Y-177254797D01*
X67027750Y-177249581D01*
X67007538Y-177242349D01*
X66988132Y-177233170D01*
X66969719Y-177222134D01*
X66952476Y-177209346D01*
X66936570Y-177194930D01*
X66922154Y-177179024D01*
X66909366Y-177161781D01*
X66898330Y-177143368D01*
X66889151Y-177123962D01*
X66881919Y-177103750D01*
X66876703Y-177082926D01*
X66873553Y-177061691D01*
X66872500Y-177040250D01*
X66872500Y-176527750D01*
X66873553Y-176506309D01*
X66876703Y-176485074D01*
X66881919Y-176464250D01*
X66889151Y-176444038D01*
X66898330Y-176424632D01*
X66909366Y-176406219D01*
X66922154Y-176388976D01*
X66936570Y-176373070D01*
X66952476Y-176358654D01*
X66969719Y-176345866D01*
X66988132Y-176334830D01*
X67007538Y-176325651D01*
X67027750Y-176318419D01*
X67048574Y-176313203D01*
X67069809Y-176310053D01*
X67091250Y-176309000D01*
X67528750Y-176309000D01*
X67550191Y-176310053D01*
X67550191Y-176310053D01*
G37*
D12*
X67310000Y-176784000D03*
G04 #@! TD*
D11*
G04 #@! TO.C,R2*
G36*
X64146691Y-176310053D02*
X64167926Y-176313203D01*
X64188750Y-176318419D01*
X64208962Y-176325651D01*
X64228368Y-176334830D01*
X64246781Y-176345866D01*
X64264024Y-176358654D01*
X64279930Y-176373070D01*
X64294346Y-176388976D01*
X64307134Y-176406219D01*
X64318170Y-176424632D01*
X64327349Y-176444038D01*
X64334581Y-176464250D01*
X64339797Y-176485074D01*
X64342947Y-176506309D01*
X64344000Y-176527750D01*
X64344000Y-177040250D01*
X64342947Y-177061691D01*
X64339797Y-177082926D01*
X64334581Y-177103750D01*
X64327349Y-177123962D01*
X64318170Y-177143368D01*
X64307134Y-177161781D01*
X64294346Y-177179024D01*
X64279930Y-177194930D01*
X64264024Y-177209346D01*
X64246781Y-177222134D01*
X64228368Y-177233170D01*
X64208962Y-177242349D01*
X64188750Y-177249581D01*
X64167926Y-177254797D01*
X64146691Y-177257947D01*
X64125250Y-177259000D01*
X63687750Y-177259000D01*
X63666309Y-177257947D01*
X63645074Y-177254797D01*
X63624250Y-177249581D01*
X63604038Y-177242349D01*
X63584632Y-177233170D01*
X63566219Y-177222134D01*
X63548976Y-177209346D01*
X63533070Y-177194930D01*
X63518654Y-177179024D01*
X63505866Y-177161781D01*
X63494830Y-177143368D01*
X63485651Y-177123962D01*
X63478419Y-177103750D01*
X63473203Y-177082926D01*
X63470053Y-177061691D01*
X63469000Y-177040250D01*
X63469000Y-176527750D01*
X63470053Y-176506309D01*
X63473203Y-176485074D01*
X63478419Y-176464250D01*
X63485651Y-176444038D01*
X63494830Y-176424632D01*
X63505866Y-176406219D01*
X63518654Y-176388976D01*
X63533070Y-176373070D01*
X63548976Y-176358654D01*
X63566219Y-176345866D01*
X63584632Y-176334830D01*
X63604038Y-176325651D01*
X63624250Y-176318419D01*
X63645074Y-176313203D01*
X63666309Y-176310053D01*
X63687750Y-176309000D01*
X64125250Y-176309000D01*
X64146691Y-176310053D01*
X64146691Y-176310053D01*
G37*
D12*
X63906500Y-176784000D03*
D11*
G36*
X62571691Y-176310053D02*
X62592926Y-176313203D01*
X62613750Y-176318419D01*
X62633962Y-176325651D01*
X62653368Y-176334830D01*
X62671781Y-176345866D01*
X62689024Y-176358654D01*
X62704930Y-176373070D01*
X62719346Y-176388976D01*
X62732134Y-176406219D01*
X62743170Y-176424632D01*
X62752349Y-176444038D01*
X62759581Y-176464250D01*
X62764797Y-176485074D01*
X62767947Y-176506309D01*
X62769000Y-176527750D01*
X62769000Y-177040250D01*
X62767947Y-177061691D01*
X62764797Y-177082926D01*
X62759581Y-177103750D01*
X62752349Y-177123962D01*
X62743170Y-177143368D01*
X62732134Y-177161781D01*
X62719346Y-177179024D01*
X62704930Y-177194930D01*
X62689024Y-177209346D01*
X62671781Y-177222134D01*
X62653368Y-177233170D01*
X62633962Y-177242349D01*
X62613750Y-177249581D01*
X62592926Y-177254797D01*
X62571691Y-177257947D01*
X62550250Y-177259000D01*
X62112750Y-177259000D01*
X62091309Y-177257947D01*
X62070074Y-177254797D01*
X62049250Y-177249581D01*
X62029038Y-177242349D01*
X62009632Y-177233170D01*
X61991219Y-177222134D01*
X61973976Y-177209346D01*
X61958070Y-177194930D01*
X61943654Y-177179024D01*
X61930866Y-177161781D01*
X61919830Y-177143368D01*
X61910651Y-177123962D01*
X61903419Y-177103750D01*
X61898203Y-177082926D01*
X61895053Y-177061691D01*
X61894000Y-177040250D01*
X61894000Y-176527750D01*
X61895053Y-176506309D01*
X61898203Y-176485074D01*
X61903419Y-176464250D01*
X61910651Y-176444038D01*
X61919830Y-176424632D01*
X61930866Y-176406219D01*
X61943654Y-176388976D01*
X61958070Y-176373070D01*
X61973976Y-176358654D01*
X61991219Y-176345866D01*
X62009632Y-176334830D01*
X62029038Y-176325651D01*
X62049250Y-176318419D01*
X62070074Y-176313203D01*
X62091309Y-176310053D01*
X62112750Y-176309000D01*
X62550250Y-176309000D01*
X62571691Y-176310053D01*
X62571691Y-176310053D01*
G37*
D12*
X62331500Y-176784000D03*
G04 #@! TD*
D11*
G04 #@! TO.C,C3*
G36*
X63396691Y-171420053D02*
X63417926Y-171423203D01*
X63438750Y-171428419D01*
X63458962Y-171435651D01*
X63478368Y-171444830D01*
X63496781Y-171455866D01*
X63514024Y-171468654D01*
X63529930Y-171483070D01*
X63544346Y-171498976D01*
X63557134Y-171516219D01*
X63568170Y-171534632D01*
X63577349Y-171554038D01*
X63584581Y-171574250D01*
X63589797Y-171595074D01*
X63592947Y-171616309D01*
X63594000Y-171637750D01*
X63594000Y-172075250D01*
X63592947Y-172096691D01*
X63589797Y-172117926D01*
X63584581Y-172138750D01*
X63577349Y-172158962D01*
X63568170Y-172178368D01*
X63557134Y-172196781D01*
X63544346Y-172214024D01*
X63529930Y-172229930D01*
X63514024Y-172244346D01*
X63496781Y-172257134D01*
X63478368Y-172268170D01*
X63458962Y-172277349D01*
X63438750Y-172284581D01*
X63417926Y-172289797D01*
X63396691Y-172292947D01*
X63375250Y-172294000D01*
X62862750Y-172294000D01*
X62841309Y-172292947D01*
X62820074Y-172289797D01*
X62799250Y-172284581D01*
X62779038Y-172277349D01*
X62759632Y-172268170D01*
X62741219Y-172257134D01*
X62723976Y-172244346D01*
X62708070Y-172229930D01*
X62693654Y-172214024D01*
X62680866Y-172196781D01*
X62669830Y-172178368D01*
X62660651Y-172158962D01*
X62653419Y-172138750D01*
X62648203Y-172117926D01*
X62645053Y-172096691D01*
X62644000Y-172075250D01*
X62644000Y-171637750D01*
X62645053Y-171616309D01*
X62648203Y-171595074D01*
X62653419Y-171574250D01*
X62660651Y-171554038D01*
X62669830Y-171534632D01*
X62680866Y-171516219D01*
X62693654Y-171498976D01*
X62708070Y-171483070D01*
X62723976Y-171468654D01*
X62741219Y-171455866D01*
X62759632Y-171444830D01*
X62779038Y-171435651D01*
X62799250Y-171428419D01*
X62820074Y-171423203D01*
X62841309Y-171420053D01*
X62862750Y-171419000D01*
X63375250Y-171419000D01*
X63396691Y-171420053D01*
X63396691Y-171420053D01*
G37*
D12*
X63119000Y-171856500D03*
D11*
G36*
X63396691Y-169845053D02*
X63417926Y-169848203D01*
X63438750Y-169853419D01*
X63458962Y-169860651D01*
X63478368Y-169869830D01*
X63496781Y-169880866D01*
X63514024Y-169893654D01*
X63529930Y-169908070D01*
X63544346Y-169923976D01*
X63557134Y-169941219D01*
X63568170Y-169959632D01*
X63577349Y-169979038D01*
X63584581Y-169999250D01*
X63589797Y-170020074D01*
X63592947Y-170041309D01*
X63594000Y-170062750D01*
X63594000Y-170500250D01*
X63592947Y-170521691D01*
X63589797Y-170542926D01*
X63584581Y-170563750D01*
X63577349Y-170583962D01*
X63568170Y-170603368D01*
X63557134Y-170621781D01*
X63544346Y-170639024D01*
X63529930Y-170654930D01*
X63514024Y-170669346D01*
X63496781Y-170682134D01*
X63478368Y-170693170D01*
X63458962Y-170702349D01*
X63438750Y-170709581D01*
X63417926Y-170714797D01*
X63396691Y-170717947D01*
X63375250Y-170719000D01*
X62862750Y-170719000D01*
X62841309Y-170717947D01*
X62820074Y-170714797D01*
X62799250Y-170709581D01*
X62779038Y-170702349D01*
X62759632Y-170693170D01*
X62741219Y-170682134D01*
X62723976Y-170669346D01*
X62708070Y-170654930D01*
X62693654Y-170639024D01*
X62680866Y-170621781D01*
X62669830Y-170603368D01*
X62660651Y-170583962D01*
X62653419Y-170563750D01*
X62648203Y-170542926D01*
X62645053Y-170521691D01*
X62644000Y-170500250D01*
X62644000Y-170062750D01*
X62645053Y-170041309D01*
X62648203Y-170020074D01*
X62653419Y-169999250D01*
X62660651Y-169979038D01*
X62669830Y-169959632D01*
X62680866Y-169941219D01*
X62693654Y-169923976D01*
X62708070Y-169908070D01*
X62723976Y-169893654D01*
X62741219Y-169880866D01*
X62759632Y-169869830D01*
X62779038Y-169860651D01*
X62799250Y-169853419D01*
X62820074Y-169848203D01*
X62841309Y-169845053D01*
X62862750Y-169844000D01*
X63375250Y-169844000D01*
X63396691Y-169845053D01*
X63396691Y-169845053D01*
G37*
D12*
X63119000Y-170281500D03*
G04 #@! TD*
D11*
G04 #@! TO.C,C4*
G36*
X67550191Y-178215053D02*
X67571426Y-178218203D01*
X67592250Y-178223419D01*
X67612462Y-178230651D01*
X67631868Y-178239830D01*
X67650281Y-178250866D01*
X67667524Y-178263654D01*
X67683430Y-178278070D01*
X67697846Y-178293976D01*
X67710634Y-178311219D01*
X67721670Y-178329632D01*
X67730849Y-178349038D01*
X67738081Y-178369250D01*
X67743297Y-178390074D01*
X67746447Y-178411309D01*
X67747500Y-178432750D01*
X67747500Y-178945250D01*
X67746447Y-178966691D01*
X67743297Y-178987926D01*
X67738081Y-179008750D01*
X67730849Y-179028962D01*
X67721670Y-179048368D01*
X67710634Y-179066781D01*
X67697846Y-179084024D01*
X67683430Y-179099930D01*
X67667524Y-179114346D01*
X67650281Y-179127134D01*
X67631868Y-179138170D01*
X67612462Y-179147349D01*
X67592250Y-179154581D01*
X67571426Y-179159797D01*
X67550191Y-179162947D01*
X67528750Y-179164000D01*
X67091250Y-179164000D01*
X67069809Y-179162947D01*
X67048574Y-179159797D01*
X67027750Y-179154581D01*
X67007538Y-179147349D01*
X66988132Y-179138170D01*
X66969719Y-179127134D01*
X66952476Y-179114346D01*
X66936570Y-179099930D01*
X66922154Y-179084024D01*
X66909366Y-179066781D01*
X66898330Y-179048368D01*
X66889151Y-179028962D01*
X66881919Y-179008750D01*
X66876703Y-178987926D01*
X66873553Y-178966691D01*
X66872500Y-178945250D01*
X66872500Y-178432750D01*
X66873553Y-178411309D01*
X66876703Y-178390074D01*
X66881919Y-178369250D01*
X66889151Y-178349038D01*
X66898330Y-178329632D01*
X66909366Y-178311219D01*
X66922154Y-178293976D01*
X66936570Y-178278070D01*
X66952476Y-178263654D01*
X66969719Y-178250866D01*
X66988132Y-178239830D01*
X67007538Y-178230651D01*
X67027750Y-178223419D01*
X67048574Y-178218203D01*
X67069809Y-178215053D01*
X67091250Y-178214000D01*
X67528750Y-178214000D01*
X67550191Y-178215053D01*
X67550191Y-178215053D01*
G37*
D12*
X67310000Y-178689000D03*
D11*
G36*
X65975191Y-178215053D02*
X65996426Y-178218203D01*
X66017250Y-178223419D01*
X66037462Y-178230651D01*
X66056868Y-178239830D01*
X66075281Y-178250866D01*
X66092524Y-178263654D01*
X66108430Y-178278070D01*
X66122846Y-178293976D01*
X66135634Y-178311219D01*
X66146670Y-178329632D01*
X66155849Y-178349038D01*
X66163081Y-178369250D01*
X66168297Y-178390074D01*
X66171447Y-178411309D01*
X66172500Y-178432750D01*
X66172500Y-178945250D01*
X66171447Y-178966691D01*
X66168297Y-178987926D01*
X66163081Y-179008750D01*
X66155849Y-179028962D01*
X66146670Y-179048368D01*
X66135634Y-179066781D01*
X66122846Y-179084024D01*
X66108430Y-179099930D01*
X66092524Y-179114346D01*
X66075281Y-179127134D01*
X66056868Y-179138170D01*
X66037462Y-179147349D01*
X66017250Y-179154581D01*
X65996426Y-179159797D01*
X65975191Y-179162947D01*
X65953750Y-179164000D01*
X65516250Y-179164000D01*
X65494809Y-179162947D01*
X65473574Y-179159797D01*
X65452750Y-179154581D01*
X65432538Y-179147349D01*
X65413132Y-179138170D01*
X65394719Y-179127134D01*
X65377476Y-179114346D01*
X65361570Y-179099930D01*
X65347154Y-179084024D01*
X65334366Y-179066781D01*
X65323330Y-179048368D01*
X65314151Y-179028962D01*
X65306919Y-179008750D01*
X65301703Y-178987926D01*
X65298553Y-178966691D01*
X65297500Y-178945250D01*
X65297500Y-178432750D01*
X65298553Y-178411309D01*
X65301703Y-178390074D01*
X65306919Y-178369250D01*
X65314151Y-178349038D01*
X65323330Y-178329632D01*
X65334366Y-178311219D01*
X65347154Y-178293976D01*
X65361570Y-178278070D01*
X65377476Y-178263654D01*
X65394719Y-178250866D01*
X65413132Y-178239830D01*
X65432538Y-178230651D01*
X65452750Y-178223419D01*
X65473574Y-178218203D01*
X65494809Y-178215053D01*
X65516250Y-178214000D01*
X65953750Y-178214000D01*
X65975191Y-178215053D01*
X65975191Y-178215053D01*
G37*
D12*
X65735000Y-178689000D03*
G04 #@! TD*
D11*
G04 #@! TO.C,C5*
G36*
X40536691Y-172385053D02*
X40557926Y-172388203D01*
X40578750Y-172393419D01*
X40598962Y-172400651D01*
X40618368Y-172409830D01*
X40636781Y-172420866D01*
X40654024Y-172433654D01*
X40669930Y-172448070D01*
X40684346Y-172463976D01*
X40697134Y-172481219D01*
X40708170Y-172499632D01*
X40717349Y-172519038D01*
X40724581Y-172539250D01*
X40729797Y-172560074D01*
X40732947Y-172581309D01*
X40734000Y-172602750D01*
X40734000Y-173040250D01*
X40732947Y-173061691D01*
X40729797Y-173082926D01*
X40724581Y-173103750D01*
X40717349Y-173123962D01*
X40708170Y-173143368D01*
X40697134Y-173161781D01*
X40684346Y-173179024D01*
X40669930Y-173194930D01*
X40654024Y-173209346D01*
X40636781Y-173222134D01*
X40618368Y-173233170D01*
X40598962Y-173242349D01*
X40578750Y-173249581D01*
X40557926Y-173254797D01*
X40536691Y-173257947D01*
X40515250Y-173259000D01*
X40002750Y-173259000D01*
X39981309Y-173257947D01*
X39960074Y-173254797D01*
X39939250Y-173249581D01*
X39919038Y-173242349D01*
X39899632Y-173233170D01*
X39881219Y-173222134D01*
X39863976Y-173209346D01*
X39848070Y-173194930D01*
X39833654Y-173179024D01*
X39820866Y-173161781D01*
X39809830Y-173143368D01*
X39800651Y-173123962D01*
X39793419Y-173103750D01*
X39788203Y-173082926D01*
X39785053Y-173061691D01*
X39784000Y-173040250D01*
X39784000Y-172602750D01*
X39785053Y-172581309D01*
X39788203Y-172560074D01*
X39793419Y-172539250D01*
X39800651Y-172519038D01*
X39809830Y-172499632D01*
X39820866Y-172481219D01*
X39833654Y-172463976D01*
X39848070Y-172448070D01*
X39863976Y-172433654D01*
X39881219Y-172420866D01*
X39899632Y-172409830D01*
X39919038Y-172400651D01*
X39939250Y-172393419D01*
X39960074Y-172388203D01*
X39981309Y-172385053D01*
X40002750Y-172384000D01*
X40515250Y-172384000D01*
X40536691Y-172385053D01*
X40536691Y-172385053D01*
G37*
D12*
X40259000Y-172821500D03*
D11*
G36*
X40536691Y-173960053D02*
X40557926Y-173963203D01*
X40578750Y-173968419D01*
X40598962Y-173975651D01*
X40618368Y-173984830D01*
X40636781Y-173995866D01*
X40654024Y-174008654D01*
X40669930Y-174023070D01*
X40684346Y-174038976D01*
X40697134Y-174056219D01*
X40708170Y-174074632D01*
X40717349Y-174094038D01*
X40724581Y-174114250D01*
X40729797Y-174135074D01*
X40732947Y-174156309D01*
X40734000Y-174177750D01*
X40734000Y-174615250D01*
X40732947Y-174636691D01*
X40729797Y-174657926D01*
X40724581Y-174678750D01*
X40717349Y-174698962D01*
X40708170Y-174718368D01*
X40697134Y-174736781D01*
X40684346Y-174754024D01*
X40669930Y-174769930D01*
X40654024Y-174784346D01*
X40636781Y-174797134D01*
X40618368Y-174808170D01*
X40598962Y-174817349D01*
X40578750Y-174824581D01*
X40557926Y-174829797D01*
X40536691Y-174832947D01*
X40515250Y-174834000D01*
X40002750Y-174834000D01*
X39981309Y-174832947D01*
X39960074Y-174829797D01*
X39939250Y-174824581D01*
X39919038Y-174817349D01*
X39899632Y-174808170D01*
X39881219Y-174797134D01*
X39863976Y-174784346D01*
X39848070Y-174769930D01*
X39833654Y-174754024D01*
X39820866Y-174736781D01*
X39809830Y-174718368D01*
X39800651Y-174698962D01*
X39793419Y-174678750D01*
X39788203Y-174657926D01*
X39785053Y-174636691D01*
X39784000Y-174615250D01*
X39784000Y-174177750D01*
X39785053Y-174156309D01*
X39788203Y-174135074D01*
X39793419Y-174114250D01*
X39800651Y-174094038D01*
X39809830Y-174074632D01*
X39820866Y-174056219D01*
X39833654Y-174038976D01*
X39848070Y-174023070D01*
X39863976Y-174008654D01*
X39881219Y-173995866D01*
X39899632Y-173984830D01*
X39919038Y-173975651D01*
X39939250Y-173968419D01*
X39960074Y-173963203D01*
X39981309Y-173960053D01*
X40002750Y-173959000D01*
X40515250Y-173959000D01*
X40536691Y-173960053D01*
X40536691Y-173960053D01*
G37*
D12*
X40259000Y-174396500D03*
G04 #@! TD*
D11*
G04 #@! TO.C,C6*
G36*
X45616691Y-172385053D02*
X45637926Y-172388203D01*
X45658750Y-172393419D01*
X45678962Y-172400651D01*
X45698368Y-172409830D01*
X45716781Y-172420866D01*
X45734024Y-172433654D01*
X45749930Y-172448070D01*
X45764346Y-172463976D01*
X45777134Y-172481219D01*
X45788170Y-172499632D01*
X45797349Y-172519038D01*
X45804581Y-172539250D01*
X45809797Y-172560074D01*
X45812947Y-172581309D01*
X45814000Y-172602750D01*
X45814000Y-173040250D01*
X45812947Y-173061691D01*
X45809797Y-173082926D01*
X45804581Y-173103750D01*
X45797349Y-173123962D01*
X45788170Y-173143368D01*
X45777134Y-173161781D01*
X45764346Y-173179024D01*
X45749930Y-173194930D01*
X45734024Y-173209346D01*
X45716781Y-173222134D01*
X45698368Y-173233170D01*
X45678962Y-173242349D01*
X45658750Y-173249581D01*
X45637926Y-173254797D01*
X45616691Y-173257947D01*
X45595250Y-173259000D01*
X45082750Y-173259000D01*
X45061309Y-173257947D01*
X45040074Y-173254797D01*
X45019250Y-173249581D01*
X44999038Y-173242349D01*
X44979632Y-173233170D01*
X44961219Y-173222134D01*
X44943976Y-173209346D01*
X44928070Y-173194930D01*
X44913654Y-173179024D01*
X44900866Y-173161781D01*
X44889830Y-173143368D01*
X44880651Y-173123962D01*
X44873419Y-173103750D01*
X44868203Y-173082926D01*
X44865053Y-173061691D01*
X44864000Y-173040250D01*
X44864000Y-172602750D01*
X44865053Y-172581309D01*
X44868203Y-172560074D01*
X44873419Y-172539250D01*
X44880651Y-172519038D01*
X44889830Y-172499632D01*
X44900866Y-172481219D01*
X44913654Y-172463976D01*
X44928070Y-172448070D01*
X44943976Y-172433654D01*
X44961219Y-172420866D01*
X44979632Y-172409830D01*
X44999038Y-172400651D01*
X45019250Y-172393419D01*
X45040074Y-172388203D01*
X45061309Y-172385053D01*
X45082750Y-172384000D01*
X45595250Y-172384000D01*
X45616691Y-172385053D01*
X45616691Y-172385053D01*
G37*
D12*
X45339000Y-172821500D03*
D11*
G36*
X45616691Y-173960053D02*
X45637926Y-173963203D01*
X45658750Y-173968419D01*
X45678962Y-173975651D01*
X45698368Y-173984830D01*
X45716781Y-173995866D01*
X45734024Y-174008654D01*
X45749930Y-174023070D01*
X45764346Y-174038976D01*
X45777134Y-174056219D01*
X45788170Y-174074632D01*
X45797349Y-174094038D01*
X45804581Y-174114250D01*
X45809797Y-174135074D01*
X45812947Y-174156309D01*
X45814000Y-174177750D01*
X45814000Y-174615250D01*
X45812947Y-174636691D01*
X45809797Y-174657926D01*
X45804581Y-174678750D01*
X45797349Y-174698962D01*
X45788170Y-174718368D01*
X45777134Y-174736781D01*
X45764346Y-174754024D01*
X45749930Y-174769930D01*
X45734024Y-174784346D01*
X45716781Y-174797134D01*
X45698368Y-174808170D01*
X45678962Y-174817349D01*
X45658750Y-174824581D01*
X45637926Y-174829797D01*
X45616691Y-174832947D01*
X45595250Y-174834000D01*
X45082750Y-174834000D01*
X45061309Y-174832947D01*
X45040074Y-174829797D01*
X45019250Y-174824581D01*
X44999038Y-174817349D01*
X44979632Y-174808170D01*
X44961219Y-174797134D01*
X44943976Y-174784346D01*
X44928070Y-174769930D01*
X44913654Y-174754024D01*
X44900866Y-174736781D01*
X44889830Y-174718368D01*
X44880651Y-174698962D01*
X44873419Y-174678750D01*
X44868203Y-174657926D01*
X44865053Y-174636691D01*
X44864000Y-174615250D01*
X44864000Y-174177750D01*
X44865053Y-174156309D01*
X44868203Y-174135074D01*
X44873419Y-174114250D01*
X44880651Y-174094038D01*
X44889830Y-174074632D01*
X44900866Y-174056219D01*
X44913654Y-174038976D01*
X44928070Y-174023070D01*
X44943976Y-174008654D01*
X44961219Y-173995866D01*
X44979632Y-173984830D01*
X44999038Y-173975651D01*
X45019250Y-173968419D01*
X45040074Y-173963203D01*
X45061309Y-173960053D01*
X45082750Y-173959000D01*
X45595250Y-173959000D01*
X45616691Y-173960053D01*
X45616691Y-173960053D01*
G37*
D12*
X45339000Y-174396500D03*
G04 #@! TD*
D13*
G04 #@! TO.C,J1*
X61757558Y-161544000D03*
X63754000Y-161544000D03*
D14*
X59357259Y-156347160D03*
X66154299Y-156347160D03*
G04 #@! TD*
D15*
G04 #@! TO.C,Q1*
X46609000Y-187259000D03*
X46609000Y-185359000D03*
X44609000Y-186309000D03*
G04 #@! TD*
G04 #@! TO.C,Q2*
X44609000Y-181864000D03*
X46609000Y-180914000D03*
X46609000Y-182814000D03*
G04 #@! TD*
D11*
G04 #@! TO.C,R3*
G36*
X49426691Y-186660053D02*
X49447926Y-186663203D01*
X49468750Y-186668419D01*
X49488962Y-186675651D01*
X49508368Y-186684830D01*
X49526781Y-186695866D01*
X49544024Y-186708654D01*
X49559930Y-186723070D01*
X49574346Y-186738976D01*
X49587134Y-186756219D01*
X49598170Y-186774632D01*
X49607349Y-186794038D01*
X49614581Y-186814250D01*
X49619797Y-186835074D01*
X49622947Y-186856309D01*
X49624000Y-186877750D01*
X49624000Y-187315250D01*
X49622947Y-187336691D01*
X49619797Y-187357926D01*
X49614581Y-187378750D01*
X49607349Y-187398962D01*
X49598170Y-187418368D01*
X49587134Y-187436781D01*
X49574346Y-187454024D01*
X49559930Y-187469930D01*
X49544024Y-187484346D01*
X49526781Y-187497134D01*
X49508368Y-187508170D01*
X49488962Y-187517349D01*
X49468750Y-187524581D01*
X49447926Y-187529797D01*
X49426691Y-187532947D01*
X49405250Y-187534000D01*
X48892750Y-187534000D01*
X48871309Y-187532947D01*
X48850074Y-187529797D01*
X48829250Y-187524581D01*
X48809038Y-187517349D01*
X48789632Y-187508170D01*
X48771219Y-187497134D01*
X48753976Y-187484346D01*
X48738070Y-187469930D01*
X48723654Y-187454024D01*
X48710866Y-187436781D01*
X48699830Y-187418368D01*
X48690651Y-187398962D01*
X48683419Y-187378750D01*
X48678203Y-187357926D01*
X48675053Y-187336691D01*
X48674000Y-187315250D01*
X48674000Y-186877750D01*
X48675053Y-186856309D01*
X48678203Y-186835074D01*
X48683419Y-186814250D01*
X48690651Y-186794038D01*
X48699830Y-186774632D01*
X48710866Y-186756219D01*
X48723654Y-186738976D01*
X48738070Y-186723070D01*
X48753976Y-186708654D01*
X48771219Y-186695866D01*
X48789632Y-186684830D01*
X48809038Y-186675651D01*
X48829250Y-186668419D01*
X48850074Y-186663203D01*
X48871309Y-186660053D01*
X48892750Y-186659000D01*
X49405250Y-186659000D01*
X49426691Y-186660053D01*
X49426691Y-186660053D01*
G37*
D12*
X49149000Y-187096500D03*
D11*
G36*
X49426691Y-185085053D02*
X49447926Y-185088203D01*
X49468750Y-185093419D01*
X49488962Y-185100651D01*
X49508368Y-185109830D01*
X49526781Y-185120866D01*
X49544024Y-185133654D01*
X49559930Y-185148070D01*
X49574346Y-185163976D01*
X49587134Y-185181219D01*
X49598170Y-185199632D01*
X49607349Y-185219038D01*
X49614581Y-185239250D01*
X49619797Y-185260074D01*
X49622947Y-185281309D01*
X49624000Y-185302750D01*
X49624000Y-185740250D01*
X49622947Y-185761691D01*
X49619797Y-185782926D01*
X49614581Y-185803750D01*
X49607349Y-185823962D01*
X49598170Y-185843368D01*
X49587134Y-185861781D01*
X49574346Y-185879024D01*
X49559930Y-185894930D01*
X49544024Y-185909346D01*
X49526781Y-185922134D01*
X49508368Y-185933170D01*
X49488962Y-185942349D01*
X49468750Y-185949581D01*
X49447926Y-185954797D01*
X49426691Y-185957947D01*
X49405250Y-185959000D01*
X48892750Y-185959000D01*
X48871309Y-185957947D01*
X48850074Y-185954797D01*
X48829250Y-185949581D01*
X48809038Y-185942349D01*
X48789632Y-185933170D01*
X48771219Y-185922134D01*
X48753976Y-185909346D01*
X48738070Y-185894930D01*
X48723654Y-185879024D01*
X48710866Y-185861781D01*
X48699830Y-185843368D01*
X48690651Y-185823962D01*
X48683419Y-185803750D01*
X48678203Y-185782926D01*
X48675053Y-185761691D01*
X48674000Y-185740250D01*
X48674000Y-185302750D01*
X48675053Y-185281309D01*
X48678203Y-185260074D01*
X48683419Y-185239250D01*
X48690651Y-185219038D01*
X48699830Y-185199632D01*
X48710866Y-185181219D01*
X48723654Y-185163976D01*
X48738070Y-185148070D01*
X48753976Y-185133654D01*
X48771219Y-185120866D01*
X48789632Y-185109830D01*
X48809038Y-185100651D01*
X48829250Y-185093419D01*
X48850074Y-185088203D01*
X48871309Y-185085053D01*
X48892750Y-185084000D01*
X49405250Y-185084000D01*
X49426691Y-185085053D01*
X49426691Y-185085053D01*
G37*
D12*
X49149000Y-185521500D03*
G04 #@! TD*
D11*
G04 #@! TO.C,R4*
G36*
X49426691Y-182215053D02*
X49447926Y-182218203D01*
X49468750Y-182223419D01*
X49488962Y-182230651D01*
X49508368Y-182239830D01*
X49526781Y-182250866D01*
X49544024Y-182263654D01*
X49559930Y-182278070D01*
X49574346Y-182293976D01*
X49587134Y-182311219D01*
X49598170Y-182329632D01*
X49607349Y-182349038D01*
X49614581Y-182369250D01*
X49619797Y-182390074D01*
X49622947Y-182411309D01*
X49624000Y-182432750D01*
X49624000Y-182870250D01*
X49622947Y-182891691D01*
X49619797Y-182912926D01*
X49614581Y-182933750D01*
X49607349Y-182953962D01*
X49598170Y-182973368D01*
X49587134Y-182991781D01*
X49574346Y-183009024D01*
X49559930Y-183024930D01*
X49544024Y-183039346D01*
X49526781Y-183052134D01*
X49508368Y-183063170D01*
X49488962Y-183072349D01*
X49468750Y-183079581D01*
X49447926Y-183084797D01*
X49426691Y-183087947D01*
X49405250Y-183089000D01*
X48892750Y-183089000D01*
X48871309Y-183087947D01*
X48850074Y-183084797D01*
X48829250Y-183079581D01*
X48809038Y-183072349D01*
X48789632Y-183063170D01*
X48771219Y-183052134D01*
X48753976Y-183039346D01*
X48738070Y-183024930D01*
X48723654Y-183009024D01*
X48710866Y-182991781D01*
X48699830Y-182973368D01*
X48690651Y-182953962D01*
X48683419Y-182933750D01*
X48678203Y-182912926D01*
X48675053Y-182891691D01*
X48674000Y-182870250D01*
X48674000Y-182432750D01*
X48675053Y-182411309D01*
X48678203Y-182390074D01*
X48683419Y-182369250D01*
X48690651Y-182349038D01*
X48699830Y-182329632D01*
X48710866Y-182311219D01*
X48723654Y-182293976D01*
X48738070Y-182278070D01*
X48753976Y-182263654D01*
X48771219Y-182250866D01*
X48789632Y-182239830D01*
X48809038Y-182230651D01*
X48829250Y-182223419D01*
X48850074Y-182218203D01*
X48871309Y-182215053D01*
X48892750Y-182214000D01*
X49405250Y-182214000D01*
X49426691Y-182215053D01*
X49426691Y-182215053D01*
G37*
D12*
X49149000Y-182651500D03*
D11*
G36*
X49426691Y-180640053D02*
X49447926Y-180643203D01*
X49468750Y-180648419D01*
X49488962Y-180655651D01*
X49508368Y-180664830D01*
X49526781Y-180675866D01*
X49544024Y-180688654D01*
X49559930Y-180703070D01*
X49574346Y-180718976D01*
X49587134Y-180736219D01*
X49598170Y-180754632D01*
X49607349Y-180774038D01*
X49614581Y-180794250D01*
X49619797Y-180815074D01*
X49622947Y-180836309D01*
X49624000Y-180857750D01*
X49624000Y-181295250D01*
X49622947Y-181316691D01*
X49619797Y-181337926D01*
X49614581Y-181358750D01*
X49607349Y-181378962D01*
X49598170Y-181398368D01*
X49587134Y-181416781D01*
X49574346Y-181434024D01*
X49559930Y-181449930D01*
X49544024Y-181464346D01*
X49526781Y-181477134D01*
X49508368Y-181488170D01*
X49488962Y-181497349D01*
X49468750Y-181504581D01*
X49447926Y-181509797D01*
X49426691Y-181512947D01*
X49405250Y-181514000D01*
X48892750Y-181514000D01*
X48871309Y-181512947D01*
X48850074Y-181509797D01*
X48829250Y-181504581D01*
X48809038Y-181497349D01*
X48789632Y-181488170D01*
X48771219Y-181477134D01*
X48753976Y-181464346D01*
X48738070Y-181449930D01*
X48723654Y-181434024D01*
X48710866Y-181416781D01*
X48699830Y-181398368D01*
X48690651Y-181378962D01*
X48683419Y-181358750D01*
X48678203Y-181337926D01*
X48675053Y-181316691D01*
X48674000Y-181295250D01*
X48674000Y-180857750D01*
X48675053Y-180836309D01*
X48678203Y-180815074D01*
X48683419Y-180794250D01*
X48690651Y-180774038D01*
X48699830Y-180754632D01*
X48710866Y-180736219D01*
X48723654Y-180718976D01*
X48738070Y-180703070D01*
X48753976Y-180688654D01*
X48771219Y-180675866D01*
X48789632Y-180664830D01*
X48809038Y-180655651D01*
X48829250Y-180648419D01*
X48850074Y-180643203D01*
X48871309Y-180640053D01*
X48892750Y-180639000D01*
X49405250Y-180639000D01*
X49426691Y-180640053D01*
X49426691Y-180640053D01*
G37*
D12*
X49149000Y-181076500D03*
G04 #@! TD*
D11*
G04 #@! TO.C,R5*
G36*
X42441691Y-185085053D02*
X42462926Y-185088203D01*
X42483750Y-185093419D01*
X42503962Y-185100651D01*
X42523368Y-185109830D01*
X42541781Y-185120866D01*
X42559024Y-185133654D01*
X42574930Y-185148070D01*
X42589346Y-185163976D01*
X42602134Y-185181219D01*
X42613170Y-185199632D01*
X42622349Y-185219038D01*
X42629581Y-185239250D01*
X42634797Y-185260074D01*
X42637947Y-185281309D01*
X42639000Y-185302750D01*
X42639000Y-185740250D01*
X42637947Y-185761691D01*
X42634797Y-185782926D01*
X42629581Y-185803750D01*
X42622349Y-185823962D01*
X42613170Y-185843368D01*
X42602134Y-185861781D01*
X42589346Y-185879024D01*
X42574930Y-185894930D01*
X42559024Y-185909346D01*
X42541781Y-185922134D01*
X42523368Y-185933170D01*
X42503962Y-185942349D01*
X42483750Y-185949581D01*
X42462926Y-185954797D01*
X42441691Y-185957947D01*
X42420250Y-185959000D01*
X41907750Y-185959000D01*
X41886309Y-185957947D01*
X41865074Y-185954797D01*
X41844250Y-185949581D01*
X41824038Y-185942349D01*
X41804632Y-185933170D01*
X41786219Y-185922134D01*
X41768976Y-185909346D01*
X41753070Y-185894930D01*
X41738654Y-185879024D01*
X41725866Y-185861781D01*
X41714830Y-185843368D01*
X41705651Y-185823962D01*
X41698419Y-185803750D01*
X41693203Y-185782926D01*
X41690053Y-185761691D01*
X41689000Y-185740250D01*
X41689000Y-185302750D01*
X41690053Y-185281309D01*
X41693203Y-185260074D01*
X41698419Y-185239250D01*
X41705651Y-185219038D01*
X41714830Y-185199632D01*
X41725866Y-185181219D01*
X41738654Y-185163976D01*
X41753070Y-185148070D01*
X41768976Y-185133654D01*
X41786219Y-185120866D01*
X41804632Y-185109830D01*
X41824038Y-185100651D01*
X41844250Y-185093419D01*
X41865074Y-185088203D01*
X41886309Y-185085053D01*
X41907750Y-185084000D01*
X42420250Y-185084000D01*
X42441691Y-185085053D01*
X42441691Y-185085053D01*
G37*
D12*
X42164000Y-185521500D03*
D11*
G36*
X42441691Y-186660053D02*
X42462926Y-186663203D01*
X42483750Y-186668419D01*
X42503962Y-186675651D01*
X42523368Y-186684830D01*
X42541781Y-186695866D01*
X42559024Y-186708654D01*
X42574930Y-186723070D01*
X42589346Y-186738976D01*
X42602134Y-186756219D01*
X42613170Y-186774632D01*
X42622349Y-186794038D01*
X42629581Y-186814250D01*
X42634797Y-186835074D01*
X42637947Y-186856309D01*
X42639000Y-186877750D01*
X42639000Y-187315250D01*
X42637947Y-187336691D01*
X42634797Y-187357926D01*
X42629581Y-187378750D01*
X42622349Y-187398962D01*
X42613170Y-187418368D01*
X42602134Y-187436781D01*
X42589346Y-187454024D01*
X42574930Y-187469930D01*
X42559024Y-187484346D01*
X42541781Y-187497134D01*
X42523368Y-187508170D01*
X42503962Y-187517349D01*
X42483750Y-187524581D01*
X42462926Y-187529797D01*
X42441691Y-187532947D01*
X42420250Y-187534000D01*
X41907750Y-187534000D01*
X41886309Y-187532947D01*
X41865074Y-187529797D01*
X41844250Y-187524581D01*
X41824038Y-187517349D01*
X41804632Y-187508170D01*
X41786219Y-187497134D01*
X41768976Y-187484346D01*
X41753070Y-187469930D01*
X41738654Y-187454024D01*
X41725866Y-187436781D01*
X41714830Y-187418368D01*
X41705651Y-187398962D01*
X41698419Y-187378750D01*
X41693203Y-187357926D01*
X41690053Y-187336691D01*
X41689000Y-187315250D01*
X41689000Y-186877750D01*
X41690053Y-186856309D01*
X41693203Y-186835074D01*
X41698419Y-186814250D01*
X41705651Y-186794038D01*
X41714830Y-186774632D01*
X41725866Y-186756219D01*
X41738654Y-186738976D01*
X41753070Y-186723070D01*
X41768976Y-186708654D01*
X41786219Y-186695866D01*
X41804632Y-186684830D01*
X41824038Y-186675651D01*
X41844250Y-186668419D01*
X41865074Y-186663203D01*
X41886309Y-186660053D01*
X41907750Y-186659000D01*
X42420250Y-186659000D01*
X42441691Y-186660053D01*
X42441691Y-186660053D01*
G37*
D12*
X42164000Y-187096500D03*
G04 #@! TD*
D11*
G04 #@! TO.C,R6*
G36*
X42441691Y-180640053D02*
X42462926Y-180643203D01*
X42483750Y-180648419D01*
X42503962Y-180655651D01*
X42523368Y-180664830D01*
X42541781Y-180675866D01*
X42559024Y-180688654D01*
X42574930Y-180703070D01*
X42589346Y-180718976D01*
X42602134Y-180736219D01*
X42613170Y-180754632D01*
X42622349Y-180774038D01*
X42629581Y-180794250D01*
X42634797Y-180815074D01*
X42637947Y-180836309D01*
X42639000Y-180857750D01*
X42639000Y-181295250D01*
X42637947Y-181316691D01*
X42634797Y-181337926D01*
X42629581Y-181358750D01*
X42622349Y-181378962D01*
X42613170Y-181398368D01*
X42602134Y-181416781D01*
X42589346Y-181434024D01*
X42574930Y-181449930D01*
X42559024Y-181464346D01*
X42541781Y-181477134D01*
X42523368Y-181488170D01*
X42503962Y-181497349D01*
X42483750Y-181504581D01*
X42462926Y-181509797D01*
X42441691Y-181512947D01*
X42420250Y-181514000D01*
X41907750Y-181514000D01*
X41886309Y-181512947D01*
X41865074Y-181509797D01*
X41844250Y-181504581D01*
X41824038Y-181497349D01*
X41804632Y-181488170D01*
X41786219Y-181477134D01*
X41768976Y-181464346D01*
X41753070Y-181449930D01*
X41738654Y-181434024D01*
X41725866Y-181416781D01*
X41714830Y-181398368D01*
X41705651Y-181378962D01*
X41698419Y-181358750D01*
X41693203Y-181337926D01*
X41690053Y-181316691D01*
X41689000Y-181295250D01*
X41689000Y-180857750D01*
X41690053Y-180836309D01*
X41693203Y-180815074D01*
X41698419Y-180794250D01*
X41705651Y-180774038D01*
X41714830Y-180754632D01*
X41725866Y-180736219D01*
X41738654Y-180718976D01*
X41753070Y-180703070D01*
X41768976Y-180688654D01*
X41786219Y-180675866D01*
X41804632Y-180664830D01*
X41824038Y-180655651D01*
X41844250Y-180648419D01*
X41865074Y-180643203D01*
X41886309Y-180640053D01*
X41907750Y-180639000D01*
X42420250Y-180639000D01*
X42441691Y-180640053D01*
X42441691Y-180640053D01*
G37*
D12*
X42164000Y-181076500D03*
D11*
G36*
X42441691Y-182215053D02*
X42462926Y-182218203D01*
X42483750Y-182223419D01*
X42503962Y-182230651D01*
X42523368Y-182239830D01*
X42541781Y-182250866D01*
X42559024Y-182263654D01*
X42574930Y-182278070D01*
X42589346Y-182293976D01*
X42602134Y-182311219D01*
X42613170Y-182329632D01*
X42622349Y-182349038D01*
X42629581Y-182369250D01*
X42634797Y-182390074D01*
X42637947Y-182411309D01*
X42639000Y-182432750D01*
X42639000Y-182870250D01*
X42637947Y-182891691D01*
X42634797Y-182912926D01*
X42629581Y-182933750D01*
X42622349Y-182953962D01*
X42613170Y-182973368D01*
X42602134Y-182991781D01*
X42589346Y-183009024D01*
X42574930Y-183024930D01*
X42559024Y-183039346D01*
X42541781Y-183052134D01*
X42523368Y-183063170D01*
X42503962Y-183072349D01*
X42483750Y-183079581D01*
X42462926Y-183084797D01*
X42441691Y-183087947D01*
X42420250Y-183089000D01*
X41907750Y-183089000D01*
X41886309Y-183087947D01*
X41865074Y-183084797D01*
X41844250Y-183079581D01*
X41824038Y-183072349D01*
X41804632Y-183063170D01*
X41786219Y-183052134D01*
X41768976Y-183039346D01*
X41753070Y-183024930D01*
X41738654Y-183009024D01*
X41725866Y-182991781D01*
X41714830Y-182973368D01*
X41705651Y-182953962D01*
X41698419Y-182933750D01*
X41693203Y-182912926D01*
X41690053Y-182891691D01*
X41689000Y-182870250D01*
X41689000Y-182432750D01*
X41690053Y-182411309D01*
X41693203Y-182390074D01*
X41698419Y-182369250D01*
X41705651Y-182349038D01*
X41714830Y-182329632D01*
X41725866Y-182311219D01*
X41738654Y-182293976D01*
X41753070Y-182278070D01*
X41768976Y-182263654D01*
X41786219Y-182250866D01*
X41804632Y-182239830D01*
X41824038Y-182230651D01*
X41844250Y-182223419D01*
X41865074Y-182218203D01*
X41886309Y-182215053D01*
X41907750Y-182214000D01*
X42420250Y-182214000D01*
X42441691Y-182215053D01*
X42441691Y-182215053D01*
G37*
D12*
X42164000Y-182651500D03*
G04 #@! TD*
D16*
G04 #@! TO.C,U1*
X43748960Y-164096700D03*
X43748960Y-163449000D03*
X43748960Y-162801300D03*
X41849040Y-162801300D03*
X41849040Y-164096700D03*
G04 #@! TD*
D17*
G04 #@! TO.C,U2*
X61328300Y-170080940D03*
X60827920Y-170080940D03*
X60330080Y-170080940D03*
X59829700Y-170080940D03*
X59829700Y-172057060D03*
X60330080Y-172057060D03*
X60827920Y-172057060D03*
X61328300Y-172057060D03*
D18*
X60579000Y-171069000D03*
G04 #@! TD*
D19*
G04 #@! TO.C,U4*
X68536820Y-170091100D03*
X67886580Y-170091100D03*
X67241420Y-170091100D03*
X66591180Y-170091100D03*
X66591180Y-174586900D03*
X67241420Y-174586900D03*
X67886580Y-174586900D03*
X68536820Y-174586900D03*
G04 #@! TD*
D20*
G04 #@! TO.C,U5*
X41739820Y-175768000D03*
X42240200Y-175768000D03*
X42740580Y-175768000D03*
X43238420Y-175768000D03*
X43738800Y-175768000D03*
X43738800Y-171368720D03*
X43238420Y-171368720D03*
X42740580Y-171368720D03*
X42240200Y-171368720D03*
X41739820Y-171368720D03*
G04 #@! TD*
D11*
G04 #@! TO.C,R7*
G36*
X65301691Y-169845053D02*
X65322926Y-169848203D01*
X65343750Y-169853419D01*
X65363962Y-169860651D01*
X65383368Y-169869830D01*
X65401781Y-169880866D01*
X65419024Y-169893654D01*
X65434930Y-169908070D01*
X65449346Y-169923976D01*
X65462134Y-169941219D01*
X65473170Y-169959632D01*
X65482349Y-169979038D01*
X65489581Y-169999250D01*
X65494797Y-170020074D01*
X65497947Y-170041309D01*
X65499000Y-170062750D01*
X65499000Y-170500250D01*
X65497947Y-170521691D01*
X65494797Y-170542926D01*
X65489581Y-170563750D01*
X65482349Y-170583962D01*
X65473170Y-170603368D01*
X65462134Y-170621781D01*
X65449346Y-170639024D01*
X65434930Y-170654930D01*
X65419024Y-170669346D01*
X65401781Y-170682134D01*
X65383368Y-170693170D01*
X65363962Y-170702349D01*
X65343750Y-170709581D01*
X65322926Y-170714797D01*
X65301691Y-170717947D01*
X65280250Y-170719000D01*
X64767750Y-170719000D01*
X64746309Y-170717947D01*
X64725074Y-170714797D01*
X64704250Y-170709581D01*
X64684038Y-170702349D01*
X64664632Y-170693170D01*
X64646219Y-170682134D01*
X64628976Y-170669346D01*
X64613070Y-170654930D01*
X64598654Y-170639024D01*
X64585866Y-170621781D01*
X64574830Y-170603368D01*
X64565651Y-170583962D01*
X64558419Y-170563750D01*
X64553203Y-170542926D01*
X64550053Y-170521691D01*
X64549000Y-170500250D01*
X64549000Y-170062750D01*
X64550053Y-170041309D01*
X64553203Y-170020074D01*
X64558419Y-169999250D01*
X64565651Y-169979038D01*
X64574830Y-169959632D01*
X64585866Y-169941219D01*
X64598654Y-169923976D01*
X64613070Y-169908070D01*
X64628976Y-169893654D01*
X64646219Y-169880866D01*
X64664632Y-169869830D01*
X64684038Y-169860651D01*
X64704250Y-169853419D01*
X64725074Y-169848203D01*
X64746309Y-169845053D01*
X64767750Y-169844000D01*
X65280250Y-169844000D01*
X65301691Y-169845053D01*
X65301691Y-169845053D01*
G37*
D12*
X65024000Y-170281500D03*
D11*
G36*
X65301691Y-171420053D02*
X65322926Y-171423203D01*
X65343750Y-171428419D01*
X65363962Y-171435651D01*
X65383368Y-171444830D01*
X65401781Y-171455866D01*
X65419024Y-171468654D01*
X65434930Y-171483070D01*
X65449346Y-171498976D01*
X65462134Y-171516219D01*
X65473170Y-171534632D01*
X65482349Y-171554038D01*
X65489581Y-171574250D01*
X65494797Y-171595074D01*
X65497947Y-171616309D01*
X65499000Y-171637750D01*
X65499000Y-172075250D01*
X65497947Y-172096691D01*
X65494797Y-172117926D01*
X65489581Y-172138750D01*
X65482349Y-172158962D01*
X65473170Y-172178368D01*
X65462134Y-172196781D01*
X65449346Y-172214024D01*
X65434930Y-172229930D01*
X65419024Y-172244346D01*
X65401781Y-172257134D01*
X65383368Y-172268170D01*
X65363962Y-172277349D01*
X65343750Y-172284581D01*
X65322926Y-172289797D01*
X65301691Y-172292947D01*
X65280250Y-172294000D01*
X64767750Y-172294000D01*
X64746309Y-172292947D01*
X64725074Y-172289797D01*
X64704250Y-172284581D01*
X64684038Y-172277349D01*
X64664632Y-172268170D01*
X64646219Y-172257134D01*
X64628976Y-172244346D01*
X64613070Y-172229930D01*
X64598654Y-172214024D01*
X64585866Y-172196781D01*
X64574830Y-172178368D01*
X64565651Y-172158962D01*
X64558419Y-172138750D01*
X64553203Y-172117926D01*
X64550053Y-172096691D01*
X64549000Y-172075250D01*
X64549000Y-171637750D01*
X64550053Y-171616309D01*
X64553203Y-171595074D01*
X64558419Y-171574250D01*
X64565651Y-171554038D01*
X64574830Y-171534632D01*
X64585866Y-171516219D01*
X64598654Y-171498976D01*
X64613070Y-171483070D01*
X64628976Y-171468654D01*
X64646219Y-171455866D01*
X64664632Y-171444830D01*
X64684038Y-171435651D01*
X64704250Y-171428419D01*
X64725074Y-171423203D01*
X64746309Y-171420053D01*
X64767750Y-171419000D01*
X65280250Y-171419000D01*
X65301691Y-171420053D01*
X65301691Y-171420053D01*
G37*
D12*
X65024000Y-171856500D03*
G04 #@! TD*
D11*
G04 #@! TO.C,R8*
G36*
X48004191Y-175941053D02*
X48025426Y-175944203D01*
X48046250Y-175949419D01*
X48066462Y-175956651D01*
X48085868Y-175965830D01*
X48104281Y-175976866D01*
X48121524Y-175989654D01*
X48137430Y-176004070D01*
X48151846Y-176019976D01*
X48164634Y-176037219D01*
X48175670Y-176055632D01*
X48184849Y-176075038D01*
X48192081Y-176095250D01*
X48197297Y-176116074D01*
X48200447Y-176137309D01*
X48201500Y-176158750D01*
X48201500Y-176596250D01*
X48200447Y-176617691D01*
X48197297Y-176638926D01*
X48192081Y-176659750D01*
X48184849Y-176679962D01*
X48175670Y-176699368D01*
X48164634Y-176717781D01*
X48151846Y-176735024D01*
X48137430Y-176750930D01*
X48121524Y-176765346D01*
X48104281Y-176778134D01*
X48085868Y-176789170D01*
X48066462Y-176798349D01*
X48046250Y-176805581D01*
X48025426Y-176810797D01*
X48004191Y-176813947D01*
X47982750Y-176815000D01*
X47470250Y-176815000D01*
X47448809Y-176813947D01*
X47427574Y-176810797D01*
X47406750Y-176805581D01*
X47386538Y-176798349D01*
X47367132Y-176789170D01*
X47348719Y-176778134D01*
X47331476Y-176765346D01*
X47315570Y-176750930D01*
X47301154Y-176735024D01*
X47288366Y-176717781D01*
X47277330Y-176699368D01*
X47268151Y-176679962D01*
X47260919Y-176659750D01*
X47255703Y-176638926D01*
X47252553Y-176617691D01*
X47251500Y-176596250D01*
X47251500Y-176158750D01*
X47252553Y-176137309D01*
X47255703Y-176116074D01*
X47260919Y-176095250D01*
X47268151Y-176075038D01*
X47277330Y-176055632D01*
X47288366Y-176037219D01*
X47301154Y-176019976D01*
X47315570Y-176004070D01*
X47331476Y-175989654D01*
X47348719Y-175976866D01*
X47367132Y-175965830D01*
X47386538Y-175956651D01*
X47406750Y-175949419D01*
X47427574Y-175944203D01*
X47448809Y-175941053D01*
X47470250Y-175940000D01*
X47982750Y-175940000D01*
X48004191Y-175941053D01*
X48004191Y-175941053D01*
G37*
D12*
X47726500Y-176377500D03*
D11*
G36*
X48004191Y-177516053D02*
X48025426Y-177519203D01*
X48046250Y-177524419D01*
X48066462Y-177531651D01*
X48085868Y-177540830D01*
X48104281Y-177551866D01*
X48121524Y-177564654D01*
X48137430Y-177579070D01*
X48151846Y-177594976D01*
X48164634Y-177612219D01*
X48175670Y-177630632D01*
X48184849Y-177650038D01*
X48192081Y-177670250D01*
X48197297Y-177691074D01*
X48200447Y-177712309D01*
X48201500Y-177733750D01*
X48201500Y-178171250D01*
X48200447Y-178192691D01*
X48197297Y-178213926D01*
X48192081Y-178234750D01*
X48184849Y-178254962D01*
X48175670Y-178274368D01*
X48164634Y-178292781D01*
X48151846Y-178310024D01*
X48137430Y-178325930D01*
X48121524Y-178340346D01*
X48104281Y-178353134D01*
X48085868Y-178364170D01*
X48066462Y-178373349D01*
X48046250Y-178380581D01*
X48025426Y-178385797D01*
X48004191Y-178388947D01*
X47982750Y-178390000D01*
X47470250Y-178390000D01*
X47448809Y-178388947D01*
X47427574Y-178385797D01*
X47406750Y-178380581D01*
X47386538Y-178373349D01*
X47367132Y-178364170D01*
X47348719Y-178353134D01*
X47331476Y-178340346D01*
X47315570Y-178325930D01*
X47301154Y-178310024D01*
X47288366Y-178292781D01*
X47277330Y-178274368D01*
X47268151Y-178254962D01*
X47260919Y-178234750D01*
X47255703Y-178213926D01*
X47252553Y-178192691D01*
X47251500Y-178171250D01*
X47251500Y-177733750D01*
X47252553Y-177712309D01*
X47255703Y-177691074D01*
X47260919Y-177670250D01*
X47268151Y-177650038D01*
X47277330Y-177630632D01*
X47288366Y-177612219D01*
X47301154Y-177594976D01*
X47315570Y-177579070D01*
X47331476Y-177564654D01*
X47348719Y-177551866D01*
X47367132Y-177540830D01*
X47386538Y-177531651D01*
X47406750Y-177524419D01*
X47427574Y-177519203D01*
X47448809Y-177516053D01*
X47470250Y-177515000D01*
X47982750Y-177515000D01*
X48004191Y-177516053D01*
X48004191Y-177516053D01*
G37*
D12*
X47726500Y-177952500D03*
G04 #@! TD*
D11*
G04 #@! TO.C,R9*
G36*
X38695691Y-162340053D02*
X38716926Y-162343203D01*
X38737750Y-162348419D01*
X38757962Y-162355651D01*
X38777368Y-162364830D01*
X38795781Y-162375866D01*
X38813024Y-162388654D01*
X38828930Y-162403070D01*
X38843346Y-162418976D01*
X38856134Y-162436219D01*
X38867170Y-162454632D01*
X38876349Y-162474038D01*
X38883581Y-162494250D01*
X38888797Y-162515074D01*
X38891947Y-162536309D01*
X38893000Y-162557750D01*
X38893000Y-163070250D01*
X38891947Y-163091691D01*
X38888797Y-163112926D01*
X38883581Y-163133750D01*
X38876349Y-163153962D01*
X38867170Y-163173368D01*
X38856134Y-163191781D01*
X38843346Y-163209024D01*
X38828930Y-163224930D01*
X38813024Y-163239346D01*
X38795781Y-163252134D01*
X38777368Y-163263170D01*
X38757962Y-163272349D01*
X38737750Y-163279581D01*
X38716926Y-163284797D01*
X38695691Y-163287947D01*
X38674250Y-163289000D01*
X38236750Y-163289000D01*
X38215309Y-163287947D01*
X38194074Y-163284797D01*
X38173250Y-163279581D01*
X38153038Y-163272349D01*
X38133632Y-163263170D01*
X38115219Y-163252134D01*
X38097976Y-163239346D01*
X38082070Y-163224930D01*
X38067654Y-163209024D01*
X38054866Y-163191781D01*
X38043830Y-163173368D01*
X38034651Y-163153962D01*
X38027419Y-163133750D01*
X38022203Y-163112926D01*
X38019053Y-163091691D01*
X38018000Y-163070250D01*
X38018000Y-162557750D01*
X38019053Y-162536309D01*
X38022203Y-162515074D01*
X38027419Y-162494250D01*
X38034651Y-162474038D01*
X38043830Y-162454632D01*
X38054866Y-162436219D01*
X38067654Y-162418976D01*
X38082070Y-162403070D01*
X38097976Y-162388654D01*
X38115219Y-162375866D01*
X38133632Y-162364830D01*
X38153038Y-162355651D01*
X38173250Y-162348419D01*
X38194074Y-162343203D01*
X38215309Y-162340053D01*
X38236750Y-162339000D01*
X38674250Y-162339000D01*
X38695691Y-162340053D01*
X38695691Y-162340053D01*
G37*
D12*
X38455500Y-162814000D03*
D11*
G36*
X40270691Y-162340053D02*
X40291926Y-162343203D01*
X40312750Y-162348419D01*
X40332962Y-162355651D01*
X40352368Y-162364830D01*
X40370781Y-162375866D01*
X40388024Y-162388654D01*
X40403930Y-162403070D01*
X40418346Y-162418976D01*
X40431134Y-162436219D01*
X40442170Y-162454632D01*
X40451349Y-162474038D01*
X40458581Y-162494250D01*
X40463797Y-162515074D01*
X40466947Y-162536309D01*
X40468000Y-162557750D01*
X40468000Y-163070250D01*
X40466947Y-163091691D01*
X40463797Y-163112926D01*
X40458581Y-163133750D01*
X40451349Y-163153962D01*
X40442170Y-163173368D01*
X40431134Y-163191781D01*
X40418346Y-163209024D01*
X40403930Y-163224930D01*
X40388024Y-163239346D01*
X40370781Y-163252134D01*
X40352368Y-163263170D01*
X40332962Y-163272349D01*
X40312750Y-163279581D01*
X40291926Y-163284797D01*
X40270691Y-163287947D01*
X40249250Y-163289000D01*
X39811750Y-163289000D01*
X39790309Y-163287947D01*
X39769074Y-163284797D01*
X39748250Y-163279581D01*
X39728038Y-163272349D01*
X39708632Y-163263170D01*
X39690219Y-163252134D01*
X39672976Y-163239346D01*
X39657070Y-163224930D01*
X39642654Y-163209024D01*
X39629866Y-163191781D01*
X39618830Y-163173368D01*
X39609651Y-163153962D01*
X39602419Y-163133750D01*
X39597203Y-163112926D01*
X39594053Y-163091691D01*
X39593000Y-163070250D01*
X39593000Y-162557750D01*
X39594053Y-162536309D01*
X39597203Y-162515074D01*
X39602419Y-162494250D01*
X39609651Y-162474038D01*
X39618830Y-162454632D01*
X39629866Y-162436219D01*
X39642654Y-162418976D01*
X39657070Y-162403070D01*
X39672976Y-162388654D01*
X39690219Y-162375866D01*
X39708632Y-162364830D01*
X39728038Y-162355651D01*
X39748250Y-162348419D01*
X39769074Y-162343203D01*
X39790309Y-162340053D01*
X39811750Y-162339000D01*
X40249250Y-162339000D01*
X40270691Y-162340053D01*
X40270691Y-162340053D01*
G37*
D12*
X40030500Y-162814000D03*
G04 #@! TD*
M02*
