<?xml version="1.0" encoding="UTF-8" standalone="no"?>
<!-- Created with Inkscape (http://www.inkscape.org/) -->
<svg
   xmlns:dc="http://purl.org/dc/elements/1.1/"
   xmlns:cc="http://web.resource.org/cc/"
   xmlns:rdf="http://www.w3.org/1999/02/22-rdf-syntax-ns#"
   xmlns:svg="http://www.w3.org/2000/svg"
   xmlns="http://www.w3.org/2000/svg"
   xmlns:sodipodi="http://sodipodi.sourceforge.net/DTD/sodipodi-0.dtd"
   xmlns:inkscape="http://www.inkscape.org/namespaces/inkscape"
   id="svg2232"
   sodipodi:version="0.32"
   inkscape:version="0.45.1"
   width="232"
   height="309"
   version="1.0"
   sodipodi:docbase="/home/fabs/Desktop"
   sodipodi:docname="gonzo.svg"
   inkscape:output_extension="org.inkscape.output.svg.inkscape">
  <metadata
     id="metadata2237">
    <rdf:RDF>
      <cc:Work
         rdf:about="">
        <dc:format>image/svg+xml</dc:format>
        <dc:type
           rdf:resource="http://purl.org/dc/dcmitype/StillImage" />
      </cc:Work>
    </rdf:RDF>
  </metadata>
  <defs
     id="defs2235" />
  <sodipodi:namedview
     inkscape:window-height="847"
     inkscape:window-width="1088"
     inkscape:pageshadow="2"
     inkscape:pageopacity="0.0"
     guidetolerance="10.0"
     gridtolerance="10.0"
     objecttolerance="10.0"
     borderopacity="1.0"
     bordercolor="#666666"
     pagecolor="#ffffff"
     id="base"
     inkscape:zoom="3.8705502"
     inkscape:cx="116"
     inkscape:cy="257.84448"
     inkscape:window-x="2"
     inkscape:window-y="25"
     inkscape:current-layer="svg2232" />
  <path
     style="fill:#000000"
     d="M 110.78791,278.86979 C 109.80083,275.09517 110.02282,170.38457 111.0258,166.65978 C 111.98139,163.111 116.02425,158.13737 116.02425,160.51056 C 116.02425,161.14581 116.47425,161.66555 117.02425,161.66555 C 117.57425,161.66555 118.02425,160.54055 118.02425,159.16555 C 118.02425,157.57871 118.58802,156.66555 119.5677,156.66555 C 122.51544,156.66555 120.81705,222.40746 116.95846,257.66555 C 115.30806,272.74615 112.08388,283.82559 110.78791,278.86979 z M 105.02425,257.3079 C 105.02425,255.36953 104.5939,253.51762 104.06792,253.19254 C 103.54194,252.86747 103.36509,251.94091 103.67491,251.13352 C 103.98474,250.32614 103.79116,249.66555 103.24474,249.66555 C 101.92676,249.66555 101.12708,243.96272 102.28298,242.80682 C 102.82361,242.26619 102.65553,241.04799 101.86581,239.78345 C 100.77572,238.03795 100.77285,237.29776 101.84944,235.57386 C 102.96589,233.78614 102.90563,233.2993 101.43481,232.22381 C 100.1284,231.26854 99.855848,230.09072 100.30323,227.33382 C 100.62736,225.33643 100.4673,223.43937 99.947528,223.11813 C 98.849928,222.43978 99.087148,216.74471 100.24275,216.03051 C 101.64285,215.1652 101.06527,212.66555 99.465228,212.66555 C 98.501788,212.66555 98.191348,212.20419 98.652608,211.45785 C 99.736678,209.7038 100.02734,205.66555 99.069528,205.66555 C 97.916458,205.66555 97.169238,199.69397 98.239538,199.03249 C 98.724538,198.73274 98.618288,197.88132 98.003408,197.14044 C 97.178118,196.14603 97.187328,195.22935 98.038598,193.63874 C 98.915308,192.0006 98.902768,190.78648 97.986298,188.57392 C 97.030668,186.26684 97.045978,185.34429 98.060168,184.12226 C 99.029168,182.95469 99.058688,182.29999 98.181868,181.42317 C 96.624268,179.86557 96.569138,156.66555 98.123038,156.66555 C 100.41856,156.66555 104.85719,162.81072 105.88673,167.41418 C 107.52799,174.75286 107.88269,259.87674 106.27425,260.41438 C 105.43166,260.69603 105.02425,259.68353 105.02425,257.3079 z M 107.02425,161.13037 C 107.02425,159.06561 104.07408,154.67375 102.65924,154.63228 C 99.772558,154.54767 97.337048,150.9545 96.738008,145.89655 C 95.983178,139.52316 96.144198,139.45281 110.52425,139.8732 L 120.52425,140.16555 L 120.82432,145.92126 C 121.11102,151.42033 120.99954,151.72428 118.32432,152.73788 C 114.8014,154.07265 111.07421,157.48688 109.9429,160.41555 C 108.95532,162.97214 107.02425,163.44508 107.02425,161.13037 z M 40.573513,146.9884 C 33.999795,143.4304 30.901826,136.03451 32.145697,126.86838 C 32.984234,120.68917 35.058081,117.2884 40.065833,113.88067 C 46.314055,109.62882 46.492507,110.06753 46.796807,130.42843 C 47.099246,150.66491 47.144365,150.54485 40.573513,146.9884 z M 51.44789,147.32716 C 51.165416,146.59104 51.067039,142.42854 51.229275,138.07716 L 51.524248,130.16555 L 56.224558,129.6251 C 58.809729,129.32785 61.905532,129.44741 63.104121,129.8908 C 64.966363,130.57969 65.2084,131.25593 64.767975,134.53954 C 64.484506,136.65296 63.465522,140.04072 62.503567,142.06789 C 60.042139,147.25496 52.751131,150.72335 51.44789,147.32716 z M 159.94593,146.39175 C 153.99587,142.38201 152.02425,138.34348 152.02425,130.16555 C 152.02425,124.3407 152.45505,122.32834 154.27425,119.65538 C 157.27888,115.24067 160.94263,112.64936 164.55526,112.3838 L 167.52425,112.16555 L 167.79681,130.41555 L 168.06937,148.66555 L 165.69469,148.66555 C 164.38862,148.66555 161.80168,147.64234 159.94593,146.39175 z M 173.02425,132.74734 C 173.02425,123.99232 172.80398,116.22982 172.53475,115.49734 C 172.26553,114.76485 172.44705,113.53435 172.93812,112.76288 C 173.68005,111.59733 174.65029,111.76638 178.67762,113.76288 C 185.22775,117.01004 188.40491,122.69083 188.3849,131.11963 C 188.37616,134.80291 187.71712,138.41539 186.69845,140.36386 C 184.51833,144.53388 179.03449,148.66555 175.67986,148.66555 L 173.02425,148.66555 L 173.02425,132.74734 z M 71.361294,137.06003 C 67.424276,135.11829 65.662992,131.02731 65.881783,124.33263 C 66.066369,118.68458 68.042698,115.11656 72.336058,112.6802 C 76.053869,110.57045 76.802781,111.91417 77.065299,121.16555 C 77.590888,139.68779 77.455301,140.06561 71.361294,137.06003 z M 80.690915,137.99888 C 80.324248,137.63222 80.024248,131.76809 80.024248,124.9675 C 80.024248,111.22518 80.484388,110.30078 85.924573,113.11401 C 92.237779,116.37869 94.695088,124.63388 91.477591,131.76902 C 89.232089,136.74865 83.025379,140.33335 80.690915,137.99888 z M 127.27425,137.93334 C 124.93675,137.72281 123.02425,137.28767 123.02425,136.96636 C 123.02425,136.64505 125.43054,132.50843 128.37156,127.77386 C 131.31258,123.03929 134.72428,117.47805 135.95312,115.41555 C 138.1333,111.7563 138.33059,111.66555 144.10581,111.66555 C 150.41321,111.66555 151.23561,112.49108 148.63168,116.20871 C 147.86577,117.3022 144.64829,122.46483 141.48171,127.68121 C 135.71774,137.17637 134.39254,138.77332 132.52425,138.47553 C 131.97425,138.38786 129.61175,138.14388 127.27425,137.93334 z M 140.02425,137.49553 C 140.02425,135.5647 147.44504,124.6592 148.52425,125.00403 C 150.10728,125.50985 150.37649,136.82588 148.82885,137.80748 C 146.82159,139.08059 140.02425,138.83976 140.02425,137.49553 z M 95.243978,124.96886 L 95.524248,112.16555 L 100.52425,112.16555 L 105.52425,112.16555 L 105.52425,124.66555 L 105.52425,137.16555 L 100.24398,137.46886 L 94.963698,137.77217 L 95.243978,124.96886 z M 108.71054,136.29041 C 107.90372,134.18787 108.44447,114.33485 109.34722,112.91555 C 110.70411,110.78225 115.91207,111.46246 118.5697,114.1201 C 120.86542,116.41581 121.02425,117.25702 121.02425,127.1201 L 121.02425,137.66555 L 115.13124,137.66555 C 111.05332,137.66555 109.0757,137.242 108.71054,136.29041 z M 56.210037,119.0865 C 50.295513,111.9252 50.494064,111.33712 58.651308,111.85574 L 63.524248,112.16555 L 63.524248,118.58222 C 63.524248,122.11138 63.074248,125.11634 62.524248,125.25991 C 61.974248,125.40347 59.132853,122.62544 56.210037,119.0865 z M 123.22856,118.91555 L 123.52425,112.16555 L 127.40603,111.84733 C 129.54101,111.67231 131.67871,111.92001 132.15649,112.39779 C 133.13905,113.38035 125.54089,125.66555 123.95064,125.66555 C 123.3316,125.66555 123.04871,123.02113 123.22856,118.91555 z M 94.669868,109.18444 C 94.344688,108.33702 94.344328,106.31515 94.669078,104.6914 C 95.822478,98.924396 94.456338,97.120966 80.488941,85.972228 L 66.966598,75.17874 L 67.245423,63.182558 L 67.524248,51.186376 L 77.024248,45.939389 C 82.249248,43.053546 86.98252,40.68636 87.542631,40.678976 C 88.102742,40.671592 89.328267,41.903051 90.266022,43.415551 C 91.676377,45.690308 91.975628,45.832189 91.997639,44.236549 C 92.012274,43.175598 91.615205,40.925598 91.115263,39.236549 C 90.615321,37.5475 89.462749,32.147298 88.553992,27.236099 C 86.959787,18.62053 86.968696,18.216289 88.807444,15.736099 C 91.047945,12.714009 99.127038,10.611415 101.86878,12.336873 C 104.29256,13.862233 105.46874,26.357871 105.12116,46.889871 C 105.03034,52.254556 104.82706,52.716159 101.88564,54.23723 C 97.684608,56.409668 94.473028,54.974527 93.476758,50.479602 C 92.754393,47.220432 92.713687,47.26941 91.018648,53.437184 C 90.070679,56.886583 88.530268,60.553912 87.595513,61.586804 C 85.389778,64.024114 86.35003,70.255976 89.039705,70.959342 C 90.04478,71.222175 91.76958,73.206199 92.872593,75.368283 C 93.975608,77.530368 95.545808,79.853518 96.361928,80.530839 C 98.422228,82.240731 104.20699,83.041451 108.577,82.221633 C 112.29431,81.524262 117.02425,77.491524 117.02425,75.019528 C 117.02425,72.938252 115.3231,73.414734 114.73582,75.660504 C 114.44889,76.757728 113.38391,77.951128 112.36919,78.312504 C 111.35447,78.673879 109.73492,79.647549 108.77019,80.476215 C 107.35777,81.689424 106.52082,81.757204 104.47313,80.824215 C 103.07449,80.18695 101.10473,79.665551 100.09589,79.665551 C 97.799418,79.665551 93.735028,74.407908 92.043446,69.249028 C 90.898459,65.757121 90.951253,65.192095 92.530396,64.037397 C 93.504538,63.325087 94.838458,61.712522 95.494658,60.45392 C 96.150858,59.195317 97.213468,58.278051 97.855998,58.415551 C 98.498538,58.553051 99.924248,57.765551 101.02425,56.665551 C 103.22878,54.461019 105.01075,54.227698 109.59716,55.543065 C 114.80537,57.036757 117.68695,60.555523 118.48938,66.401545 C 119.12616,71.040754 119.41334,71.527684 121.00901,70.673706 C 122.16138,70.05698 122.94911,68.250691 123.19635,65.658082 C 123.5154,62.312562 123.18906,61.348331 121.32416,60.126403 C 118.46172,58.250859 115.13133,50.992358 115.52802,47.493837 C 116.59562,38.078168 118.42578,35.662912 122.73722,37.979853 C 124.27009,38.803604 128.44925,40.994118 132.02425,42.847663 C 138.16411,46.031022 138.72949,46.631839 142.22853,53.691647 C 147.05797,63.435725 147.17823,67.82591 142.75105,72.766697 C 140.97631,74.747328 135.24925,81.411557 130.02425,87.576094 C 120.87329,98.372546 120.50588,98.993436 120.02425,104.47495 L 119.52425,110.16555 L 107.39268,110.44538 C 97.214738,110.68014 95.165908,110.47709 94.669868,109.18444 z M 108.71303,70.665551 C 109.71073,70.665551 110.02233,70.102937 109.61399,69.038803 C 109.27065,68.144091 109.50261,66.794091 110.12944,66.038803 C 111.03313,64.949925 110.84184,64.665551 109.20571,64.665551 C 108.07083,64.665551 106.86417,64.215551 106.52425,63.665551 C 105.61077,62.187511 104.02425,62.451931 104.02425,64.082218 C 104.02425,64.861384 103.63373,65.648884 103.15643,65.832218 C 102.67914,66.015551 101.95593,67.234404 101.5493,68.54078 C 101.0666,70.091555 101.17029,70.693327 101.84802,70.274469 C 102.41894,69.921621 103.18767,70.120946 103.5563,70.717413 C 103.92494,71.31388 104.89284,71.54622 105.70719,71.233725 C 106.52154,70.921229 107.87417,70.665551 108.71303,70.665551 z M 108.77425,52.583622 C 107.21614,51.677735 107.02425,49.702582 107.02425,34.570406 C 107.02425,17.858854 107.0653,17.533596 109.4788,15.120096 C 112.54381,12.055083 118.86092,11.722608 121.36926,14.494292 C 123.142,16.453149 123.50803,23.770762 122.20316,31.165551 C 121.64454,34.331253 121.01317,35.234517 119.17606,35.496205 C 116.40993,35.890228 114.06571,40.78262 113.14468,48.083728 C 112.48609,53.30443 111.59395,54.222996 108.77425,52.583622 z M 76.239454,40.415551 C 74.601942,38.42767 70.696474,23.962099 71.342657,22.278173 C 72.326694,19.713814 80.18099,15.274651 81.860118,16.333818 C 83.422953,17.319629 88.024248,31.506451 88.024248,35.339208 C 88.024248,36.995246 86.933313,38.181457 84.064086,39.645227 C 79.482927,41.98236 77.676596,42.160191 76.239454,40.415551 z M 130.47188,40.110161 C 124.10363,37.213099 123.73933,36.500625 124.52347,28.476612 C 125.60431,17.416425 128.75522,15.361408 135.27425,21.464987 C 138.34653,24.341477 138.70944,27.372189 136.95896,35.534396 C 135.74293,41.204538 134.61947,41.996991 130.47188,40.110161 z "
     id="path2244" />
</svg>
