<?xml version="1.0" encoding="utf-8"?>
<!-- Generator: Adobe Illustrator 22.1.0, SVG Export Plug-In . SVG Version: 6.00 Build 0)  -->
<svg version="1.1" id="Layer_1" xmlns="http://www.w3.org/2000/svg" xmlns:xlink="http://www.w3.org/1999/xlink" x="0px" y="0px"
	 viewBox="0 0 360.5 360" style="enable-background:new 0 0 360.5 360;" xml:space="preserve">
<style type="text/css">
	.st0{fill:none;}
	.st1{font-family:'Phosphate-Inline';}
	.st2{font-size:44.3525px;}
</style>
<path id="path2244" d="M174.7,349.9c-0.2-0.5-0.2-1.7,0-2.7c0.7-3.5-0.1-4.6-8.6-11.4l-8.2-6.6l0.2-7.3l0.2-7.3l5.8-3.2
	c3.2-1.8,6.1-3.2,6.4-3.2c0.3,0,1.1,0.7,1.7,1.7c0.9,1.4,1,1.5,1.1,0.5c0-0.6-0.2-2-0.5-3c-0.3-1-1-4.3-1.6-7.3c-1-5.2-1-5.5,0.2-7
	c1.4-1.8,6.3-3.1,7.9-2.1c1.5,0.9,2.2,8.5,2,21c-0.1,3.3-0.2,3.5-2,4.5c-2.6,1.3-4.5,0.4-5.1-2.3c-0.4-2-0.5-2-1.5,1.8
	c-0.6,2.1-1.5,4.3-2.1,5c-1.3,1.5-0.8,5.3,0.9,5.7c0.6,0.2,1.7,1.4,2.3,2.7c0.7,1.3,1.6,2.7,2.1,3.1c1.3,1,4.8,1.5,7.4,1
	c2.3-0.4,5.1-2.9,5.1-4.4c0-1.3-1-1-1.4,0.4c-0.2,0.7-0.8,1.4-1.4,1.6s-1.6,0.8-2.2,1.3c-0.9,0.7-1.4,0.8-2.6,0.2
	c-0.9-0.4-2-0.7-2.7-0.7c-1.4,0-3.9-3.2-4.9-6.3c-0.7-2.1-0.7-2.5,0.3-3.2c0.6-0.4,1.4-1.4,1.8-2.2c0.4-0.8,1-1.3,1.4-1.2
	s1.3-0.4,1.9-1.1c1.3-1.3,2.4-1.5,5.2-0.7c3.2,0.9,4.9,3,5.4,6.6c0.4,2.8,0.6,3.1,1.5,2.6c0.7-0.4,1.2-1.5,1.3-3
	c0.2-2,0-2.6-1.1-3.4c-1.7-1.1-3.8-5.6-3.5-7.7c0.6-5.7,1.8-7.2,4.4-5.8c0.9,0.5,3.5,1.8,5.6,3c3.7,1.9,4.1,2.3,6.2,6.6
	c2.9,5.9,3,8.6,0.3,11.6c-1.1,1.2-4.6,5.3-7.7,9c-5.6,6.6-5.8,6.9-6.1,10.3l-0.3,3.5l-7.4,0.2C176.2,350.8,175,350.6,174.7,349.9z
	 M183.2,326.4c0.6,0,0.8-0.3,0.5-1c-0.2-0.5-0.1-1.4,0.3-1.8c0.5-0.7,0.4-0.8-0.6-0.8c-0.7,0-1.4-0.3-1.6-0.6
	c-0.6-0.9-1.5-0.7-1.5,0.3c0,0.5-0.2,1-0.5,1.1c-0.3,0.1-0.7,0.9-1,1.6c-0.3,0.9-0.2,1.3,0.2,1.1c0.3-0.2,0.8-0.1,1,0.3
	c0.2,0.4,0.8,0.5,1.3,0.3C181.9,326.6,182.7,326.4,183.2,326.4z M183.2,315.4c-0.9-0.6-1.1-1.8-1.1-11c0-10.2,0-10.4,1.5-11.8
	c1.9-1.9,5.7-2.1,7.2-0.4c1.1,1.2,1.3,5.6,0.5,10.1c-0.3,1.9-0.7,2.5-1.8,2.6c-1.7,0.2-3.1,3.2-3.7,7.7
	C185.5,315.9,184.9,316.4,183.2,315.4z M163.4,308c-1-1.2-3.4-10-3-11c0.6-1.6,5.4-4.3,6.4-3.6c1,0.6,3.7,9.2,3.7,11.6
	c0,1-0.7,1.7-2.4,2.6C165.4,309,164.3,309.1,163.4,308z M196.4,307.9c-3.9-1.8-4.1-2.2-3.6-7.1c0.7-6.7,2.6-8,6.5-4.3
	c1.9,1.7,2.1,3.6,1,8.6C199.6,308.5,198.9,309,196.4,307.9z"/>
<line class="st0" x1="84.9" y1="26.4" x2="84.9" y2="42.3"/>
<text transform="matrix(1 0 0 1 18.9508 336.8949)" class="st1 st2">TOUCH</text>
<text transform="matrix(1 0 0 1 210.4508 336.8949)" class="st1 st2">DRUMS</text>
</svg>
