G04 #@! TF.GenerationSoftware,KiCad,Pcbnew,(5.0.0-3-g5ebb6b6)*
G04 #@! TF.CreationDate,2018-09-21T15:01:55-06:00*
G04 #@! TF.ProjectId,Touch_Drum_Built-in_Audio,546F7563685F4472756D5F4275696C74,rev?*
G04 #@! TF.SameCoordinates,Original*
G04 #@! TF.FileFunction,Copper,L2,Bot,Signal*
G04 #@! TF.FilePolarity,Positive*
%FSLAX46Y46*%
G04 Gerber Fmt 4.6, Leading zero omitted, Abs format (unit mm)*
G04 Created by KiCad (PCBNEW (5.0.0-3-g5ebb6b6)) date Friday, September 21, 2018 at 03:01:55 PM*
%MOMM*%
%LPD*%
G01*
G04 APERTURE LIST*
G04 #@! TA.AperFunction,BGAPad,CuDef*
%ADD10C,12.700000*%
G04 #@! TD*
G04 #@! TA.AperFunction,ComponentPad*
%ADD11C,1.879600*%
G04 #@! TD*
G04 #@! TA.AperFunction,ComponentPad*
%ADD12C,1.600000*%
G04 #@! TD*
G04 #@! TA.AperFunction,ComponentPad*
%ADD13R,1.600000X1.600000*%
G04 #@! TD*
G04 #@! TA.AperFunction,Conductor*
%ADD14C,0.406000*%
G04 #@! TD*
G04 #@! TA.AperFunction,Conductor*
%ADD15C,0.355600*%
G04 #@! TD*
G04 #@! TA.AperFunction,Conductor*
%ADD16C,0.250000*%
G04 #@! TD*
G04 APERTURE END LIST*
D10*
G04 #@! TO.P,TP8,P$1*
G04 #@! TO.N,TOUCH_7*
X180340000Y-123190000D03*
G04 #@! TD*
G04 #@! TO.P,TP2,P$1*
G04 #@! TO.N,TOUCH_1*
X196850000Y-97790000D03*
G04 #@! TD*
D11*
G04 #@! TO.P,J1,6*
G04 #@! TO.N,GND*
X212090000Y-83820000D03*
G04 #@! TO.P,J1,5*
G04 #@! TO.N,OLED_DC*
X212090000Y-81280000D03*
G04 #@! TO.P,J1,4*
G04 #@! TO.N,OLED_CS*
X212090000Y-78740000D03*
G04 #@! TO.P,J1,3*
G04 #@! TO.N,OLED_SCK*
X212090000Y-76200000D03*
G04 #@! TO.P,J1,2*
G04 #@! TO.N,OLED_MOSI*
X212090000Y-73660000D03*
G04 #@! TO.P,J1,1*
G04 #@! TO.N,OLED_RST*
X212090000Y-71120000D03*
G04 #@! TD*
D12*
G04 #@! TO.P,U1,51*
G04 #@! TO.N,N/C*
X181610000Y-78740000D03*
G04 #@! TO.P,U1,50*
X179070000Y-78740000D03*
G04 #@! TO.P,U1,49*
G04 #@! TO.N,TOUCH_7*
X176530000Y-78740000D03*
G04 #@! TO.P,U1,48*
G04 #@! TO.N,TOUCH_6*
X173990000Y-78740000D03*
G04 #@! TO.P,U1,47*
G04 #@! TO.N,N/C*
X171450000Y-78740000D03*
G04 #@! TO.P,U1,46*
G04 #@! TO.N,SDA1*
X168910000Y-78740000D03*
G04 #@! TO.P,U1,45*
G04 #@! TO.N,SCL1*
X166370000Y-78740000D03*
G04 #@! TO.P,U1,44*
G04 #@! TO.N,N/C*
X166370000Y-76200000D03*
G04 #@! TO.P,U1,43*
X168910000Y-76200000D03*
G04 #@! TO.P,U1,42*
X171450000Y-76200000D03*
G04 #@! TO.P,U1,41*
G04 #@! TO.N,TOUCH_5*
X173990000Y-76200000D03*
G04 #@! TO.P,U1,40*
G04 #@! TO.N,N/C*
X176530000Y-76200000D03*
G04 #@! TO.P,U1,39*
X179070000Y-76200000D03*
G04 #@! TO.P,U1,38*
X181610000Y-76200000D03*
D13*
G04 #@! TO.P,U1,1*
G04 #@! TO.N,GND*
X196850000Y-68580000D03*
D12*
G04 #@! TO.P,U1,2*
G04 #@! TO.N,TOUCH_0*
X194310000Y-68580000D03*
G04 #@! TO.P,U1,3*
G04 #@! TO.N,TOUCH_1*
X191770000Y-68580000D03*
G04 #@! TO.P,U1,4*
G04 #@! TO.N,OLED_RST*
X189230000Y-68580000D03*
G04 #@! TO.P,U1,5*
G04 #@! TO.N,N/C*
X186690000Y-68580000D03*
G04 #@! TO.P,U1,6*
X184150000Y-68580000D03*
G04 #@! TO.P,U1,7*
X181610000Y-68580000D03*
G04 #@! TO.P,U1,8*
X179070000Y-68580000D03*
G04 #@! TO.P,U1,9*
G04 #@! TO.N,OLED_MOSI*
X176530000Y-68580000D03*
G04 #@! TO.P,U1,10*
G04 #@! TO.N,N/C*
X173990000Y-68580000D03*
G04 #@! TO.P,U1,11*
G04 #@! TO.N,AUDIO_BCLK*
X171450000Y-68580000D03*
G04 #@! TO.P,U1,12*
G04 #@! TO.N,N/C*
X168910000Y-68580000D03*
G04 #@! TO.P,U1,13*
G04 #@! TO.N,AUDIO_MCLK*
X166370000Y-68580000D03*
G04 #@! TO.P,U1,37*
G04 #@! TO.N,N/C*
X184150000Y-81280000D03*
G04 #@! TO.P,U1,36*
X186690000Y-81280000D03*
G04 #@! TO.P,U1,35*
X189230000Y-81280000D03*
G04 #@! TO.P,U1,34*
X194310000Y-81280000D03*
G04 #@! TO.P,U1,33*
X196850000Y-83820000D03*
G04 #@! TO.P,U1,32*
X194310000Y-83820000D03*
G04 #@! TO.P,U1,31*
X191770000Y-83820000D03*
G04 #@! TO.P,U1,30*
G04 #@! TO.N,AUDIO_LRCLK*
X189230000Y-83820000D03*
G04 #@! TO.P,U1,29*
G04 #@! TO.N,AUDIO_DIN*
X186690000Y-83820000D03*
G04 #@! TO.P,U1,28*
G04 #@! TO.N,OLED_DC*
X184150000Y-83820000D03*
G04 #@! TO.P,U1,27*
G04 #@! TO.N,OLED_CS*
X181610000Y-83820000D03*
G04 #@! TO.P,U1,26*
G04 #@! TO.N,TOUCH_9*
X179070000Y-83820000D03*
G04 #@! TO.P,U1,25*
G04 #@! TO.N,TOUCH_8*
X176530000Y-83820000D03*
G04 #@! TO.P,U1,24*
G04 #@! TO.N,TOUCH_4*
X173990000Y-83820000D03*
G04 #@! TO.P,U1,23*
G04 #@! TO.N,TOUCH_3*
X171450000Y-83820000D03*
G04 #@! TO.P,U1,22*
G04 #@! TO.N,TOUCH_2*
X168910000Y-83820000D03*
G04 #@! TO.P,U1,21*
G04 #@! TO.N,OLED_SCK*
X166370000Y-83820000D03*
G04 #@! TO.P,U1,14*
G04 #@! TO.N,N/C*
X163830000Y-68580000D03*
G04 #@! TO.P,U1,15*
X163830000Y-71120000D03*
G04 #@! TO.P,U1,16*
X163830000Y-73660000D03*
G04 #@! TO.P,U1,20*
G04 #@! TO.N,AUDIO_DOUT*
X163830000Y-83820000D03*
G04 #@! TO.P,U1,19*
G04 #@! TO.N,N/C*
X163830000Y-81280000D03*
G04 #@! TO.P,U1,18*
X163830000Y-78740000D03*
G04 #@! TO.P,U1,17*
X163830000Y-76200000D03*
G04 #@! TD*
G04 #@! TO.P,U2,51*
G04 #@! TO.N,N/C*
X181610000Y-52070000D03*
G04 #@! TO.P,U2,50*
X179070000Y-52070000D03*
G04 #@! TO.P,U2,49*
X176530000Y-52070000D03*
G04 #@! TO.P,U2,48*
X173990000Y-52070000D03*
G04 #@! TO.P,U2,47*
X171450000Y-52070000D03*
G04 #@! TO.P,U2,46*
X168910000Y-52070000D03*
G04 #@! TO.P,U2,45*
X166370000Y-52070000D03*
G04 #@! TO.P,U2,44*
X166370000Y-49530000D03*
G04 #@! TO.P,U2,43*
X168910000Y-49530000D03*
G04 #@! TO.P,U2,42*
X171450000Y-49530000D03*
G04 #@! TO.P,U2,41*
X173990000Y-49530000D03*
G04 #@! TO.P,U2,40*
X176530000Y-49530000D03*
G04 #@! TO.P,U2,39*
X179070000Y-49530000D03*
G04 #@! TO.P,U2,38*
X181610000Y-49530000D03*
D13*
G04 #@! TO.P,U2,1*
G04 #@! TO.N,GND*
X196850000Y-41910000D03*
D12*
G04 #@! TO.P,U2,2*
G04 #@! TO.N,N/C*
X194310000Y-41910000D03*
G04 #@! TO.P,U2,3*
X191770000Y-41910000D03*
G04 #@! TO.P,U2,4*
X189230000Y-41910000D03*
G04 #@! TO.P,U2,5*
X186690000Y-41910000D03*
G04 #@! TO.P,U2,6*
X184150000Y-41910000D03*
G04 #@! TO.P,U2,7*
X181610000Y-41910000D03*
G04 #@! TO.P,U2,8*
X179070000Y-41910000D03*
G04 #@! TO.P,U2,9*
X176530000Y-41910000D03*
G04 #@! TO.P,U2,10*
X173990000Y-41910000D03*
G04 #@! TO.P,U2,11*
G04 #@! TO.N,AUDIO_BCLK*
X171450000Y-41910000D03*
G04 #@! TO.P,U2,12*
G04 #@! TO.N,N/C*
X168910000Y-41910000D03*
G04 #@! TO.P,U2,13*
G04 #@! TO.N,AUDIO_MCLK*
X166370000Y-41910000D03*
G04 #@! TO.P,U2,37*
G04 #@! TO.N,N/C*
X184150000Y-54610000D03*
G04 #@! TO.P,U2,36*
X186690000Y-54610000D03*
G04 #@! TO.P,U2,35*
X189230000Y-54610000D03*
G04 #@! TO.P,U2,34*
X194310000Y-54610000D03*
G04 #@! TO.P,U2,33*
X196850000Y-57150000D03*
G04 #@! TO.P,U2,32*
X194310000Y-57150000D03*
G04 #@! TO.P,U2,31*
X191770000Y-57150000D03*
G04 #@! TO.P,U2,30*
G04 #@! TO.N,AUDIO_LRCLK*
X189230000Y-57150000D03*
G04 #@! TO.P,U2,29*
G04 #@! TO.N,AUDIO_DIN*
X186690000Y-57150000D03*
G04 #@! TO.P,U2,28*
G04 #@! TO.N,N/C*
X184150000Y-57150000D03*
G04 #@! TO.P,U2,27*
X181610000Y-57150000D03*
G04 #@! TO.P,U2,26*
G04 #@! TO.N,SCL1*
X179070000Y-57150000D03*
G04 #@! TO.P,U2,25*
G04 #@! TO.N,SDA1*
X176530000Y-57150000D03*
G04 #@! TO.P,U2,24*
G04 #@! TO.N,N/C*
X173990000Y-57150000D03*
G04 #@! TO.P,U2,23*
X171450000Y-57150000D03*
G04 #@! TO.P,U2,22*
X168910000Y-57150000D03*
G04 #@! TO.P,U2,21*
X166370000Y-57150000D03*
G04 #@! TO.P,U2,14*
X163830000Y-41910000D03*
G04 #@! TO.P,U2,15*
X163830000Y-44450000D03*
G04 #@! TO.P,U2,16*
X163830000Y-46990000D03*
G04 #@! TO.P,U2,20*
G04 #@! TO.N,AUDIO_DOUT*
X163830000Y-57150000D03*
G04 #@! TO.P,U2,19*
G04 #@! TO.N,N/C*
X163830000Y-54610000D03*
G04 #@! TO.P,U2,18*
X163830000Y-52070000D03*
G04 #@! TO.P,U2,17*
X163830000Y-49530000D03*
G04 #@! TD*
D10*
G04 #@! TO.P,TP1,P$1*
G04 #@! TO.N,TOUCH_0*
X208280000Y-113030000D03*
G04 #@! TD*
G04 #@! TO.P,TP3,P$1*
G04 #@! TO.N,TOUCH_2*
X163830000Y-97790000D03*
G04 #@! TD*
G04 #@! TO.P,TP4,P$1*
G04 #@! TO.N,TOUCH_3*
X165100000Y-129540000D03*
G04 #@! TD*
G04 #@! TO.P,TP5,P$1*
G04 #@! TO.N,TOUCH_4*
X180340000Y-101600000D03*
G04 #@! TD*
G04 #@! TO.P,TP6,P$1*
G04 #@! TO.N,TOUCH_5*
X152400000Y-113030000D03*
G04 #@! TD*
G04 #@! TO.P,TP7,P$1*
G04 #@! TO.N,TOUCH_6*
X167640000Y-113030000D03*
G04 #@! TD*
G04 #@! TO.P,TP9,P$1*
G04 #@! TO.N,TOUCH_8*
X196850000Y-128270000D03*
G04 #@! TD*
G04 #@! TO.P,TP10,P$1*
G04 #@! TO.N,TOUCH_9*
X193040000Y-113030000D03*
G04 #@! TD*
D14*
G04 #@! TO.N,OLED_RST*
X189230000Y-68580000D02*
X191770000Y-66040000D01*
X191770000Y-66040000D02*
X201930000Y-66040000D01*
X207010000Y-71120000D02*
X212090000Y-71120000D01*
X201930000Y-66040000D02*
X207010000Y-71120000D01*
G04 #@! TO.N,OLED_MOSI*
X177329999Y-67780001D02*
X176530000Y-68580000D01*
X185420000Y-56261000D02*
X185420000Y-59690000D01*
X185801000Y-55880000D02*
X185420000Y-56261000D01*
X213995000Y-71755000D02*
X213995000Y-69977000D01*
X189992000Y-55880000D02*
X185801000Y-55880000D01*
X196078560Y-63373000D02*
X190500000Y-57794440D01*
X190500000Y-56388000D02*
X189992000Y-55880000D01*
X206375000Y-68453000D02*
X201295000Y-63373000D01*
X190500000Y-57794440D02*
X190500000Y-56388000D01*
X185420000Y-59690000D02*
X177329999Y-67780001D01*
X212471000Y-68453000D02*
X206375000Y-68453000D01*
X213995000Y-69977000D02*
X212471000Y-68453000D01*
X201295000Y-63373000D02*
X196078560Y-63373000D01*
X212090000Y-73660000D02*
X213995000Y-71755000D01*
G04 #@! TO.N,TOUCH_0*
X208280000Y-97790000D02*
X208280000Y-113030000D01*
X200660000Y-90170000D02*
X208280000Y-97790000D01*
X200660000Y-74930000D02*
X200660000Y-90170000D01*
X195580000Y-71120000D02*
X196850000Y-71120000D01*
X194310000Y-69850000D02*
X195580000Y-71120000D01*
X196850000Y-71120000D02*
X200660000Y-74930000D01*
X194310000Y-68580000D02*
X194310000Y-69850000D01*
G04 #@! TO.N,TOUCH_1*
X196850000Y-92710000D02*
X196850000Y-97790000D01*
X199390000Y-90170000D02*
X196850000Y-92710000D01*
X193040000Y-72390000D02*
X195580000Y-72390000D01*
X191770000Y-71120000D02*
X193040000Y-72390000D01*
X199390000Y-76200000D02*
X199390000Y-90170000D01*
X195580000Y-72390000D02*
X199390000Y-76200000D01*
X191770000Y-68580000D02*
X191770000Y-71120000D01*
G04 #@! TO.N,TOUCH_2*
X163830000Y-97790000D02*
X163830000Y-96520000D01*
X168910000Y-91440000D02*
X168910000Y-83820000D01*
X163830000Y-96520000D02*
X168910000Y-91440000D01*
G04 #@! TO.N,TOUCH_3*
X175895000Y-116332000D02*
X165100000Y-127127000D01*
X175895000Y-110490000D02*
X175895000Y-116332000D01*
X165100000Y-127127000D02*
X165100000Y-129540000D01*
X171450000Y-106045000D02*
X175895000Y-110490000D01*
X171450000Y-83820000D02*
X171450000Y-106045000D01*
G04 #@! TO.N,TOUCH_4*
X173990000Y-83820000D02*
X173990000Y-87630000D01*
X173990000Y-87630000D02*
X180340000Y-93980000D01*
X180340000Y-93980000D02*
X180340000Y-101600000D01*
G04 #@! TO.N,TOUCH_5*
X170688000Y-77470000D02*
X172720000Y-77470000D01*
X170180000Y-77978000D02*
X170688000Y-77470000D01*
X169545000Y-80010000D02*
X170180000Y-79375000D01*
X170180000Y-79375000D02*
X170180000Y-77978000D01*
X152400000Y-113030000D02*
X152400000Y-96520000D01*
X165100000Y-83309558D02*
X168399558Y-80010000D01*
X168399558Y-80010000D02*
X169545000Y-80010000D01*
X162560000Y-87630000D02*
X165100000Y-85090000D01*
X165100000Y-85090000D02*
X165100000Y-83309558D01*
X172720000Y-77470000D02*
X173990000Y-76200000D01*
X161290000Y-87630000D02*
X162560000Y-87630000D01*
X152400000Y-96520000D02*
X161290000Y-87630000D01*
G04 #@! TO.N,TOUCH_6*
X172720000Y-81280000D02*
X173990000Y-80010000D01*
X167640000Y-83309558D02*
X169669558Y-81280000D01*
X167640000Y-86360000D02*
X167640000Y-83309558D01*
X162179000Y-88900000D02*
X165100000Y-88900000D01*
X169669558Y-81280000D02*
X172720000Y-81280000D01*
X155194000Y-95885000D02*
X162179000Y-88900000D01*
X165100000Y-88900000D02*
X167640000Y-86360000D01*
X155194000Y-100584000D02*
X155194000Y-95885000D01*
X173990000Y-80010000D02*
X173990000Y-78740000D01*
X167640000Y-113030000D02*
X155194000Y-100584000D01*
G04 #@! TO.N,TOUCH_7*
X172720000Y-105410000D02*
X180340000Y-113030000D01*
X176530000Y-78740000D02*
X176530000Y-80010000D01*
X172720000Y-82550000D02*
X172720000Y-105410000D01*
X173990000Y-81280000D02*
X172720000Y-82550000D01*
X175260000Y-81280000D02*
X173990000Y-81280000D01*
X176530000Y-80010000D02*
X175260000Y-81280000D01*
X180340000Y-113030000D02*
X180340000Y-123190000D01*
G04 #@! TO.N,TOUCH_8*
X184150000Y-115570000D02*
X196850000Y-128270000D01*
X176530000Y-83820000D02*
X176530000Y-86360000D01*
X187960000Y-106680000D02*
X184150000Y-110490000D01*
X187960000Y-97790000D02*
X187960000Y-106680000D01*
X184150000Y-110490000D02*
X184150000Y-115570000D01*
X176530000Y-86360000D02*
X187960000Y-97790000D01*
G04 #@! TO.N,TOUCH_9*
X179070000Y-85090000D02*
X179070000Y-83820000D01*
X189230000Y-95250000D02*
X179070000Y-85090000D01*
X189230000Y-105410000D02*
X189230000Y-95250000D01*
X193040000Y-109220000D02*
X189230000Y-105410000D01*
X193040000Y-113030000D02*
X193040000Y-109220000D01*
G04 #@! TO.N,AUDIO_DOUT*
X163830000Y-83820000D02*
X162560000Y-83820000D01*
X162560000Y-83820000D02*
X158750000Y-80010000D01*
X158750000Y-62230000D02*
X163830000Y-57150000D01*
X158750000Y-80010000D02*
X158750000Y-62230000D01*
G04 #@! TO.N,AUDIO_DIN*
X185890001Y-83020001D02*
X186690000Y-83820000D01*
X185420000Y-82550000D02*
X185890001Y-83020001D01*
X185420000Y-66040000D02*
X185420000Y-82550000D01*
X186690000Y-64770000D02*
X185420000Y-66040000D01*
X186690000Y-57150000D02*
X186690000Y-64770000D01*
G04 #@! TO.N,AUDIO_LRCLK*
X189230000Y-57150000D02*
X189230000Y-66040000D01*
X189230000Y-66040000D02*
X187960000Y-67310000D01*
X187960000Y-82550000D02*
X189230000Y-83820000D01*
X187960000Y-67310000D02*
X187960000Y-82550000D01*
G04 #@! TO.N,AUDIO_MCLK*
X166370000Y-68580000D02*
X166370000Y-60960000D01*
X166370000Y-60960000D02*
X167640000Y-59690000D01*
X167640000Y-43180000D02*
X166370000Y-41910000D01*
X167640000Y-59690000D02*
X167640000Y-43180000D01*
G04 #@! TO.N,AUDIO_BCLK*
X171450000Y-68580000D02*
X170180000Y-67310000D01*
X170180000Y-43180000D02*
X171450000Y-41910000D01*
X170180000Y-67310000D02*
X170180000Y-43180000D01*
G04 #@! TO.N,SCL1*
X166370000Y-78740000D02*
X167706999Y-77403001D01*
D15*
X167706999Y-77403001D02*
X167640000Y-77336002D01*
D16*
X167706999Y-74609001D02*
X167706999Y-77403001D01*
X168212557Y-74103443D02*
X167706999Y-74609001D01*
D14*
X178270001Y-56350001D02*
X179070000Y-57150000D01*
X172720000Y-69596000D02*
X172720000Y-56261000D01*
X177419000Y-55499000D02*
X178270001Y-56350001D01*
X172720000Y-56261000D02*
X173482000Y-55499000D01*
X173482000Y-55499000D02*
X177419000Y-55499000D01*
X168212557Y-74103443D02*
X172720000Y-69596000D01*
G04 #@! TO.N,SDA1*
X175730001Y-57949999D02*
X176530000Y-57150000D01*
X175260000Y-58420000D02*
X175730001Y-57949999D01*
X168910000Y-78232000D02*
X170180000Y-76962000D01*
X175260000Y-69342000D02*
X175260000Y-58420000D01*
X170180000Y-74422000D02*
X175260000Y-69342000D01*
X170180000Y-76962000D02*
X170180000Y-74422000D01*
X168910000Y-78740000D02*
X168910000Y-78232000D01*
G04 #@! TD*
M02*
