G04 #@! TF.GenerationSoftware,KiCad,Pcbnew,(5.0.0-3-g5ebb6b6)*
G04 #@! TF.CreationDate,2018-09-21T14:43:47-06:00*
G04 #@! TF.ProjectId,Touch_Drum_Built-in_Audio,546F7563685F4472756D5F4275696C74,rev?*
G04 #@! TF.SameCoordinates,Original*
G04 #@! TF.FileFunction,Copper,L1,Top,Signal*
G04 #@! TF.FilePolarity,Positive*
%FSLAX46Y46*%
G04 Gerber Fmt 4.6, Leading zero omitted, Abs format (unit mm)*
G04 Created by KiCad (PCBNEW (5.0.0-3-g5ebb6b6)) date Friday, September 21, 2018 at 02:43:47 PM*
%MOMM*%
%LPD*%
G01*
G04 APERTURE LIST*
G04 #@! TA.AperFunction,ComponentPad*
%ADD10C,1.879600*%
G04 #@! TD*
G04 #@! TA.AperFunction,ComponentPad*
%ADD11C,1.600000*%
G04 #@! TD*
G04 #@! TA.AperFunction,ComponentPad*
%ADD12R,1.600000X1.600000*%
G04 #@! TD*
G04 APERTURE END LIST*
D10*
G04 #@! TO.P,J1,6*
G04 #@! TO.N,GND*
X212090000Y-83820000D03*
G04 #@! TO.P,J1,5*
G04 #@! TO.N,OLED_DC*
X212090000Y-81280000D03*
G04 #@! TO.P,J1,4*
G04 #@! TO.N,OLED_CS*
X212090000Y-78740000D03*
G04 #@! TO.P,J1,3*
G04 #@! TO.N,OLED_SCK*
X212090000Y-76200000D03*
G04 #@! TO.P,J1,2*
G04 #@! TO.N,OLED_MOSI*
X212090000Y-73660000D03*
G04 #@! TO.P,J1,1*
G04 #@! TO.N,OLED_RST*
X212090000Y-71120000D03*
G04 #@! TD*
D11*
G04 #@! TO.P,U1,51*
G04 #@! TO.N,N/C*
X181610000Y-78740000D03*
G04 #@! TO.P,U1,50*
X179070000Y-78740000D03*
G04 #@! TO.P,U1,49*
G04 #@! TO.N,TOUCH_7*
X176530000Y-78740000D03*
G04 #@! TO.P,U1,48*
G04 #@! TO.N,TOUCH_6*
X173990000Y-78740000D03*
G04 #@! TO.P,U1,47*
G04 #@! TO.N,N/C*
X171450000Y-78740000D03*
G04 #@! TO.P,U1,46*
G04 #@! TO.N,SDA1*
X168910000Y-78740000D03*
G04 #@! TO.P,U1,45*
G04 #@! TO.N,SCL1*
X166370000Y-78740000D03*
G04 #@! TO.P,U1,44*
G04 #@! TO.N,N/C*
X166370000Y-76200000D03*
G04 #@! TO.P,U1,43*
X168910000Y-76200000D03*
G04 #@! TO.P,U1,42*
X171450000Y-76200000D03*
G04 #@! TO.P,U1,41*
G04 #@! TO.N,TOUCH_5*
X173990000Y-76200000D03*
G04 #@! TO.P,U1,40*
G04 #@! TO.N,N/C*
X176530000Y-76200000D03*
G04 #@! TO.P,U1,39*
X179070000Y-76200000D03*
G04 #@! TO.P,U1,38*
X181610000Y-76200000D03*
D12*
G04 #@! TO.P,U1,1*
G04 #@! TO.N,GND*
X196850000Y-68580000D03*
D11*
G04 #@! TO.P,U1,2*
G04 #@! TO.N,TOUCH_0*
X194310000Y-68580000D03*
G04 #@! TO.P,U1,3*
G04 #@! TO.N,TOUCH_1*
X191770000Y-68580000D03*
G04 #@! TO.P,U1,4*
G04 #@! TO.N,OLED_RST*
X189230000Y-68580000D03*
G04 #@! TO.P,U1,5*
G04 #@! TO.N,N/C*
X186690000Y-68580000D03*
G04 #@! TO.P,U1,6*
X184150000Y-68580000D03*
G04 #@! TO.P,U1,7*
X181610000Y-68580000D03*
G04 #@! TO.P,U1,8*
X179070000Y-68580000D03*
G04 #@! TO.P,U1,9*
G04 #@! TO.N,OLED_MOSI*
X176530000Y-68580000D03*
G04 #@! TO.P,U1,10*
G04 #@! TO.N,N/C*
X173990000Y-68580000D03*
G04 #@! TO.P,U1,11*
G04 #@! TO.N,AUDIO_BCLK*
X171450000Y-68580000D03*
G04 #@! TO.P,U1,12*
G04 #@! TO.N,N/C*
X168910000Y-68580000D03*
G04 #@! TO.P,U1,13*
G04 #@! TO.N,AUDIO_MCLK*
X166370000Y-68580000D03*
G04 #@! TO.P,U1,37*
G04 #@! TO.N,N/C*
X184150000Y-81280000D03*
G04 #@! TO.P,U1,36*
X186690000Y-81280000D03*
G04 #@! TO.P,U1,35*
X189230000Y-81280000D03*
G04 #@! TO.P,U1,34*
X194310000Y-81280000D03*
G04 #@! TO.P,U1,33*
X196850000Y-83820000D03*
G04 #@! TO.P,U1,32*
X194310000Y-83820000D03*
G04 #@! TO.P,U1,31*
X191770000Y-83820000D03*
G04 #@! TO.P,U1,30*
G04 #@! TO.N,AUDIO_LRCLK*
X189230000Y-83820000D03*
G04 #@! TO.P,U1,29*
G04 #@! TO.N,AUDIO_DIN*
X186690000Y-83820000D03*
G04 #@! TO.P,U1,28*
G04 #@! TO.N,OLED_DC*
X184150000Y-83820000D03*
G04 #@! TO.P,U1,27*
G04 #@! TO.N,OLED_CS*
X181610000Y-83820000D03*
G04 #@! TO.P,U1,26*
G04 #@! TO.N,TOUCH_9*
X179070000Y-83820000D03*
G04 #@! TO.P,U1,25*
G04 #@! TO.N,TOUCH_8*
X176530000Y-83820000D03*
G04 #@! TO.P,U1,24*
G04 #@! TO.N,TOUCH_4*
X173990000Y-83820000D03*
G04 #@! TO.P,U1,23*
G04 #@! TO.N,TOUCH_3*
X171450000Y-83820000D03*
G04 #@! TO.P,U1,22*
G04 #@! TO.N,TOUCH_2*
X168910000Y-83820000D03*
G04 #@! TO.P,U1,21*
G04 #@! TO.N,OLED_SCK*
X166370000Y-83820000D03*
G04 #@! TO.P,U1,14*
G04 #@! TO.N,N/C*
X163830000Y-68580000D03*
G04 #@! TO.P,U1,15*
X163830000Y-71120000D03*
G04 #@! TO.P,U1,16*
X163830000Y-73660000D03*
G04 #@! TO.P,U1,20*
G04 #@! TO.N,AUDIO_DOUT*
X163830000Y-83820000D03*
G04 #@! TO.P,U1,19*
G04 #@! TO.N,N/C*
X163830000Y-81280000D03*
G04 #@! TO.P,U1,18*
X163830000Y-78740000D03*
G04 #@! TO.P,U1,17*
X163830000Y-76200000D03*
G04 #@! TD*
G04 #@! TO.P,U2,51*
G04 #@! TO.N,N/C*
X181610000Y-52070000D03*
G04 #@! TO.P,U2,50*
X179070000Y-52070000D03*
G04 #@! TO.P,U2,49*
X176530000Y-52070000D03*
G04 #@! TO.P,U2,48*
X173990000Y-52070000D03*
G04 #@! TO.P,U2,47*
X171450000Y-52070000D03*
G04 #@! TO.P,U2,46*
X168910000Y-52070000D03*
G04 #@! TO.P,U2,45*
X166370000Y-52070000D03*
G04 #@! TO.P,U2,44*
X166370000Y-49530000D03*
G04 #@! TO.P,U2,43*
X168910000Y-49530000D03*
G04 #@! TO.P,U2,42*
X171450000Y-49530000D03*
G04 #@! TO.P,U2,41*
X173990000Y-49530000D03*
G04 #@! TO.P,U2,40*
X176530000Y-49530000D03*
G04 #@! TO.P,U2,39*
X179070000Y-49530000D03*
G04 #@! TO.P,U2,38*
X181610000Y-49530000D03*
D12*
G04 #@! TO.P,U2,1*
G04 #@! TO.N,GND*
X196850000Y-41910000D03*
D11*
G04 #@! TO.P,U2,2*
G04 #@! TO.N,N/C*
X194310000Y-41910000D03*
G04 #@! TO.P,U2,3*
X191770000Y-41910000D03*
G04 #@! TO.P,U2,4*
X189230000Y-41910000D03*
G04 #@! TO.P,U2,5*
X186690000Y-41910000D03*
G04 #@! TO.P,U2,6*
X184150000Y-41910000D03*
G04 #@! TO.P,U2,7*
X181610000Y-41910000D03*
G04 #@! TO.P,U2,8*
X179070000Y-41910000D03*
G04 #@! TO.P,U2,9*
X176530000Y-41910000D03*
G04 #@! TO.P,U2,10*
X173990000Y-41910000D03*
G04 #@! TO.P,U2,11*
G04 #@! TO.N,AUDIO_BCLK*
X171450000Y-41910000D03*
G04 #@! TO.P,U2,12*
G04 #@! TO.N,N/C*
X168910000Y-41910000D03*
G04 #@! TO.P,U2,13*
G04 #@! TO.N,AUDIO_MCLK*
X166370000Y-41910000D03*
G04 #@! TO.P,U2,37*
G04 #@! TO.N,N/C*
X184150000Y-54610000D03*
G04 #@! TO.P,U2,36*
X186690000Y-54610000D03*
G04 #@! TO.P,U2,35*
X189230000Y-54610000D03*
G04 #@! TO.P,U2,34*
X194310000Y-54610000D03*
G04 #@! TO.P,U2,33*
X196850000Y-57150000D03*
G04 #@! TO.P,U2,32*
X194310000Y-57150000D03*
G04 #@! TO.P,U2,31*
X191770000Y-57150000D03*
G04 #@! TO.P,U2,30*
G04 #@! TO.N,AUDIO_LRCLK*
X189230000Y-57150000D03*
G04 #@! TO.P,U2,29*
G04 #@! TO.N,AUDIO_DIN*
X186690000Y-57150000D03*
G04 #@! TO.P,U2,28*
G04 #@! TO.N,N/C*
X184150000Y-57150000D03*
G04 #@! TO.P,U2,27*
X181610000Y-57150000D03*
G04 #@! TO.P,U2,26*
G04 #@! TO.N,SCL1*
X179070000Y-57150000D03*
G04 #@! TO.P,U2,25*
G04 #@! TO.N,SDA1*
X176530000Y-57150000D03*
G04 #@! TO.P,U2,24*
G04 #@! TO.N,N/C*
X173990000Y-57150000D03*
G04 #@! TO.P,U2,23*
X171450000Y-57150000D03*
G04 #@! TO.P,U2,22*
X168910000Y-57150000D03*
G04 #@! TO.P,U2,21*
X166370000Y-57150000D03*
G04 #@! TO.P,U2,14*
X163830000Y-41910000D03*
G04 #@! TO.P,U2,15*
X163830000Y-44450000D03*
G04 #@! TO.P,U2,16*
X163830000Y-46990000D03*
G04 #@! TO.P,U2,20*
G04 #@! TO.N,AUDIO_DOUT*
X163830000Y-57150000D03*
G04 #@! TO.P,U2,19*
G04 #@! TO.N,N/C*
X163830000Y-54610000D03*
G04 #@! TO.P,U2,18*
X163830000Y-52070000D03*
G04 #@! TO.P,U2,17*
X163830000Y-49530000D03*
G04 #@! TD*
M02*
