M48
;DRILL file {KiCad (5.0.0-3-g5ebb6b6)} date Friday, September 21, 2018 at 03:01:57 PM
;FORMAT={-:-/ absolute / metric / decimal}
FMAT,2
METRIC,TZ
T1C1.016
T2C1.100
T3C3.302
T4C6.050
%
G90
G05
M71
T1
X212.09Y-71.12
X212.09Y-73.66
X212.09Y-76.2
X212.09Y-78.74
X212.09Y-81.28
X212.09Y-83.82
T2
X163.83Y-68.58
X163.83Y-71.12
X163.83Y-73.66
X163.83Y-76.2
X163.83Y-78.74
X163.83Y-81.28
X163.83Y-83.82
X166.37Y-68.58
X166.37Y-76.2
X166.37Y-78.74
X166.37Y-83.82
X168.91Y-68.58
X168.91Y-76.2
X168.91Y-78.74
X168.91Y-83.82
X171.45Y-68.58
X171.45Y-76.2
X171.45Y-78.74
X171.45Y-83.82
X173.99Y-68.58
X173.99Y-76.2
X173.99Y-78.74
X173.99Y-83.82
X176.53Y-68.58
X176.53Y-76.2
X176.53Y-78.74
X176.53Y-83.82
X179.07Y-68.58
X179.07Y-76.2
X179.07Y-78.74
X179.07Y-83.82
X181.61Y-68.58
X181.61Y-76.2
X181.61Y-78.74
X181.61Y-83.82
X184.15Y-68.58
X184.15Y-81.28
X184.15Y-83.82
X186.69Y-68.58
X186.69Y-81.28
X186.69Y-83.82
X189.23Y-68.58
X189.23Y-81.28
X189.23Y-83.82
X191.77Y-68.58
X191.77Y-83.82
X194.31Y-68.58
X194.31Y-81.28
X194.31Y-83.82
X196.85Y-68.58
X196.85Y-83.82
X163.83Y-41.91
X163.83Y-44.45
X163.83Y-46.99
X163.83Y-49.53
X163.83Y-52.07
X163.83Y-54.61
X163.83Y-57.15
X166.37Y-41.91
X166.37Y-49.53
X166.37Y-52.07
X166.37Y-57.15
X168.91Y-41.91
X168.91Y-49.53
X168.91Y-52.07
X168.91Y-57.15
X171.45Y-41.91
X171.45Y-49.53
X171.45Y-52.07
X171.45Y-57.15
X173.99Y-41.91
X173.99Y-49.53
X173.99Y-52.07
X173.99Y-57.15
X176.53Y-41.91
X176.53Y-49.53
X176.53Y-52.07
X176.53Y-57.15
X179.07Y-41.91
X179.07Y-49.53
X179.07Y-52.07
X179.07Y-57.15
X181.61Y-41.91
X181.61Y-49.53
X181.61Y-52.07
X181.61Y-57.15
X184.15Y-41.91
X184.15Y-54.61
X184.15Y-57.15
X186.69Y-41.91
X186.69Y-54.61
X186.69Y-57.15
X189.23Y-41.91
X189.23Y-54.61
X189.23Y-57.15
X191.77Y-41.91
X191.77Y-57.15
X194.31Y-41.91
X194.31Y-54.61
X194.31Y-57.15
X196.85Y-41.91
X196.85Y-57.15
T3
X212.09Y-43.18
X128.27Y-43.18
X128.27Y-133.35
X212.09Y-133.35
T4
X139.7Y-57.15
X139.7Y-87.63
T0
M30
